<svg class="ontario-footer__ontario-logo" width="181" height="46" viewBox="0 0 181 46" fill="none"
    xmlns="http://www.w3.org/2000/svg" tabindex="0">
    <path fill-rule="evenodd" clip-rule="evenodd"
        d="M0.200195 25.7197C0.200195 18.2492 4.77519 13.5112 12.7002 13.5112C20.6252 13.5112 25.1752 18.1991 25.1752 25.6946C25.1752 33.1651 20.6002 37.903 12.6752 37.903C4.75019 37.903 0.200195 33.1901 0.200195 25.7197ZM12.6996 33.7918C15.0246 33.7918 16.9746 33.0397 18.3496 31.6108C19.7246 30.1819 20.4246 28.1513 20.4246 25.6695C20.4246 23.2379 19.7246 21.1823 18.3496 19.7533C16.9746 18.2994 15.0246 17.5473 12.6746 17.5473C10.3497 17.5473 8.39966 18.2994 7.02466 19.7283C5.67466 21.1572 4.94966 23.2128 4.94966 25.6445C4.94966 28.1012 5.64966 30.1568 7.02466 31.5857C8.39966 33.0397 10.3497 33.7918 12.6996 33.7918Z"
        fill="white" />
    <path
        d="M41.3508 37.4773V27.0237C41.3508 24.3162 39.9508 22.6868 37.6008 22.6868C35.2258 22.6868 33.7508 24.3413 33.7508 27.0237V37.4773H29.3008V19.4279H33.7508V21.9849C35.0758 20.4807 36.7758 19.0769 39.6758 19.0769C43.5258 19.0769 45.7758 21.6339 45.7758 25.7702V37.4522H41.3508V37.4773Z"
        fill="white" />
    <path
        d="M60.326 36.8505C59.476 37.377 58.251 37.7781 56.526 37.7781C53.401 37.7781 51.276 36.5246 51.276 32.3632V22.9625H49.126V19.4278H51.276V14.8152H55.726V19.4278H60.126V22.9625H55.726V31.5109C55.726 33.0652 56.551 33.9175 58.051 33.9175C58.876 33.9175 59.851 33.7169 60.326 33.391V36.8505Z"
        fill="white" />
    <path fill-rule="evenodd" clip-rule="evenodd"
        d="M64.5508 20.5552C66.4258 19.753 68.3508 19.2266 71.2508 19.2266C76.8258 19.2266 79.2758 22.1095 79.2758 27.048V37.5267H75.1258V35.8471C73.7258 36.9501 71.8008 37.8526 69.0758 37.8526C65.7758 37.8526 63.0508 35.9724 63.0508 32.4127V32.3375C63.0508 28.2763 66.0008 26.3962 70.1758 26.3962C72.1758 26.3962 73.8508 26.6469 75.2508 27.048V26.697C75.2508 24.14 73.5508 22.686 70.6008 22.686C68.5758 22.686 66.8508 23.1623 65.5508 23.6386L64.5508 20.5552ZM70.65 34.8944C73.275 34.8944 75.175 33.3652 75.175 31.2343L75.15 29.9057L74.75 29.7553C73.825 29.3792 72.575 29.1536 71.35 29.1536C68.85 29.1536 67.3 30.3068 67.3 32.1368V32.212C67.3 33.8164 68.65 34.8944 70.65 34.8944Z"
        fill="white" />
    <path
        d="M83.8496 37.4767V19.4273H88.1996V23.0623C89.3496 20.5805 90.8496 18.951 94.2246 19.0763V23.0121H94.1246C92.4996 23.0372 91.1746 23.4884 90.1746 24.3658C88.8496 25.5441 88.1996 27.4242 88.1996 29.9812V37.4517H83.8496V37.4767H83.8496Z"
        fill="white" />
    <path fill-rule="evenodd" clip-rule="evenodd"
        d="M102.625 16.7704V12.8848H97.9004V16.7704H102.625ZM98.0496 19.4287H102.5V37.4781H98.0496V19.4287Z"
        fill="white" />
    <path fill-rule="evenodd" clip-rule="evenodd"
        d="M106.524 28.5281C106.524 22.7372 110.174 19.1023 116.274 19.1023C122.374 19.1023 125.999 22.6871 126.024 28.503C126.024 34.2688 122.374 37.9038 116.249 37.9038C110.149 37.9038 106.524 34.2939 106.524 28.5281ZM116.275 34.1692C117.9 34.1692 119.275 33.6428 120.2 32.64C121.125 31.6624 121.625 30.2335 121.625 28.4787C121.625 26.7489 121.125 25.32 120.175 24.3173C119.225 23.2894 117.875 22.763 116.25 22.763C114.625 22.763 113.25 23.2894 112.325 24.2922C111.4 25.2949 110.9 26.7238 110.9 28.4536C110.9 30.1833 111.4 31.6122 112.35 32.615C113.3 33.6428 114.65 34.1692 116.275 34.1692Z"
        fill="white" />
    <path
        d="M157.7 0.25C142.4 0.25 135.2 7.46977 135.2 22.8118C135.2 38.1538 142.4 45.3736 157.7 45.3736C173 45.3736 180.2 38.1538 180.2 22.8118C180.2 7.46977 173 0.25 157.7 0.25Z"
        fill="white" />
    <path fill-rule="evenodd" clip-rule="evenodd"
        d="M157.7 13.1852C162.325 10.0767 168.05 9.6505 173.05 12.0571L173.225 12.1824L173.2 12.3579C173.025 14.6893 172.325 16.9705 171.175 18.976C169.8 21.3325 167.85 23.2878 165.5 24.6415H165.475C165.357 24.7009 165.238 24.7642 165.118 24.8283C164.934 24.9266 164.747 25.0268 164.55 25.1179C164.925 30.6831 162.425 35.8723 157.85 39.0059L157.7 39.1061L157.55 39.0059C155.625 37.7023 154 35.9475 152.85 33.942C151.5 31.5605 150.8 28.8781 150.8 26.1707V26.1457C150.8 25.8198 150.825 25.4688 150.85 25.1179C145.875 22.6611 142.65 17.8981 142.225 12.3579L142.2 12.1824L142.35 12.1072C144.45 11.0794 146.775 10.553 149.075 10.553C151.8 10.553 154.45 11.28 156.8 12.6337H156.825C157.125 12.8092 157.4 12.9846 157.7 13.1852ZM163.5 21.5587C165.225 20.556 166.7 19.1522 167.775 17.3221C168.275 16.4447 168.65 15.5423 168.925 14.6899C166.1 14.0382 163.25 14.4643 160.675 15.8682C160.9 16.169 161.05 16.4949 161.2 16.921C161.35 17.3472 161.375 17.9238 161.25 18.4001C161.2 18.6006 161.1 18.8012 161 19.0017C160.5 19.8541 159.45 20.4808 158.15 20.8819C158.65 19.3276 157.85 17.9489 156.85 17.0715C156.35 16.6202 155.775 16.2442 155.2 15.8932C153.475 14.9156 151.5 14.339 149.4 14.3139C148.4 14.3139 147.425 14.4392 146.5 14.6649C147.375 17.4475 149.15 19.7037 151.65 21.2329C151.8 20.8819 152 20.6061 152.3 20.2552C152.6 19.9042 153.075 19.6034 153.55 19.478C153.775 19.4279 153.975 19.4028 154.2 19.4028C155.175 19.4028 156.25 20.0045 157.25 20.932C155.675 21.283 154.875 22.6618 154.625 23.9653C154.5 24.6422 154.425 25.319 154.425 25.9959C154.425 27.9763 154.9 29.9818 155.95 31.8118C156.425 32.6642 157.05 33.4663 157.7 34.1432C159.675 31.9873 160.725 29.305 160.8 26.3719C160.4 26.4221 160.075 26.3719 159.625 26.2967C159.175 26.2215 158.675 25.9207 158.325 25.5948C158.175 25.4444 158.025 25.2689 157.925 25.0684C157.425 24.1909 157.425 22.9626 157.725 21.6339C158.825 22.8372 160.4 22.8623 161.65 22.4111C162.3 22.1855 162.9 21.9097 163.5 21.5587Z"
        fill="black" />
</svg>
