<svg xmlns="http://www.w3.org/2000/svg" xmlns:xlink="http://www.w3.org/1999/xlink" style="display:none" aria-hidden="true"><symbol id="ontario-icon-accessibility"><path d="m18.4 11.2-4.1.2 2.3-2.6c.2-.3.3-.8.2-1.3-.1-.3-.2-.6-.5-.8l-5.4-3.2c-.4-.3-1-.2-1.4.1L6.8 6.1c-.5.5-.6 1.2-.1 1.7.4.5 1.2.5 1.7.1l2-1.8 1.9 1.1-4.2 4.3c-.1.1-.1.2-.2.2-.5.2-1 .4-1.4.7L8 13.9c.5-.2 1-.4 1.5-.4 1.9 0 3.5 1.6 3.5 3.5 0 .6-.1 1.1-.4 1.5l1.5 1.5a5.29 5.29 0 0 0 .9-3c0-1.2-.4-2.4-1.1-3.3l3.3-.3-.2 4.8c-.1.7.4 1.2 1.1 1.3h.1c.6 0 1.1-.5 1.2-1.1l.2-5.9c0-.3-.1-.7-.3-.9-.3-.3-.6-.4-.9-.4zM18 5.5a2 2 0 0 0 2-2 2 2 0 0 0-2-2 2 2 0 0 0-2 2 2 2 0 0 0 2 2zm-5.5 16.1a5.29 5.29 0 0 1-3 .9C6.5 22.5 4 20 4 17a5.29 5.29 0 0 1 .9-3l1.5 1.5c-.2.5-.4 1-.4 1.5 0 1.9 1.6 3.5 3.5 3.5.6 0 1.1-.1 1.5-.4l1.5 1.5z" fill=""/></symbol><symbol id="ontario-icon-add-alt"><path d="M12 2C6.48 2 2 6.48 2 12s4.48 10 10 10 10-4.48 10-10S17.52 2 12 2zm5 11h-4v4h-2v-4H7v-2h4V7h2v4h4v2z" fill=""/></symbol><symbol id="ontario-icon-add"><path d="M13 7h-2v4H7v2h4v4h2v-4h4v-2h-4V7zm-1-5C6.48 2 2 6.48 2 12s4.48 10 10 10 10-4.48 10-10S17.52 2 12 2zm0 18c-4.4 0-8-3.6-8-8s3.6-8 8-8 8 3.6 8 8-3.6 8-8 8z" fill=""/></symbol><symbol id="ontario-icon-alert-error"><path d="M12 2C6.48 2 2 6.48 2 12s4.48 10 10 10 10-4.48 10-10S17.52 2 12 2zm1 15h-2v-2h2v2zm0-4h-2V7h2v6z" fill="#cd0000"/><path d="M11 17h2v-2h-2v2zm0-4h2V7h-2v6z" fill="#fff"/></symbol><symbol id="ontario-icon-alert-information"><path d="M12 2C6.48 2 2 6.48 2 12s4.48 10 10 10 10-4.48 10-10S17.52 2 12 2zm1 15h-2v-6h2v6zm0-8h-2V7h2v2z" fill="#1080a6"/><path d="M11 17h2v-6h-2v6zm0-8h2V7h-2v2z" fill="#fff"/></symbol><symbol id="ontario-icon-alert-success"><path d="M12 2C6.48 2 2 6.48 2 12s4.48 10 10 10 10-4.48 10-10S17.52 2 12 2zm-2 15-5-5 1.4-1.4 3.6 3.58L17.17 7l1.4 1.42L10 17z" fill="#118847"/><path d="m5 12 5 5 8.58-8.58L17.17 7 10 14.17 6.4 10.6 5 12z" fill="#fff"/></symbol><symbol id="ontario-icon-alert-warning"><path d="M1 21h22L12 2 1 21zm12-3h-2v-2h2v2zm0-4h-2v-4h2v4z" fill="#ffd440"/><path d="M11 10h2v4h-2zm0 6h2v2h-2z" fill="#000"/></symbol><symbol id="ontario-icon-arrow-up"><path d="M0 0h24v24H0V0z" fill="none"/><path d="m4 12 1.41 1.41L11 7.83V20h2V7.83l5.58 5.59L20 12l-8-8-8 8z"/></symbol><symbol id="ontario-icon-chevron-down"><path d="m7.4 8.6 4.6 4.58 4.6-4.58L18 10l-6 6-6-6 1.4-1.4z" fill=""/></symbol><symbol id="ontario-icon-chevron-left"><path d="M15.4 7.4 14 6l-6 6 6 6 1.4-1.4-4.58-4.6 4.58-4.6z" fill=""/></symbol><symbol id="ontario-icon-chevron-right"><path d="M10 6 8.6 7.4l4.58 4.6-4.58 4.6L10 18l6-6-6-6z" fill=""/></symbol><symbol id="ontario-icon-chevron-up"><path d="m7.4 15.4 4.6-4.58 4.6 4.58L18 14l-6-6-6 6 1.4 1.4z" fill=""/></symbol><symbol id="ontario-icon-close"><path d="M19 6.4 17.6 5 12 10.6 6.4 5 5 6.4l5.6 5.6L5 17.6 6.4 19l5.6-5.6 5.6 5.6 1.4-1.4-5.6-5.6L19 6.4z" fill=""/></symbol><symbol id="ontario-icon-collapse"><path d="M19 13H5v-2h14v2z" fill=""/></symbol><symbol id="ontario-icon-credit-card"><path d="M20 4H4c-1.1 0-2 .9-2 2v12c0 1.1.9 2 2 2h16c1.1 0 2-.9 2-2V6c0-1.1-.9-2-2-2zm0 14H4v-6h16v6zm0-10H4V6h16v2z" fill=""/></symbol><symbol id="ontario-icon-critical-alert-warning"><path d="M1 21h22L12 2 1 21Zm12-3h-2v-2h2v2Zm0-4h-2v-4h2v4Z" fill="#fff"/><path fill="" d="M11 10h2v4h-2zM11 16h2v2h-2z"/></symbol><symbol id="ontario-icon-dropdown-arrow"><path d="M7.965 10a.4.4 0 0 0-.37.247.4.4 0 0 0 .087.436l4.035 4.035a.4.4 0 0 0 .566 0l4.035-4.035a.4.4 0 0 0 .087-.436.4.4 0 0 0-.37-.247h-8.07z"/></symbol><symbol id="ontario-icon-email"><path d="M20 4H4c-1.1 0-2 .9-2 2v12c0 1.1.9 2 2 2h16c1.1 0 2-.9 2-2V6c0-1.1-.9-2-2-2zm0 4-8 5-8-5V6l8 5 8-5v2z" fill=""/></symbol><symbol id="ontario-icon-expand"><path d="M19 13h-6v6h-2v-6H5v-2h6V5h2v6h6v2z" fill=""/></symbol><symbol id="ontario-icon-help"><path d="M12 2C6.48 2 2 6.48 2 12s4.48 10 10 10 10-4.48 10-10S17.52 2 12 2zm1 17h-2v-2h2v2zm2.07-7.75-.9.92C13.45 12.9 13 13.5 13 15h-2v-.5c0-1.1.45-2.1 1.17-2.83l1.24-1.26c.37-.36.6-.86.6-1.4 0-1.1-.9-2-2-2s-2 .9-2 2H8a4 4 0 1 1 8 0 3.18 3.18 0 0 1-.93 2.25z" fill=""/></symbol><symbol id="ontario-icon-menu"><path d="M3 18h18v-2H3v2zm0-5h18v-2H3v2zm0-7v2h18V6H3z" fill=""/></symbol><symbol id="ontario-icon-more-accounts" viewBox="0 0 24 24"><path class="st0" d="M6 19.62c-.44 0-.82-.16-1.14-.47-.32-.32-.47-.7-.47-1.14s.16-.82.47-1.14.7-.47 1.14-.47.82.16 1.14.47.47.7.47 1.14-.16.82-.47 1.14c-.32.32-.7.47-1.14.47Zm6 0c-.44 0-.82-.16-1.14-.47s-.47-.7-.47-1.14.16-.82.47-1.14.7-.47 1.14-.47.82.16 1.14.47c.32.32.47.7.47 1.14s-.16.82-.47 1.14c-.32.32-.7.47-1.14.47Zm6 0c-.44 0-.82-.16-1.14-.47-.32-.32-.47-.7-.47-1.14s.16-.82.47-1.14c.32-.32.7-.47 1.14-.47s.82.16 1.14.47c.32.32.47.7.47 1.14 0 .44-.16.82-.47 1.14-.32.32-.7.47-1.14.47Zm-12-6c-.44 0-.82-.16-1.14-.47-.32-.32-.47-.7-.47-1.14s.16-.82.47-1.14.7-.47 1.14-.47.82.16 1.14.47c.32.32.47.7.47 1.14s-.16.82-.47 1.14-.7.47-1.14.47Zm6 0c-.44 0-.82-.16-1.14-.47-.32-.32-.47-.7-.47-1.14s.16-.82.47-1.14.7-.47 1.14-.47.82.16 1.14.47c.32.32.47.7.47 1.14s-.16.82-.47 1.14c-.32.32-.7.47-1.14.47Zm6 0c-.44 0-.82-.16-1.14-.47-.32-.32-.47-.7-.47-1.14s.16-.82.47-1.14c.32-.32.7-.47 1.14-.47s.82.16 1.14.47c.32.32.47.7.47 1.14 0 .44-.16.82-.47 1.14-.32.32-.7.47-1.14.47Zm-12-6c-.44 0-.82-.16-1.14-.47-.32-.32-.47-.7-.47-1.14s.16-.82.47-1.14c.32-.32.7-.47 1.14-.47.44 0 .82.16 1.14.47.32.32.47.7.47 1.14s-.16.82-.47 1.14c-.32.32-.7.47-1.14.47Zm6 0c-.44 0-.82-.16-1.14-.47-.32-.32-.47-.7-.47-1.14s.16-.82.47-1.14c.32-.32.7-.47 1.14-.47.44 0 .82.16 1.14.47.32.32.47.7.47 1.14s-.16.82-.47 1.14-.7.47-1.14.47Zm6 0c-.44 0-.82-.16-1.14-.47-.32-.32-.47-.7-.47-1.14s.16-.82.47-1.14c.32-.32.7-.47 1.14-.47.44 0 .82.16 1.14.47.32.32.47.7.47 1.14 0 .44-.16.82-.47 1.14-.32.32-.7.47-1.14.47Z"/></symbol><symbol id="ontario-icon-new-window"><path d="M19 19H5V5h7V3H5a2 2 0 0 0-2 2v14a2 2 0 0 0 2 2h14c1.1 0 2-.9 2-2v-7h-2v7zM14 3v2h3.6l-9.83 9.83 1.4 1.4L19 6.4V10h2V3h-7z" fill=""/></symbol><symbol id="ontario-icon-phone"><path d="M20 15.38c-1.23 0-2.42-.2-3.53-.56a.956.956 0 0 0-1 .24l-1.57 1.97c-2.83-1.35-5.48-3.9-6.9-6.83l1.95-1.66a1.02 1.02 0 0 0 .24-1.02c-.37-1.1-.56-2.3-.56-3.53A1 1 0 0 0 7.65 3H4.2C3.65 3 3 3.24 3 4c0 9.3 7.73 17 17 17 .7 0 1-.63 1-1.18v-3.45a1 1 0 0 0-.99-.99z" fill=""/></symbol><symbol id="ontario-icon-remove-alt"><path d="M12 2C6.48 2 2 6.48 2 12s4.48 10 10 10 10-4.48 10-10S17.52 2 12 2zm5 11H7v-2h10v2z" fill=""/></symbol><symbol id="ontario-icon-remove"><path d="M7 11v2h10v-2H7zm5-9C6.48 2 2 6.48 2 12s4.48 10 10 10 10-4.48 10-10S17.52 2 12 2zm0 18c-4.4 0-8-3.6-8-8s3.6-8 8-8 8 3.6 8 8-3.6 8-8 8z" fill=""/></symbol><symbol id="ontario-icon-search"><path d="M15.5 14h-.8l-.28-.27A6.47 6.47 0 0 0 16 9.5a6.5 6.5 0 1 0-13 0A6.5 6.5 0 0 0 9.5 16a6.47 6.47 0 0 0 4.23-1.57l.27.28v.8l5 5 1.5-1.5-5-5zm-6 0C7 14 5 12 5 9.5S7 5 9.5 5 14 7 14 9.5 12 14 9.5 14z" fill=""/></symbol><symbol id="ontario-icon-tty"><path d="M2.2 6.056c5.41-5.41 14.177-5.403 19.58 0a.716.716 0 0 1 .1.886l-1.688 2.7c-.09.142-.225.25-.385.3s-.333.047-.488-.016l-3.376-1.35a.713.713 0 0 1-.446-.736l.232-2.325a11.07 11.07 0 0 0-7.48 0l.233 2.325c.015.155-.02.3-.1.443s-.202.236-.346.293L4.67 9.928a.718.718 0 0 1-.873-.284L2.11 6.94a.71.71 0 0 1 .101-.885zm3.54 7.976V12.47a.47.47 0 0 0-.459-.47H3.72a.47.47 0 0 0-.469.469v1.563a.47.47 0 0 0 .469.469h1.56a.47.47 0 0 0 .469-.469zm3.75 0V12.47a.47.47 0 0 0-.459-.47H7.47a.47.47 0 0 0-.469.469v1.563a.47.47 0 0 0 .469.469h1.56a.47.47 0 0 0 .469-.469zm3.75 0V12.47a.47.47 0 0 0-.469-.469H11.22a.47.47 0 0 0-.469.469v1.563a.47.47 0 0 0 .469.469h1.563a.47.47 0 0 0 .469-.469zm3.75 0V12.47a.47.47 0 0 0-.469-.469H14.97a.47.47 0 0 0-.469.469v1.563a.47.47 0 0 0 .469.469h1.563a.47.47 0 0 0 .469-.469zm3.75 0V12.47a.47.47 0 0 0-.469-.469H18.72a.47.47 0 0 0-.469.469v1.563a.47.47 0 0 0 .469.469h1.563a.47.47 0 0 0 .469-.469zM7.625 17.78v-1.56a.47.47 0 0 0-.469-.469H5.594a.47.47 0 0 0-.469.469v1.563a.47.47 0 0 0 .469.469h1.563a.47.47 0 0 0 .469-.469zm3.75 0v-1.56a.47.47 0 0 0-.469-.469H9.344a.47.47 0 0 0-.469.469v1.563a.47.47 0 0 0 .469.469h1.563a.47.47 0 0 0 .469-.469zm3.75 0v-1.56a.47.47 0 0 0-.469-.469h-1.562a.47.47 0 0 0-.469.469v1.563a.47.47 0 0 0 .469.469h1.563a.47.47 0 0 0 .469-.469zm3.75 0v-1.56a.47.47 0 0 0-.469-.469h-1.562a.47.47 0 0 0-.469.469v1.563a.47.47 0 0 0 .469.469h1.563a.47.47 0 0 0 .469-.469zM5.75 21.53v-1.56a.47.47 0 0 0-.469-.469H3.72a.47.47 0 0 0-.469.469v1.563a.47.47 0 0 0 .469.469h1.56a.47.47 0 0 0 .469-.469zm11.25 0v-1.56a.47.47 0 0 0-.469-.469H7.47a.47.47 0 0 0-.469.469v1.563a.47.47 0 0 0 .469.469h9.063a.47.47 0 0 0 .469-.469zm3.75 0v-1.56a.47.47 0 0 0-.469-.469H18.72a.47.47 0 0 0-.469.469v1.563a.47.47 0 0 0 .469.469h1.563a.47.47 0 0 0 .469-.469z" fill=""/></symbol></svg>