<svg width="171" height="56" viewBox="0 0 171 56" fill="none" xmlns="http://www.w3.org/2000/svg">
<g clip-path="url(#clip0_31770_208153)">
<path d="M60.223 21.26C60.0296 21.3114 59.5613 21.4553 59.256 21.4964C59.8362 20.9208 60.1823 20.2218 60.1823 19.6462C59.9074 19.7387 59.4086 19.9237 58.9506 20.0265C59.8565 19.2453 60.3451 18.351 60.1314 17.1587C59.8565 17.3026 59.4595 17.5287 59.0727 17.6932C59.8667 16.47 59.8565 15.3804 59.5308 14.7431C59.1745 15.0823 58.747 15.4729 58.2991 15.7505C58.5943 14.332 58.5739 13.4171 57.9835 12.7695C57.3829 13.9208 56.8638 14.7637 56.0189 15.7813C56.0902 14.8459 55.9884 13.6741 55.3776 13.0574C55.3776 13.0574 55.2046 14.3628 54.7465 14.7842C54.6345 13.4994 54.2477 12.8004 53.6675 12.1117C53.6675 12.1117 53.6268 13.448 53.2705 14.2703C52.9651 13.1499 52.3951 12.2864 51.6723 11.4641C51.7232 13.9311 51.0412 18.5772 49.0868 21.702C48.8526 23.5522 48.649 26.3481 45.6665 27.9927C45.2389 27.6844 44.4755 27.2938 43.4168 27.3554C43.1318 25.9575 44.9437 24.6829 46.5114 23.6756C48.0892 22.6477 48.7814 21.7739 48.7407 20.3966C48.6999 18.8958 47.6922 18.2791 46.6539 18.238C45.188 18.166 43.9869 19.5126 43.7019 20.0779C43.2743 20.2835 42.0223 20.6741 41.5031 20.818C40.9331 20.9722 40.2816 21.2086 39.8744 21.5478C40.1187 21.702 40.8007 21.7534 41.0756 21.7123C41.5744 21.6403 43.1623 21.3422 44.6791 21.1572C45.2389 21.4553 46.1246 21.9692 45.1779 22.6271C43.8851 23.4597 43.3252 23.6756 41.5031 24.6418C38.6223 26.1631 39.5588 29.9971 40.2612 30.285C40.2612 31.5801 41.4115 33.9134 42.1851 34.7255C42.5312 36.3496 42.0732 38.7754 41.5845 39.7827C41.1875 38.796 40.4852 36.514 40.0373 35.1777C40.5055 32.6491 39.7523 31.539 39.2229 31.1175C38.6936 30.6755 37.8589 30.7989 37.3194 31.6726C38.1541 31.5801 38.4289 32.6594 38.4086 33.7695C38.3882 35.1058 38.0523 36.1748 37.126 36.1851C37.1972 37.3261 38.4188 37.655 39.0295 37.0999C39.1211 37.3569 39.6097 38.8576 40.078 40.1939C40.3528 40.9854 40.6175 41.7152 40.8007 42.0955C40.9941 42.517 42.3989 42.5889 42.5618 42.0955C42.7857 41.4479 42.9588 40.9545 43.315 40.1939C43.5797 39.6183 43.9563 38.8782 44.5162 37.7886C44.8928 38.4465 45.4018 39.4846 45.6868 40.1939C45.8192 40.5125 45.921 40.7798 45.9311 40.9031C46.0431 41.9927 45.982 45.8576 45.6868 48.1704C42.5414 47.307 41.6558 48.8591 41.9306 50.0103C42.3887 49.5067 42.9689 49.5683 43.3354 49.8356C43.2438 50.6785 43.4779 51.2952 44.333 51.5522C45.2389 49.1366 48.476 49.6711 48.7814 49.8767C48.7915 49.4142 49.2293 48.2526 47.5598 48.0059C47.6209 45.9193 47.8347 43.3598 47.9161 42.8253C47.9874 42.2908 48.0485 41.9619 47.794 41.1293C47.7227 40.8826 47.6311 40.5742 47.5395 40.2042C47.3257 39.3613 47.1018 38.2614 47.0814 37.0588C47.3664 37.3466 48.0586 37.583 48.5371 37.47C48.9035 39.0529 49.4329 38.5904 49.7077 39.2482C49.8502 39.5874 49.8807 39.9061 49.9215 40.1939C49.952 40.4714 49.9927 40.7078 50.1454 40.9134C51.2651 40.9443 52.2118 40.677 52.8938 40.1939C53.1076 40.0397 53.2807 39.8752 53.4435 39.6902C53.1687 38.0148 52.7004 37.1822 51.8352 36.1645C51.6112 34.7871 50.9699 33.5331 50.1047 32.423C51.2041 32.0632 52.3136 31.1587 52.904 30.5419C53.4333 30.5008 54.0339 30.0588 54.0746 29.1954C54.38 29.1543 54.6447 29.144 54.8788 29.0926C54.8483 28.8562 54.7872 28.4964 54.7567 28.2805C55.1638 28.2805 55.5405 28.26 55.9273 28.2292C55.8153 27.9105 55.6728 27.5816 55.5608 27.3452C55.968 27.3452 56.4668 27.3143 56.874 27.2938C56.6602 26.8826 56.4973 26.5331 56.3752 26.1734C56.8434 26.1322 57.556 26.0089 58.1464 25.8753C57.953 25.6697 57.7392 25.4641 57.4237 25.1455C58.9608 24.6829 59.6224 23.6139 59.7038 23.141C59.4799 23.141 59.0116 23.2438 58.7368 23.2233C59.5613 22.7093 60.1416 22.0104 60.223 21.26Z" fill="white"/>
<path d="M38.7751 24.7344H29.2676H19.7498H19.3936V25.0941V31.9605C19.4852 32.0119 19.5666 32.0839 19.6582 32.1661V25.0427H38.938V31.6624C39.0092 31.7344 39.0703 31.8269 39.1314 31.9502V25.1044V24.7447H38.7751V24.7344Z" fill="white"/>
<path d="M29.2386 49.6402C20.6879 46.4229 19.5987 39.3407 19.5681 36.1336C19.558 36.1336 19.5478 36.1336 19.5376 36.1234C19.5478 36.0411 19.558 35.9692 19.5681 35.8869C19.5681 35.188 19.619 34.7151 19.6496 34.5507C19.6292 34.0881 19.558 33.7386 19.4867 33.4611C19.4663 33.4097 19.4256 33.348 19.4053 33.2966V36.627C19.4053 40.3583 20.7693 43.5756 23.4363 46.1865C25.7776 48.4787 28.4038 49.5477 29.1571 49.815L29.2793 49.8561L29.4014 49.815C30.1547 49.5477 32.781 48.4787 35.1222 46.1865C37.7892 43.5756 39.1431 40.348 39.1431 36.627V36.0206C39.082 36.1336 39.0108 36.1953 38.9293 36.2878C38.8581 37.9633 38.5527 40.5639 37.4431 42.5169C36.1198 45.2717 34.0941 47.5228 29.2386 49.6402Z" fill="white"/>
<path d="M25.8158 18.3408C24.4823 18.4231 23.1691 20.1705 23.729 22.1646C23.5356 22.2366 22.9554 22.2263 22.7619 21.8254C22.6194 22.473 21.3165 23.2234 20.3596 23.1206C20.8889 22.5449 21.235 21.2498 22.2733 20.5611C23.3116 19.8724 23.7799 19.4099 24.1362 18.238C23.6577 18.4642 21.1638 19.1118 20.4614 18.3306C22.1003 18.0941 24.0344 17.1588 24.9912 16.5523L24.6044 16.1514C23.5763 16.7373 22.2021 17.2204 21.5099 17.4363C21.2656 15.3702 23.22 15.4524 23.3625 16.0075C24.1667 15.0413 23.6068 13.6536 23.0062 13.4994C23.617 11.8548 23.0062 10.8372 22.4871 10.2204C22.3649 11.9781 20.4309 12.2557 20.1967 13.6022C20.1153 12.5332 20.0542 9.64481 19.9626 8.23659C19.8099 5.61544 16.5423 4.71089 16.0435 4.71089C13.9059 4.81368 13.7023 4.52587 13.7532 3.52881C12.6742 4.77257 13.0406 5.8827 13.9568 6.41721C13.8346 7.16757 12.6436 7.7432 11.9209 7.90766C13.6616 9.53174 15.6771 8.56551 16.634 7.64041C16.7052 7.57873 16.7765 7.51706 16.8477 7.45538C17.1938 8.07212 17.4483 9.20281 17.4483 9.85039C15.8196 9.75788 15.5346 11.0325 15.5346 11.4847C17.601 10.6213 17.8249 14.6096 18.3644 15.2571C17.8351 15.2263 16.9088 13.9928 15.5346 13.9003C13.8855 13.7975 13.3053 14.6815 12.6335 14.6507C12.7556 15.8225 14.1807 16.4906 15.0969 16.6345C14.6286 17.8372 15.046 18.6595 16.013 18.9576C16.013 17.8577 17.3974 17.5082 18.8836 18.3922C20.665 19.4407 21.5811 19.5332 23.0062 19.0912C22.7721 19.6154 22.1206 19.6668 21.3368 20.448C20.2273 21.5479 20.1967 22.9869 18.9549 23.5112C20.4105 24.2101 22.5889 23.2336 22.9045 22.6683C23.5152 23.0486 24.299 22.8225 24.5026 22.4319C23.5254 20.2322 25.1745 18.9267 25.8259 18.9576C25.8463 18.9781 26.1313 18.3203 25.8158 18.3408ZM18.2627 17.4363C17.5297 17.1382 16.41 16.9429 15.7789 17.8372C15.4328 17.241 15.9418 16.3364 16.2573 16.0692C14.6592 16.0897 13.7532 15.6066 13.5191 15.1132C14.1095 14.7843 15.6058 14.2395 16.8274 15.1441C17.6723 15.7608 18.0998 16.0692 19.0974 16.3981C19.4536 16.0281 19.3213 16.1925 19.4435 16.0897C18.6291 15.5244 18.2627 11.125 16.6543 10.9605C16.8884 10.4055 17.713 10.4568 18.3746 10.6316C18.4255 9.64481 18.0183 8.02073 17.4178 7.08534C18.3441 6.59195 18.9854 7.12646 19.3111 8.29826C19.6572 9.54202 19.2501 12.6463 20.0542 15.4422L20.553 14.9693C20.2985 13.335 22.0697 12.7388 22.4566 11.9267C22.6093 13.0266 22.3853 13.5097 22.0799 13.9106C22.7212 13.9928 23.0062 14.6198 22.9045 15.0721C21.3572 14.8357 20.4614 16.4084 20.8075 17.6521C19.6776 17.8988 18.8938 17.7035 18.2627 17.4363ZM13.8855 5.20428C15.107 5.81074 15.4939 4.70061 17.774 6.19107C16.2675 6.67418 15.107 8.55524 13.4071 8.07212C14.6286 7.45538 14.4963 6.56111 15.2088 6.10884C14.7508 6.04716 13.8753 5.84158 13.8855 5.20428Z" fill="white"/>
<path d="M41.6553 12.307C41.6553 9.86061 41.5637 7.84593 41.5332 7.20863C41.6248 7.22919 41.7164 7.26003 41.8284 7.30114C43.569 7.91788 43.966 10.0354 47.5594 7.63007C45.6355 7.85621 45.5337 6.21157 44.6582 6.17045C45.9917 5.40981 46.0833 3.6521 46.0833 3.6521C44.9636 4.55665 42.3781 4.61833 41.8691 4.91642C41.1972 5.32758 40.3524 5.82097 39.7823 6.13962C38.2859 6.96194 39.3242 11.4436 39.1817 13.0779C38.3776 10.6418 36.7387 11.0016 35.8836 9.60364C35.2423 10.7652 35.9243 12.7284 36.189 13.2835C35.2627 14.0442 35.507 15.4627 35.7309 15.8327C36.5249 15.2571 37.7566 15.401 38.1231 16.3672C37.0848 17.0148 35.3339 17.1279 34.1429 15.9561L33.7154 16.4392C34.5603 17.5699 36.6674 18.0016 38.235 17.0867C38.2249 17.3437 38.174 17.6315 38.0722 17.9502C37.2578 18.3819 36.2093 18.6183 34.998 18.1969C35.1609 19.4201 36.5656 20.3452 37.8889 20.7152C37.4411 21.0647 36.8812 21.2086 36.4842 21.1572C36.7285 21.8665 36.871 22.8121 36.3417 23.5625C35.68 23.1205 35.3237 22.6682 35.0693 20.9516C34.8148 19.2248 33.5831 17.4671 32.6262 17.1176C32.5753 17.724 32.5753 17.4568 32.6771 17.8577C35.2118 19.7387 33.7765 23.1308 36.4231 24.354C37.3902 23.2336 37.4003 22.843 37.2578 21.7945C38.2147 21.5375 38.9272 20.7255 39.1817 20.0985C38.2758 20.5302 36.8405 19.7696 36.4435 19.1734C38.0111 19.122 39.4668 17.9296 40.9631 16.3569C42.2966 14.9487 44.0678 15.1646 43.9253 16.2644C44.8415 16.1308 45.2079 14.8562 44.9025 14.0442C46.2462 13.6227 47.3151 12.6051 47.4576 11.0324C45.666 11.9678 43.3655 10.4568 41.6553 12.307ZM43.8337 13.633C44.5463 14.2189 44.3121 15.0618 44.1391 15.2571C43.5181 14.1572 41.5026 14.5478 39.5278 16.7989C39.3853 16.9634 39.2021 17.1587 38.9883 17.354C39.141 14.6609 36.9524 14.6095 36.3111 14.887C36.3824 14.1058 36.8608 13.5816 37.1153 13.4994C36.474 12.749 36.3315 11.8033 36.2602 11.1146C37.3291 11.5772 38.9069 12.8415 39.1817 15.0104L39.8739 14.5376C39.6703 10.7446 39.7111 10.7549 39.6907 8.17486C39.6805 7.81509 39.7009 6.97221 40.841 7.06473C40.8817 8.02067 41.0344 10.5699 40.9835 14.1058H41.3907C41.7571 13.1191 43.0499 11.9678 44.5564 12.0603C45.5947 12.1323 45.9408 12.1014 46.5312 11.8445C46.0426 13.0368 44.2918 13.5508 43.8337 13.633ZM40.8817 6.40687C41.6146 5.88264 42.0727 5.64622 42.4595 5.42009C43.0906 5.44064 44.1696 5.36869 44.8211 5.03976C44.1391 5.88264 44.0678 6.18073 42.9583 6.30408C44.3936 6.43771 44.9942 7.73286 45.7067 7.92816C43.3044 8.65797 43.0601 6.26296 40.8817 6.40687Z" fill="white"/>
<path d="M31.8744 20.6537C31.7522 20.6537 31.6403 20.7154 31.569 20.8079C31.4367 20.7873 31.2942 20.7668 31.1415 20.7462L31.1516 19.9547C31.2942 19.893 31.3858 19.7594 31.3858 19.5949C31.3858 19.3791 31.2127 19.2043 30.999 19.2043C30.7852 19.2043 30.6121 19.3894 30.6121 19.5949C30.6121 19.7491 30.6936 19.8725 30.8157 19.9342L30.8055 20.6948C30.6732 20.6845 30.5409 20.664 30.3984 20.6537C30.3373 20.5201 30.205 20.4173 30.0421 20.4173C29.8283 20.4173 29.6553 20.5817 29.6553 20.8079C29.6553 21.0237 29.8283 21.1985 30.0421 21.1985C30.1744 21.1985 30.3068 21.1265 30.3678 21.0134C30.5205 21.034 30.663 21.0443 30.8055 21.0648L30.7954 22.2161C30.6732 22.2778 30.5918 22.4114 30.5918 22.5656C30.5918 22.7814 30.7648 22.9562 30.9786 22.9562C31.1924 22.9562 31.3654 22.7814 31.3654 22.5656C31.3654 22.4011 31.2738 22.2675 31.1313 22.2058L31.1415 21.106C31.2738 21.1265 31.3858 21.1471 31.5079 21.1676C31.569 21.3218 31.7013 21.4349 31.8744 21.4349C32.0881 21.4349 32.2612 21.2601 32.2612 21.0443C32.2612 20.8284 32.0881 20.6537 31.8744 20.6537Z" fill="white"/>
<path d="M28.5033 20.4275C28.3404 20.4275 28.2081 20.52 28.147 20.6639C28.0147 20.6742 27.8722 20.6845 27.7398 20.7051L27.7297 19.9444C27.8518 19.8827 27.9332 19.7491 27.9332 19.6052C27.9332 19.3893 27.7602 19.2146 27.5464 19.2146C27.3327 19.2146 27.1596 19.3996 27.1596 19.6052C27.1596 19.7697 27.2512 19.9033 27.3937 19.965L27.4039 20.7564C27.2614 20.7667 27.1087 20.7976 26.9764 20.8181C26.9153 20.7256 26.8033 20.6639 26.671 20.6639C26.4572 20.6639 26.2842 20.849 26.2842 21.0545C26.2842 21.2704 26.4572 21.4451 26.671 21.4451C26.844 21.4451 26.9866 21.3321 27.0375 21.1779C27.1596 21.1573 27.2818 21.1368 27.4039 21.1162L27.4141 22.2161C27.2818 22.2675 27.1901 22.4114 27.1901 22.5758C27.1901 22.7917 27.3632 22.9664 27.577 22.9664C27.7907 22.9664 27.9638 22.7917 27.9638 22.5758C27.9638 22.4216 27.8722 22.2983 27.75 22.2263L27.7398 21.0751C27.8722 21.0545 28.0249 21.0443 28.1674 21.0237C28.2386 21.1368 28.3608 21.2087 28.4931 21.2087C28.7069 21.2087 28.8799 21.034 28.8799 20.8181C28.8901 20.6023 28.7171 20.4275 28.5033 20.4275Z" fill="white"/>
<path d="M33.6647 23.7988C33.4305 22.2159 32.8605 17.7856 32.7994 16.2952L32.1276 16.326C32.1377 16.583 32.1683 16.9119 32.1988 17.3025C31.3947 17.0661 30.3462 16.8913 29.2672 16.8913C28.1983 16.8913 27.1397 17.0558 26.3355 17.3025C26.366 16.9119 26.3966 16.583 26.4068 16.326L25.7349 16.2952C25.6738 17.7753 25.1038 22.2056 24.8697 23.7988C24.4625 23.953 24.208 24.3642 24.208 25.0837C24.208 25.0837 27.8522 25.1351 29.2672 25.1351C30.6719 25.1351 34.3161 25.0837 34.3161 25.0837C34.3263 24.3539 34.0617 23.953 33.6647 23.7988ZM29.2672 23.7577C28.6869 24.8781 27.6079 24.837 26.6714 24.21C26.2948 23.9633 25.908 23.7988 25.5517 23.7372C25.7146 22.6373 25.9792 20.5609 26.1828 18.8032C27.3942 18.2482 28.9007 18.1248 29.2672 19.533C29.6336 18.1248 31.13 18.2482 32.3515 18.8032C32.5449 20.5609 32.8198 22.627 32.9826 23.7372C32.6264 23.7988 32.2395 23.9633 31.8629 24.21C30.9264 24.837 29.8474 24.8678 29.2672 23.7577Z" fill="white"/>
<path d="M49.7183 51.7886C49.3009 51.9223 48.792 51.9942 48.0183 51.9942H47.0717C43.7939 51.9223 40.4347 50.9457 38.3683 48.8077C41.2185 45.909 37.8695 43.514 36.0576 45.981C35.4977 46.7519 35.0396 47.2967 34.6528 48.0471C34.3271 48.6535 34.5714 49.2497 35.2839 50.1748C35.6707 50.6785 36.6378 51.47 37.4216 51.9942H21.0633C21.8471 51.47 22.8142 50.6888 23.201 50.1748C23.9034 49.2497 24.1477 48.6433 23.8321 48.0471C23.4351 47.2967 22.9872 46.7519 22.4172 45.981C20.6053 43.514 17.2562 45.909 20.1065 48.8077C18.0401 50.9355 14.6809 51.9223 11.4031 51.9942H10.5073C9.74386 51.9942 9.22471 51.9223 8.80735 51.7886C8.13551 51.6242 7.98282 51.9223 8.34928 53.0941C8.60377 53.8753 8.79717 55.1601 8.88879 56.0441H49.647C49.7285 55.1704 49.9321 53.8855 50.1865 53.0941C50.553 51.9223 50.4003 51.6242 49.7183 51.7886ZM36.9635 46.0838C37.4929 45.3643 38.2767 45.5596 38.6024 46.166C38.9485 46.8033 38.4497 47.6051 37.7677 48.2218C36.8414 47.2042 36.7396 46.3922 36.9635 46.0838ZM35.6097 49.4656C35.2839 48.9927 35.172 48.7255 35.345 48.2732C35.5079 47.8312 35.8642 47.4406 36.2204 46.8958C36.7905 49.1366 40.1395 51.2747 42.6233 51.9942H38.6737C37.6455 51.4391 36.3629 50.5243 35.6097 49.4656ZM19.8825 46.166C20.2083 45.5596 20.9819 45.3745 21.5112 46.0838C21.7352 46.3922 21.6436 47.2042 20.7071 48.2218C20.0352 47.6051 19.5364 46.8033 19.8825 46.166ZM22.2747 46.8958C22.6411 47.4406 22.9872 47.8312 23.1501 48.2732C23.3232 48.7255 23.2112 49.003 22.8854 49.4656C22.1322 50.5243 20.8496 51.4289 19.8214 51.9942H15.882C18.3556 51.285 21.7046 49.1469 22.2747 46.8958ZM48.9447 55.3965H9.59117C9.40794 54.1322 9.17381 53.3305 8.96004 52.6418H49.5656C49.3518 53.3305 49.1177 54.1425 48.9447 55.3965Z" fill="white"/>
<path d="M14.926 54.5022C14.9362 54.5022 14.9464 54.5125 14.9464 54.5228L15.0482 54.8106C15.0584 54.8414 15.0482 54.862 15.0278 54.8723C15.0075 54.8723 14.9973 54.8723 14.9973 54.8928C14.9973 54.9134 15.0278 54.9134 15.0686 54.9134H15.5063C15.5877 54.9134 15.6081 54.9134 15.6081 54.8928C15.6081 54.8723 15.5979 54.8723 15.5775 54.8723C15.547 54.8723 15.5164 54.8723 15.4757 54.862C15.4248 54.8517 15.3536 54.8209 15.2721 54.605C15.1194 54.2453 14.753 53.2893 14.7021 53.1557C14.6716 53.1043 14.6614 53.0837 14.641 53.0837C14.6207 53.0837 14.6003 53.1146 14.5799 53.1763L13.9895 54.6564C13.9488 54.7798 13.8979 54.8517 13.7961 54.862C13.7758 54.862 13.7452 54.862 13.7249 54.862C13.7045 54.862 13.6943 54.862 13.6943 54.8826C13.6943 54.9031 13.7147 54.9031 13.7351 54.9031H14.0099H14.2644C14.2847 54.9031 14.3051 54.9031 14.3051 54.8826C14.3051 54.862 14.2949 54.862 14.2644 54.862H14.2338C14.1626 54.862 14.1422 54.8312 14.1422 54.7901C14.1422 54.7695 14.1524 54.7078 14.1728 54.6564L14.2237 54.5228C14.2338 54.5022 14.2338 54.5022 14.244 54.5022H14.926V54.5022ZM14.2949 54.3892C14.2847 54.3892 14.2847 54.3789 14.2847 54.3686L14.5799 53.5771C14.5799 53.5669 14.5901 53.5566 14.5901 53.5566C14.6003 53.5566 14.6003 53.5669 14.6003 53.5771L14.8955 54.3686C14.8955 54.3789 14.8955 54.3892 14.8853 54.3892H14.2949Z" fill="white"/>
<path d="M16.0847 54.1527C16.0847 54.4919 16.1763 54.6769 16.2985 54.7797C16.4613 54.9339 16.6853 54.9339 16.8074 54.9339C16.9601 54.9339 17.1332 54.9133 17.2961 54.7694C17.4895 54.6049 17.52 54.3171 17.52 54.0601V53.8135C17.52 53.4537 17.52 53.392 17.52 53.3201C17.5302 53.2378 17.5404 53.1967 17.6014 53.1864C17.632 53.1864 17.6523 53.1762 17.6727 53.1762C17.7032 53.1762 17.7134 53.1659 17.7134 53.1556C17.7134 53.135 17.7032 53.135 17.6625 53.135C17.5709 53.135 17.4284 53.1453 17.3979 53.1453C17.3979 53.1453 17.2452 53.135 17.1332 53.135C17.1026 53.135 17.0823 53.135 17.0823 53.1556C17.0823 53.1659 17.0925 53.1762 17.123 53.1762C17.1434 53.1762 17.1841 53.1864 17.2044 53.1864C17.2757 53.207 17.2961 53.2378 17.3062 53.3201C17.3062 53.392 17.3062 53.4537 17.3062 53.8135V54.1013C17.3062 54.3582 17.2961 54.5638 17.1739 54.6872C17.0823 54.79 16.95 54.8105 16.8482 54.8105C16.7667 54.8105 16.6649 54.8002 16.553 54.718C16.441 54.6255 16.3697 54.4713 16.3697 54.1321V53.8032C16.3697 53.4434 16.3697 53.3817 16.3799 53.3098C16.3799 53.2275 16.4003 53.1864 16.4613 53.1762C16.4919 53.1762 16.5021 53.1659 16.5326 53.1659C16.553 53.1659 16.5733 53.1556 16.5733 53.1453C16.5733 53.1248 16.553 53.1248 16.5224 53.1248C16.441 53.1248 16.2883 53.135 16.2374 53.135C16.1661 53.135 16.0236 53.1248 15.9015 53.1248C15.8709 53.1248 15.8506 53.1248 15.8506 53.1453C15.8506 53.1556 15.8608 53.1659 15.8913 53.1659C15.9218 53.1659 15.9626 53.1762 15.9829 53.1762C16.0644 53.1967 16.0847 53.2275 16.0847 53.3098C16.0847 53.3817 16.0847 53.4434 16.0847 53.8032V54.1527V54.1527Z" fill="white"/>
<path d="M18.507 54.2246C18.507 54.4405 18.507 54.6358 18.4968 54.7283C18.4866 54.8002 18.4765 54.8516 18.4256 54.8516C18.4052 54.8619 18.3747 54.8619 18.334 54.8619C18.3034 54.8619 18.2932 54.8722 18.2932 54.8825C18.2932 54.903 18.3034 54.903 18.3441 54.903H18.6393C18.7513 54.903 18.9651 54.9236 19.1381 54.9236C19.5657 54.9236 19.7998 54.7591 19.9118 54.646C20.0441 54.5124 20.1662 54.276 20.1662 53.9882C20.1662 53.7107 20.0543 53.5051 19.9321 53.392C19.6878 53.1248 19.2908 53.1248 19.0058 53.1248C18.8633 53.1248 18.7208 53.135 18.6495 53.135C18.5783 53.135 18.4357 53.1248 18.3136 53.1248C18.2831 53.1248 18.2627 53.1248 18.2627 53.1453C18.2627 53.1556 18.2729 53.1659 18.3034 53.1659C18.3339 53.1659 18.3747 53.1762 18.395 53.1762C18.4663 53.1967 18.4968 53.2275 18.4968 53.3098C18.507 53.3817 18.507 53.4434 18.507 53.8032V54.2246ZM18.8022 53.7723C18.8022 53.5873 18.8022 53.3817 18.8022 53.2995C18.8022 53.2789 18.8124 53.2584 18.8327 53.2481C18.8531 53.2378 18.9345 53.2275 18.9854 53.2275C19.1687 53.2275 19.4435 53.2584 19.6471 53.464C19.7489 53.5565 19.871 53.7518 19.871 54.0499C19.871 54.2863 19.8201 54.5124 19.6776 54.646C19.5351 54.7694 19.3824 54.8105 19.1483 54.8105C18.9651 54.8105 18.8735 54.7591 18.8429 54.718C18.8327 54.6974 18.8226 54.5947 18.8226 54.533C18.8124 54.4919 18.8124 54.2966 18.8124 54.0601V53.7723H18.8022Z" fill="white"/>
<path d="M21.7131 54.5022C21.7233 54.5022 21.7335 54.5125 21.7335 54.5228L21.8455 54.8106C21.8557 54.8414 21.8353 54.862 21.8251 54.8723C21.7946 54.8723 21.7844 54.8723 21.7844 54.8928C21.7844 54.9134 21.8149 54.9134 21.8557 54.9134H22.2934C22.385 54.9134 22.4053 54.9134 22.4053 54.8928C22.4053 54.8723 22.3952 54.8723 22.3748 54.8723C22.3545 54.8723 22.3137 54.8723 22.273 54.862C22.2221 54.8517 22.161 54.8209 22.0694 54.605C21.9167 54.2453 21.5503 53.2893 21.4892 53.1557C21.4688 53.1043 21.4485 53.0837 21.4281 53.0837C21.4078 53.0837 21.3976 53.1146 21.3671 53.1763L20.7868 54.6564C20.7359 54.7798 20.6952 54.8517 20.5832 54.862C20.5731 54.862 20.5323 54.862 20.512 54.862C20.4916 54.862 20.4814 54.862 20.4814 54.8826C20.4814 54.9031 20.4916 54.9031 20.5222 54.9031H20.797H21.0413C21.0718 54.9031 21.082 54.9031 21.082 54.8826C21.082 54.862 21.0718 54.862 21.0515 54.862H21.0108C20.9395 54.862 20.9192 54.8312 20.9192 54.7901C20.9192 54.7695 20.9293 54.7078 20.9497 54.6564L21.0006 54.5228C21.0006 54.5022 21.0108 54.5022 21.021 54.5022H21.7131V54.5022ZM21.082 54.3892C21.0718 54.3892 21.0718 54.3789 21.0718 54.3686L21.3671 53.5771C21.3671 53.5669 21.3772 53.5566 21.3772 53.5566C21.3874 53.5566 21.3874 53.5669 21.3874 53.5771L21.6724 54.3686C21.6724 54.3789 21.6724 54.3892 21.6623 54.3892H21.082Z" fill="white"/>
<path d="M23.9952 53.3819C24.0664 53.2689 24.1173 53.2072 24.1682 53.1969C24.1987 53.1866 24.2293 53.1866 24.2496 53.1866C24.27 53.1866 24.2904 53.1763 24.2904 53.1661C24.2904 53.1455 24.2802 53.1455 24.2496 53.1455C24.158 53.1455 24.0664 53.1558 24.0155 53.1558C23.9748 53.1558 23.873 53.1455 23.7814 53.1455C23.7509 53.1455 23.7305 53.1558 23.7305 53.1661C23.7305 53.1763 23.7509 53.1866 23.761 53.1866C23.7814 53.1866 23.8119 53.1866 23.8323 53.1969C23.8526 53.2072 23.873 53.2175 23.873 53.238C23.873 53.2586 23.8628 53.2997 23.8526 53.3408C23.8221 53.4025 23.6083 53.7314 23.5371 53.8342C23.4455 53.68 23.3437 53.5053 23.2419 53.31C23.2215 53.2894 23.2215 53.2586 23.2215 53.238C23.2215 53.2277 23.2317 53.2175 23.2521 53.1969C23.2724 53.1969 23.303 53.1866 23.3131 53.1866C23.3335 53.1866 23.3437 53.1763 23.3437 53.1661C23.3437 53.1455 23.3335 53.1455 23.303 53.1455C23.2113 53.1455 23.0892 53.1558 23.0485 53.1558C22.9365 53.1558 22.7533 53.1455 22.6922 53.1455C22.6617 53.1455 22.6413 53.1455 22.6413 53.1661C22.6413 53.1866 22.6515 53.1866 22.6617 53.1866C22.682 53.1866 22.7227 53.1969 22.7635 53.2072C22.8449 53.2277 22.8958 53.2791 22.9569 53.3819L23.364 54.0501L22.9161 54.6976C22.8347 54.8107 22.794 54.8518 22.7227 54.8724C22.682 54.8827 22.6515 54.8827 22.6311 54.8827C22.6108 54.8827 22.6006 54.8929 22.6006 54.9032C22.6006 54.9238 22.6108 54.9238 22.6413 54.9238H22.682H22.8754H23.0892H23.1299C23.1605 54.9238 23.1808 54.9238 23.1808 54.9032C23.1808 54.8929 23.1706 54.8827 23.1503 54.8827C23.1299 54.8827 23.1096 54.8827 23.0994 54.8827C23.079 54.8724 23.0587 54.8621 23.0587 54.8415C23.0587 54.821 23.0688 54.7799 23.0892 54.749L23.4353 54.1837C23.5371 54.3584 23.6796 54.5948 23.8119 54.821C23.8323 54.8518 23.8221 54.8724 23.8018 54.8724C23.7814 54.8827 23.7712 54.8827 23.7712 54.8929C23.7712 54.9032 23.7916 54.9238 23.8526 54.9238H24.27H24.3413C24.3616 54.9238 24.382 54.9238 24.382 54.9032C24.382 54.8827 24.3718 54.8827 24.3514 54.8827C24.3311 54.8827 24.3005 54.8827 24.2598 54.8724C24.1987 54.8621 24.158 54.8313 24.1275 54.7696C24.0766 54.6976 23.6898 54.0603 23.6185 53.937L23.9952 53.3819Z" fill="white"/>
<path d="M27.8006 54.5022C27.8108 54.5022 27.821 54.5125 27.821 54.5228L27.9228 54.8106C27.933 54.8414 27.9228 54.862 27.9024 54.8723C27.8821 54.8723 27.8719 54.8723 27.8719 54.8928C27.8719 54.9134 27.9024 54.9134 27.9431 54.9134H28.391C28.4725 54.9134 28.4928 54.9134 28.4928 54.8928C28.4928 54.8723 28.4826 54.8723 28.4623 54.8723C28.4419 54.8723 28.4012 54.8723 28.3707 54.862C28.3198 54.8517 28.2485 54.8209 28.1671 54.605C28.0144 54.2453 27.6479 53.2893 27.5869 53.1557C27.5665 53.1043 27.5461 53.0837 27.5258 53.0837C27.5054 53.0837 27.4952 53.1146 27.4647 53.1763L26.8845 54.6564C26.8438 54.7798 26.7929 54.8517 26.6809 54.862C26.6605 54.862 26.63 54.862 26.6096 54.862C26.5893 54.862 26.5791 54.862 26.5791 54.8826C26.5791 54.9031 26.5893 54.9031 26.6198 54.9031H26.8947H27.139C27.1695 54.9031 27.1797 54.9031 27.1797 54.8826C27.1797 54.862 27.1695 54.862 27.1491 54.862H27.1186C27.0474 54.862 27.027 54.8312 27.027 54.7901C27.027 54.7695 27.0372 54.7078 27.0677 54.6564L27.1186 54.5228C27.1084 54.5125 27.1186 54.5022 27.1186 54.5022H27.8006ZM27.1695 54.3892C27.1593 54.3892 27.1593 54.3789 27.1593 54.3686L27.4443 53.5771C27.4545 53.5669 27.4545 53.5566 27.4647 53.5566C27.4647 53.5566 27.4749 53.5669 27.4749 53.5771L27.7701 54.3686C27.7701 54.3789 27.7701 54.3789 27.7599 54.3789H27.1695V54.3892Z" fill="white"/>
<path d="M29.2364 54.2247C29.2364 54.4405 29.2364 54.6358 29.2263 54.7284C29.2161 54.8003 29.2059 54.8517 29.155 54.8517C29.1346 54.862 29.1041 54.862 29.0736 54.862C29.043 54.862 29.0329 54.862 29.0329 54.8825C29.0329 54.9031 29.0532 54.9031 29.0838 54.9031H29.379H29.7454C29.7658 54.9031 29.7861 54.9031 29.7861 54.8825C29.7861 54.8723 29.776 54.862 29.7454 54.862C29.7149 54.862 29.664 54.862 29.6334 54.8517C29.5622 54.8414 29.5418 54.79 29.5418 54.7284C29.5316 54.6256 29.5316 54.4405 29.5316 54.2144V53.2687L29.8268 53.279C30.0304 53.2893 30.0915 53.351 30.1017 53.4126V53.4332C30.1119 53.464 30.1119 53.4743 30.122 53.4743C30.1322 53.4743 30.1424 53.464 30.1424 53.4435C30.1424 53.3818 30.1526 53.2173 30.1526 53.1659C30.1526 53.1351 30.1526 53.1146 30.1322 53.1146C30.1119 53.1146 30.061 53.1351 29.9083 53.1351H28.9921C28.9107 53.1351 28.8293 53.1248 28.758 53.1248C28.6969 53.1146 28.6766 53.094 28.6562 53.094C28.646 53.094 28.6359 53.1043 28.6257 53.1351C28.6155 53.1557 28.585 53.3715 28.585 53.4024C28.585 53.4332 28.585 53.4435 28.6053 53.4435C28.6257 53.4435 28.6257 53.4332 28.6359 53.4126C28.6359 53.3921 28.6562 53.3612 28.6766 53.3304C28.7173 53.2687 28.7682 53.2687 28.9005 53.2585L29.2466 53.2482V54.2247H29.2364Z" fill="white"/>
<path d="M33.2897 54.0398C33.2897 54.0295 33.2897 54.0295 33.31 54.0295C33.3507 54.0295 33.595 54.0295 33.6561 54.0398C33.7274 54.0501 33.7681 54.0912 33.7783 54.1118C33.7884 54.1426 33.7884 54.1734 33.7884 54.194C33.7884 54.2043 33.7986 54.2248 33.8088 54.2248C33.8292 54.2248 33.8292 54.194 33.8292 54.1734C33.8292 54.1529 33.8393 54.0501 33.8393 54.009C33.8495 53.937 33.8597 53.8753 33.8597 53.8651C33.8597 53.8548 33.8597 53.8445 33.8495 53.8445C33.8292 53.8445 33.8292 53.8548 33.819 53.8651C33.7986 53.8856 33.7681 53.9062 33.7172 53.9062C33.6867 53.9165 33.6459 53.9165 33.6154 53.9165H33.3202C33.2998 53.9165 33.2998 53.9062 33.2998 53.8959V53.31C33.2998 53.2792 33.31 53.2792 33.3202 53.2792H33.6765C33.7681 53.2792 33.819 53.3203 33.8292 53.3511C33.8495 53.382 33.8495 53.4231 33.8495 53.4436C33.8495 53.4745 33.8597 53.4847 33.8699 53.4847C33.8801 53.4847 33.8902 53.4745 33.8902 53.4539C33.9004 53.4333 33.9004 53.2894 33.9004 53.2586C33.9106 53.1969 33.9208 53.1661 33.9208 53.1558C33.9208 53.1455 33.9106 53.1353 33.9106 53.1353C33.9004 53.1353 33.8902 53.1455 33.8699 53.1558C33.8495 53.1558 33.819 53.1558 33.7681 53.1661C33.7172 53.1661 33.2388 53.1661 33.1573 53.1661C33.0861 53.1661 32.9436 53.1558 32.8214 53.1558C32.7807 53.1558 32.7705 53.1558 32.7705 53.1764C32.7705 53.1866 32.7807 53.1969 32.8112 53.1969C32.8418 53.1969 32.8825 53.2072 32.9028 53.2072C32.9843 53.2278 32.9945 53.2586 33.0046 53.3408C33.0148 53.4128 33.0148 53.4745 33.0148 53.8342V54.2454C33.0148 54.4818 33.0148 54.6565 33.0046 54.7491C32.9945 54.821 32.9843 54.8724 32.9334 54.8724C32.913 54.8827 32.8825 54.8827 32.8418 54.8827C32.8112 54.8827 32.8112 54.893 32.8112 54.9032C32.8112 54.9238 32.8214 54.9238 32.8621 54.9238H33.1573H33.5136C33.5543 54.9238 33.5645 54.9238 33.5645 54.9032C33.5645 54.893 33.5543 54.8827 33.534 54.8827C33.4932 54.8827 33.4423 54.8827 33.4118 54.8724C33.3406 54.8621 33.3304 54.821 33.3202 54.7491C33.31 54.6463 33.31 54.4818 33.31 54.2454V54.0398H33.2897Z" fill="white"/>
<path d="M34.7846 54.2248C34.7846 54.4612 34.7846 54.636 34.7745 54.7491C34.7643 54.8107 34.7541 54.8518 34.7032 54.8621C34.6828 54.8724 34.6523 54.8724 34.6218 54.8724C34.5912 54.8724 34.5811 54.8724 34.5811 54.893C34.5811 54.9135 34.6014 54.9135 34.632 54.9135H34.9272H35.2936C35.314 54.9135 35.3343 54.9135 35.3343 54.893C35.3343 54.8827 35.3242 54.8724 35.2936 54.8724C35.2529 54.8724 35.202 54.8724 35.1715 54.8621C35.1002 54.8518 35.0798 54.8107 35.0798 54.7491C35.0697 54.6463 35.0697 54.4612 35.0697 54.2248V53.8137C35.0697 53.4539 35.0697 53.3922 35.0697 53.3203C35.0697 53.2278 35.09 53.1969 35.1613 53.1867C35.1816 53.1867 35.202 53.1764 35.2325 53.1764C35.2529 53.1764 35.2733 53.1661 35.2733 53.1558C35.2733 53.1455 35.2529 53.1353 35.2224 53.1353C35.1307 53.1353 34.9984 53.1455 34.9373 53.1455C34.8763 53.1455 34.7236 53.1353 34.6421 53.1353C34.6014 53.1353 34.5912 53.1353 34.5912 53.1558C34.5912 53.1764 34.6014 53.1764 34.632 53.1764C34.6625 53.1764 34.6828 53.1867 34.7134 53.1867C34.7643 53.2072 34.7846 53.238 34.7948 53.3203C34.7948 53.3922 34.7948 53.4539 34.7948 53.8137V54.2248H34.7846Z" fill="white"/>
<path d="M36.1789 54.2246C36.1789 54.4405 36.1789 54.6358 36.1687 54.7283C36.1585 54.8002 36.1483 54.8516 36.0974 54.8516C36.0771 54.8619 36.0465 54.8619 36.0058 54.8619C35.9855 54.8619 35.9651 54.8722 35.9651 54.8825C35.9651 54.903 35.9855 54.903 36.016 54.903H36.3112C36.4232 54.903 36.6369 54.9236 36.81 54.9236C37.2375 54.9236 37.4818 54.7591 37.5938 54.646C37.7261 54.5124 37.8483 54.276 37.8483 53.9882C37.8483 53.7107 37.7363 53.5051 37.6142 53.392C37.3597 53.1248 36.9729 53.1248 36.6777 53.1248C36.5453 53.1248 36.3926 53.135 36.3214 53.135C36.2603 53.135 36.1076 53.1248 35.9855 53.1248C35.9447 53.1248 35.9346 53.1248 35.9346 53.1453C35.9346 53.1556 35.9448 53.1659 35.9753 53.1659C35.9956 53.1659 36.0465 53.1762 36.0669 53.1762C36.1382 53.1967 36.1585 53.2275 36.1687 53.3098C36.1687 53.3817 36.1687 53.4434 36.1687 53.8032V54.2246H36.1789ZM36.4639 53.7723V53.2995C36.4639 53.2789 36.4741 53.2584 36.5046 53.2481C36.525 53.2378 36.6064 53.2275 36.6471 53.2275C36.8304 53.2275 37.1052 53.2584 37.319 53.464C37.4106 53.5565 37.5327 53.7518 37.5327 54.0499C37.5327 54.2863 37.492 54.5124 37.3393 54.646C37.1968 54.7694 37.0441 54.8105 36.81 54.8105C36.6268 54.8105 36.5352 54.7591 36.5046 54.718C36.4843 54.6974 36.4843 54.5947 36.4741 54.533C36.4639 54.4919 36.4639 54.2966 36.4639 54.0601V53.7723Z" fill="white"/>
<path d="M38.6635 54.2246C38.6635 54.4405 38.6636 54.6358 38.6534 54.7283C38.6432 54.8002 38.633 54.8516 38.5923 54.8516C38.5719 54.8619 38.5414 54.8619 38.5007 54.8619C38.4701 54.8619 38.46 54.8619 38.46 54.8825C38.46 54.903 38.4803 54.903 38.5109 54.903H38.8061C38.9384 54.903 39.1013 54.9133 39.4474 54.9133C39.539 54.9133 39.5593 54.9133 39.5695 54.8516C39.5797 54.8002 39.6001 54.646 39.6001 54.5844C39.6001 54.5638 39.6001 54.533 39.5797 54.533C39.5593 54.533 39.5593 54.5535 39.5593 54.5741C39.539 54.6666 39.5186 54.7283 39.4575 54.7488C39.3965 54.7797 39.3049 54.7797 39.2438 54.7797C39.0096 54.7797 38.9689 54.7386 38.9689 54.5844V54.2143V54.0293C38.9689 54.019 38.9689 54.0087 38.9893 54.0087C39.0402 54.0087 39.2641 54.0087 39.315 54.019C39.3965 54.0293 39.4372 54.0601 39.4474 54.1115C39.4575 54.1424 39.4575 54.1732 39.4575 54.1938C39.4575 54.2143 39.4575 54.2143 39.4779 54.2143C39.4983 54.2143 39.4983 54.1835 39.4983 54.1732C39.4983 54.1629 39.5084 54.0601 39.5084 54.019C39.5186 53.8957 39.5288 53.8546 39.5288 53.8443C39.5288 53.8237 39.5186 53.8237 39.5084 53.8237C39.4983 53.8237 39.4881 53.834 39.4779 53.8546C39.4575 53.8751 39.427 53.8854 39.3659 53.8854C39.315 53.8957 39.0402 53.8957 38.9995 53.8957C38.9791 53.8957 38.9791 53.8854 38.9791 53.8648V53.2789C38.9791 53.2584 38.9791 53.2584 38.9995 53.2584C39.0402 53.2584 39.2845 53.2584 39.3252 53.2584C39.4372 53.2789 39.4677 53.2995 39.4779 53.3509C39.4881 53.3817 39.4983 53.4228 39.4983 53.4434C39.4983 53.464 39.5084 53.4742 39.5186 53.4742C39.539 53.4742 39.539 53.464 39.5492 53.4537C39.5593 53.4228 39.5593 53.3201 39.5593 53.2995C39.5695 53.1967 39.5797 53.1659 39.5797 53.1453C39.5797 53.135 39.5797 53.1248 39.5695 53.1248C39.5593 53.1248 39.539 53.135 39.539 53.135C39.5186 53.1453 39.4881 53.1453 39.4372 53.1453C39.3965 53.1453 38.9282 53.1453 38.857 53.1453C38.7959 53.1453 38.6432 53.135 38.5312 53.135C38.4905 53.135 38.4803 53.135 38.4803 53.1556C38.4803 53.1659 38.4905 53.1762 38.521 53.1762C38.5516 53.1762 38.5923 53.1864 38.6127 53.1864C38.6941 53.207 38.7144 53.2378 38.7144 53.3201C38.7144 53.392 38.7144 53.4537 38.7144 53.8135V54.2246H38.6635Z" fill="white"/>
<path d="M40.7701 53.8137C40.7701 53.4539 40.7701 53.3922 40.7701 53.3203C40.7701 53.238 40.7905 53.1969 40.8516 53.1867C40.8821 53.1867 40.9228 53.1764 40.9432 53.1764C40.9737 53.1764 40.9839 53.1661 40.9839 53.1558C40.9839 53.1353 40.9737 53.1353 40.933 53.1353C40.8414 53.1353 40.6683 53.1455 40.6174 53.1455C40.5564 53.1455 40.4138 53.1353 40.3019 53.1353C40.2612 53.1353 40.251 53.1353 40.251 53.1558C40.251 53.1661 40.2612 53.1764 40.2917 53.1764C40.3222 53.1764 40.3528 53.1867 40.3731 53.1867C40.4444 53.2072 40.4647 53.238 40.4749 53.3203C40.4749 53.3922 40.4749 53.4539 40.4749 53.8137V54.2248C40.4749 54.451 40.4749 54.636 40.4647 54.7285C40.4546 54.8005 40.4444 54.8518 40.3935 54.8518C40.3731 54.8621 40.3426 54.8621 40.3019 54.8621C40.2815 54.8621 40.2713 54.8724 40.2713 54.8827C40.2713 54.9032 40.2815 54.9032 40.3222 54.9032H40.6174C40.8007 54.9032 40.9635 54.9135 41.2995 54.9135C41.4216 54.9135 41.4318 54.9032 41.4521 54.8416C41.4725 54.7799 41.4827 54.5949 41.4827 54.564C41.4827 54.5332 41.4827 54.5229 41.4623 54.5229C41.442 54.5229 41.442 54.5332 41.442 54.564C41.4318 54.6052 41.4114 54.6771 41.3809 54.7079C41.33 54.7696 41.2384 54.7696 41.106 54.7696C40.9228 54.7696 40.8719 54.7593 40.8312 54.7182C40.7905 54.6771 40.7905 54.5126 40.7905 54.2043V53.8137H40.7701Z" fill="white"/>
<path d="M42.2265 54.2248C42.2265 54.4612 42.2265 54.636 42.2163 54.7491C42.2061 54.8107 42.1959 54.8518 42.145 54.8621C42.1247 54.8724 42.0941 54.8724 42.0534 54.8724C42.0229 54.8724 42.0127 54.8724 42.0127 54.893C42.0127 54.9135 42.0331 54.9135 42.0636 54.9135H42.3588H42.7253C42.7456 54.9135 42.766 54.9135 42.766 54.893C42.766 54.8827 42.7558 54.8724 42.7253 54.8724C42.6947 54.8724 42.6438 54.8724 42.6133 54.8621C42.542 54.8518 42.5217 54.8107 42.5217 54.7491C42.5115 54.6463 42.5115 54.4612 42.5115 54.2248V53.8137C42.5115 53.4539 42.5115 53.3922 42.5217 53.3203C42.5318 53.2278 42.542 53.1969 42.6133 53.1867C42.6438 53.1867 42.654 53.1764 42.6845 53.1764C42.7049 53.1764 42.7151 53.1661 42.7151 53.1558C42.7151 53.1455 42.6947 53.1353 42.6744 53.1353C42.5827 53.1353 42.4504 53.1455 42.3893 53.1455C42.3181 53.1455 42.1756 53.1353 42.084 53.1353C42.0534 53.1353 42.0331 53.1353 42.0331 53.1558C42.0331 53.1764 42.0432 53.1764 42.0636 53.1764C42.0941 53.1764 42.1247 53.1867 42.1552 53.1867C42.2061 53.2072 42.2366 53.238 42.2366 53.3203C42.2468 53.3922 42.2468 53.4539 42.2468 53.8137V54.2248H42.2265Z" fill="white"/>
<path d="M43.8351 54.9442C43.9572 54.9442 44.0895 54.9236 44.2117 54.8517C44.3746 54.7489 44.4255 54.5741 44.4255 54.4405C44.4255 54.2144 44.3237 54.0602 44.0488 53.8341L43.9776 53.7827C43.7943 53.6388 43.7333 53.5462 43.7333 53.4537C43.7333 53.3098 43.8351 53.207 44.0081 53.207C44.1608 53.207 44.2219 53.279 44.2524 53.3304C44.3033 53.3818 44.3135 53.464 44.3135 53.4846C44.3135 53.5051 44.3237 53.5257 44.3338 53.5257C44.344 53.5257 44.3542 53.5051 44.3542 53.464C44.3542 53.2687 44.3644 53.207 44.3644 53.1762C44.3644 53.1556 44.3542 53.1454 44.3338 53.1454C44.2728 53.1248 44.171 53.1042 44.0285 53.1042C43.7027 53.1042 43.489 53.2893 43.489 53.5462C43.489 53.7415 43.5806 53.906 43.8351 54.1013L43.947 54.1835C44.1404 54.3377 44.171 54.4508 44.171 54.5639C44.171 54.6872 44.0692 54.8311 43.8554 54.8311C43.7129 54.8311 43.5806 54.7694 43.5297 54.5947C43.5195 54.5536 43.5093 54.5022 43.5093 54.4816C43.5093 54.4611 43.5093 54.4405 43.489 54.4405C43.4686 54.4405 43.4686 54.4714 43.4584 54.5022C43.4584 54.5433 43.4482 54.6872 43.4482 54.8106C43.4482 54.862 43.4584 54.8825 43.489 54.8928C43.5908 54.9339 43.6925 54.9442 43.8351 54.9442Z" fill="white"/>
<path d="M36.8212 6.54051C36.8416 6.19103 36.1901 5.92377 36.0374 5.90322C35.7626 5.88266 35.4267 6.45828 35.0704 6.82832C34.7548 5.13229 34.9177 4.41276 35.1009 3.66239C35.8033 4.95755 36.7601 5.23508 37.2691 5.17341C35.559 3.79602 35.8542 2.55226 35.335 2.49059C35.0398 2.45975 34.8261 2.48031 34.6734 2.48031C34.083 2.48031 34.0015 3.64184 33.9201 4.17634C33.5333 3.44654 33.1566 2.85035 32.495 2.00748C31.8639 0.383396 31.1004 0.794556 30.3166 0.0544684C30.9274 0.979578 30.4286 1.5552 31.8435 2.23362C32.21 2.5831 32.6375 3.12789 32.9225 3.58016C32.6884 3.88853 32.5255 4.07355 32.3118 4.28941C32.1387 4.55667 32.0471 5.56401 31.5076 6.32465C32.3118 5.96489 32.6273 5.4715 32.9123 4.98838C35.4572 6.92084 33.3908 11.8753 32.8105 12.9649C32.2507 12.5846 31.5381 12.3687 30.8765 12.2556L30.8052 12.0295L30.2046 10.0765H30.4795C30.795 10.0765 30.8663 9.86063 30.8256 9.68588L32.5764 10.2307L33.3501 10.4774L32.8818 9.80923L32.0675 8.66826L32.8818 7.53758L33.3501 6.86944L32.5764 7.10586L30.9986 7.59925C30.8866 7.23948 30.5914 7.06474 30.2657 7.02363L30.795 5.21452L31.019 4.4436L30.3777 4.91643L29.2579 5.73875L28.128 4.91643L27.4867 4.4436L27.7107 5.21452L28.24 7.02363C27.9143 7.07502 27.6292 7.23948 27.5071 7.59925L25.9293 7.10586L25.176 6.86944L25.6443 7.53758L26.4586 8.66826L25.6443 9.80923L25.176 10.4774L25.9496 10.2307L27.7107 9.68588C27.6598 9.86063 27.7209 10.0765 28.0466 10.0765H28.3214L27.7209 12.0295L27.6598 12.2556C26.9879 12.379 26.255 12.5948 25.685 12.9957C23.9748 9.64477 24.4533 6.2527 25.8886 5.12201C25.8682 5.83126 26.479 6.79749 26.7742 7.00307C26.5808 6.27326 26.9167 4.95755 26.5299 4.62862C26.2652 4.40248 25.8682 4.28941 25.4407 4.29969C25.7359 3.81658 26.1329 3.21012 26.8047 2.30557C27.8125 1.82246 28.1077 0.640371 28.352 0.0441895C27.2526 0.455349 26.4484 1.02069 26.2754 1.95608C25.8886 2.47003 25.461 3.08677 24.9826 3.8063C25.003 2.93259 24.5245 2.62422 23.8934 2.5831C22.0408 2.9737 22.1833 4.32025 20.6055 5.24536C21.6845 5.62568 23.3844 3.23068 23.9647 3.49793C24.0563 4.96783 23.7204 6.12935 23.7204 6.93111C23.4455 6.62274 23.303 6.40689 23.0689 6.37605C22.8449 6.33493 22.224 6.38633 21.8066 6.85916C21.6845 7.59925 21.715 8.99719 21.0228 10.6829C22.0509 9.727 22.5396 7.85622 22.7126 7.32172C22.9773 7.68148 23.2623 8.49352 23.3234 9.18221C23.4455 10.5185 24.2599 12.749 24.9622 13.8283C24.7688 14.1984 24.7179 14.6198 24.779 15.0926C24.2395 15.4935 24.1784 16.0589 24.3617 16.4392C24.5652 16.8503 25.0946 17.1176 25.7155 16.8812L25.9089 16.7989C26.5604 16.5317 27.7819 16.0177 29.2579 16.0177C30.734 16.0177 31.9555 16.5317 32.607 16.7989L32.8004 16.8812C33.4213 17.1279 33.9506 16.8606 34.144 16.4392C34.3375 16.0589 34.2764 15.4935 33.7369 15.0926C33.8081 14.589 33.7369 14.1367 33.5027 13.7461L33.5231 13.7666C34.7853 11.9473 34.8668 8.48324 35.9153 7.48618C36.0069 8.6991 36.6482 9.70644 37.2793 9.85035C36.7907 8.96636 36.7907 7.30116 36.8212 6.54051ZM31.0393 8.15431L31.9657 7.8665L31.5076 8.49352L31.3956 8.65798L31.5178 8.82245L31.9758 9.45975L30.795 9.0897C30.8968 8.84301 30.9884 8.56547 31.0393 8.15431ZM26.5706 9.44947L27.0287 8.81217L27.1508 8.64771L27.0287 8.48324L26.5706 7.85622L27.4969 8.14404C27.5478 8.5552 27.6394 8.82245 27.7412 9.06914L26.5706 9.44947ZM30.2759 9.1411H29.5328L29.6244 7.81511C30.7238 7.332 30.622 8.35989 30.2759 9.1411ZM30.0519 11.3922L29.4208 10.9296L29.2681 10.8166L29.1053 10.9296L28.4843 11.3922L28.8915 10.0662H29.6448L30.0519 11.3922ZM29.1053 6.29382L29.2681 6.40689L29.4208 6.29382L30.0621 5.83126L29.6957 7.07502C29.6855 7.0853 29.6753 7.0853 29.6651 7.0853C29.604 6.93111 29.4412 6.82832 29.2681 6.82832C29.0951 6.82832 28.9424 6.93111 28.8813 7.0853C28.8711 7.0853 28.8508 7.0853 28.8406 7.07502L28.4741 5.83126L29.1053 6.29382ZM28.2705 9.1411C27.9143 8.35989 27.8125 7.32172 28.9118 7.81511L29.0035 9.1411H28.2705ZM29.2681 11.495L30.1436 12.1323C29.7669 12.0912 29.4514 12.0912 29.2681 12.0912C29.0747 12.0912 28.7592 12.1014 28.3927 12.1323L29.2681 11.495ZM25.6646 16.1205L25.4814 16.2028C25.2167 16.3056 25.0437 16.2233 24.9826 16.1C24.9113 15.9663 24.9521 15.7402 25.2778 15.5346C25.3185 15.5141 25.3694 15.4832 25.4101 15.4627L26.0311 15.9766C25.8886 16.028 25.7664 16.0794 25.6646 16.1205ZM27.7718 15.4421L27.1305 14.7945C27.6598 14.6609 28.2196 14.5684 28.7693 14.5273L29.1561 15.2879C28.6574 15.2982 28.1993 15.3599 27.7718 15.4421ZM31.3447 15.5757L30.9681 14.702C31.5483 14.8151 32.098 14.9796 32.5764 15.1851L32.8004 16.0897C32.4339 15.9355 31.9453 15.7402 31.3447 15.5757ZM29.2681 13.8386C28.0466 13.8386 26.6724 14.1367 25.6137 14.5992C25.6341 14.3628 25.7155 14.1572 25.858 13.9722C26.4688 13.2219 28.0771 12.9546 29.2681 12.9546C30.4489 12.9546 32.0573 13.2219 32.668 13.9722C32.8207 14.147 32.9022 14.3628 32.9123 14.589C31.8639 14.1264 30.51 13.8386 29.2681 13.8386Z" fill="white"/>
<path d="M20.8688 34.8181C20.4006 34.8181 20.0952 34.8284 20.0952 34.8284C19.9832 36.1955 20.0341 37.4393 20.2173 38.5699C20.6958 37.7682 21.1844 36.9664 21.164 36.4011C21.1335 35.8152 21.0011 35.2909 20.8688 34.8181Z" fill="white"/>
<path d="M21.2069 34.8181C21.3392 35.2909 21.4614 35.8048 21.4817 36.3805C21.5021 37.0486 21.0135 37.8709 20.4943 38.7446C20.4333 38.8474 20.3722 38.9502 20.3213 39.053C21.8278 46.5053 28.9636 48.9928 28.9636 48.9928V34.8283C28.9636 34.8283 23.5889 34.8078 21.2069 34.8181ZM26.5612 43.6786C26.205 43.7505 25.6451 43.7916 25.2685 43.7916C24.8918 43.7916 24.3218 43.7505 23.9757 43.6786C24.0164 43.5244 24.0673 43.3085 24.108 43.0927C23.8434 43.0618 23.5685 42.9693 23.3547 42.8871C23.4667 42.4965 23.6398 42.1162 23.7823 41.5919C24.2607 41.705 24.729 41.7358 25.2685 41.7358C25.808 41.7358 26.2762 41.6947 26.7547 41.5919C26.8972 42.1162 27.0702 42.4965 27.1822 42.8871C26.9684 42.9693 26.6936 43.0618 26.4289 43.0927C26.4798 43.3085 26.5307 43.5244 26.5612 43.6786ZM23.6398 40.5743C23.9044 40.4818 24.9529 40.4201 25.2685 40.4201C25.5738 40.4201 26.6223 40.4818 26.8972 40.5743C26.9277 40.7079 26.9277 40.9135 26.9073 41.0574C26.5002 41.1808 25.7978 41.2424 25.2685 41.2424C24.7391 41.2424 24.0368 41.1808 23.6296 41.0574C23.6092 40.9032 23.6092 40.7079 23.6398 40.5743ZM27.6097 37.7784C27.2127 38.7344 26.8259 39.7211 26.7139 40.0192C26.5002 39.9884 26.2762 39.9678 26.0523 39.9576C26.3169 39.125 26.6427 37.9326 26.9175 37.1822C27.1008 36.658 27.9762 36.8841 27.6097 37.7784ZM25.2685 36.3805C25.3295 35.9385 26.5714 35.8562 26.3373 36.8327C26.1032 37.8093 25.808 38.9605 25.584 39.9473C25.4822 39.9473 25.3703 39.937 25.2685 39.937C25.1667 39.937 25.0547 39.9473 24.9529 39.9473C24.729 38.9605 24.4338 37.8195 24.1996 36.8327C23.9655 35.8562 25.2074 35.9385 25.2685 36.3805ZM23.6398 37.1822C23.9044 37.9326 24.2403 39.125 24.505 39.9576C24.2709 39.9678 24.0469 39.9884 23.8434 40.0192C23.7212 39.7211 23.3344 38.7344 22.9374 37.7784C22.5506 36.8841 23.4464 36.658 23.6398 37.1822Z" fill="white"/>
<path d="M36.8006 36.2159L36.7802 35.8664H37.1365C37.6048 35.8664 37.8389 35.4038 37.9712 34.8693C36.1389 34.8591 29.5732 34.8796 29.5732 34.8796V41.7151C30.1229 41.304 30.6421 40.9751 31.3343 40.7489V39.5668V39.2482H31.6397H32.0163C32.057 37.6035 32.4438 36.4009 33.2073 35.6094L33.4312 35.373L33.6552 35.6094C34.4186 36.4009 34.8054 37.5933 34.8462 39.2482H35.2533H35.5587V39.5668V40.8517C36.312 41.1601 36.8108 41.6432 37.1976 42.1571C37.8185 40.8825 38.2766 39.4126 38.4395 37.7063C38.4089 37.7063 38.3784 37.7166 38.3377 37.7166C37.615 37.7063 36.8617 37.1924 36.8006 36.2159Z" fill="white"/>
<path d="M38.4387 34.8694C38.4387 34.8694 38.3776 34.8694 38.3064 34.8694C38.1435 35.6506 37.7872 36.1851 37.1357 36.1954C37.1866 36.9766 37.7669 37.3775 38.3267 37.3775C38.3674 37.3775 38.4183 37.3672 38.4591 37.3569C38.51 36.5654 38.5201 35.7534 38.4387 34.8694Z" fill="white"/>
<path d="M33.421 41.0881C31.4361 41.0881 30.6624 41.6535 29.5732 42.4964V49.0338C29.5732 49.0338 34.2965 47.3892 36.8719 42.7842C36.2713 41.8796 35.406 41.0881 33.421 41.0881ZM35.0497 43.7298L34.4492 43.0411L33.4312 43.956L33.8486 44.4391C33.8486 44.4391 34.2761 44.2335 34.6528 44.6755C34.3677 44.9222 33.8791 45.3539 33.5839 45.6109C33.2073 45.1689 33.4719 44.7783 33.4719 44.7783L33.0546 44.2952L31.8127 45.4259L31.4055 44.953L32.678 43.8737L32.2199 43.3392C32.2199 43.3392 32.057 43.4934 31.8025 43.7093C31.4361 43.2878 31.151 42.7328 31.4157 42.0235C32.1384 41.8591 32.6474 42.2291 33.0139 42.6403C32.7696 42.8561 32.5965 43.0103 32.5965 43.0103L33.0546 43.5551L34.0929 42.6711L33.5228 41.9618C34.0623 41.9002 34.5306 42.0852 34.7953 42.3936C35.0599 42.7019 35.1821 43.1953 35.0497 43.7298Z" fill="white"/>
<path d="M20.3621 31.3128C20.8608 31.724 21.0543 32.0324 20.9016 33.4406C20.8812 33.6153 20.9728 33.9443 21.0746 34.304H38.0538C38.0742 34.119 38.0844 33.934 38.0844 33.7798C38.0945 33.0089 37.9622 32.4024 37.7077 32.1454C37.6263 32.0632 37.5347 32.0221 37.382 32.0221C37.3718 32.0221 37.3616 32.0221 37.3616 32.0221L36.6796 32.094L37.0461 31.5081C37.4023 30.9325 37.9113 30.6036 38.4508 30.5625V25.4744H20.1279V31.1587C20.189 31.1998 20.2603 31.2306 20.3112 31.2717L20.3621 31.3128ZM31.1522 30.6344V30.2747L30.3175 30.2644C30.5211 29.3804 32.2312 28.2497 32.9947 27.9824C32.954 27.0162 34.206 26.6976 35.224 26.6667C36.476 26.6359 36.7712 27.9927 36.7712 28.4142C36.7712 28.9692 36.6287 30.213 35.9365 30.5933C34.9288 31.1484 34.0737 30.3774 34.0737 29.6888C34.0737 28.9281 34.603 28.4758 35.4988 28.5786C36.4048 28.6814 36.3335 28.1675 35.6515 27.9927C35.3156 27.9105 33.8803 27.8283 33.4018 28.9075C33.127 28.9178 32.8318 28.8048 32.6587 28.63C32.4755 28.8767 32.1803 29.0412 31.7833 29.1542C32.1294 29.8738 32.842 29.7504 33.2695 29.4112C33.2593 29.5037 33.2492 29.6065 33.2492 29.7196C33.2492 31.4773 35.112 31.9296 36.2622 31.2717C36.0688 31.8371 36.1605 32.5669 36.2419 33.05H31.7324C31.8139 32.5566 32.4043 32.0118 32.9132 31.652L32.5162 31.0147C32.0276 31.2306 31.5696 31.4259 31.0402 31.5698C29.7882 31.8987 29.8594 31.0045 31.1522 30.6344ZM27.9762 32.0735C27.8032 32.3305 26.7343 32.6594 26.4697 32.4949C26.0218 32.2174 25.7978 31.6315 25.9098 31.3745C26.0422 31.0456 27.2128 30.7167 27.5894 30.84C27.9559 30.9736 28.1187 31.8576 27.9762 32.0735ZM21.7261 29.2673C22.7237 28.702 23.2326 28.2805 23.762 27.4377C23.365 27.2424 22.9069 26.8929 22.5608 26.3995C24.4542 26.934 25.411 27.2115 27.6301 26.4098C27.2637 26.9957 26.7242 27.3451 26.2661 27.633C26.7751 28.4758 27.2739 29.4318 27.4469 30.2027C26.7751 30.1513 26.0218 30.3158 25.4823 30.8092C24.6476 30.8503 23.5991 31.1175 23.0087 29.2056C22.7135 29.3598 22.4081 29.5654 22.4081 29.5654C22.744 30.8092 23.3752 31.6623 25.0344 31.4876C25.126 31.8885 25.1973 32.1146 25.4009 32.4435C24.7188 32.8444 23.0087 33.862 21.7057 32.6902V29.2673H21.7261Z" fill="white"/>
<path d="M20.1279 31.5493V34.2938H20.7285C20.6267 33.934 20.5351 33.6154 20.5656 33.3893C20.7183 32.0119 20.5147 31.868 20.1279 31.5493Z" fill="white"/>
<path d="M38.4391 34.2937V30.8811C38.0421 30.9222 37.6349 31.1689 37.3193 31.6726C37.3499 31.6623 37.3906 31.6623 37.4211 31.6623C38.1744 31.6623 38.4289 32.7005 38.4187 33.7695C38.4187 33.9442 38.4085 34.119 38.3882 34.2937H38.4391V34.2937Z" fill="white"/>
<path d="M24.5756 29.6271C24.8911 29.7813 25.2779 29.6065 25.6851 29.6579C25.6037 29.4832 25.5223 29.3495 25.5732 29.1028C25.6749 28.6095 25.2779 28.4758 25.0947 28.4964C24.6366 28.5169 24.372 28.63 23.8936 28.4964C24.2295 28.8048 24.1379 29.4112 24.5756 29.6271Z" fill="white"/>
<path d="M20.5946 33.3687C20.7575 31.9502 20.5335 31.8372 20.1263 31.4979C19.7701 31.1999 19.1898 31.1073 18.6096 30.7065C18.1923 30.4187 18.0803 29.9972 17.5611 29.4319C17.6629 28.2395 18.5078 26.7696 19.1389 26.4407C19.2306 26.3893 19.2 24.5391 19.2 24.5391C19.2 24.5391 19.6174 24.5185 19.5767 24.498C19.0168 24.1485 18.3449 24.4157 17.8563 24.9913C17.3779 25.3819 16.2989 26.1118 15.5558 26.3687C14.548 25.5053 12.9702 24.7549 11.8098 23.5831C11.8098 23.5831 13.3367 23.5626 14.0391 23.2748C14.2223 23.1617 14.7109 22.3702 14.5175 21.6198C14.2834 21.5376 13.9373 21.3526 13.6014 21.1676C13.184 20.9209 12.7768 20.6639 12.5936 20.52C11.9319 20.0163 11.6673 19.5743 10.517 19.2865C10.5883 18.752 10.7002 18.8753 11.2092 18.5361C11.8505 18.0941 12.2068 17.5699 12.4714 17.056C12.675 16.6448 12.4409 15.8122 11.9218 16.8709C11.7385 17.2513 11.2397 17.7447 10.6799 17.8988C10.7206 17.5699 10.7409 17.3746 10.7409 17.1999C12.4205 16.0075 12.2577 14.9488 12.1253 13.962C12.0541 13.3864 11.484 13.1499 11.5146 13.7461C11.5248 14.1367 11.8709 15.2571 10.7308 15.915C10.7104 15.4216 10.5679 15.1955 10.4661 14.9385C11.484 13.5817 11.0565 12.2659 10.629 11.6698C10.3541 11.2894 9.68229 11.1558 9.98768 11.7623C10.232 12.2557 10.6392 13.6022 9.88588 14.147C9.62122 13.8181 9.32602 13.6947 9.22422 13.2527C9.29548 11.7726 9.20386 10.8783 9.02063 10.3541C8.8374 9.87094 8.37933 9.56257 8.40987 10.2821C8.45059 11.1044 8.52184 12.1323 8.44041 12.2043C8.36915 12.2659 7.29014 11.2483 6.84225 10.9502C6.39435 10.6419 5.87521 10.7549 6.39435 11.3614C6.85243 11.8959 8.22664 12.9238 8.05359 13.263C7.94162 13.4686 6.95422 12.6463 6.44525 12.4715C5.9261 12.2865 5.76323 12.5743 6.20095 12.9341C6.90332 13.52 7.37157 13.9003 8.53202 14.2909C9.68229 14.6815 10.2625 16.2953 9.89606 18.6081C9.88588 18.7212 9.68229 18.7006 9.57032 18.6595C9.51942 17.7755 9.36673 16.7168 9.15297 16.2542C8.87812 15.6477 8.33862 15.6375 8.53202 16.4598C8.68471 17.1074 8.77633 17.8166 8.66436 18.7006C7.70749 18.5361 7.34104 18.2792 6.94404 18.0325C6.90332 17.5905 7.12727 16.8504 7.16799 16.1925C7.22906 15.5449 6.85243 15.1338 6.63866 15.9561C6.43507 16.7373 6.29256 17.1176 6.17041 17.6727C5.89556 17.5802 5.61054 17.4568 5.47821 17.3027C5.41713 17.2307 5.47821 16.3467 5.40695 15.7197C5.34588 15.0002 5.07103 15.0207 4.85727 15.658C4.75547 15.9458 4.68422 16.3364 4.65368 16.8093C4.31776 16.6037 4.08363 16.2028 4.0531 15.8944C4.10399 15.1441 4.22615 14.3423 4.31776 13.8489C4.37884 13.4891 4.14471 12.7696 3.85969 13.6433C3.6561 14.2704 3.6052 14.7946 3.48305 15.2366C3.23875 15.216 2.92318 13.7872 2.75014 12.8827C2.67888 12.4612 2.33278 11.9884 2.2717 12.9135C2.20045 13.9311 2.41422 14.959 2.65852 15.4216C2.16991 15.3702 1.70166 14.4759 1.36574 13.962C1.06036 13.4994 0.917847 13.9825 0.948385 14.1676C1.23341 15.9869 2.6687 16.6345 3.32018 16.7579C4.32794 18.2175 6.25184 18.8445 7.87036 19.5538C5.75305 19.5332 5.20337 20.3864 4.23633 19.8313C4.27704 20.633 4.67404 21.0134 5.05068 21.1984C5.32552 21.3217 5.59018 21.3629 5.71233 21.3834C5.88538 22.3599 6.81171 22.3085 7.58534 22.3599C7.38175 24.2615 7.61588 26.7799 9.27512 28.6609C9.22422 29.6272 9.16315 30.9018 9.17333 31.7344C7.81947 33.009 6.60812 35.6712 6.12969 37.1514C5.77341 38.2512 5.2339 39.1147 4.40937 39.5156C5.09139 40.2454 6.08897 39.8856 6.6692 39.4744C6.70991 40.122 6.86261 40.5846 6.9644 40.9649C6.57758 41.5508 6.31292 41.9517 6.35364 42.6712C5.91592 42.7946 5.61054 43.0618 5.37642 43.3702C5.22372 43.5552 5.39677 44.4392 5.56982 44.8092C6.10933 46.0324 5.69198 48.7872 5.59018 49.6095C5.81413 49.6198 6.23148 49.6404 6.3231 49.3012C6.45543 49.4245 6.79135 49.6609 6.94404 50.1954C6.90332 50.3907 6.77099 51.2336 7.2087 51.3467C7.56498 51.4392 9.08171 51.3878 9.2853 51.1205C9.13261 50.9355 8.86794 50.5346 8.70507 50.1338C8.70507 49.7123 8.66436 49.2087 8.55238 48.9825C8.37933 48.6742 7.94162 47.9649 7.6566 47.6874C7.59552 47.1837 7.54462 44.9326 7.77875 44.0692C8.17575 43.7916 10.8529 41.7769 11.4128 39.8548C11.9014 40.0192 11.7487 41.3658 11.7487 43.1029C11.7487 43.5655 12.3086 43.8019 12.6445 43.8533C13.3672 43.9458 14.4055 44.6345 15.5558 46.3717C15.7797 46.1352 16.0749 45.8988 16.0749 45.8988C16.2276 46.1044 16.4007 46.6081 16.5025 46.9164C16.6246 47.1529 17.5611 47.2968 18.2737 47.0706C18.5078 46.9884 18.6503 46.9473 18.803 46.6903C17.8971 45.0868 17.3474 44.028 16.1869 43.1441C15.6474 42.7329 14.9247 42.5273 14.3241 42.1367C14.7313 41.3761 15.8408 37.799 15.169 36.4833C14.945 36.0515 14.1001 35.6198 13.072 35.8151C13.9271 34.7667 15.6678 32.7109 15.9019 32.0839C16.1055 32.3305 17.1336 32.1558 17.8971 32.4642C18.1719 32.5772 18.9557 33.5949 18.9964 33.9546C19.0677 34.5816 19.0982 35.3423 18.6605 37.0692C18.9659 37.0178 18.9252 36.9972 19.2204 36.8739C19.2713 37.3364 19.1288 37.6962 18.7318 38.3952C18.8336 39.0222 19.1084 39.9781 19.4036 40.1631C19.7904 39.0016 21.2257 37.3364 21.185 36.3702C21.1341 35.0545 20.5233 33.9443 20.5946 33.3687Z" fill="white"/>
<path d="M79.0031 32.1249C79.0031 32.1249 78.5858 32.3819 77.7103 32.3819C76.5804 32.3819 75.5727 31.7035 75.0332 31.3437C74.341 30.8812 73.211 30.2233 72.0811 29.8636C69.9027 29.8636 68.4776 29.2468 67.3681 27.7872C66.2585 26.3481 65.6885 24.4876 65.6885 22.3393C65.6885 19.1734 66.8795 16.6037 68.9764 15.4627C69.8315 15.0001 70.9003 14.7432 71.9895 14.7432C75.8577 14.7432 78.2498 17.6007 78.2498 22.2057C78.2498 25.4025 77.1199 27.7872 75.3793 28.9487C75.7762 29.1029 76.3463 29.4832 76.6822 29.6888C77.2014 30.0075 77.8325 30.3056 78.484 30.3056C79.1151 30.3056 79.7767 30.2028 79.7767 30.2028L79.0031 32.1249ZM74.5038 18.8959C74.2697 18.1558 73.4961 17.0354 71.9488 17.0354C70.9614 17.0354 70.1063 17.539 69.689 18.3305C69.1902 19.2865 68.9561 20.5714 68.9561 22.3496C68.9561 24.8885 69.3734 26.4715 70.2488 27.1088C70.7171 27.448 71.2973 27.6125 71.9895 27.6125C74.0152 27.6125 74.8805 26.0501 74.8805 22.3085C74.8805 20.7975 74.7583 19.7182 74.5038 18.8959Z" fill="white"/>
<path d="M87.4947 29.9253C87.1385 29.6683 86.8433 29.3085 86.66 28.8665C85.9678 29.545 84.9601 29.9047 83.8302 29.9047C82.3236 29.9047 81.0207 29.1852 80.6746 28.147C80.5117 27.6536 80.4404 27.0883 80.4404 25.9884V19.0501L83.199 18.5259V25.4848C83.199 26.451 83.2907 26.9649 83.4332 27.263C83.5859 27.5611 83.993 27.7667 84.4206 27.7667C85.1128 27.7667 85.9475 27.263 86.1612 26.7285V19.1118L88.8384 18.5464V26.8107C88.8384 27.5303 89.0726 28.2704 89.4899 28.774L87.4947 29.9253Z" fill="white"/>
<path d="M94.1614 25.1043V25.1968C94.1614 26.862 94.9757 27.818 96.4212 27.818C97.3883 27.818 98.284 27.4582 99.1493 26.7387L100.238 28.4347C99.0068 29.442 97.7038 29.9354 96.1973 29.9354C93.1231 29.9354 91.1279 27.7357 91.1279 24.3334C91.1279 22.3907 91.5249 21.0955 92.4716 20.0368C93.347 19.0397 94.4159 18.5771 95.841 18.5771C97.0727 18.5771 98.2535 18.9986 98.9355 19.7181C99.9229 20.7357 100.361 22.1954 100.361 24.4567V25.1146H94.1614V25.1043ZM97.4493 22.9046C97.4493 22.1028 97.3679 21.6814 97.1134 21.2805C96.8386 20.8591 96.4416 20.6432 95.8817 20.6432C94.8129 20.6432 94.2021 21.4861 94.2021 22.9868V23.028H97.4493V22.9046Z" fill="white"/>
<path d="M104.748 25.1043V25.1968C104.748 26.862 105.562 27.818 107.008 27.818C107.964 27.818 108.87 27.4582 109.725 26.7387L110.815 28.4347C109.583 29.442 108.28 29.9354 106.773 29.9354C103.699 29.9354 101.704 27.7357 101.704 24.3334C101.704 22.3907 102.101 21.0955 103.048 20.0368C103.933 19.0397 104.992 18.5771 106.417 18.5771C107.649 18.5771 108.83 18.9986 109.512 19.7181C110.499 20.7357 110.937 22.1954 110.937 24.4567V25.1146H104.748V25.1043ZM108.036 22.9046C108.036 22.1028 107.954 21.6814 107.7 21.2805C107.425 20.8591 107.028 20.6432 106.468 20.6432C105.399 20.6432 104.788 21.4861 104.788 22.9868V23.028H108.036V22.9046Z" fill="white"/>
<path d="M118.623 29.6272V22.5861C118.623 21.3629 118.409 21.0031 117.676 21.0031C117.116 21.0031 116.384 21.3834 115.732 21.9796V29.6272H112.923V21.7843C112.923 20.8489 112.8 19.9649 112.546 19.2454L115.04 18.5259C115.294 18.9782 115.437 19.4407 115.437 19.8827C115.854 19.5846 116.21 19.3379 116.669 19.0809C117.239 18.7829 117.972 18.6184 118.603 18.6184C119.794 18.6184 120.842 19.2557 121.178 20.1808C121.321 20.5817 121.392 21.0545 121.392 21.7226V29.6272H118.623V29.6272Z" fill="white"/>
<path d="M127.488 29.9664C126.164 29.9664 124.719 29.545 123.151 28.7227L124.159 26.6463C125.014 27.1808 126.5 27.8695 127.722 27.8695C128.516 27.8695 129.147 27.335 129.147 26.6463C129.147 25.9062 128.628 25.5259 127.498 25.3203L126.236 25.0839C125.523 24.9606 124.648 24.4466 124.271 23.9841C123.894 23.5215 123.66 22.7403 123.66 22.0311C123.66 19.9239 125.32 18.5054 127.803 18.5054C129.524 18.5054 130.654 19.0296 131.631 19.523L130.715 21.4246C129.646 20.8695 128.872 20.6434 128.078 20.6434C127.264 20.6434 126.714 21.0648 126.714 21.7021C126.714 22.2572 127.07 22.545 128.058 22.802L129.351 23.1412C130.674 23.4804 131.112 23.8813 131.488 24.3644C131.885 24.8681 132.079 25.4848 132.079 26.2043C132.079 28.4452 130.236 29.9664 127.488 29.9664Z" fill="white"/>
<path d="M136.792 29.8843C135.601 29.8843 134.634 29.319 134.298 28.4041C134.085 27.8491 134.044 27.5201 134.044 25.968V17.8887C134.044 16.4702 134.003 15.5965 133.901 14.6303L136.772 13.9724C136.874 14.5583 136.914 15.2573 136.914 16.7889V25.2279C136.914 27.0884 136.935 27.3454 137.098 27.6332C137.199 27.8182 137.434 27.9313 137.658 27.9313C137.759 27.9313 137.831 27.9313 137.973 27.8902L138.452 29.5862C137.993 29.7815 137.403 29.8843 136.792 29.8843Z" fill="white"/>
<path d="M147.095 30.1822C146.444 29.9046 145.864 29.4215 145.589 28.8665C145.385 29.0823 145.151 29.2879 144.947 29.4318C144.418 29.8121 143.665 30.028 142.789 30.028C140.397 30.028 139.104 28.8048 139.104 26.6462C139.104 24.1073 140.845 22.9252 144.255 22.9252C144.469 22.9252 144.652 22.9252 144.886 22.9458V22.5038C144.886 21.3011 144.652 20.9002 143.634 20.9002C142.728 20.9002 141.69 21.3422 140.53 22.1235L139.339 20.0882C139.909 19.7284 140.326 19.5229 141.079 19.1939C142.128 18.7519 143.024 18.5566 144.011 18.5566C145.813 18.5566 147.044 19.2351 147.462 20.4377C147.604 20.8797 147.676 21.2189 147.645 22.3804L147.584 26.0192C147.564 27.2013 147.645 27.7152 148.592 28.4348L147.095 30.1822ZM144.703 24.8988C142.759 24.8988 142.087 25.2585 142.087 26.5434C142.087 27.3863 142.606 27.9619 143.319 27.9619C143.838 27.9619 144.367 27.6844 144.785 27.2218L144.825 24.8988H144.703V24.8988Z" fill="white"/>
<path d="M156.234 29.6272V22.5861C156.234 21.3629 156.021 21.0031 155.288 21.0031C154.718 21.0031 153.985 21.3834 153.343 21.9796V29.6272H150.534V21.7843C150.534 20.8489 150.412 19.9649 150.157 19.2454L152.651 18.5259C152.906 18.9782 153.048 19.4407 153.048 19.8827C153.466 19.5846 153.822 19.3379 154.28 19.0809C154.84 18.7829 155.583 18.6184 156.214 18.6184C157.405 18.6184 158.453 19.2557 158.789 20.1808C158.932 20.5817 159.003 21.0545 159.003 21.7226V29.6272H156.234V29.6272Z" fill="white"/>
<path d="M168.369 29.627C168.287 29.4626 168.246 29.2878 168.206 28.9898C167.514 29.6065 166.699 29.8943 165.732 29.8943C163.014 29.8943 161.294 27.7563 161.294 24.395C161.294 21.0133 163.157 18.6902 165.875 18.6902C166.648 18.6902 167.259 18.8855 167.778 19.3069C167.737 19.0705 167.697 18.3304 167.697 17.7034V13.9824L170.486 14.4244V25.6696C170.486 28.3319 170.7 29.2056 170.883 29.627H168.369V29.627ZM167.737 21.6608C167.218 21.1983 166.709 20.9619 166.211 20.9619C164.959 20.9619 164.409 22.0206 164.409 24.4259C164.409 26.7489 164.887 27.5199 166.353 27.5199C166.872 27.5199 167.463 27.1601 167.737 26.8209V21.6608Z" fill="white"/>
<path d="M72.3057 50.3291C70.5039 50.3291 68.977 49.6918 67.8878 48.5097C66.6765 47.1837 66.1064 45.3849 66.1064 42.8871C66.1064 40.1221 66.8394 38.1485 68.3256 36.8019C69.3537 35.8666 70.5854 35.4246 72.0716 35.4246C73.5985 35.4246 74.9218 35.9077 76.011 36.8636L75.2374 37.9429C74.0667 37.1412 73.232 36.8225 72.1225 36.8225C70.4429 36.8225 69.1297 37.6037 68.5393 39.2689C68.1627 40.3482 67.9794 41.5714 67.9794 42.9488C67.9794 44.8504 68.3357 46.3922 68.9872 47.3482C69.6387 48.3041 71.1045 48.89 72.4584 48.89C73.3643 48.89 74.138 48.705 74.7386 48.3247V43.9047H71.8476L71.5117 42.4657H76.3469V49.2292C75.3188 49.9077 73.7715 50.3291 72.3057 50.3291Z" fill="white"/>
<path d="M83.6663 50.3702C80.7957 50.3702 79.167 48.2424 79.167 44.7681C79.167 41.3452 80.8669 39.2483 83.6052 39.2483C85.3459 39.2483 86.4758 40.0501 87.1884 41.0882C87.8398 42.0442 88.1452 43.2879 88.1452 45.0045C88.1452 48.5097 86.2824 50.3702 83.6663 50.3702ZM85.804 41.9517C85.3662 41.0163 84.4399 40.5948 83.5848 40.5948C82.6585 40.5948 81.8035 41.0368 81.4472 41.7358C81.1113 42.3937 80.9484 43.2365 80.9484 44.4803C80.9484 45.9605 81.2029 47.2762 81.5999 47.9238C81.9765 48.5611 82.8112 48.9825 83.7172 48.9825C84.8064 48.9825 85.6207 48.4172 85.977 47.3995C86.2111 46.7417 86.2926 46.1558 86.2926 45.1176C86.2824 43.6477 86.1399 42.6506 85.804 41.9517Z" fill="white"/>
<path d="M94.6483 50.2058H93.04L89.2939 39.6596L90.9735 39.2998L93.4064 46.5568C93.7016 47.4202 93.9052 48.3556 93.9052 48.3556H93.9459C93.9459 48.3556 94.1088 47.5333 94.4447 46.5773L96.8369 39.5773H98.5775L94.6483 50.2058Z" fill="white"/>
<path d="M101.796 45.1072V45.3642C101.796 46.3613 101.918 47.1219 102.284 47.6667C102.865 48.5712 103.832 48.9618 104.88 48.9618C105.888 48.9618 106.702 48.6432 107.435 47.9648L108.066 49.0235C107.14 49.8664 105.888 50.3289 104.544 50.3289C101.653 50.3289 99.9229 48.2218 99.9229 44.7269C99.9229 42.9486 100.299 41.8077 101.175 40.7489C102.01 39.7519 103.038 39.2893 104.29 39.2893C105.42 39.2893 106.407 39.6902 107.12 40.4303C108.015 41.3554 108.311 42.3524 108.311 44.8708V45.1072H101.796ZM106.092 41.5096C105.735 40.9442 105.002 40.5845 104.208 40.5845C102.722 40.5845 101.887 41.6843 101.796 43.8635H106.57C106.55 42.7225 106.407 42.0235 106.092 41.5096Z" fill="white"/>
<path d="M115.67 41.1499C115.568 41.1088 115.375 41.0677 115.212 41.0677C114.581 41.0677 113.96 41.3349 113.471 41.8283C112.993 42.3114 112.871 42.6301 112.871 43.5038V50.1029H111.242V41.9825C111.242 40.4406 110.886 39.7417 110.886 39.7417L112.514 39.2997C112.514 39.2997 112.911 40.122 112.85 41.0163C113.604 39.937 114.713 39.2585 115.782 39.2585C116.057 39.2585 116.342 39.3613 116.342 39.3613L115.67 41.1499Z" fill="white"/>
<path d="M123.916 50.0925V42.9691C123.916 41.8487 123.834 41.5712 123.539 41.2114C123.305 40.9442 122.867 40.7694 122.389 40.7694C121.554 40.7694 120.251 41.4478 119.498 42.2496V50.0925H117.91V41.9721C117.91 40.4713 117.513 39.7518 117.513 39.7518L119.101 39.3098C119.101 39.3098 119.477 40.091 119.477 40.9545C120.567 39.8546 121.656 39.3304 122.765 39.3304C123.895 39.3304 124.903 39.9471 125.32 40.8722C125.483 41.2525 125.575 41.674 125.575 42.0954V50.0925H123.916V50.0925Z" fill="white"/>
<path d="M140.151 50.0925V42.3113C140.151 41.2937 139.693 40.7695 138.808 40.7695C137.861 40.7695 137.128 41.3862 136.039 42.3936V50.0925H134.39V42.6094C134.39 41.9721 134.329 41.5507 134.095 41.2526C133.84 40.9545 133.504 40.8312 133.026 40.8312C132.232 40.8312 131.458 41.232 130.369 42.2291V50.0925H128.801V41.931C128.801 40.4097 128.425 39.6902 128.425 39.6902L130.013 39.3099C130.013 39.3099 130.389 40.1322 130.389 40.8723C131.082 40.0911 132.354 39.2893 133.423 39.2893C134.451 39.2893 135.479 39.9266 135.856 41.047C136.864 39.9677 138.136 39.2893 139.205 39.2893C140.752 39.2893 141.821 40.4714 141.821 42.1469V50.0925H140.151V50.0925Z" fill="white"/>
<path d="M146.32 45.1072V45.3642C146.32 46.3613 146.442 47.1219 146.798 47.6667C147.389 48.5712 148.345 48.9618 149.394 48.9618C150.402 48.9618 151.216 48.6432 151.949 47.9648L152.58 49.0235C151.664 49.8664 150.402 50.3289 149.058 50.3289C146.167 50.3289 144.437 48.2218 144.437 44.7269C144.437 42.9486 144.813 41.8077 145.689 40.7489C146.523 39.7519 147.551 39.2893 148.814 39.2893C149.944 39.2893 150.931 39.6902 151.644 40.4303C152.539 41.3554 152.835 42.3524 152.835 44.8708V45.1072H146.32ZM150.605 41.5096C150.249 40.9442 149.516 40.5845 148.722 40.5845C147.236 40.5845 146.401 41.6843 146.31 43.8635H151.084C151.073 42.7225 150.921 42.0235 150.605 41.5096Z" fill="white"/>
<path d="M161.761 50.0925V42.9691C161.761 41.8487 161.68 41.5712 161.385 41.2114C161.15 40.9442 160.713 40.7694 160.234 40.7694C159.4 40.7694 158.097 41.4478 157.343 42.2496V50.0925H155.755V41.9721C155.755 40.4713 155.358 39.7518 155.358 39.7518L156.946 39.3098C156.946 39.3098 157.323 40.091 157.323 40.9545C158.412 39.8546 159.501 39.3304 160.611 39.3304C161.741 39.3304 162.749 39.9471 163.166 40.8722C163.329 41.2525 163.42 41.674 163.42 42.0954V50.0925H161.761V50.0925Z" fill="white"/>
<path d="M170.447 40.8105H168.268V47.5947C168.268 48.7562 168.584 49.1571 169.612 49.1571C170.07 49.1571 170.345 49.0954 170.64 48.9412L170.874 50C170.355 50.2775 169.765 50.4214 169.032 50.4214C168.482 50.4214 168.065 50.3186 167.668 50.1233C166.935 49.7635 166.66 49.0851 166.66 48.0264V40.8003H165.296V39.5565H166.66C166.66 38.5389 166.823 36.8942 166.823 36.8942L168.533 36.5139C168.533 36.5139 168.329 38.1586 168.329 39.5565H170.945L170.447 40.8105Z" fill="white"/>
</g>
<defs>
<clipPath id="clip0_31770_208153">
<rect width="170" height="56" fill="white" transform="translate(0.944336)"/>
</clipPath>
</defs>
</svg>
