<svg width="171" height="56" viewBox="0 0 171 56" fill="none" xmlns="http://www.w3.org/2000/svg">
<g clip-path="url(#clip0_31638_83764)">
<path d="M60.223 21.2601C60.0296 21.3115 59.5613 21.4554 59.256 21.4965C59.8362 20.9209 60.1823 20.2219 60.1823 19.6463C59.9074 19.7388 59.4086 19.9238 58.9506 20.0266C59.8565 19.2454 60.3451 18.3512 60.1314 17.1588C59.8565 17.3027 59.4595 17.5288 59.0727 17.6933C59.8667 16.4701 59.8565 15.3805 59.5308 14.7432C59.1745 15.0824 58.747 15.473 58.2991 15.7506C58.5943 14.3321 58.5739 13.4172 57.9835 12.7697C57.3829 13.9209 56.8638 14.7638 56.0189 15.7814C56.0902 14.846 55.9884 13.6742 55.3776 13.0575C55.3776 13.0575 55.2046 14.3629 54.7465 14.7843C54.6345 13.4995 54.2477 12.8005 53.6675 12.1118C53.6675 12.1118 53.6268 13.4481 53.2705 14.2704C52.9651 13.15 52.3951 12.2866 51.6723 11.4642C51.7232 13.9312 51.0412 18.5773 49.0868 21.7021C48.8526 23.5523 48.649 26.3482 45.6665 27.9929C45.2389 27.6845 44.4755 27.2939 43.4168 27.3556C43.1318 25.9576 44.9437 24.683 46.5114 23.6757C48.0892 22.6478 48.7814 21.7741 48.7407 20.3967C48.6999 18.8959 47.6922 18.2792 46.6539 18.2381C45.188 18.1661 43.9869 19.5127 43.7019 20.078C43.2743 20.2836 42.0223 20.6742 41.5031 20.8181C40.9331 20.9723 40.2816 21.2087 39.8744 21.5479C40.1187 21.7021 40.8007 21.7535 41.0756 21.7124C41.5744 21.6404 43.1623 21.3423 44.6791 21.1573C45.2389 21.4554 46.1246 21.9694 45.1779 22.6272C43.8851 23.4598 43.3252 23.6757 41.5031 24.6419C38.6223 26.1632 39.5588 29.9973 40.2612 30.2851C40.2612 31.5802 41.4115 33.9136 42.1851 34.7256C42.5312 36.3497 42.0732 38.7755 41.5845 39.7829C41.1875 38.7961 40.4852 36.5141 40.0373 35.1779C40.5055 32.6492 39.7523 31.5391 39.2229 31.1177C38.6936 30.6757 37.8589 30.799 37.3194 31.6727C38.1541 31.5802 38.4289 32.6595 38.4086 33.7697C38.3882 35.1059 38.0523 36.1749 37.126 36.1852C37.1972 37.3262 38.4188 37.6551 39.0295 37.1C39.1211 37.357 39.6097 38.8578 40.078 40.194C40.3528 40.9855 40.6175 41.7153 40.8007 42.0956C40.9941 42.5171 42.3989 42.589 42.5618 42.0956C42.7857 41.4481 42.9588 40.9547 43.315 40.194C43.5797 39.6184 43.9563 38.8783 44.5162 37.7887C44.8928 38.4466 45.4018 39.4848 45.6868 40.194C45.8192 40.5127 45.921 40.7799 45.9311 40.9033C46.0431 41.9928 45.982 45.8577 45.6868 48.1705C42.5414 47.3071 41.6558 48.8592 41.9306 50.0105C42.3887 49.5068 42.9689 49.5685 43.3354 49.8357C43.2438 50.6786 43.4779 51.2953 44.333 51.5523C45.2389 49.1367 48.476 49.6713 48.7814 49.8768C48.7915 49.4143 49.2293 48.2528 47.5598 48.0061C47.6209 45.9194 47.8347 43.3599 47.9161 42.8254C47.9874 42.2909 48.0485 41.962 47.794 41.1294C47.7227 40.8827 47.6311 40.5743 47.5395 40.2043C47.3257 39.3614 47.1018 38.2616 47.0814 37.0589C47.3664 37.3467 48.0586 37.5832 48.5371 37.4701C48.9035 39.0531 49.4329 38.5905 49.7077 39.2484C49.8502 39.5876 49.8807 39.9062 49.9215 40.194C49.952 40.4716 49.9927 40.708 50.1454 40.9135C51.2651 40.9444 52.2118 40.6771 52.8938 40.194C53.1076 40.0398 53.2807 39.8754 53.4435 39.6903C53.1687 38.0149 52.7004 37.1823 51.8352 36.1647C51.6112 34.7873 50.9699 33.5332 50.1047 32.4231C51.2041 32.0633 52.3136 31.1588 52.904 30.542C53.4333 30.5009 54.0339 30.0589 54.0746 29.1955C54.38 29.1544 54.6447 29.1441 54.8788 29.0927C54.8483 28.8563 54.7872 28.4965 54.7567 28.2807C55.1638 28.2807 55.5405 28.2601 55.9273 28.2293C55.8153 27.9106 55.6728 27.5817 55.5608 27.3453C55.968 27.3453 56.4668 27.3144 56.874 27.2939C56.6602 26.8827 56.4973 26.5332 56.3752 26.1735C56.8434 26.1324 57.556 26.009 58.1464 25.8754C57.953 25.6698 57.7392 25.4642 57.4237 25.1456C58.9608 24.683 59.6224 23.614 59.7038 23.1412C59.4799 23.1412 59.0116 23.244 58.7368 23.2234C59.5613 22.7095 60.1416 22.0105 60.223 21.2601Z" fill="#1D1D1D"/>
<path d="M38.7751 24.7344H29.2676H19.7498H19.3936V25.0941V31.9605C19.4852 32.0119 19.5666 32.0839 19.6582 32.1661V25.0427H38.938V31.6624C39.0092 31.7344 39.0703 31.8269 39.1314 31.9502V25.1044V24.7447H38.7751V24.7344Z" fill="#1D1D1D"/>
<path d="M29.2386 49.6402C20.6879 46.4229 19.5987 39.3407 19.5681 36.1336C19.558 36.1336 19.5478 36.1336 19.5376 36.1234C19.5478 36.0411 19.558 35.9692 19.5681 35.8869C19.5681 35.188 19.619 34.7151 19.6496 34.5507C19.6292 34.0881 19.558 33.7386 19.4867 33.4611C19.4663 33.4097 19.4256 33.348 19.4053 33.2966V36.627C19.4053 40.3583 20.7693 43.5756 23.4363 46.1865C25.7776 48.4787 28.4038 49.5477 29.1571 49.815L29.2793 49.8561L29.4014 49.815C30.1547 49.5477 32.781 48.4787 35.1222 46.1865C37.7892 43.5756 39.1431 40.348 39.1431 36.627V36.0206C39.082 36.1336 39.0108 36.1953 38.9293 36.2878C38.8581 37.9633 38.5527 40.5639 37.4431 42.5169C36.1198 45.2717 34.0941 47.5228 29.2386 49.6402Z" fill="#1D1D1D"/>
<path d="M25.8158 18.3408C24.4823 18.4231 23.1691 20.1705 23.729 22.1646C23.5356 22.2366 22.9554 22.2263 22.7619 21.8254C22.6194 22.473 21.3165 23.2234 20.3596 23.1206C20.8889 22.5449 21.235 21.2498 22.2733 20.5611C23.3116 19.8724 23.7799 19.4099 24.1362 18.238C23.6577 18.4642 21.1638 19.1118 20.4614 18.3306C22.1003 18.0941 24.0344 17.1588 24.9912 16.5523L24.6044 16.1514C23.5763 16.7373 22.2021 17.2204 21.5099 17.4363C21.2656 15.3702 23.22 15.4524 23.3625 16.0075C24.1667 15.0413 23.6068 13.6536 23.0062 13.4994C23.617 11.8548 23.0062 10.8372 22.4871 10.2204C22.3649 11.9781 20.4309 12.2557 20.1967 13.6022C20.1153 12.5332 20.0542 9.64481 19.9626 8.23659C19.8099 5.61544 16.5423 4.71089 16.0435 4.71089C13.9059 4.81368 13.7023 4.52587 13.7532 3.52881C12.6742 4.77257 13.0406 5.8827 13.9568 6.41721C13.8346 7.16757 12.6436 7.7432 11.9209 7.90766C13.6616 9.53174 15.6771 8.56551 16.634 7.64041C16.7052 7.57873 16.7765 7.51706 16.8477 7.45538C17.1938 8.07212 17.4483 9.20281 17.4483 9.85039C15.8196 9.75788 15.5346 11.0325 15.5346 11.4847C17.601 10.6213 17.8249 14.6096 18.3644 15.2571C17.8351 15.2263 16.9088 13.9928 15.5346 13.9003C13.8855 13.7975 13.3053 14.6815 12.6335 14.6507C12.7556 15.8225 14.1807 16.4906 15.0969 16.6345C14.6286 17.8372 15.046 18.6595 16.013 18.9576C16.013 17.8577 17.3974 17.5082 18.8836 18.3922C20.665 19.4407 21.5811 19.5332 23.0062 19.0912C22.7721 19.6154 22.1206 19.6668 21.3368 20.448C20.2273 21.5479 20.1967 22.9869 18.9549 23.5112C20.4105 24.2101 22.5889 23.2336 22.9045 22.6683C23.5152 23.0486 24.299 22.8225 24.5026 22.4319C23.5254 20.2322 25.1745 18.9267 25.8259 18.9576C25.8463 18.9781 26.1313 18.3203 25.8158 18.3408ZM18.2627 17.4363C17.5297 17.1382 16.41 16.9429 15.7789 17.8372C15.4328 17.241 15.9418 16.3364 16.2573 16.0692C14.6592 16.0897 13.7532 15.6066 13.5191 15.1132C14.1095 14.7843 15.6058 14.2395 16.8274 15.1441C17.6723 15.7608 18.0998 16.0692 19.0974 16.3981C19.4536 16.0281 19.3213 16.1925 19.4435 16.0897C18.6291 15.5244 18.2627 11.125 16.6543 10.9605C16.8884 10.4055 17.713 10.4568 18.3746 10.6316C18.4255 9.64481 18.0183 8.02073 17.4178 7.08534C18.3441 6.59195 18.9854 7.12646 19.3111 8.29826C19.6572 9.54202 19.2501 12.6463 20.0542 15.4422L20.553 14.9693C20.2985 13.335 22.0697 12.7388 22.4566 11.9267C22.6093 13.0266 22.3853 13.5097 22.0799 13.9106C22.7212 13.9928 23.0062 14.6198 22.9045 15.0721C21.3572 14.8357 20.4614 16.4084 20.8075 17.6521C19.6776 17.8988 18.8938 17.7035 18.2627 17.4363ZM13.8855 5.20428C15.107 5.81074 15.4939 4.70061 17.774 6.19107C16.2675 6.67418 15.107 8.55524 13.4071 8.07212C14.6286 7.45538 14.4963 6.56111 15.2088 6.10884C14.7508 6.04716 13.8753 5.84158 13.8855 5.20428Z" fill="#1D1D1D"/>
<path d="M41.6553 12.307C41.6553 9.86061 41.5637 7.84593 41.5332 7.20863C41.6248 7.22919 41.7164 7.26003 41.8284 7.30114C43.569 7.91788 43.966 10.0354 47.5594 7.63007C45.6355 7.85621 45.5337 6.21157 44.6582 6.17045C45.9917 5.40981 46.0833 3.6521 46.0833 3.6521C44.9636 4.55665 42.3781 4.61833 41.8691 4.91642C41.1972 5.32758 40.3524 5.82097 39.7823 6.13962C38.2859 6.96194 39.3242 11.4436 39.1817 13.0779C38.3776 10.6418 36.7387 11.0016 35.8836 9.60364C35.2423 10.7652 35.9243 12.7284 36.189 13.2835C35.2627 14.0442 35.507 15.4627 35.7309 15.8327C36.5249 15.2571 37.7566 15.401 38.1231 16.3672C37.0848 17.0148 35.3339 17.1279 34.1429 15.9561L33.7154 16.4392C34.5603 17.5699 36.6674 18.0016 38.235 17.0867C38.2249 17.3437 38.174 17.6315 38.0722 17.9502C37.2578 18.3819 36.2093 18.6183 34.998 18.1969C35.1609 19.4201 36.5656 20.3452 37.8889 20.7152C37.4411 21.0647 36.8812 21.2086 36.4842 21.1572C36.7285 21.8665 36.871 22.8121 36.3417 23.5625C35.68 23.1205 35.3237 22.6682 35.0693 20.9516C34.8148 19.2248 33.5831 17.4671 32.6262 17.1176C32.5753 17.724 32.5753 17.4568 32.6771 17.8577C35.2118 19.7387 33.7765 23.1308 36.4231 24.354C37.3902 23.2336 37.4003 22.843 37.2578 21.7945C38.2147 21.5375 38.9272 20.7255 39.1817 20.0985C38.2758 20.5302 36.8405 19.7696 36.4435 19.1734C38.0111 19.122 39.4668 17.9296 40.9631 16.3569C42.2966 14.9487 44.0678 15.1646 43.9253 16.2644C44.8415 16.1308 45.2079 14.8562 44.9025 14.0442C46.2462 13.6227 47.3151 12.6051 47.4576 11.0324C45.666 11.9678 43.3655 10.4568 41.6553 12.307ZM43.8337 13.633C44.5463 14.2189 44.3121 15.0618 44.1391 15.2571C43.5181 14.1572 41.5026 14.5478 39.5278 16.7989C39.3853 16.9634 39.2021 17.1587 38.9883 17.354C39.141 14.6609 36.9524 14.6095 36.3111 14.887C36.3824 14.1058 36.8608 13.5816 37.1153 13.4994C36.474 12.749 36.3315 11.8033 36.2602 11.1146C37.3291 11.5772 38.9069 12.8415 39.1817 15.0104L39.8739 14.5376C39.6703 10.7446 39.7111 10.7549 39.6907 8.17486C39.6805 7.81509 39.7009 6.97221 40.841 7.06473C40.8817 8.02067 41.0344 10.5699 40.9835 14.1058H41.3907C41.7571 13.1191 43.0499 11.9678 44.5564 12.0603C45.5947 12.1323 45.9408 12.1014 46.5312 11.8445C46.0426 13.0368 44.2918 13.5508 43.8337 13.633ZM40.8817 6.40687C41.6146 5.88264 42.0727 5.64622 42.4595 5.42009C43.0906 5.44064 44.1696 5.36869 44.8211 5.03976C44.1391 5.88264 44.0678 6.18073 42.9583 6.30408C44.3936 6.43771 44.9942 7.73286 45.7067 7.92816C43.3044 8.65797 43.0601 6.26296 40.8817 6.40687Z" fill="#1D1D1D"/>
<path d="M31.8744 20.6537C31.7522 20.6537 31.6403 20.7154 31.569 20.8079C31.4367 20.7873 31.2942 20.7668 31.1415 20.7462L31.1516 19.9547C31.2942 19.893 31.3858 19.7594 31.3858 19.5949C31.3858 19.3791 31.2127 19.2043 30.999 19.2043C30.7852 19.2043 30.6121 19.3894 30.6121 19.5949C30.6121 19.7491 30.6936 19.8725 30.8157 19.9342L30.8055 20.6948C30.6732 20.6845 30.5409 20.664 30.3984 20.6537C30.3373 20.5201 30.205 20.4173 30.0421 20.4173C29.8283 20.4173 29.6553 20.5817 29.6553 20.8079C29.6553 21.0237 29.8283 21.1985 30.0421 21.1985C30.1744 21.1985 30.3068 21.1265 30.3678 21.0134C30.5205 21.034 30.663 21.0443 30.8055 21.0648L30.7954 22.2161C30.6732 22.2778 30.5918 22.4114 30.5918 22.5656C30.5918 22.7814 30.7648 22.9562 30.9786 22.9562C31.1924 22.9562 31.3654 22.7814 31.3654 22.5656C31.3654 22.4011 31.2738 22.2675 31.1313 22.2058L31.1415 21.106C31.2738 21.1265 31.3858 21.1471 31.5079 21.1676C31.569 21.3218 31.7013 21.4349 31.8744 21.4349C32.0881 21.4349 32.2612 21.2601 32.2612 21.0443C32.2612 20.8284 32.0881 20.6537 31.8744 20.6537Z" fill="#1D1D1D"/>
<path d="M28.5033 20.4274C28.3404 20.4274 28.2081 20.5199 28.147 20.6638C28.0147 20.6741 27.8722 20.6844 27.7398 20.7049L27.7297 19.9443C27.8518 19.8826 27.9332 19.749 27.9332 19.6051C27.9332 19.3892 27.7602 19.2145 27.5464 19.2145C27.3327 19.2145 27.1596 19.3995 27.1596 19.6051C27.1596 19.7695 27.2512 19.9032 27.3937 19.9648L27.4039 20.7563C27.2614 20.7666 27.1087 20.7974 26.9764 20.818C26.9153 20.7255 26.8033 20.6638 26.671 20.6638C26.4572 20.6638 26.2842 20.8488 26.2842 21.0544C26.2842 21.2703 26.4572 21.445 26.671 21.445C26.844 21.445 26.9866 21.332 27.0375 21.1778C27.1596 21.1572 27.2818 21.1366 27.4039 21.1161L27.4141 22.2159C27.2818 22.2673 27.1901 22.4112 27.1901 22.5757C27.1901 22.7916 27.3632 22.9663 27.577 22.9663C27.7907 22.9663 27.9638 22.7916 27.9638 22.5757C27.9638 22.4215 27.8722 22.2982 27.75 22.2262L27.7398 21.075C27.8722 21.0544 28.0249 21.0441 28.1674 21.0236C28.2386 21.1366 28.3608 21.2086 28.4931 21.2086C28.7069 21.2086 28.8799 21.0339 28.8799 20.818C28.8901 20.6021 28.7171 20.4274 28.5033 20.4274Z" fill="#1D1D1D"/>
<path d="M33.6647 23.799C33.4305 22.216 32.8605 17.7857 32.7994 16.2953L32.1276 16.3261C32.1377 16.5831 32.1683 16.912 32.1988 17.3026C31.3947 17.0662 30.3462 16.8915 29.2672 16.8915C28.1983 16.8915 27.1397 17.0559 26.3355 17.3026C26.366 16.912 26.3966 16.5831 26.4068 16.3261L25.7349 16.2953C25.6738 17.7755 25.1038 22.2057 24.8697 23.799C24.4625 23.9531 24.208 24.3643 24.208 25.0838C24.208 25.0838 27.8522 25.1352 29.2672 25.1352C30.6719 25.1352 34.3161 25.0838 34.3161 25.0838C34.3263 24.354 34.0617 23.9531 33.6647 23.799ZM29.2672 23.7578C28.6869 24.8782 27.6079 24.8371 26.6714 24.2101C26.2948 23.9634 25.908 23.799 25.5517 23.7373C25.7146 22.6374 25.9792 20.5611 26.1828 18.8034C27.3942 18.2483 28.9007 18.1249 29.2672 19.5332C29.6336 18.1249 31.13 18.2483 32.3515 18.8034C32.5449 20.5611 32.8198 22.6271 32.9826 23.7373C32.6264 23.799 32.2395 23.9634 31.8629 24.2101C30.9264 24.8371 29.8474 24.868 29.2672 23.7578Z" fill="#1D1D1D"/>
<path d="M49.7183 51.7887C49.3009 51.9224 48.792 51.9943 48.0183 51.9943H47.0717C43.7939 51.9224 40.4347 50.9459 38.3683 48.8078C41.2185 45.9092 37.8695 43.5142 36.0576 45.9811C35.4977 46.752 35.0396 47.2968 34.6528 48.0472C34.3271 48.6537 34.5714 49.2498 35.2839 50.1749C35.6707 50.6786 36.6378 51.4701 37.4216 51.9943H21.0633C21.8471 51.4701 22.8142 50.6889 23.201 50.1749C23.9034 49.2498 24.1477 48.6434 23.8321 48.0472C23.4351 47.2968 22.9872 46.752 22.4172 45.9811C20.6053 43.5142 17.2562 45.9092 20.1065 48.8078C18.0401 50.9356 14.6809 51.9224 11.4031 51.9943H10.5073C9.74386 51.9943 9.22471 51.9224 8.80735 51.7887C8.13551 51.6243 7.98282 51.9224 8.34928 53.0942C8.60377 53.8754 8.79717 55.1603 8.88879 56.0442H49.647C49.7285 55.1705 49.9321 53.8857 50.1865 53.0942C50.553 51.9224 50.4003 51.6243 49.7183 51.7887ZM36.9635 46.0839C37.4929 45.3644 38.2767 45.5597 38.6024 46.1661C38.9485 46.8034 38.4497 47.6052 37.7677 48.2219C36.8414 47.2043 36.7396 46.3923 36.9635 46.0839ZM35.6097 49.4657C35.2839 48.9929 35.172 48.7256 35.345 48.2733C35.5079 47.8313 35.8642 47.4407 36.2204 46.8959C36.7905 49.1368 40.1395 51.2748 42.6233 51.9943H38.6737C37.6455 51.4393 36.3629 50.5244 35.6097 49.4657ZM19.8825 46.1661C20.2083 45.5597 20.9819 45.3747 21.5112 46.0839C21.7352 46.3923 21.6436 47.2043 20.7071 48.2219C20.0352 47.6052 19.5364 46.8034 19.8825 46.1661ZM22.2747 46.8959C22.6411 47.4407 22.9872 47.8313 23.1501 48.2733C23.3232 48.7256 23.2112 49.0031 22.8854 49.4657C22.1322 50.5244 20.8496 51.429 19.8214 51.9943H15.882C18.3556 51.2851 21.7046 49.147 22.2747 46.8959ZM48.9447 55.3967H9.59117C9.40794 54.1324 9.17381 53.3306 8.96004 52.6419H49.5656C49.3518 53.3306 49.1177 54.1426 48.9447 55.3967Z" fill="#1D1D1D"/>
<path d="M14.926 54.5024C14.9362 54.5024 14.9464 54.5126 14.9464 54.5229L15.0482 54.8107C15.0584 54.8416 15.0482 54.8621 15.0278 54.8724C15.0075 54.8724 14.9973 54.8724 14.9973 54.893C14.9973 54.9135 15.0278 54.9135 15.0686 54.9135H15.5063C15.5877 54.9135 15.6081 54.9135 15.6081 54.893C15.6081 54.8724 15.5979 54.8724 15.5775 54.8724C15.547 54.8724 15.5164 54.8724 15.4757 54.8621C15.4248 54.8518 15.3536 54.821 15.2721 54.6052C15.1194 54.2454 14.753 53.2894 14.7021 53.1558C14.6716 53.1044 14.6614 53.0839 14.641 53.0839C14.6207 53.0839 14.6003 53.1147 14.5799 53.1764L13.9895 54.6566C13.9488 54.7799 13.8979 54.8518 13.7961 54.8621C13.7758 54.8621 13.7452 54.8621 13.7249 54.8621C13.7045 54.8621 13.6943 54.8621 13.6943 54.8827C13.6943 54.9032 13.7147 54.9032 13.7351 54.9032H14.0099H14.2644C14.2847 54.9032 14.3051 54.9032 14.3051 54.8827C14.3051 54.8621 14.2949 54.8621 14.2644 54.8621H14.2338C14.1626 54.8621 14.1422 54.8313 14.1422 54.7902C14.1422 54.7696 14.1524 54.7079 14.1728 54.6566L14.2237 54.5229C14.2338 54.5024 14.2338 54.5024 14.244 54.5024H14.926ZM14.2949 54.3893C14.2847 54.3893 14.2847 54.379 14.2847 54.3687L14.5799 53.5773C14.5799 53.567 14.5901 53.5567 14.5901 53.5567C14.6003 53.5567 14.6003 53.567 14.6003 53.5773L14.8955 54.3687C14.8955 54.379 14.8955 54.3893 14.8853 54.3893H14.2949Z" fill="#1D1D1D"/>
<path d="M16.0847 54.1527C16.0847 54.4919 16.1763 54.6769 16.2985 54.7797C16.4613 54.9339 16.6853 54.9339 16.8074 54.9339C16.9601 54.9339 17.1332 54.9133 17.2961 54.7694C17.4895 54.6049 17.52 54.3171 17.52 54.0601V53.8135C17.52 53.4537 17.52 53.392 17.52 53.3201C17.5302 53.2378 17.5404 53.1967 17.6014 53.1864C17.632 53.1864 17.6523 53.1762 17.6727 53.1762C17.7032 53.1762 17.7134 53.1659 17.7134 53.1556C17.7134 53.135 17.7032 53.135 17.6625 53.135C17.5709 53.135 17.4284 53.1453 17.3979 53.1453C17.3979 53.1453 17.2452 53.135 17.1332 53.135C17.1026 53.135 17.0823 53.135 17.0823 53.1556C17.0823 53.1659 17.0925 53.1762 17.123 53.1762C17.1434 53.1762 17.1841 53.1864 17.2044 53.1864C17.2757 53.207 17.2961 53.2378 17.3062 53.3201C17.3062 53.392 17.3062 53.4537 17.3062 53.8135V54.1013C17.3062 54.3582 17.2961 54.5638 17.1739 54.6872C17.0823 54.79 16.95 54.8105 16.8482 54.8105C16.7667 54.8105 16.6649 54.8002 16.553 54.718C16.441 54.6255 16.3697 54.4713 16.3697 54.1321V53.8032C16.3697 53.4434 16.3697 53.3817 16.3799 53.3098C16.3799 53.2275 16.4003 53.1864 16.4613 53.1762C16.4919 53.1762 16.5021 53.1659 16.5326 53.1659C16.553 53.1659 16.5733 53.1556 16.5733 53.1453C16.5733 53.1248 16.553 53.1248 16.5224 53.1248C16.441 53.1248 16.2883 53.135 16.2374 53.135C16.1661 53.135 16.0236 53.1248 15.9015 53.1248C15.8709 53.1248 15.8506 53.1248 15.8506 53.1453C15.8506 53.1556 15.8608 53.1659 15.8913 53.1659C15.9218 53.1659 15.9626 53.1762 15.9829 53.1762C16.0644 53.1967 16.0847 53.2275 16.0847 53.3098C16.0847 53.3817 16.0847 53.4434 16.0847 53.8032V54.1527Z" fill="#1D1D1D"/>
<path d="M18.507 54.2246C18.507 54.4405 18.507 54.6358 18.4968 54.7283C18.4866 54.8002 18.4765 54.8516 18.4256 54.8516C18.4052 54.8619 18.3747 54.8619 18.334 54.8619C18.3034 54.8619 18.2932 54.8722 18.2932 54.8825C18.2932 54.903 18.3034 54.903 18.3441 54.903H18.6393C18.7513 54.903 18.9651 54.9236 19.1381 54.9236C19.5657 54.9236 19.7998 54.7591 19.9118 54.646C20.0441 54.5124 20.1662 54.276 20.1662 53.9882C20.1662 53.7107 20.0543 53.5051 19.9321 53.392C19.6878 53.1248 19.2908 53.1248 19.0058 53.1248C18.8633 53.1248 18.7208 53.135 18.6495 53.135C18.5783 53.135 18.4357 53.1248 18.3136 53.1248C18.2831 53.1248 18.2627 53.1248 18.2627 53.1453C18.2627 53.1556 18.2729 53.1659 18.3034 53.1659C18.3339 53.1659 18.3747 53.1762 18.395 53.1762C18.4663 53.1967 18.4968 53.2275 18.4968 53.3098C18.507 53.3817 18.507 53.4434 18.507 53.8032V54.2246ZM18.8022 53.7723C18.8022 53.5873 18.8022 53.3817 18.8022 53.2995C18.8022 53.2789 18.8124 53.2584 18.8327 53.2481C18.8531 53.2378 18.9345 53.2275 18.9854 53.2275C19.1687 53.2275 19.4435 53.2584 19.6471 53.464C19.7489 53.5565 19.871 53.7518 19.871 54.0499C19.871 54.2863 19.8201 54.5124 19.6776 54.646C19.5351 54.7694 19.3824 54.8105 19.1483 54.8105C18.9651 54.8105 18.8735 54.7591 18.8429 54.718C18.8327 54.6974 18.8226 54.5947 18.8226 54.533C18.8124 54.4919 18.8124 54.2966 18.8124 54.0601V53.7723H18.8022Z" fill="#1D1D1D"/>
<path d="M21.7131 54.5024C21.7233 54.5024 21.7335 54.5126 21.7335 54.5229L21.8455 54.8107C21.8557 54.8416 21.8353 54.8621 21.8251 54.8724C21.7946 54.8724 21.7844 54.8724 21.7844 54.893C21.7844 54.9135 21.8149 54.9135 21.8557 54.9135H22.2934C22.385 54.9135 22.4053 54.9135 22.4053 54.893C22.4053 54.8724 22.3952 54.8724 22.3748 54.8724C22.3545 54.8724 22.3137 54.8724 22.273 54.8621C22.2221 54.8518 22.161 54.821 22.0694 54.6052C21.9167 54.2454 21.5503 53.2894 21.4892 53.1558C21.4688 53.1044 21.4485 53.0839 21.4281 53.0839C21.4078 53.0839 21.3976 53.1147 21.3671 53.1764L20.7868 54.6566C20.7359 54.7799 20.6952 54.8518 20.5832 54.8621C20.5731 54.8621 20.5323 54.8621 20.512 54.8621C20.4916 54.8621 20.4814 54.8621 20.4814 54.8827C20.4814 54.9032 20.4916 54.9032 20.5222 54.9032H20.797H21.0413C21.0718 54.9032 21.082 54.9032 21.082 54.8827C21.082 54.8621 21.0718 54.8621 21.0515 54.8621H21.0108C20.9395 54.8621 20.9192 54.8313 20.9192 54.7902C20.9192 54.7696 20.9293 54.7079 20.9497 54.6566L21.0006 54.5229C21.0006 54.5024 21.0108 54.5024 21.021 54.5024H21.7131ZM21.082 54.3893C21.0718 54.3893 21.0718 54.379 21.0718 54.3687L21.3671 53.5773C21.3671 53.567 21.3772 53.5567 21.3772 53.5567C21.3874 53.5567 21.3874 53.567 21.3874 53.5773L21.6724 54.3687C21.6724 54.379 21.6724 54.3893 21.6623 54.3893H21.082Z" fill="#1D1D1D"/>
<path d="M23.9952 53.382C24.0664 53.269 24.1173 53.2073 24.1682 53.197C24.1987 53.1867 24.2293 53.1867 24.2496 53.1867C24.27 53.1867 24.2904 53.1765 24.2904 53.1662C24.2904 53.1456 24.2802 53.1456 24.2496 53.1456C24.158 53.1456 24.0664 53.1559 24.0155 53.1559C23.9748 53.1559 23.873 53.1456 23.7814 53.1456C23.7509 53.1456 23.7305 53.1559 23.7305 53.1662C23.7305 53.1765 23.7509 53.1867 23.761 53.1867C23.7814 53.1867 23.8119 53.1867 23.8323 53.197C23.8526 53.2073 23.873 53.2176 23.873 53.2381C23.873 53.2587 23.8628 53.2998 23.8526 53.3409C23.8221 53.4026 23.6083 53.7315 23.5371 53.8343C23.4455 53.6801 23.3437 53.5054 23.2419 53.3101C23.2215 53.2895 23.2215 53.2587 23.2215 53.2381C23.2215 53.2279 23.2317 53.2176 23.2521 53.197C23.2724 53.197 23.303 53.1867 23.3131 53.1867C23.3335 53.1867 23.3437 53.1765 23.3437 53.1662C23.3437 53.1456 23.3335 53.1456 23.303 53.1456C23.2113 53.1456 23.0892 53.1559 23.0485 53.1559C22.9365 53.1559 22.7533 53.1456 22.6922 53.1456C22.6617 53.1456 22.6413 53.1456 22.6413 53.1662C22.6413 53.1867 22.6515 53.1867 22.6617 53.1867C22.682 53.1867 22.7227 53.197 22.7635 53.2073C22.8449 53.2279 22.8958 53.2793 22.9569 53.382L23.364 54.0502L22.9161 54.6978C22.8347 54.8108 22.794 54.8519 22.7227 54.8725C22.682 54.8828 22.6515 54.8828 22.6311 54.8828C22.6108 54.8828 22.6006 54.8931 22.6006 54.9033C22.6006 54.9239 22.6108 54.9239 22.6413 54.9239H22.682H22.8754H23.0892H23.1299C23.1605 54.9239 23.1808 54.9239 23.1808 54.9033C23.1808 54.8931 23.1706 54.8828 23.1503 54.8828C23.1299 54.8828 23.1096 54.8828 23.0994 54.8828C23.079 54.8725 23.0587 54.8622 23.0587 54.8417C23.0587 54.8211 23.0688 54.78 23.0892 54.7492L23.4353 54.1838C23.5371 54.3585 23.6796 54.595 23.8119 54.8211C23.8323 54.8519 23.8221 54.8725 23.8018 54.8725C23.7814 54.8828 23.7712 54.8828 23.7712 54.8931C23.7712 54.9033 23.7916 54.9239 23.8526 54.9239H24.27H24.3413C24.3616 54.9239 24.382 54.9239 24.382 54.9033C24.382 54.8828 24.3718 54.8828 24.3514 54.8828C24.3311 54.8828 24.3005 54.8828 24.2598 54.8725C24.1987 54.8622 24.158 54.8314 24.1275 54.7697C24.0766 54.6978 23.6898 54.0605 23.6185 53.9371L23.9952 53.382Z" fill="#1D1D1D"/>
<path d="M27.8006 54.5024C27.8108 54.5024 27.821 54.5126 27.821 54.5229L27.9228 54.8107C27.933 54.8416 27.9228 54.8621 27.9024 54.8724C27.8821 54.8724 27.8719 54.8724 27.8719 54.893C27.8719 54.9135 27.9024 54.9135 27.9431 54.9135H28.391C28.4725 54.9135 28.4928 54.9135 28.4928 54.893C28.4928 54.8724 28.4826 54.8724 28.4623 54.8724C28.4419 54.8724 28.4012 54.8724 28.3707 54.8621C28.3198 54.8518 28.2485 54.821 28.1671 54.6052C28.0144 54.2454 27.6479 53.2894 27.5869 53.1558C27.5665 53.1044 27.5461 53.0839 27.5258 53.0839C27.5054 53.0839 27.4952 53.1147 27.4647 53.1764L26.8845 54.6566C26.8438 54.7799 26.7929 54.8518 26.6809 54.8621C26.6605 54.8621 26.63 54.8621 26.6096 54.8621C26.5893 54.8621 26.5791 54.8621 26.5791 54.8827C26.5791 54.9032 26.5893 54.9032 26.6198 54.9032H26.8947H27.139C27.1695 54.9032 27.1797 54.9032 27.1797 54.8827C27.1797 54.8621 27.1695 54.8621 27.1491 54.8621H27.1186C27.0474 54.8621 27.027 54.8313 27.027 54.7902C27.027 54.7696 27.0372 54.7079 27.0677 54.6566L27.1186 54.5229C27.1084 54.5126 27.1186 54.5024 27.1186 54.5024H27.8006ZM27.1695 54.3893C27.1593 54.3893 27.1593 54.379 27.1593 54.3687L27.4443 53.5773C27.4545 53.567 27.4545 53.5567 27.4647 53.5567C27.4647 53.5567 27.4749 53.567 27.4749 53.5773L27.7701 54.3687C27.7701 54.379 27.7701 54.379 27.7599 54.379H27.1695V54.3893Z" fill="#1D1D1D"/>
<path d="M29.2364 54.2247C29.2364 54.4405 29.2364 54.6358 29.2263 54.7284C29.2161 54.8003 29.2059 54.8517 29.155 54.8517C29.1346 54.862 29.1041 54.862 29.0736 54.862C29.043 54.862 29.0329 54.862 29.0329 54.8825C29.0329 54.9031 29.0532 54.9031 29.0838 54.9031H29.379H29.7454C29.7658 54.9031 29.7861 54.9031 29.7861 54.8825C29.7861 54.8723 29.776 54.862 29.7454 54.862C29.7149 54.862 29.664 54.862 29.6334 54.8517C29.5622 54.8414 29.5418 54.79 29.5418 54.7284C29.5316 54.6256 29.5316 54.4405 29.5316 54.2144V53.2687L29.8268 53.279C30.0304 53.2893 30.0915 53.351 30.1017 53.4126V53.4332C30.1119 53.464 30.1119 53.4743 30.122 53.4743C30.1322 53.4743 30.1424 53.464 30.1424 53.4435C30.1424 53.3818 30.1526 53.2173 30.1526 53.1659C30.1526 53.1351 30.1526 53.1146 30.1322 53.1146C30.1119 53.1146 30.061 53.1351 29.9083 53.1351H28.9921C28.9107 53.1351 28.8293 53.1248 28.758 53.1248C28.6969 53.1146 28.6766 53.094 28.6562 53.094C28.646 53.094 28.6359 53.1043 28.6257 53.1351C28.6155 53.1557 28.585 53.3715 28.585 53.4024C28.585 53.4332 28.585 53.4435 28.6053 53.4435C28.6257 53.4435 28.6257 53.4332 28.6359 53.4126C28.6359 53.3921 28.6562 53.3612 28.6766 53.3304C28.7173 53.2687 28.7682 53.2687 28.9005 53.2585L29.2466 53.2482V54.2247H29.2364Z" fill="#1D1D1D"/>
<path d="M33.2897 54.0398C33.2897 54.0295 33.2897 54.0295 33.31 54.0295C33.3507 54.0295 33.595 54.0295 33.6561 54.0398C33.7274 54.0501 33.7681 54.0912 33.7783 54.1118C33.7884 54.1426 33.7884 54.1734 33.7884 54.194C33.7884 54.2043 33.7986 54.2248 33.8088 54.2248C33.8292 54.2248 33.8292 54.194 33.8292 54.1734C33.8292 54.1529 33.8393 54.0501 33.8393 54.009C33.8495 53.937 33.8597 53.8753 33.8597 53.8651C33.8597 53.8548 33.8597 53.8445 33.8495 53.8445C33.8292 53.8445 33.8292 53.8548 33.819 53.8651C33.7986 53.8856 33.7681 53.9062 33.7172 53.9062C33.6867 53.9165 33.6459 53.9165 33.6154 53.9165H33.3202C33.2998 53.9165 33.2998 53.9062 33.2998 53.8959V53.31C33.2998 53.2792 33.31 53.2792 33.3202 53.2792H33.6765C33.7681 53.2792 33.819 53.3203 33.8292 53.3511C33.8495 53.382 33.8495 53.4231 33.8495 53.4436C33.8495 53.4745 33.8597 53.4847 33.8699 53.4847C33.8801 53.4847 33.8902 53.4745 33.8902 53.4539C33.9004 53.4333 33.9004 53.2894 33.9004 53.2586C33.9106 53.1969 33.9208 53.1661 33.9208 53.1558C33.9208 53.1455 33.9106 53.1353 33.9106 53.1353C33.9004 53.1353 33.8902 53.1455 33.8699 53.1558C33.8495 53.1558 33.819 53.1558 33.7681 53.1661C33.7172 53.1661 33.2388 53.1661 33.1573 53.1661C33.0861 53.1661 32.9436 53.1558 32.8214 53.1558C32.7807 53.1558 32.7705 53.1558 32.7705 53.1764C32.7705 53.1866 32.7807 53.1969 32.8112 53.1969C32.8418 53.1969 32.8825 53.2072 32.9028 53.2072C32.9843 53.2278 32.9945 53.2586 33.0046 53.3408C33.0148 53.4128 33.0148 53.4745 33.0148 53.8342V54.2454C33.0148 54.4818 33.0148 54.6565 33.0046 54.7491C32.9945 54.821 32.9843 54.8724 32.9334 54.8724C32.913 54.8827 32.8825 54.8827 32.8418 54.8827C32.8112 54.8827 32.8112 54.893 32.8112 54.9032C32.8112 54.9238 32.8214 54.9238 32.8621 54.9238H33.1573H33.5136C33.5543 54.9238 33.5645 54.9238 33.5645 54.9032C33.5645 54.893 33.5543 54.8827 33.534 54.8827C33.4932 54.8827 33.4423 54.8827 33.4118 54.8724C33.3406 54.8621 33.3304 54.821 33.3202 54.7491C33.31 54.6463 33.31 54.4818 33.31 54.2454V54.0398H33.2897Z" fill="#1D1D1D"/>
<path d="M34.7846 54.2248C34.7846 54.4612 34.7846 54.636 34.7745 54.7491C34.7643 54.8107 34.7541 54.8518 34.7032 54.8621C34.6828 54.8724 34.6523 54.8724 34.6218 54.8724C34.5912 54.8724 34.5811 54.8724 34.5811 54.893C34.5811 54.9135 34.6014 54.9135 34.632 54.9135H34.9272H35.2936C35.314 54.9135 35.3343 54.9135 35.3343 54.893C35.3343 54.8827 35.3242 54.8724 35.2936 54.8724C35.2529 54.8724 35.202 54.8724 35.1715 54.8621C35.1002 54.8518 35.0798 54.8107 35.0798 54.7491C35.0697 54.6463 35.0697 54.4612 35.0697 54.2248V53.8137C35.0697 53.4539 35.0697 53.3922 35.0697 53.3203C35.0697 53.2278 35.09 53.1969 35.1613 53.1867C35.1816 53.1867 35.202 53.1764 35.2325 53.1764C35.2529 53.1764 35.2733 53.1661 35.2733 53.1558C35.2733 53.1455 35.2529 53.1353 35.2224 53.1353C35.1307 53.1353 34.9984 53.1455 34.9373 53.1455C34.8763 53.1455 34.7236 53.1353 34.6421 53.1353C34.6014 53.1353 34.5912 53.1353 34.5912 53.1558C34.5912 53.1764 34.6014 53.1764 34.632 53.1764C34.6625 53.1764 34.6828 53.1867 34.7134 53.1867C34.7643 53.2072 34.7846 53.238 34.7948 53.3203C34.7948 53.3922 34.7948 53.4539 34.7948 53.8137V54.2248H34.7846Z" fill="#1D1D1D"/>
<path d="M36.1789 54.2246C36.1789 54.4405 36.1789 54.6358 36.1687 54.7283C36.1585 54.8002 36.1483 54.8516 36.0974 54.8516C36.0771 54.8619 36.0465 54.8619 36.0058 54.8619C35.9855 54.8619 35.9651 54.8722 35.9651 54.8825C35.9651 54.903 35.9855 54.903 36.016 54.903H36.3112C36.4232 54.903 36.6369 54.9236 36.81 54.9236C37.2375 54.9236 37.4818 54.7591 37.5938 54.646C37.7261 54.5124 37.8483 54.276 37.8483 53.9882C37.8483 53.7107 37.7363 53.5051 37.6142 53.392C37.3597 53.1248 36.9729 53.1248 36.6777 53.1248C36.5453 53.1248 36.3926 53.135 36.3214 53.135C36.2603 53.135 36.1076 53.1248 35.9855 53.1248C35.9447 53.1248 35.9346 53.1248 35.9346 53.1453C35.9346 53.1556 35.9448 53.1659 35.9753 53.1659C35.9956 53.1659 36.0465 53.1762 36.0669 53.1762C36.1382 53.1967 36.1585 53.2275 36.1687 53.3098C36.1687 53.3817 36.1687 53.4434 36.1687 53.8032V54.2246H36.1789ZM36.4639 53.7723V53.2995C36.4639 53.2789 36.4741 53.2584 36.5046 53.2481C36.525 53.2378 36.6064 53.2275 36.6471 53.2275C36.8304 53.2275 37.1052 53.2584 37.319 53.464C37.4106 53.5565 37.5327 53.7518 37.5327 54.0499C37.5327 54.2863 37.492 54.5124 37.3393 54.646C37.1968 54.7694 37.0441 54.8105 36.81 54.8105C36.6268 54.8105 36.5352 54.7591 36.5046 54.718C36.4843 54.6974 36.4843 54.5947 36.4741 54.533C36.4639 54.4919 36.4639 54.2966 36.4639 54.0601V53.7723Z" fill="#1D1D1D"/>
<path d="M38.6635 54.2246C38.6635 54.4405 38.6636 54.6358 38.6534 54.7283C38.6432 54.8002 38.633 54.8516 38.5923 54.8516C38.5719 54.8619 38.5414 54.8619 38.5007 54.8619C38.4701 54.8619 38.46 54.8619 38.46 54.8825C38.46 54.903 38.4803 54.903 38.5109 54.903H38.8061C38.9384 54.903 39.1013 54.9133 39.4474 54.9133C39.539 54.9133 39.5593 54.9133 39.5695 54.8516C39.5797 54.8002 39.6001 54.646 39.6001 54.5844C39.6001 54.5638 39.6001 54.533 39.5797 54.533C39.5593 54.533 39.5593 54.5535 39.5593 54.5741C39.539 54.6666 39.5186 54.7283 39.4575 54.7488C39.3965 54.7797 39.3049 54.7797 39.2438 54.7797C39.0096 54.7797 38.9689 54.7386 38.9689 54.5844V54.2143V54.0293C38.9689 54.019 38.9689 54.0087 38.9893 54.0087C39.0402 54.0087 39.2641 54.0087 39.315 54.019C39.3965 54.0293 39.4372 54.0601 39.4474 54.1115C39.4575 54.1424 39.4575 54.1732 39.4575 54.1938C39.4575 54.2143 39.4575 54.2143 39.4779 54.2143C39.4983 54.2143 39.4983 54.1835 39.4983 54.1732C39.4983 54.1629 39.5084 54.0601 39.5084 54.019C39.5186 53.8957 39.5288 53.8546 39.5288 53.8443C39.5288 53.8237 39.5186 53.8237 39.5084 53.8237C39.4983 53.8237 39.4881 53.834 39.4779 53.8546C39.4575 53.8751 39.427 53.8854 39.3659 53.8854C39.315 53.8957 39.0402 53.8957 38.9995 53.8957C38.9791 53.8957 38.9791 53.8854 38.9791 53.8648V53.2789C38.9791 53.2584 38.9791 53.2584 38.9995 53.2584C39.0402 53.2584 39.2845 53.2584 39.3252 53.2584C39.4372 53.2789 39.4677 53.2995 39.4779 53.3509C39.4881 53.3817 39.4983 53.4228 39.4983 53.4434C39.4983 53.464 39.5084 53.4742 39.5186 53.4742C39.539 53.4742 39.539 53.464 39.5492 53.4537C39.5593 53.4228 39.5593 53.3201 39.5593 53.2995C39.5695 53.1967 39.5797 53.1659 39.5797 53.1453C39.5797 53.135 39.5797 53.1248 39.5695 53.1248C39.5593 53.1248 39.539 53.135 39.539 53.135C39.5186 53.1453 39.4881 53.1453 39.4372 53.1453C39.3965 53.1453 38.9282 53.1453 38.857 53.1453C38.7959 53.1453 38.6432 53.135 38.5312 53.135C38.4905 53.135 38.4803 53.135 38.4803 53.1556C38.4803 53.1659 38.4905 53.1762 38.521 53.1762C38.5516 53.1762 38.5923 53.1864 38.6127 53.1864C38.6941 53.207 38.7144 53.2378 38.7144 53.3201C38.7144 53.392 38.7144 53.4537 38.7144 53.8135V54.2246H38.6635Z" fill="#1D1D1D"/>
<path d="M40.7701 53.8137C40.7701 53.4539 40.7701 53.3922 40.7701 53.3203C40.7701 53.238 40.7905 53.1969 40.8516 53.1867C40.8821 53.1867 40.9228 53.1764 40.9432 53.1764C40.9737 53.1764 40.9839 53.1661 40.9839 53.1558C40.9839 53.1353 40.9737 53.1353 40.933 53.1353C40.8414 53.1353 40.6683 53.1455 40.6174 53.1455C40.5564 53.1455 40.4138 53.1353 40.3019 53.1353C40.2612 53.1353 40.251 53.1353 40.251 53.1558C40.251 53.1661 40.2612 53.1764 40.2917 53.1764C40.3222 53.1764 40.3528 53.1867 40.3731 53.1867C40.4444 53.2072 40.4647 53.238 40.4749 53.3203C40.4749 53.3922 40.4749 53.4539 40.4749 53.8137V54.2248C40.4749 54.451 40.4749 54.636 40.4647 54.7285C40.4546 54.8005 40.4444 54.8518 40.3935 54.8518C40.3731 54.8621 40.3426 54.8621 40.3019 54.8621C40.2815 54.8621 40.2713 54.8724 40.2713 54.8827C40.2713 54.9032 40.2815 54.9032 40.3222 54.9032H40.6174C40.8007 54.9032 40.9635 54.9135 41.2995 54.9135C41.4216 54.9135 41.4318 54.9032 41.4521 54.8416C41.4725 54.7799 41.4827 54.5949 41.4827 54.564C41.4827 54.5332 41.4827 54.5229 41.4623 54.5229C41.442 54.5229 41.442 54.5332 41.442 54.564C41.4318 54.6052 41.4114 54.6771 41.3809 54.7079C41.33 54.7696 41.2384 54.7696 41.106 54.7696C40.9228 54.7696 40.8719 54.7593 40.8312 54.7182C40.7905 54.6771 40.7905 54.5126 40.7905 54.2043V53.8137H40.7701Z" fill="#1D1D1D"/>
<path d="M42.2265 54.2248C42.2265 54.4612 42.2265 54.636 42.2163 54.7491C42.2061 54.8107 42.1959 54.8518 42.145 54.8621C42.1247 54.8724 42.0941 54.8724 42.0534 54.8724C42.0229 54.8724 42.0127 54.8724 42.0127 54.893C42.0127 54.9135 42.0331 54.9135 42.0636 54.9135H42.3588H42.7253C42.7456 54.9135 42.766 54.9135 42.766 54.893C42.766 54.8827 42.7558 54.8724 42.7253 54.8724C42.6947 54.8724 42.6438 54.8724 42.6133 54.8621C42.542 54.8518 42.5217 54.8107 42.5217 54.7491C42.5115 54.6463 42.5115 54.4612 42.5115 54.2248V53.8137C42.5115 53.4539 42.5115 53.3922 42.5217 53.3203C42.5318 53.2278 42.542 53.1969 42.6133 53.1867C42.6438 53.1867 42.654 53.1764 42.6845 53.1764C42.7049 53.1764 42.7151 53.1661 42.7151 53.1558C42.7151 53.1455 42.6947 53.1353 42.6744 53.1353C42.5827 53.1353 42.4504 53.1455 42.3893 53.1455C42.3181 53.1455 42.1756 53.1353 42.084 53.1353C42.0534 53.1353 42.0331 53.1353 42.0331 53.1558C42.0331 53.1764 42.0432 53.1764 42.0636 53.1764C42.0941 53.1764 42.1247 53.1867 42.1552 53.1867C42.2061 53.2072 42.2366 53.238 42.2366 53.3203C42.2468 53.3922 42.2468 53.4539 42.2468 53.8137V54.2248H42.2265Z" fill="#1D1D1D"/>
<path d="M43.8351 54.9443C43.9572 54.9443 44.0895 54.9238 44.2117 54.8518C44.3746 54.749 44.4255 54.5743 44.4255 54.4406C44.4255 54.2145 44.3237 54.0603 44.0488 53.8342L43.9776 53.7828C43.7943 53.6389 43.7333 53.5464 43.7333 53.4539C43.7333 53.31 43.8351 53.2072 44.0081 53.2072C44.1608 53.2072 44.2219 53.2791 44.2524 53.3305C44.3033 53.3819 44.3135 53.4641 44.3135 53.4847C44.3135 53.5052 44.3237 53.5258 44.3338 53.5258C44.344 53.5258 44.3542 53.5053 44.3542 53.4641C44.3542 53.2688 44.3644 53.2072 44.3644 53.1763C44.3644 53.1558 44.3542 53.1455 44.3338 53.1455C44.2728 53.1249 44.171 53.1044 44.0285 53.1044C43.7027 53.1044 43.489 53.2894 43.489 53.5464C43.489 53.7417 43.5806 53.9061 43.8351 54.1014L43.947 54.1837C44.1404 54.3378 44.171 54.4509 44.171 54.564C44.171 54.6873 44.0692 54.8312 43.8554 54.8312C43.7129 54.8312 43.5806 54.7696 43.5297 54.5948C43.5195 54.5537 43.5093 54.5023 43.5093 54.4818C43.5093 54.4612 43.5093 54.4406 43.489 54.4406C43.4686 54.4406 43.4686 54.4715 43.4584 54.5023C43.4584 54.5434 43.4482 54.6873 43.4482 54.8107C43.4482 54.8621 43.4584 54.8826 43.489 54.8929C43.5908 54.934 43.6925 54.9443 43.8351 54.9443Z" fill="#1D1D1D"/>
<path d="M36.8212 6.54051C36.8416 6.19103 36.1901 5.92377 36.0374 5.90321C35.7626 5.88266 35.4267 6.45828 35.0704 6.82832C34.7548 5.13229 34.9177 4.41276 35.1009 3.66239C35.8033 4.95755 36.7601 5.23508 37.2691 5.17341C35.559 3.79602 35.8542 2.55226 35.335 2.49059C35.0398 2.45975 34.8261 2.48031 34.6734 2.48031C34.083 2.48031 34.0015 3.64184 33.9201 4.17634C33.5333 3.44654 33.1566 2.85035 32.495 2.00748C31.8639 0.383396 31.1004 0.794556 30.3166 0.0544684C30.9274 0.979578 30.4286 1.5552 31.8435 2.23361C32.21 2.5831 32.6375 3.12789 32.9225 3.58016C32.6884 3.88853 32.5255 4.07355 32.3118 4.28941C32.1387 4.55667 32.0471 5.56401 31.5076 6.32465C32.3118 5.96489 32.6273 5.4715 32.9123 4.98838C35.4572 6.92084 33.3908 11.8753 32.8105 12.9649C32.2507 12.5846 31.5381 12.3687 30.8765 12.2556L30.8052 12.0295L30.2046 10.0765H30.4795C30.795 10.0765 30.8663 9.86063 30.8256 9.68588L32.5764 10.2307L33.3501 10.4774L32.8818 9.80923L32.0675 8.66826L32.8818 7.53758L33.3501 6.86944L32.5764 7.10586L30.9986 7.59925C30.8866 7.23948 30.5914 7.06474 30.2657 7.02363L30.795 5.21452L31.019 4.4436L30.3777 4.91643L29.2579 5.73875L28.128 4.91643L27.4867 4.4436L27.7107 5.21452L28.24 7.02363C27.9143 7.07502 27.6292 7.23948 27.5071 7.59925L25.9293 7.10586L25.176 6.86944L25.6443 7.53758L26.4586 8.66826L25.6443 9.80923L25.176 10.4774L25.9496 10.2307L27.7107 9.68588C27.6598 9.86063 27.7209 10.0765 28.0466 10.0765H28.3214L27.7209 12.0295L27.6598 12.2556C26.9879 12.379 26.255 12.5948 25.685 12.9957C23.9748 9.64477 24.4533 6.2527 25.8886 5.12201C25.8682 5.83126 26.479 6.79749 26.7742 7.00307C26.5808 6.27326 26.9167 4.95755 26.5299 4.62862C26.2652 4.40248 25.8682 4.28941 25.4407 4.29969C25.7359 3.81658 26.1329 3.21012 26.8047 2.30557C27.8125 1.82246 28.1077 0.640371 28.352 0.0441895C27.2526 0.455349 26.4484 1.02069 26.2754 1.95608C25.8886 2.47003 25.461 3.08677 24.9826 3.8063C25.003 2.93259 24.5245 2.62422 23.8934 2.5831C22.0408 2.9737 22.1833 4.32025 20.6055 5.24536C21.6845 5.62568 23.3844 3.23068 23.9647 3.49793C24.0563 4.96783 23.7204 6.12935 23.7204 6.93111C23.4455 6.62274 23.303 6.40689 23.0689 6.37605C22.8449 6.33493 22.224 6.38633 21.8066 6.85916C21.6845 7.59925 21.715 8.99719 21.0228 10.6829C22.0509 9.727 22.5396 7.85622 22.7126 7.32172C22.9773 7.68148 23.2623 8.49352 23.3234 9.18221C23.4455 10.5185 24.2599 12.749 24.9622 13.8283C24.7688 14.1984 24.7179 14.6198 24.779 15.0926C24.2395 15.4935 24.1784 16.0589 24.3617 16.4392C24.5652 16.8503 25.0946 17.1176 25.7155 16.8812L25.9089 16.7989C26.5604 16.5317 27.7819 16.0177 29.2579 16.0177C30.734 16.0177 31.9555 16.5317 32.607 16.7989L32.8004 16.8812C33.4213 17.1279 33.9506 16.8606 34.144 16.4392C34.3375 16.0589 34.2764 15.4935 33.7369 15.0926C33.8081 14.589 33.7369 14.1367 33.5027 13.7461L33.5231 13.7666C34.7853 11.9473 34.8668 8.48324 35.9153 7.48618C36.0069 8.6991 36.6482 9.70644 37.2793 9.85035C36.7907 8.96636 36.7907 7.30116 36.8212 6.54051ZM31.0393 8.15431L31.9657 7.8665L31.5076 8.49352L31.3956 8.65798L31.5178 8.82245L31.9758 9.45975L30.795 9.0897C30.8968 8.84301 30.9884 8.56547 31.0393 8.15431ZM26.5706 9.44947L27.0287 8.81217L27.1508 8.64771L27.0287 8.48324L26.5706 7.85622L27.4969 8.14404C27.5478 8.5552 27.6394 8.82245 27.7412 9.06915L26.5706 9.44947ZM30.2759 9.1411H29.5328L29.6244 7.81511C30.7238 7.332 30.622 8.35989 30.2759 9.1411ZM30.0519 11.3922L29.4208 10.9296L29.2681 10.8166L29.1053 10.9296L28.4843 11.3922L28.8915 10.0662H29.6448L30.0519 11.3922ZM29.1053 6.29382L29.2681 6.40689L29.4208 6.29382L30.0621 5.83126L29.6957 7.07502C29.6855 7.0853 29.6753 7.0853 29.6651 7.0853C29.604 6.93111 29.4412 6.82832 29.2681 6.82832C29.0951 6.82832 28.9424 6.93111 28.8813 7.0853C28.8711 7.0853 28.8508 7.0853 28.8406 7.07502L28.4741 5.83126L29.1053 6.29382ZM28.2705 9.1411C27.9143 8.35989 27.8125 7.32172 28.9118 7.81511L29.0035 9.1411H28.2705ZM29.2681 11.495L30.1436 12.1323C29.7669 12.0912 29.4514 12.0912 29.2681 12.0912C29.0747 12.0912 28.7592 12.1014 28.3927 12.1323L29.2681 11.495ZM25.6646 16.1205L25.4814 16.2028C25.2167 16.3056 25.0437 16.2233 24.9826 16.1C24.9113 15.9663 24.9521 15.7402 25.2778 15.5346C25.3185 15.5141 25.3694 15.4832 25.4101 15.4627L26.0311 15.9766C25.8886 16.028 25.7664 16.0794 25.6646 16.1205ZM27.7718 15.4421L27.1305 14.7945C27.6598 14.6609 28.2196 14.5684 28.7693 14.5273L29.1561 15.2879C28.6574 15.2982 28.1993 15.3599 27.7718 15.4421ZM31.3447 15.5757L30.9681 14.702C31.5483 14.8151 32.098 14.9796 32.5764 15.1851L32.8004 16.0897C32.4339 15.9355 31.9453 15.7402 31.3447 15.5757ZM29.2681 13.8386C28.0466 13.8386 26.6724 14.1367 25.6137 14.5992C25.6341 14.3628 25.7155 14.1572 25.858 13.9722C26.4688 13.2219 28.0771 12.9546 29.2681 12.9546C30.4489 12.9546 32.0573 13.2219 32.668 13.9722C32.8207 14.147 32.9022 14.3628 32.9123 14.589C31.8639 14.1264 30.51 13.8386 29.2681 13.8386Z" fill="#1D1D1D"/>
<path d="M20.8688 34.8181C20.4006 34.8181 20.0952 34.8284 20.0952 34.8284C19.9832 36.1955 20.0341 37.4393 20.2173 38.57C20.6958 37.7682 21.1844 36.9664 21.164 36.4011C21.1335 35.8152 21.0011 35.2909 20.8688 34.8181Z" fill="#1D1D1D"/>
<path d="M21.2069 34.8179C21.3392 35.2908 21.4614 35.8047 21.4817 36.3803C21.5021 37.0485 21.0135 37.8708 20.4943 38.7445C20.4333 38.8473 20.3722 38.9501 20.3213 39.0529C21.8278 46.5052 28.9636 48.9927 28.9636 48.9927V34.8282C28.9636 34.8282 23.5889 34.8077 21.2069 34.8179ZM26.5612 43.6784C26.205 43.7504 25.6451 43.7915 25.2685 43.7915C24.8918 43.7915 24.3218 43.7504 23.9757 43.6784C24.0164 43.5243 24.0673 43.3084 24.108 43.0925C23.8434 43.0617 23.5685 42.9692 23.3547 42.887C23.4667 42.4964 23.6398 42.116 23.7823 41.5918C24.2607 41.7049 24.729 41.7357 25.2685 41.7357C25.808 41.7357 26.2762 41.6946 26.7547 41.5918C26.8972 42.116 27.0702 42.4964 27.1822 42.887C26.9684 42.9692 26.6936 43.0617 26.4289 43.0925C26.4798 43.3084 26.5307 43.5243 26.5612 43.6784ZM23.6398 40.5742C23.9044 40.4817 24.9529 40.42 25.2685 40.42C25.5738 40.42 26.6223 40.4817 26.8972 40.5742C26.9277 40.7078 26.9277 40.9134 26.9073 41.0573C26.5002 41.1806 25.7978 41.2423 25.2685 41.2423C24.7391 41.2423 24.0368 41.1806 23.6296 41.0573C23.6092 40.9031 23.6092 40.7078 23.6398 40.5742ZM27.6097 37.7783C27.2127 38.7342 26.8259 39.721 26.7139 40.0191C26.5002 39.9883 26.2762 39.9677 26.0523 39.9574C26.3169 39.1248 26.6427 37.9325 26.9175 37.1821C27.1008 36.6579 27.9762 36.884 27.6097 37.7783ZM25.2685 36.3803C25.3295 35.9384 26.5714 35.8561 26.3373 36.8326C26.1032 37.8091 25.808 38.9604 25.584 39.9472C25.4822 39.9472 25.3703 39.9369 25.2685 39.9369C25.1667 39.9369 25.0547 39.9472 24.9529 39.9472C24.729 38.9604 24.4338 37.8194 24.1996 36.8326C23.9655 35.8561 25.2074 35.9384 25.2685 36.3803ZM23.6398 37.1821C23.9044 37.9325 24.2403 39.1248 24.505 39.9574C24.2709 39.9677 24.0469 39.9883 23.8434 40.0191C23.7212 39.721 23.3344 38.7342 22.9374 37.7783C22.5506 36.884 23.4464 36.6579 23.6398 37.1821Z" fill="#1D1D1D"/>
<path d="M36.8006 36.216L36.7802 35.8665H37.1365C37.6048 35.8665 37.8389 35.404 37.9712 34.8695C36.1389 34.8592 29.5732 34.8797 29.5732 34.8797V41.7153C30.1229 41.3041 30.6421 40.9752 31.3343 40.749V39.567V39.2483H31.6397H32.0163C32.057 37.6037 32.4438 36.401 33.2073 35.6095L33.4312 35.3731L33.6552 35.6095C34.4186 36.401 34.8054 37.5934 34.8462 39.2483H35.2533H35.5587V39.567V40.8518C36.312 41.1602 36.8108 41.6433 37.1976 42.1573C37.8185 40.8827 38.2766 39.4128 38.4395 37.7065C38.4089 37.7065 38.3784 37.7167 38.3377 37.7167C37.615 37.7065 36.8617 37.1925 36.8006 36.216Z" fill="#1D1D1D"/>
<path d="M38.4387 34.8694C38.4387 34.8694 38.3776 34.8694 38.3064 34.8694C38.1435 35.6506 37.7872 36.1851 37.1357 36.1954C37.1866 36.9766 37.7669 37.3775 38.3267 37.3775C38.3674 37.3775 38.4183 37.3672 38.4591 37.3569C38.51 36.5654 38.5201 35.7534 38.4387 34.8694Z" fill="#1D1D1D"/>
<path d="M33.421 41.0883C31.4361 41.0883 30.6624 41.6536 29.5732 42.4965V49.0339C29.5732 49.0339 34.2965 47.3893 36.8719 42.7843C36.2713 41.8797 35.406 41.0883 33.421 41.0883ZM35.0497 43.73L34.4492 43.0413L33.4312 43.9561L33.8486 44.4392C33.8486 44.4392 34.2761 44.2336 34.6528 44.6756C34.3677 44.9223 33.8791 45.354 33.5839 45.611C33.2073 45.169 33.4719 44.7784 33.4719 44.7784L33.0546 44.2953L31.8127 45.426L31.4055 44.9532L32.678 43.8739L32.2199 43.3394C32.2199 43.3394 32.057 43.4935 31.8025 43.7094C31.4361 43.288 31.151 42.7329 31.4157 42.0236C32.1384 41.8592 32.6474 42.2292 33.0139 42.6404C32.7696 42.8562 32.5965 43.0104 32.5965 43.0104L33.0546 43.5552L34.0929 42.6712L33.5228 41.962C34.0623 41.9003 34.5306 42.0853 34.7953 42.3937C35.0599 42.7021 35.1821 43.1955 35.0497 43.73Z" fill="#1D1D1D"/>
<path d="M20.3621 31.313C20.8608 31.7241 21.0543 32.0325 20.9016 33.4407C20.8812 33.6154 20.9728 33.9444 21.0746 34.3041H38.0538C38.0742 34.1191 38.0844 33.9341 38.0844 33.7799C38.0945 33.009 37.9622 32.4025 37.7077 32.1456C37.6263 32.0633 37.5347 32.0222 37.382 32.0222C37.3718 32.0222 37.3616 32.0222 37.3616 32.0222L36.6796 32.0942L37.0461 31.5083C37.4023 30.9326 37.9113 30.6037 38.4508 30.5626V25.4745H20.1279V31.1588C20.189 31.1999 20.2603 31.2307 20.3112 31.2718L20.3621 31.313ZM31.1522 30.6345V30.2748L30.3175 30.2645C30.5211 29.3805 32.2312 28.2498 32.9947 27.9826C32.954 27.0163 34.206 26.6977 35.224 26.6669C36.476 26.636 36.7712 27.9928 36.7712 28.4143C36.7712 28.9693 36.6287 30.2131 35.9365 30.5934C34.9288 31.1485 34.0737 30.3776 34.0737 29.6889C34.0737 28.9282 34.603 28.476 35.4988 28.5787C36.4048 28.6815 36.3335 28.1676 35.6515 27.9928C35.3156 27.9106 33.8803 27.8284 33.4018 28.9077C33.127 28.918 32.8318 28.8049 32.6587 28.6301C32.4755 28.8768 32.1803 29.0413 31.7833 29.1544C32.1294 29.8739 32.842 29.7505 33.2695 29.4113C33.2593 29.5039 33.2492 29.6066 33.2492 29.7197C33.2492 31.4774 35.112 31.9297 36.2622 31.2718C36.0688 31.8372 36.1605 32.567 36.2419 33.0501H31.7324C31.8139 32.5567 32.4043 32.0119 32.9132 31.6522L32.5162 31.0149C32.0276 31.2307 31.5696 31.426 31.0402 31.5699C29.7882 31.8989 29.8594 31.0046 31.1522 30.6345ZM27.9762 32.0736C27.8032 32.3306 26.7343 32.6595 26.4697 32.495C26.0218 32.2175 25.7978 31.6316 25.9098 31.3746C26.0422 31.0457 27.2128 30.7168 27.5894 30.8401C27.9559 30.9737 28.1187 31.8577 27.9762 32.0736ZM21.7261 29.2674C22.7237 28.7021 23.2326 28.2807 23.762 27.4378C23.365 27.2425 22.9069 26.893 22.5608 26.3996C24.4542 26.9341 25.411 27.2116 27.6301 26.4099C27.2637 26.9958 26.7242 27.3453 26.2661 27.6331C26.7751 28.476 27.2739 29.4319 27.4469 30.2028C26.7751 30.1514 26.0218 30.3159 25.4823 30.8093C24.6476 30.8504 23.5991 31.1177 23.0087 29.2058C22.7135 29.3599 22.4081 29.5655 22.4081 29.5655C22.744 30.8093 23.3752 31.6624 25.0344 31.4877C25.126 31.8886 25.1973 32.1147 25.4009 32.4436C24.7188 32.8445 23.0087 33.8621 21.7057 32.6903V29.2674H21.7261Z" fill="#1D1D1D"/>
<path d="M20.1279 31.5494V34.2939H20.7285C20.6267 33.9342 20.5351 33.6155 20.5656 33.3894C20.7183 32.012 20.5147 31.8681 20.1279 31.5494Z" fill="#1D1D1D"/>
<path d="M38.4391 34.2939V30.8812C38.0421 30.9223 37.6349 31.169 37.3193 31.6727C37.3499 31.6624 37.3906 31.6624 37.4211 31.6624C38.1744 31.6624 38.4289 32.7006 38.4187 33.7696C38.4187 33.9444 38.4085 34.1191 38.3882 34.2939H38.4391Z" fill="#1D1D1D"/>
<path d="M24.5756 29.6271C24.8911 29.7813 25.2779 29.6065 25.6851 29.6579C25.6037 29.4832 25.5223 29.3495 25.5732 29.1028C25.6749 28.6095 25.2779 28.4758 25.0947 28.4964C24.6366 28.5169 24.372 28.63 23.8936 28.4964C24.2295 28.8048 24.1379 29.4112 24.5756 29.6271Z" fill="#1D1D1D"/>
<path d="M20.5946 33.3686C20.7575 31.9501 20.5335 31.837 20.1263 31.4978C19.7701 31.1997 19.1898 31.1072 18.6096 30.7063C18.1923 30.4185 18.0803 29.9971 17.5611 29.4317C17.6629 28.2394 18.5078 26.7695 19.1389 26.4406C19.2306 26.3892 19.2 24.5389 19.2 24.5389C19.2 24.5389 19.6174 24.5184 19.5767 24.4978C19.0168 24.1483 18.3449 24.4156 17.8563 24.9912C17.3779 25.3818 16.2989 26.1116 15.5558 26.3686C14.548 25.5052 12.9702 24.7548 11.8098 23.583C11.8098 23.583 13.3367 23.5624 14.0391 23.2746C14.2223 23.1616 14.7109 22.3701 14.5175 21.6197C14.2834 21.5375 13.9373 21.3525 13.6014 21.1674C13.184 20.9207 12.7768 20.6638 12.5936 20.5199C11.9319 20.0162 11.6673 19.5742 10.517 19.2864C10.5883 18.7519 10.7002 18.8752 11.2092 18.536C11.8505 18.094 12.2068 17.5698 12.4714 17.0558C12.675 16.6447 12.4409 15.8121 11.9218 16.8708C11.7385 17.2511 11.2397 17.7445 10.6799 17.8987C10.7206 17.5698 10.7409 17.3745 10.7409 17.1997C12.4205 16.0074 12.2577 14.9486 12.1253 13.9619C12.0541 13.3862 11.484 13.1498 11.5146 13.746C11.5248 14.1366 11.8709 15.257 10.7308 15.9149C10.7104 15.4215 10.5679 15.1953 10.4661 14.9384C11.484 13.5815 11.0565 12.2658 10.629 11.6696C10.3541 11.2893 9.68229 11.1557 9.98768 11.7622C10.232 12.2555 10.6392 13.6021 9.88588 14.1469C9.62122 13.818 9.32602 13.6946 9.22422 13.2526C9.29548 11.7724 9.20386 10.8782 9.02063 10.3539C8.8374 9.87082 8.37933 9.56245 8.40987 10.282C8.45059 11.1043 8.52184 12.1322 8.44041 12.2042C8.36915 12.2658 7.29014 11.2482 6.84225 10.9501C6.39435 10.6417 5.87521 10.7548 6.39435 11.3613C6.85243 11.8958 8.22664 12.9237 8.05359 13.2629C7.94162 13.4685 6.95422 12.6461 6.44525 12.4714C5.9261 12.2864 5.76323 12.5742 6.20095 12.934C6.90332 13.5199 7.37157 13.9002 8.53202 14.2908C9.68229 14.6814 10.2625 16.2952 9.89606 18.608C9.88588 18.721 9.68229 18.7005 9.57032 18.6594C9.51942 17.7754 9.36673 16.7166 9.15297 16.2541C8.87812 15.6476 8.33862 15.6373 8.53202 16.4597C8.68471 17.1072 8.77633 17.8165 8.66436 18.7005C7.70749 18.536 7.34104 18.279 6.94404 18.0323C6.90332 17.5903 7.12727 16.8503 7.16799 16.1924C7.22906 15.5448 6.85243 15.1337 6.63866 15.956C6.43507 16.7372 6.29256 17.1175 6.17041 17.6726C5.89556 17.5801 5.61054 17.4567 5.47821 17.3025C5.41713 17.2306 5.47821 16.3466 5.40695 15.7196C5.34588 15 5.07103 15.0206 4.85727 15.6579C4.75547 15.9457 4.68422 16.3363 4.65368 16.8091C4.31776 16.6036 4.08363 16.2027 4.0531 15.8943C4.10399 15.1439 4.22615 14.3422 4.31776 13.8488C4.37884 13.489 4.14471 12.7695 3.85969 13.6432C3.6561 14.2702 3.6052 14.7945 3.48305 15.2365C3.23875 15.2159 2.92318 13.7871 2.75014 12.8826C2.67888 12.4611 2.33278 11.9883 2.2717 12.9134C2.20045 13.931 2.41422 14.9589 2.65852 15.4215C2.16991 15.3701 1.70166 14.4758 1.36574 13.9619C1.06036 13.4993 0.917847 13.9824 0.948385 14.1674C1.23341 15.9868 2.6687 16.6344 3.32018 16.7577C4.32794 18.2174 6.25184 18.8444 7.87036 19.5536C5.75305 19.5331 5.20337 20.3862 4.23633 19.8312C4.27704 20.6329 4.67404 21.0133 5.05068 21.1983C5.32552 21.3216 5.59018 21.3627 5.71234 21.3833C5.88538 22.3598 6.81171 22.3084 7.58534 22.3598C7.38175 24.2614 7.61588 26.7798 9.27512 28.6608C9.22422 29.6271 9.16315 30.9016 9.17333 31.7342C7.81947 33.0088 6.60812 35.6711 6.12969 37.1513C5.77341 38.2511 5.2339 39.1146 4.40937 39.5154C5.09139 40.2452 6.08897 39.8855 6.6692 39.4743C6.70991 40.1219 6.86261 40.5845 6.9644 40.9648C6.57758 41.5507 6.31292 41.9516 6.35364 42.6711C5.91592 42.7944 5.61054 43.0617 5.37642 43.3701C5.22372 43.5551 5.39677 44.4391 5.56982 44.8091C6.10933 46.0323 5.69198 48.7871 5.59018 49.6094C5.81413 49.6197 6.23148 49.6403 6.3231 49.301C6.45543 49.4244 6.79135 49.6608 6.94404 50.1953C6.90332 50.3906 6.77099 51.2335 7.2087 51.3466C7.56498 51.4391 9.08171 51.3877 9.2853 51.1204C9.13261 50.9354 8.86794 50.5345 8.70507 50.1336C8.70507 49.7122 8.66436 49.2085 8.55238 48.9824C8.37933 48.674 7.94162 47.9648 7.6566 47.6872C7.59552 47.1836 7.54462 44.9325 7.77875 44.069C8.17575 43.7915 10.8529 41.7768 11.4128 39.8546C11.9014 40.0191 11.7487 41.3657 11.7487 43.1028C11.7487 43.5654 12.3086 43.8018 12.6445 43.8532C13.3672 43.9457 14.4055 44.6344 15.5558 46.3715C15.7797 46.1351 16.0749 45.8987 16.0749 45.8987C16.2276 46.1043 16.4007 46.6079 16.5025 46.9163C16.6246 47.1527 17.5611 47.2966 18.2737 47.0705C18.5078 46.9883 18.6503 46.9472 18.803 46.6902C17.8971 45.0867 17.3474 44.0279 16.1869 43.1439C15.6474 42.7328 14.9247 42.5272 14.3241 42.1366C14.7313 41.3759 15.8408 37.7989 15.169 36.4831C14.945 36.0514 14.1001 35.6197 13.072 35.815C13.9271 34.7665 15.6678 32.7107 15.9019 32.0837C16.1055 32.3304 17.1336 32.1557 17.8971 32.4641C18.1719 32.5771 18.9557 33.5947 18.9964 33.9545C19.0677 34.5815 19.0982 35.3422 18.6605 37.069C18.9659 37.0176 18.9252 36.9971 19.2204 36.8737C19.2713 37.3363 19.1288 37.6961 18.7318 38.395C18.8336 39.0221 19.1084 39.978 19.4036 40.163C19.7904 39.0015 21.2257 37.3363 21.185 36.3701C21.1341 35.0544 20.5233 33.9442 20.5946 33.3686Z" fill="#1D1D1D"/>
<path d="M79.0031 32.1249C79.0031 32.1249 78.5858 32.3819 77.7103 32.3819C76.5804 32.3819 75.5727 31.7035 75.0331 31.3437C74.341 30.8812 73.211 30.2233 72.0811 29.8636C69.9027 29.8636 68.4776 29.2468 67.3681 27.7872C66.2585 26.3481 65.6885 24.4876 65.6885 22.3393C65.6885 19.1734 66.8795 16.6037 68.9764 15.4627C69.8315 15.0001 70.9003 14.7432 71.9895 14.7432C75.8577 14.7432 78.2498 17.6007 78.2498 22.2057C78.2498 25.4025 77.1199 27.7872 75.3793 28.9487C75.7762 29.1029 76.3463 29.4832 76.6822 29.6888C77.2014 30.0075 77.8325 30.3056 78.484 30.3056C79.1151 30.3056 79.7767 30.2028 79.7767 30.2028L79.0031 32.1249ZM74.5038 18.8959C74.2697 18.1558 73.4961 17.0354 71.9488 17.0354C70.9614 17.0354 70.1063 17.539 69.689 18.3305C69.1902 19.2865 68.9561 20.5714 68.9561 22.3496C68.9561 24.8885 69.3734 26.4715 70.2488 27.1088C70.7171 27.448 71.2973 27.6125 71.9895 27.6125C74.0152 27.6125 74.8805 26.0501 74.8805 22.3085C74.8805 20.7975 74.7583 19.7182 74.5038 18.8959Z" fill="#1D1D1D"/>
<path d="M87.4947 29.9252C87.1385 29.6682 86.8433 29.3084 86.66 28.8664C85.9678 29.5448 84.9601 29.9046 83.8302 29.9046C82.3236 29.9046 81.0207 29.1851 80.6746 28.1469C80.5117 27.6535 80.4404 27.0882 80.4404 25.9883V19.05L83.199 18.5258V25.4846C83.199 26.4509 83.2907 26.9648 83.4332 27.2629C83.5859 27.561 83.993 27.7666 84.4206 27.7666C85.1128 27.7666 85.9475 27.2629 86.1612 26.7284V19.1117L88.8384 18.5463V26.8106C88.8384 27.5302 89.0726 28.2702 89.4899 28.7739L87.4947 29.9252Z" fill="#1D1D1D"/>
<path d="M94.1614 25.1044V25.1969C94.1614 26.8621 94.9757 27.8181 96.4212 27.8181C97.3883 27.8181 98.284 27.4583 99.1493 26.7388L100.238 28.4348C99.0068 29.4422 97.7038 29.9356 96.1973 29.9356C93.1231 29.9356 91.1279 27.7359 91.1279 24.3335C91.1279 22.3908 91.5249 21.0956 92.4716 20.0369C93.347 19.0398 94.4159 18.5773 95.841 18.5773C97.0727 18.5773 98.2535 18.9987 98.9355 19.7182C99.9229 20.7359 100.361 22.1955 100.361 24.4569V25.1147H94.1614V25.1044ZM97.4493 22.9047C97.4493 22.103 97.3679 21.6815 97.1134 21.2806C96.8386 20.8592 96.4416 20.6433 95.8817 20.6433C94.8129 20.6433 94.2021 21.4862 94.2021 22.987V23.0281H97.4493V22.9047Z" fill="#1D1D1D"/>
<path d="M104.748 25.1044V25.1969C104.748 26.8621 105.562 27.8181 107.008 27.8181C107.964 27.8181 108.87 27.4583 109.725 26.7388L110.815 28.4348C109.583 29.4422 108.28 29.9356 106.773 29.9356C103.699 29.9356 101.704 27.7359 101.704 24.3335C101.704 22.3908 102.101 21.0956 103.048 20.0369C103.933 19.0398 104.992 18.5773 106.417 18.5773C107.649 18.5773 108.83 18.9987 109.512 19.7182C110.499 20.7359 110.937 22.1955 110.937 24.4569V25.1147H104.748V25.1044ZM108.036 22.9047C108.036 22.103 107.954 21.6815 107.7 21.2806C107.425 20.8592 107.028 20.6433 106.468 20.6433C105.399 20.6433 104.788 21.4862 104.788 22.987V23.0281H108.036V22.9047Z" fill="#1D1D1D"/>
<path d="M118.623 29.6271V22.586C118.623 21.3628 118.409 21.003 117.676 21.003C117.116 21.003 116.384 21.3833 115.732 21.9795V29.6271H112.923V21.7842C112.923 20.8488 112.8 19.9648 112.546 19.2453L115.04 18.5258C115.294 18.978 115.437 19.4406 115.437 19.8826C115.854 19.5845 116.21 19.3378 116.669 19.0808C117.239 18.7827 117.972 18.6183 118.603 18.6183C119.794 18.6183 120.842 19.2556 121.178 20.1807C121.321 20.5816 121.392 21.0544 121.392 21.7225V29.6271H118.623Z" fill="#1D1D1D"/>
<path d="M127.488 29.9663C126.164 29.9663 124.719 29.5449 123.151 28.7226L124.159 26.6462C125.014 27.1807 126.5 27.8694 127.722 27.8694C128.516 27.8694 129.147 27.3349 129.147 26.6462C129.147 25.9061 128.628 25.5258 127.498 25.3202L126.236 25.0838C125.523 24.9605 124.648 24.4465 124.271 23.984C123.894 23.5214 123.66 22.7402 123.66 22.0309C123.66 19.9238 125.32 18.5052 127.803 18.5052C129.524 18.5052 130.654 19.0295 131.631 19.5229L130.715 21.4245C129.646 20.8694 128.872 20.6433 128.078 20.6433C127.264 20.6433 126.714 21.0647 126.714 21.702C126.714 22.2571 127.07 22.5449 128.058 22.8019L129.351 23.1411C130.674 23.4803 131.112 23.8812 131.488 24.3643C131.885 24.8679 132.079 25.4847 132.079 26.2042C132.079 28.445 130.236 29.9663 127.488 29.9663Z" fill="#1D1D1D"/>
<path d="M136.792 29.8842C135.601 29.8842 134.634 29.3188 134.298 28.404C134.085 27.8489 134.044 27.52 134.044 25.9679V17.8886C134.044 16.4701 134.003 15.5964 133.901 14.6301L136.772 13.9723C136.874 14.5582 136.914 15.2572 136.914 16.7887V25.2278C136.914 27.0883 136.935 27.3453 137.098 27.6331C137.199 27.8181 137.434 27.9312 137.658 27.9312C137.759 27.9312 137.831 27.9312 137.973 27.89L138.452 29.5861C137.993 29.7814 137.403 29.8842 136.792 29.8842Z" fill="#1D1D1D"/>
<path d="M147.095 30.1822C146.444 29.9046 145.864 29.4215 145.589 28.8665C145.385 29.0823 145.151 29.2879 144.947 29.4318C144.418 29.8121 143.665 30.028 142.789 30.028C140.397 30.028 139.104 28.8048 139.104 26.6462C139.104 24.1073 140.845 22.9252 144.255 22.9252C144.469 22.9252 144.652 22.9252 144.886 22.9458V22.5038C144.886 21.3011 144.652 20.9002 143.634 20.9002C142.728 20.9002 141.69 21.3422 140.53 22.1235L139.339 20.0882C139.909 19.7284 140.326 19.5229 141.079 19.1939C142.128 18.7519 143.024 18.5566 144.011 18.5566C145.813 18.5566 147.044 19.2351 147.462 20.4377C147.604 20.8797 147.676 21.2189 147.645 22.3804L147.584 26.0192C147.564 27.2013 147.645 27.7152 148.592 28.4348L147.095 30.1822ZM144.703 24.8988C142.759 24.8988 142.087 25.2585 142.087 26.5434C142.087 27.3863 142.606 27.9619 143.319 27.9619C143.838 27.9619 144.367 27.6844 144.785 27.2218L144.825 24.8988H144.703Z" fill="#1D1D1D"/>
<path d="M156.234 29.6271V22.586C156.234 21.3628 156.021 21.003 155.288 21.003C154.718 21.003 153.985 21.3833 153.343 21.9795V29.6271H150.534V21.7842C150.534 20.8488 150.412 19.9648 150.157 19.2453L152.651 18.5258C152.906 18.978 153.048 19.4406 153.048 19.8826C153.466 19.5845 153.822 19.3378 154.28 19.0808C154.84 18.7827 155.583 18.6183 156.214 18.6183C157.405 18.6183 158.453 19.2556 158.789 20.1807C158.932 20.5816 159.003 21.0544 159.003 21.7225V29.6271H156.234Z" fill="#1D1D1D"/>
<path d="M168.369 29.627C168.287 29.4626 168.246 29.2878 168.206 28.9898C167.514 29.6065 166.699 29.8943 165.732 29.8943C163.014 29.8943 161.294 27.7563 161.294 24.395C161.294 21.0133 163.157 18.6902 165.875 18.6902C166.648 18.6902 167.259 18.8855 167.778 19.3069C167.737 19.0705 167.697 18.3304 167.697 17.7034V13.9824L170.486 14.4244V25.6696C170.486 28.3319 170.7 29.2056 170.883 29.627H168.369ZM167.737 21.6608C167.218 21.1983 166.709 20.9619 166.211 20.9619C164.959 20.9619 164.409 22.0206 164.409 24.4259C164.409 26.7489 164.887 27.5199 166.353 27.5199C166.872 27.5199 167.463 27.1601 167.737 26.8209V21.6608Z" fill="#1D1D1D"/>
<path d="M72.3057 50.329C70.5039 50.329 68.977 49.6917 67.8878 48.5096C66.6765 47.1836 66.1064 45.3848 66.1064 42.887C66.1064 40.1219 66.8394 38.1484 68.3256 36.8018C69.3537 35.8664 70.5854 35.4244 72.0716 35.4244C73.5985 35.4244 74.9218 35.9076 76.011 36.8635L75.2374 37.9428C74.0667 37.141 73.232 36.8224 72.1225 36.8224C70.4429 36.8224 69.1297 37.6036 68.5393 39.2688C68.1627 40.3481 67.9794 41.5713 67.9794 42.9487C67.9794 44.8503 68.3357 46.3921 68.9872 47.3481C69.6387 48.304 71.1045 48.8899 72.4584 48.8899C73.3643 48.8899 74.138 48.7049 74.7386 48.3246V43.9046H71.8476L71.5117 42.4656H76.3469V49.2291C75.3188 49.9075 73.7715 50.329 72.3057 50.329Z" fill="#1D1D1D"/>
<path d="M83.6663 50.3703C80.7957 50.3703 79.167 48.2425 79.167 44.7682C79.167 41.3453 80.8669 39.2484 83.6052 39.2484C85.3459 39.2484 86.4758 40.0502 87.1884 41.0884C87.8398 42.0443 88.1452 43.2881 88.1452 45.0046C88.1452 48.5098 86.2824 50.3703 83.6663 50.3703ZM85.804 41.9518C85.3662 41.0164 84.4399 40.595 83.5848 40.595C82.6585 40.595 81.8035 41.037 81.4472 41.7359C81.1113 42.3938 80.9484 43.2367 80.9484 44.4804C80.9484 45.9606 81.2029 47.2763 81.5999 47.9239C81.9765 48.5612 82.8112 48.9826 83.7172 48.9826C84.8064 48.9826 85.6207 48.4173 85.977 47.3997C86.2111 46.7418 86.2926 46.1559 86.2926 45.1177C86.2824 43.6478 86.1399 42.6508 85.804 41.9518Z" fill="#1D1D1D"/>
<path d="M94.6483 50.2057H93.04L89.2939 39.6594L90.9735 39.2997L93.4064 46.5567C93.7016 47.4201 93.9052 48.3555 93.9052 48.3555H93.9459C93.9459 48.3555 94.1088 47.5332 94.4447 46.5772L96.8369 39.5772H98.5775L94.6483 50.2057Z" fill="#1D1D1D"/>
<path d="M101.796 45.1073V45.3643C101.796 46.3614 101.918 47.122 102.284 47.6668C102.865 48.5714 103.832 48.962 104.88 48.962C105.888 48.962 106.702 48.6433 107.435 47.9649L108.066 49.0236C107.14 49.8665 105.888 50.3291 104.544 50.3291C101.653 50.3291 99.9229 48.2219 99.9229 44.727C99.9229 42.9488 100.299 41.8078 101.175 40.749C102.01 39.752 103.038 39.2894 104.29 39.2894C105.42 39.2894 106.407 39.6903 107.12 40.4304C108.015 41.3555 108.311 42.3526 108.311 44.8709V45.1073H101.796ZM106.092 41.5097C105.735 40.9443 105.002 40.5846 104.208 40.5846C102.722 40.5846 101.887 41.6844 101.796 43.8636H106.57C106.55 42.7226 106.407 42.0236 106.092 41.5097Z" fill="#1D1D1D"/>
<path d="M115.67 41.1499C115.568 41.1088 115.375 41.0677 115.212 41.0677C114.581 41.0677 113.96 41.3349 113.471 41.8283C112.993 42.3114 112.871 42.6301 112.871 43.5038V50.1029H111.242V41.9825C111.242 40.4406 110.886 39.7417 110.886 39.7417L112.514 39.2997C112.514 39.2997 112.911 40.122 112.85 41.0163C113.604 39.937 114.713 39.2585 115.782 39.2585C116.057 39.2585 116.342 39.3613 116.342 39.3613L115.67 41.1499Z" fill="#1D1D1D"/>
<path d="M123.916 50.0926V42.9693C123.916 41.8488 123.834 41.5713 123.539 41.2115C123.305 40.9443 122.867 40.7696 122.389 40.7696C121.554 40.7696 120.251 41.448 119.498 42.2497V50.0926H117.91V41.9722C117.91 40.4715 117.513 39.7519 117.513 39.7519L119.101 39.3099C119.101 39.3099 119.477 40.0911 119.477 40.9546C120.567 39.8547 121.656 39.3305 122.765 39.3305C123.895 39.3305 124.903 39.9472 125.32 40.8723C125.483 41.2527 125.575 41.6741 125.575 42.0955V50.0926H123.916Z" fill="#1D1D1D"/>
<path d="M140.151 50.0926V42.3115C140.151 41.2938 139.693 40.7696 138.808 40.7696C137.861 40.7696 137.128 41.3863 136.039 42.3937V50.0926H134.39V42.6095C134.39 41.9722 134.329 41.5508 134.095 41.2527C133.84 40.9546 133.504 40.8313 133.026 40.8313C132.232 40.8313 131.458 41.2322 130.369 42.2292V50.0926H128.801V41.9311C128.801 40.4098 128.425 39.6903 128.425 39.6903L130.013 39.31C130.013 39.31 130.389 40.1323 130.389 40.8724C131.082 40.0912 132.354 39.2894 133.423 39.2894C134.451 39.2894 135.479 39.9267 135.856 41.0471C136.864 39.9678 138.136 39.2894 139.205 39.2894C140.752 39.2894 141.821 40.4715 141.821 42.147V50.0926H140.151Z" fill="#1D1D1D"/>
<path d="M146.32 45.1073V45.3643C146.32 46.3614 146.442 47.122 146.798 47.6668C147.389 48.5714 148.345 48.962 149.394 48.962C150.402 48.962 151.216 48.6433 151.949 47.9649L152.58 49.0236C151.664 49.8665 150.402 50.3291 149.058 50.3291C146.167 50.3291 144.437 48.2219 144.437 44.727C144.437 42.9488 144.813 41.8078 145.689 40.749C146.523 39.752 147.551 39.2894 148.814 39.2894C149.944 39.2894 150.931 39.6903 151.644 40.4304C152.539 41.3555 152.835 42.3526 152.835 44.8709V45.1073H146.32ZM150.605 41.5097C150.249 40.9443 149.516 40.5846 148.722 40.5846C147.236 40.5846 146.401 41.6844 146.31 43.8636H151.084C151.073 42.7226 150.921 42.0236 150.605 41.5097Z" fill="#1D1D1D"/>
<path d="M161.761 50.0926V42.9693C161.761 41.8488 161.68 41.5713 161.385 41.2115C161.15 40.9443 160.713 40.7696 160.234 40.7696C159.4 40.7696 158.097 41.448 157.343 42.2497V50.0926H155.755V41.9722C155.755 40.4715 155.358 39.7519 155.358 39.7519L156.946 39.3099C156.946 39.3099 157.323 40.0911 157.323 40.9546C158.412 39.8547 159.501 39.3305 160.611 39.3305C161.741 39.3305 162.749 39.9472 163.166 40.8723C163.329 41.2527 163.42 41.6741 163.42 42.0955V50.0926H161.761Z" fill="#1D1D1D"/>
<path d="M170.447 40.8107H168.268V47.5948C168.268 48.7563 168.584 49.1572 169.612 49.1572C170.07 49.1572 170.345 49.0955 170.64 48.9413L170.874 50.0001C170.355 50.2776 169.765 50.4215 169.032 50.4215C168.482 50.4215 168.065 50.3187 167.668 50.1234C166.935 49.7637 166.66 49.0852 166.66 48.0265V40.8004H165.296V39.5566H166.66C166.66 38.539 166.823 36.8944 166.823 36.8944L168.533 36.514C168.533 36.514 168.329 38.1587 168.329 39.5566H170.945L170.447 40.8107Z" fill="#1D1D1D"/>
</g>
<defs>
<clipPath id="clip0_31638_83764">
<rect width="170" height="56" fill="white" transform="translate(0.944336)"/>
</clipPath>
</defs>
</svg>
