<svg width="30" height="31" viewBox="0 0 30 31" fill="none" xmlns="http://www.w3.org/2000/svg">
<path d="M29.7802 28.256L22.2179 20.6937C22.1006 20.5765 21.9248 20.5178 21.7489 20.5178H21.1041C23.1558 18.2902 24.3869 15.4177 24.3869 12.1935C24.3869 5.5105 18.8764 0 12.1935 0C5.45188 0 0 5.5105 0 12.1935C0 18.935 5.45188 24.3869 12.1935 24.3869C15.3591 24.3869 18.2902 23.1558 20.4592 21.1627V21.7489C20.4592 21.9834 20.5178 22.1593 20.6351 22.2765L28.1974 29.8388C28.4905 30.1319 28.9008 30.1319 29.1939 29.8388L29.7802 29.2526C30.0733 28.9594 30.0733 28.5491 29.7802 28.256ZM12.1935 22.511C6.44846 22.511 1.87592 17.9384 1.87592 12.1935C1.87592 6.50708 6.44846 1.87592 12.1935 1.87592C17.8798 1.87592 22.511 6.50708 22.511 12.1935C22.511 17.9384 17.8798 22.511 12.1935 22.511Z" fill="white"/>
</svg>
