<?xml version="1.0" encoding="utf-8"?>
<svg xmlns="http://www.w3.org/2000/svg" role="img">
  <defs>
    <symbol id="facilty" fill="none" viewBox="0 0 32 32">
      <path fill="currentColor" d="M29 7.932v17.136c0 .527-.19.98-.572 1.361-.381.38-.836.571-1.365.571H21.76a.751.751 0 0 1-.554-.224.757.757 0 0 1-.224-.556.758.758 0 0 1 .778-.772h5.304a.372.372 0 0 0 .274-.107.37.37 0 0 0 .107-.273V7.932a.37.37 0 0 0-.107-.273.371.371 0 0 0-.274-.107H15.778a.372.372 0 0 0-.274.107.37.37 0 0 0-.107.273v1.786a.74.74 0 0 1-.229.553.768.768 0 0 1-.557.223.755.755 0 0 1-.77-.776v-1.79c0-.528.19-.98.567-1.36A1.85 1.85 0 0 1 15.765 6h11.298c.529 0 .984.19 1.365.57.381.381.572.835.572 1.362ZM3 16.721c0-.308.07-.605.21-.89.139-.284.338-.513.597-.685l5.981-4.256a1.87 1.87 0 0 1 .547-.268 2.033 2.033 0 0 1 1.148 0c.19.054.375.143.556.268l5.96 4.256c.26.172.459.4.598.685.14.285.21.582.21.89v8.347c0 .527-.19.98-.57 1.361-.379.38-.835.571-1.367.571h-2.422c-.529 0-.984-.19-1.365-.57a1.857 1.857 0 0 1-.572-1.362V21.12H9.308v3.948c0 .527-.19.98-.569 1.361-.38.38-.835.571-1.368.571H4.937c-.529 0-.984-.19-1.365-.57A1.857 1.857 0 0 1 3 25.067V16.72Zm1.556.002v8.345a.37.37 0 0 0 .107.273.372.372 0 0 0 .274.107H7.37a.372.372 0 0 0 .274-.107.37.37 0 0 0 .107-.273v-3.925c0-.438.155-.81.464-1.116.308-.306.68-.46 1.116-.46h3.155c.44 0 .813.154 1.12.46.306.306.46.678.46 1.116v3.925c0 .11.037.202.11.273a.375.375 0 0 0 .27.107h2.423a.372.372 0 0 0 .274-.107.37.37 0 0 0 .107-.273v-8.345a.4.4 0 0 0-.167-.32l-5.96-4.227a.344.344 0 0 0-.21-.072.38.38 0 0 0-.219.072l-5.973 4.227a.402.402 0 0 0-.167.32Z"/>
      <path fill="currentColor" d="M21.598 14.736V12.89h-1.85a.759.759 0 0 1-.777-.772c0-.221.075-.406.224-.556a.751.751 0 0 1 .554-.224h1.85V9.494a.755.755 0 0 1 .773-.776.76.76 0 0 1 .557.223c.15.148.225.333.225.553v1.845h1.849a.758.758 0 0 1 .778.772c0 .22-.075.406-.224.555a.75.75 0 0 1-.554.225h-1.85v1.845a.757.757 0 0 1-.773.776.76.76 0 0 1-.557-.223.749.749 0 0 1-.225-.553Zm1.406 8.268h-.921a.465.465 0 0 1-.34-.144.46.46 0 0 1-.145-.337v-.914c0-.128.05-.242.147-.34a.465.465 0 0 1 .341-.15h.918c.13 0 .242.05.338.15a.47.47 0 0 1 .145.34v.914a.46.46 0 0 1-.145.337.464.464 0 0 1-.338.144Zm0-3.539h-.921a.466.466 0 0 1-.34-.145.46.46 0 0 1-.145-.337v-.914c0-.128.05-.241.147-.34a.465.465 0 0 1 .341-.15h.918c.13 0 .242.05.338.15a.474.474 0 0 1 .145.34v.915c0 .128-.048.24-.145.336a.465.465 0 0 1-.338.145Z"/>
    </symbol>
    <symbol id="child_health" fill="none" viewBox="0 0 32 32">
      <path fill="currentColor" d="M15.996 3.333c1.76 0 3.41.33 4.95.988 1.54.658 2.882 1.56 4.027 2.706a12.687 12.687 0 0 1 2.706 4.026c.659 1.539.988 3.19.988 4.951 0 1.752-.33 3.399-.988 4.94a12.678 12.678 0 0 1-2.706 4.03 12.69 12.69 0 0 1-4.026 2.705c-1.539.658-3.19.988-4.951.988-1.752 0-3.398-.329-4.938-.986a12.667 12.667 0 0 1-4.032-2.707 12.667 12.667 0 0 1-2.707-4.032c-.657-1.54-.986-3.186-.986-4.938 0-1.762.33-3.412.988-4.951a12.689 12.689 0 0 1 2.706-4.026 12.676 12.676 0 0 1 4.03-2.706c1.542-.658 3.189-.988 4.939-.988Zm.003 23.658c3.055 0 5.651-1.067 7.788-3.203 2.136-2.136 3.204-4.732 3.204-7.787 0-3.055-1.067-5.651-3.203-7.788-2.136-2.136-4.731-3.204-7.787-3.204-3.055 0-5.651 1.067-7.788 3.203-2.136 2.136-3.204 4.731-3.204 7.787 0 3.055 1.067 5.651 3.203 7.788 2.136 2.136 4.732 3.204 7.787 3.204Zm-2.56-17.24c0 .737.242 1.347.726 1.83.484.485 1.096.727 1.835.727.74 0 1.35-.242 1.835-.726.484-.484.726-1.095.726-1.83 0-.737-.242-1.348-.726-1.835-.484-.487-1.096-.73-1.835-.73-.74 0-1.35.243-1.835.73-.484.487-.726 1.098-.726 1.834Zm2.564 3.787c-1.433 0-2.768.234-4.008.7-1.239.468-1.858 1.315-1.858 2.544v4.9c0 1.23.62 2.072 1.858 2.525 1.239.452 2.575.678 4.01.678.345 0 .633-.116.865-.35.231-.233.347-.522.347-.867s-.116-.634-.35-.867a1.178 1.178 0 0 0-.867-.35 6.697 6.697 0 0 1-2.626-.594.719.719 0 0 1-.395-.389.539.539 0 0 1 .051-.515 2.26 2.26 0 0 1 1.313-.878A6.765 6.765 0 0 1 16 19.868c.769 0 1.498.09 2.19.27.69.18 1.036.603 1.036 1.269v1.633a.85.85 0 0 0 .235.6.774.774 0 0 0 .591.251c.538 0 .974-.223 1.309-.67a2.49 2.49 0 0 0 .502-1.534v-4.904c0-1.23-.618-2.078-1.856-2.544-1.237-.467-2.572-.7-4.004-.7ZM16 19.226c-.458 0-.846-.16-1.163-.481a1.595 1.595 0 0 1-.475-1.163c0-.454.159-.84.475-1.157A1.58 1.58 0 0 1 16 15.95c.459 0 .846.159 1.163.476.316.317.475.705.475 1.164 0 .451-.159.837-.475 1.156-.317.32-.704.48-1.163.48Z"/>
    </symbol>
    <symbol id="blood" fill="none" viewBox="0 0 32 32">
      <path fill="currentColor" d="M19.371 28.667c-.7 0-1.37-.149-2.009-.445a5.034 5.034 0 0 1-1.675-1.257l-6.821-7.88a1.048 1.048 0 0 1-.251-.794.985.985 0 0 1 .412-.721l.467-.343a2.02 2.02 0 0 1 1.181-.427 1.96 1.96 0 0 1 1.21.354l2.782 1.8V5.171c0-.237.081-.436.245-.597a.823.823 0 0 1 .6-.24.817.817 0 0 1 .83.838v14.952c0 .423-.18.731-.542.925-.36.194-.713.176-1.058-.054l-3.301-2.128a.425.425 0 0 0-.23-.065.376.376 0 0 0-.232.077l-.038.026 6.279 7.314c.237.275.492.473.765.593s.605.18.996.18h6.181c.88 0 1.63-.31 2.248-.93a3.047 3.047 0 0 0 .928-2.233v-9.581c0-.237.081-.436.244-.597a.824.824 0 0 1 .6-.24.818.818 0 0 1 .83.838v9.58c0 1.348-.471 2.492-1.415 3.43-.944.939-2.09 1.408-3.435 1.408h-5.791Zm.752-19.385a.815.815 0 0 1 .83.838V16c0 .237-.08.436-.242.597a.818.818 0 0 1-.6.24.816.816 0 0 1-.833-.838v-5.88c0-.237.081-.436.245-.596a.823.823 0 0 1 .6-.241Zm4.448 1.462a.817.817 0 0 1 .83.838V16a.81.81 0 0 1-.241.597.818.818 0 0 1-.6.24.816.816 0 0 1-.833-.838v-4.418c0-.237.081-.436.244-.597a.824.824 0 0 1 .6-.24ZM6.005 13c-1.22 0-2.249-.414-3.084-1.24-.836-.828-1.254-1.835-1.254-3.022 0-.716.139-1.33.418-1.843.278-.513.965-1.39 2.059-2.631l1.059-1.215a1 1 0 0 1 .793-.37c.318 0 .58.123.789.37l1.059 1.236c1.107 1.286 1.8 2.176 2.075 2.67.276.494.414 1.09.414 1.788 0 1.168-.421 2.17-1.264 3.005S7.205 13 6.005 13Zm-.002-1.675c.736 0 1.363-.253 1.88-.76a2.471 2.471 0 0 0 .775-1.832c0-.462-.109-.872-.327-1.231-.218-.36-.791-1.056-1.72-2.091l-.637-.685-.598.685c-.83.936-1.376 1.62-1.64 2.053-.262.433-.394.854-.394 1.262 0 .732.255 1.348.764 1.848.51.5 1.142.75 1.897.75Z"/>
    </symbol>
    <symbol id="support_care" fill="none" viewBox="0 0 32 32">
      <path fill="currentColor" d="M18.56 28.02a.322.322 0 0 0 .12.025.261.261 0 0 0 .111-.025l8.006-2.492c-.011-.425-.157-.759-.436-1a1.39 1.39 0 0 0-.974-.349h-6.642a7.545 7.545 0 0 1-1.292-.062 6.365 6.365 0 0 1-1.211-.296l-2.241-.699a.838.838 0 0 1-.502-.448.85.85 0 0 1-.05-.672.828.828 0 0 1 .429-.492.808.808 0 0 1 .665-.029l2.094.72a5.31 5.31 0 0 0 1.092.238c.39.045.843.066 1.355.065h1.091c0-.438-.117-.806-.351-1.104a2.016 2.016 0 0 0-.883-.65l-7.474-2.791a3.02 3.02 0 0 0-.075-.02.3.3 0 0 0-.066-.006H8.534v7.161l10.027 2.926Zm-.385 1.62-9.641-2.79c-.086.567-.347 1.011-.784 1.333-.436.323-.87.484-1.301.484H4.355c-.57 0-1.06-.206-1.47-.616-.41-.411-.616-.9-.616-1.47v-8.237c0-.574.206-1.065.616-1.473.41-.409.9-.613 1.47-.613h6.934c.126 0 .25.013.372.04.122.026.24.057.354.092l7.494 2.784a3.86 3.86 0 0 1 1.72 1.252c.441.568.662 1.261.662 2.078h3.496c.968 0 1.756.332 2.365.995.61.663.915 1.47.915 2.424 0 .26-.067.486-.201.676-.134.19-.328.328-.583.411l-8.514 2.623a2.319 2.319 0 0 1-.592.087 1.965 1.965 0 0 1-.602-.08Zm-14.23-3.059c0 .12.038.218.115.295a.399.399 0 0 0 .295.115h2.071c.12 0 .218-.032.295-.096.077-.064.116-.169.116-.314v-8.648H4.355a.4.4 0 0 0-.295.116.399.399 0 0 0-.116.295v8.237Zm17.284-10.736a2.11 2.11 0 0 1-1.45-.58l-3.801-3.673a8.933 8.933 0 0 1-1.558-1.975 4.635 4.635 0 0 1-.632-2.369c0-1.076.367-1.998 1.1-2.765.733-.766 1.634-1.15 2.702-1.15a3.7 3.7 0 0 1 2.025.584 6.69 6.69 0 0 1 1.612 1.439c.463-.57.999-1.05 1.608-1.439a3.695 3.695 0 0 1 2.03-.584c1.068 0 1.969.384 2.702 1.15.733.767 1.1 1.689 1.1 2.765a4.6 4.6 0 0 1-.636 2.366 9.308 9.308 0 0 1-1.556 1.978l-3.799 3.674a2.21 2.21 0 0 1-.688.434c-.247.097-.5.145-.759.145Zm.28-1.764 3.71-3.627a9.743 9.743 0 0 0 1.229-1.453 3.02 3.02 0 0 0 .543-1.753 2.25 2.25 0 0 0-.608-1.581 1.982 1.982 0 0 0-1.518-.658c-.49 0-.935.14-1.334.418-.4.28-.754.617-1.064 1.012l-.475.586a.916.916 0 0 1-.757.363.967.967 0 0 1-.775-.363l-.48-.586a4.819 4.819 0 0 0-1.056-1.012 2.274 2.274 0 0 0-1.334-.418c-.606 0-1.112.22-1.518.658-.406.44-.609.966-.609 1.581 0 .644.18 1.228.54 1.753.359.525.77 1.01 1.235 1.456l3.707 3.624a.384.384 0 0 0 .282.116.383.383 0 0 0 .282-.116Z"/>
    </symbol>
    <symbol id="shield_with_heart" fill="none" viewBox="0 0 32 32">
      <path fill="currentColor" d="M11.491 14.825c0 1.035.523 2.043 1.568 3.022 1.045.98 1.91 1.783 2.592 2.41.112.097.23.146.352.146a.53.53 0 0 0 .352-.146c.682-.614 1.544-1.414 2.588-2.402 1.044-.988 1.566-1.999 1.566-3.031 0-.68-.245-1.262-.736-1.747a2.406 2.406 0 0 0-1.753-.727c-.408 0-.79.08-1.143.241-.354.16-.647.38-.877.66a2.306 2.306 0 0 0-.878-.661 2.796 2.796 0 0 0-1.15-.24c-.678 0-1.26.244-1.748.732a2.378 2.378 0 0 0-.733 1.743ZM16 28.495a1.85 1.85 0 0 1-.361-.034 1.712 1.712 0 0 1-.335-.1c-2.86-1.018-5.125-2.801-6.797-5.35C6.836 20.46 6 17.686 6 14.683V8.57c0-.444.126-.844.378-1.2a2.16 2.16 0 0 1 .977-.773l7.914-2.946c.253-.094.496-.14.731-.14s.478.046.73.14l7.915 2.946c.4.16.725.417.977.773.252.356.378.756.378 1.2v6.114c0 3.003-.836 5.779-2.507 8.328-1.672 2.549-3.937 4.332-6.797 5.35a1.712 1.712 0 0 1-.335.1 1.905 1.905 0 0 1-.361.034Zm0-1.623c2.428-.785 4.423-2.312 5.984-4.583 1.56-2.27 2.34-4.805 2.34-7.602v-6.13a.399.399 0 0 0-.07-.231.426.426 0 0 0-.198-.154L16.14 5.203a.376.376 0 0 0-.14-.025.376.376 0 0 0-.141.025L7.944 8.172a.427.427 0 0 0-.198.154.399.399 0 0 0-.07.23v6.131c0 2.797.78 5.331 2.34 7.602 1.561 2.27 3.556 3.798 5.984 4.583Z"/>
    </symbol>
    <symbol id="clinical_information" fill="none" viewBox="0 0 32 32">
      <path fill="currentColor" d="M22.667 20.927c-.983 0-1.819-.344-2.507-1.032-.688-.688-1.032-1.523-1.032-2.506 0-.983.344-1.818 1.032-2.506.688-.689 1.524-1.033 2.507-1.033.982 0 1.818.344 2.506 1.033.688.688 1.032 1.523 1.032 2.506 0 .983-.344 1.818-1.032 2.506-.688.688-1.523 1.032-2.506 1.032Zm0-1.675c.526 0 .968-.179 1.326-.537a1.8 1.8 0 0 0 .537-1.326c0-.527-.179-.969-.537-1.327a1.803 1.803 0 0 0-1.326-.536c-.527 0-.969.179-1.327.536-.358.358-.537.8-.537 1.327 0 .527.18.969.537 1.326.358.358.8.537 1.327.537ZM16.17 29.53c-.296 0-.543-.1-.743-.3-.2-.2-.3-.447-.3-.743v-2.362c0-.386.092-.75.276-1.09a2.12 2.12 0 0 1 .773-.813c.617-.372 1.146-.64 1.585-.803.44-.162 1.014-.32 1.726-.472.22-.041.44-.04.657.004a.873.873 0 0 1 .532.326l1.99 2.561 1.97-2.561a.899.899 0 0 1 .536-.33c.212-.041.433-.04.663.002.714.153 1.286.31 1.714.47.428.161.957.429 1.586.803.332.202.59.472.777.81.186.339.284.699.292 1.08v2.375c0 .296-.1.543-.3.743-.2.2-.447.3-.743.3h-12.99Zm.613-1.675h5.313l-2.53-3.286c-.494.153-.974.332-1.436.54-.463.207-.913.437-1.347.69v2.056Zm6.461 0h5.285v-2.057c-.43-.257-.876-.485-1.337-.686a14.11 14.11 0 0 0-1.426-.53l-2.522 3.273ZM6.342 25.658V6.342v5.42-.766 14.662Zm.416 1.675a2.011 2.011 0 0 1-1.477-.616c-.41-.41-.614-.9-.614-1.47V6.753c0-.569.205-1.059.616-1.47.41-.41.9-.615 1.47-.615h18.495c.569 0 1.059.205 1.47.616.41.41.615.9.615 1.47v6.556a6.438 6.438 0 0 0-.742-.866 3.95 3.95 0 0 0-.933-.675V6.752a.4.4 0 0 0-.115-.295.4.4 0 0 0-.295-.115H6.752a.4.4 0 0 0-.295.115.4.4 0 0 0-.115.295v18.496a.4.4 0 0 0 .115.295.4.4 0 0 0 .295.115h5.545a4.293 4.293 0 0 0-.023.467v1.208H6.758Zm3.746-15.837h9.766a4.663 4.663 0 0 1 1.005-.338c.346-.074.7-.12 1.058-.137v-.85c0-.1-.033-.183-.1-.25a.34.34 0 0 0-.25-.1H10.504a.809.809 0 0 0-.597.242.817.817 0 0 0-.24.6.817.817 0 0 0 .838.833Zm0 5.342h5.834a6.21 6.21 0 0 1 .11-.857c.057-.282.133-.555.228-.819h-6.172a.808.808 0 0 0-.597.243.817.817 0 0 0-.24.6.817.817 0 0 0 .838.833Zm0 5.341h3.65a6.9 6.9 0 0 1 .947-.615c.329-.176.67-.338 1.022-.487v-.041a.77.77 0 0 0-.217-.392c-.103-.093-.262-.14-.477-.14h-4.925a.81.81 0 0 0-.597.242.817.817 0 0 0-.24.6.817.817 0 0 0 .838.833Z"/>
    </symbol>
    <symbol id="medical_staff" fill="none" viewBox="0 0 32 32">
      <path fill="currentColor" d="M9.957 20.838v1.991a.82.82 0 0 0 .842.837.817.817 0 0 0 .833-.838v-1.99h1.992a.808.808 0 0 0 .597-.243.816.816 0 0 0 .24-.6.816.816 0 0 0-.838-.833h-1.99v-1.991a.809.809 0 0 0-.243-.597.817.817 0 0 0-.6-.24.817.817 0 0 0-.833.838v1.99H7.966a.808.808 0 0 0-.597.243.817.817 0 0 0-.24.6.817.817 0 0 0 .837.833h1.991Zm8.009-1.795h6.402a.612.612 0 0 0 .45-.183.61.61 0 0 0 .182-.449.613.613 0 0 0-.182-.45.611.611 0 0 0-.45-.183h-6.402a.612.612 0 0 0-.45.182.61.61 0 0 0-.183.45c0 .178.061.328.183.45a.611.611 0 0 0 .45.183Zm0 3.59H21.7a.612.612 0 0 0 .45-.183.61.61 0 0 0 .182-.45.613.613 0 0 0-.182-.45.612.612 0 0 0-.45-.182h-3.735a.612.612 0 0 0-.45.182.61.61 0 0 0-.183.45c0 .178.061.328.183.45a.612.612 0 0 0 .45.182ZM5.419 28.666a2.008 2.008 0 0 1-1.473-.613 2.008 2.008 0 0 1-.613-1.473V12.086c0-.573.205-1.064.613-1.473.409-.409.9-.613 1.473-.613h7.735V5.009c0-.45.167-.842.5-1.175a1.62 1.62 0 0 1 1.185-.5h2.324c.456 0 .85.166 1.184.5.333.333.499.725.499 1.175V10h7.735c.573 0 1.064.204 1.473.613.408.409.613.9.613 1.473V26.58c0 .573-.205 1.064-.613 1.473-.409.408-.9.613-1.473.613H5.419Zm0-1.676h21.162a.4.4 0 0 0 .295-.115.4.4 0 0 0 .115-.295V12.086a.4.4 0 0 0-.115-.295.4.4 0 0 0-.295-.116h-7.735v1c0 .494-.166.897-.499 1.208a1.675 1.675 0 0 1-1.185.467h-2.324a1.67 1.67 0 0 1-1.185-.467c-.333-.311-.499-.714-.499-1.208v-1H5.419a.4.4 0 0 0-.295.116.4.4 0 0 0-.115.295V26.58a.4.4 0 0 0 .115.295.4.4 0 0 0 .295.115Zm9.41-14.316h2.342V5.01h-2.342v7.666Z"/>
    </symbol>
    <symbol id="icon" fill="none" viewBox="0 0 32 32">
      <path fill="currentColor" d="M6.906 28.667a2.015 2.015 0 0 1-1.483-.602 2.016 2.016 0 0 1-.602-1.484V5.419c0-.57.2-1.059.602-1.47.401-.41.895-.616 1.483-.616h11.829c.57 0 1.059.206 1.47.616.41.411.615.9.615 1.47v6.83c0 .237-.08.436-.242.597a.817.817 0 0 1-.6.24.819.819 0 0 1-.602-.244.824.824 0 0 1-.244-.607V5.419a.403.403 0 0 0-.41-.41H6.905a.4.4 0 0 0-.295.115.4.4 0 0 0-.115.295v9.7a4.37 4.37 0 0 1 1.357-.827A4.513 4.513 0 0 1 9.487 14h6.38c.237 0 .436.08.596.242a.817.817 0 0 1 .241.6.816.816 0 0 1-.838.833h-6.38c-.832 0-1.538.29-2.119.87-.58.58-.871 1.288-.871 2.122v7.914a.4.4 0 0 0 .115.295.4.4 0 0 0 .295.115h7.479c.232 0 .429.081.592.243a.81.81 0 0 1 .245.6.795.795 0 0 1-.245.595.82.82 0 0 1-.592.238H6.906Zm5.908-16.83a2.084 2.084 0 0 1-1.533-.633 2.1 2.1 0 0 1-.631-1.54c0-.598.21-1.11.633-1.533a2.092 2.092 0 0 1 1.54-.635c.598 0 1.11.212 1.533.637a2.1 2.1 0 0 1 .635 1.54c0 .602-.212 1.113-.637 1.533a2.108 2.108 0 0 1-1.54.632Zm-.831 10.334V24c0 .237.08.436.24.597.161.16.36.24.598.24a.78.78 0 0 0 .54-.2.749.749 0 0 0 .25-.516v-1.658a11.66 11.66 0 0 1-.038-.959 7.122 7.122 0 0 1 .085-1.113v-1.724a.808.808 0 0 0-.242-.597.816.816 0 0 0-.6-.241.815.815 0 0 0-.833.838v1.829h-1.829a.809.809 0 0 0-.597.242.817.817 0 0 0-.24.6.817.817 0 0 0 .838.833h1.828Zm10.683 6.667c-1.708 0-3.163-.602-4.366-1.806-1.203-1.203-1.804-2.659-1.804-4.366 0-1.708.602-3.163 1.805-4.366 1.204-1.203 2.66-1.804 4.367-1.804 1.707 0 3.163.602 4.365 1.805 1.203 1.204 1.805 2.66 1.805 4.367 0 1.707-.602 3.163-1.806 4.365-1.203 1.203-2.659 1.805-4.366 1.805Zm.59-6.407v-3.098a.565.565 0 0 0-.177-.412.565.565 0 0 0-.412-.177.565.565 0 0 0-.413.177.564.564 0 0 0-.177.412v3.37c0 .03.046.151.138.365l2.268 2.246a.592.592 0 0 0 .412.182.555.555 0 0 0 .42-.18.575.575 0 0 0 .188-.416.575.575 0 0 0-.188-.415l-2.059-2.054Z"/>
    </symbol>
    <symbol id="surgical" fill="none" viewBox="0 0 32 32">
      <path fill="currentColor" d="M28.586 26.808H16.728c-.276 0-.485-.088-.626-.263a.892.892 0 0 1-.211-.573.89.89 0 0 1 .216-.575c.144-.176.353-.265.628-.265h11.85a.812.812 0 0 1 .838.838.812.812 0 0 1-.837.838Zm-11.822-7.585a1 1 0 0 1-.73.312 1 1 0 0 1-.731-.312l-2.59-2.59a1 1 0 0 1-.312-.73 1 1 0 0 1 .312-.731l9.378-9.379a1.351 1.351 0 0 1 1.48-.31c.158.065.307.167.447.307l2.128 2.128c.14.14.242.288.307.446.065.158.097.329.097.512 0 .178-.032.348-.097.511a1.363 1.363 0 0 1-.31.457l-9.379 9.379Zm-.73-1.647 8.717-8.707-1.684-1.684-8.707 8.718 1.673 1.673Zm-3.072 7.196a6.736 6.736 0 0 1-2.279 1.519 7.084 7.084 0 0 1-2.693.53h-.8a5.928 5.928 0 0 1-1.562-.207 6.246 6.246 0 0 1-1.445-.594 1.013 1.013 0 0 1-.482-.435 1.262 1.262 0 0 1-.165-.63 1.385 1.385 0 0 1 .407-.972l5.916-5.896a1 1 0 0 1 .73-.312c.28 0 .524.104.732.312l2.261 2.262c.255.25.456.535.602.857.146.321.219.66.219 1.017 0 .357-.072.701-.216 1.032-.143.33-.34.62-.592.87l-.633.647Zm-5.772.373h.8c.709 0 1.393-.136 2.053-.408a5.276 5.276 0 0 0 1.739-1.158l.656-.647a.88.88 0 0 0 .259-.71 1.134 1.134 0 0 0-.335-.722l-1.772-1.764-5.157 5.124c.26.095.543.166.85.214.307.048.609.071.907.071Z"/>
    </symbol>
    <symbol id="masks" fill="none" viewBox="0 0 32 32">
      <path fill="currentColor" d="M16 23.397c-.77 0-1.515-.11-2.234-.33a7.784 7.784 0 0 1-2.028-.96 10.735 10.735 0 0 1-2.784-.581 7.29 7.29 0 0 1-2.633-1.61c-.793-.744-1.45-1.727-1.967-2.948-.518-1.22-.777-2.746-.777-4.575v-.953c0-.798.276-1.47.828-2.017a2.75 2.75 0 0 1 2.011-.82c.738 0 1.377.287 1.918.862.541.574.845 1.279.913 2.113a12.014 12.014 0 0 0 1.755-.59c.492-.216.935-.429 1.33-.638a12.569 12.569 0 0 1 1.739-.811c.556-.206 1.199-.308 1.929-.308.736 0 1.38.102 1.934.308.553.205 1.131.476 1.734.81.396.21.84.423 1.331.639.492.215 1.077.412 1.754.59.068-.851.372-1.56.914-2.126.541-.566 1.18-.85 1.918-.85.797 0 1.47.274 2.017.821.547.547.821 1.22.821 2.017v.953c0 1.83-.259 3.354-.777 4.575s-1.174 2.204-1.967 2.948a7.29 7.29 0 0 1-2.633 1.61c-.961.33-1.889.523-2.784.582a7.784 7.784 0 0 1-2.028.959c-.719.22-1.464.33-2.234.33Zm-6.114-2.953a8.863 8.863 0 0 1-1.359-2.304 7.22 7.22 0 0 1-.54-2.768V11.44a1.52 1.52 0 0 0-.458-1.114 1.517 1.517 0 0 0-1.114-.458c-.428 0-.797.152-1.108.458-.31.306-.465.677-.465 1.114v.953c0 2.72.554 4.673 1.661 5.859 1.108 1.185 2.236 1.916 3.383 2.192ZM16 22.132c1.834 0 3.417-.67 4.75-2.012 1.333-1.342 1.999-2.924 1.999-4.748v-2.489a14.71 14.71 0 0 1-2.09-.62 9.407 9.407 0 0 1-1.542-.746c-.611-.36-1.156-.621-1.635-.781a4.623 4.623 0 0 0-2.945 0c-.473.16-1.017.42-1.631.781-.429.25-.946.498-1.55.747-.604.248-1.305.454-2.103.619v2.489c0 1.824.668 3.406 2.005 4.748 1.337 1.342 2.917 2.012 4.742 2.012Zm.005-8.846c.319 0 .6.057.845.171.244.114.513.26.807.437.163.104.327.205.492.3.165.096.352.195.561.297.152.066.298.07.439.015a.647.647 0 0 0 .329-.289.431.431 0 0 0 .011-.381.464.464 0 0 0-.284-.274 10.167 10.167 0 0 1-.956-.506 10.67 10.67 0 0 0-1.015-.55c-.336-.158-.747-.237-1.233-.237-.486 0-.899.079-1.24.235-.341.156-.688.339-1.04.547-.155.095-.307.184-.455.266a6.55 6.55 0 0 1-.49.245.534.534 0 0 0-.28.285.418.418 0 0 0 .015.37.56.56 0 0 0 .324.274.57.57 0 0 0 .431-.02c.209-.106.398-.205.569-.298l.51-.279c.285-.17.553-.313.805-.43a1.99 1.99 0 0 1 .855-.178Zm6.097 7.171c1.156-.276 2.288-1.01 3.396-2.203 1.107-1.193 1.661-3.146 1.661-5.86v-.954a1.52 1.52 0 0 0-.458-1.114 1.518 1.518 0 0 0-1.115-.458c-.427 0-.797.152-1.107.458-.31.306-.465.677-.465 1.114v3.932c0 .968-.172 1.895-.516 2.781a7.416 7.416 0 0 1-1.396 2.304Z"/>
    </symbol>
    <symbol id="maternity" fill="none" viewBox="0 0 32 32">
      <path fill="currentColor" d="M15.913 28.308c-.863 0-1.7-.092-2.512-.276a12.404 12.404 0 0 1-2.204-.704c-.945-.409-1.714-.905-2.307-1.49C8.297 25.252 8 24.6 8 23.882v-7.114c0-.637.24-1.223.722-1.757.48-.534 1.1-1.007 1.857-1.418.778-.41 1.637-.728 2.575-.95a12.263 12.263 0 0 1 5.692 0c.938.222 1.797.54 2.575.95.777.41 1.402.883 1.873 1.417.47.534.706 1.12.706 1.757v7.117c0 .35-.077.688-.23 1.016a3.265 3.265 0 0 1-.659.923 6.483 6.483 0 0 1-1.007.815 8.362 8.362 0 0 1-1.281.693 10.9 10.9 0 0 0 .1-.863c0-1.192-.421-2.209-1.263-3.05-.842-.843-1.857-1.264-3.045-1.264-.884 0-1.666.234-2.345.702a4.437 4.437 0 0 0-1.534 1.813c.651.178 1.25.296 1.795.354.545.058 1.023.087 1.435.087.35 0 .632-.01.848-.033.216-.022.355-.033.417-.033v3.197c-.228.03-.45.05-.666.056-.216.007-.433.01-.652.01Zm3.776-6.77c.676 0 1.256-.24 1.74-.722a2.36 2.36 0 0 0 .725-1.735c0-.676-.242-1.256-.725-1.74a2.374 2.374 0 0 0-1.742-.726 2.36 2.36 0 0 0-1.737.725 2.384 2.384 0 0 0-.72 1.742c0 .679.241 1.258.723 1.737.481.48 1.06.72 1.736.72ZM16 11.077c1.026 0 1.897-.356 2.615-1.067.718-.71 1.077-1.588 1.077-2.63 0-1.023-.359-1.893-1.077-2.61-.718-.719-1.59-1.078-2.617-1.078-1.046 0-1.923.36-2.63 1.077-.707.718-1.06 1.59-1.06 2.616 0 1.039.354 1.914 1.061 2.625.708.711 1.585 1.067 2.631 1.067Z"/>
    </symbol>
    <symbol id="mental_health" fill="none" viewBox="0 0 32 32">
      <path fill="currentColor" d="m15.011 18.143.059.864c.01.145.063.263.16.352a.507.507 0 0 0 .356.133h.793c.14 0 .258-.044.355-.133a.506.506 0 0 0 .16-.352l.068-.864a2.78 2.78 0 0 0 .866-.32 2.67 2.67 0 0 0 .701-.566l.808.328a.512.512 0 0 0 .651-.208l.387-.663a.494.494 0 0 0 .07-.352.541.541 0 0 0-.186-.317l-.633-.486a2.941 2.941 0 0 0 0-2.046l.633-.478a.58.58 0 0 0 .186-.326.508.508 0 0 0-.07-.355l-.387-.652a.52.52 0 0 0-.288-.234.473.473 0 0 0-.363.027l-.808.32a2.79 2.79 0 0 0-.712-.551 3.25 3.25 0 0 0-.855-.326l-.068-.873a.516.516 0 0 0-.16-.35.498.498 0 0 0-.355-.135h-.786a.51.51 0 0 0-.523.485l-.059.873c-.302.066-.59.175-.864.326a2.79 2.79 0 0 0-.712.55l-.808-.319a.471.471 0 0 0-.364-.025.528.528 0 0 0-.288.227l-.385.661a.518.518 0 0 0-.062.351c.021.122.083.23.186.326l.633.478a2.806 2.806 0 0 0 0 2.046l-.633.486a.54.54 0 0 0-.186.317.514.514 0 0 0 .062.352l.386.663a.51.51 0 0 0 .651.209l.808-.329a2.775 2.775 0 0 0 1.576.885Zm.977-1.197a2.321 2.321 0 0 1-1.709-.701 2.322 2.322 0 0 1-.699-1.703c0-.673.233-1.243.698-1.709a2.313 2.313 0 0 1 1.702-.699c.67 0 1.24.233 1.709.697.469.465.703 1.033.703 1.703 0 .67-.233 1.24-.701 1.709a2.314 2.314 0 0 1-1.703.703Zm-7.321 6.346a12.56 12.56 0 0 1-2.95-3.973 10.86 10.86 0 0 1-1.05-4.662c0-3.145 1.102-5.819 3.305-8.02 2.204-2.203 4.88-3.304 8.028-3.304 2.59 0 4.905.774 6.947 2.322s3.368 3.556 3.979 6.025l1.607 6.364a.983.983 0 0 1-.18.891.997.997 0 0 1-.833.398h-2.853v4.581c0 .57-.206 1.06-.616 1.47-.411.41-.9.616-1.47.616h-3.248v1.829c0 .237-.08.436-.242.597a.817.817 0 0 1-.6.24.816.816 0 0 1-.833-.838v-2.454c0-.302.1-.552.3-.751.2-.199.447-.298.743-.298h3.88a.4.4 0 0 0 .295-.116.4.4 0 0 0 .115-.295v-5.213c0-.296.1-.543.3-.743.2-.2.448-.3.743-.3h2.657l-1.38-5.577c-.52-2.097-1.651-3.8-3.392-5.109C20.177 5.663 18.205 5.01 16 5.01c-2.678 0-4.957.93-6.838 2.79-1.88 1.861-2.82 4.129-2.82 6.804a9.37 9.37 0 0 0 .849 3.937 10.339 10.339 0 0 0 2.397 3.3l.754.709v5.28c0 .237-.08.436-.242.597a.817.817 0 0 1-.6.24.816.816 0 0 1-.833-.838v-4.536Z"/>
    </symbol>
    <symbol id="dental" fill="none" viewBox="0 0 32 32">
      <path fill="currentColor" d="M22.538 3.5c1.288.009 2.387.467 3.299 1.374.912.908 1.368 2.006 1.368 3.293 0 .227-.014.538-.044.932a26.22 26.22 0 0 1-.143 1.378L25.172 23.91c-.086.715-.4 1.276-.944 1.681a2.926 2.926 0 0 1-1.79.609c-.41 0-.793-.1-1.15-.3a2.9 2.9 0 0 1-.926-.839l-3.76-5.29a.797.797 0 0 0-.267-.233.755.755 0 0 0-.368-.09c-.105 0-.317.13-.636.39l-3.66 5.123a3.077 3.077 0 0 1-.97.906 2.35 2.35 0 0 1-1.206.333c-.65 0-1.24-.206-1.773-.618-.533-.413-.842-.98-.927-1.705l-1.813-13.4a26.503 26.503 0 0 1-.143-1.378 12.9 12.9 0 0 1-.044-.932c0-1.287.456-2.387 1.368-3.299C7.075 3.956 8.174 3.5 9.462 3.5c.723 0 1.319.106 1.788.317.47.21.926.439 1.37.683.445.244.924.472 1.436.683.513.211 1.161.317 1.944.317.792 0 1.446-.106 1.963-.317.517-.21.998-.439 1.442-.683.444-.244.903-.472 1.374-.683.472-.211 1.059-.317 1.76-.317Zm0 1.675c-.51 0-.957.092-1.338.274a19.82 19.82 0 0 0-1.219.64 9.93 9.93 0 0 1-1.764.787c-.6.2-1.34.3-2.217.3-.86 0-1.587-.1-2.18-.3a10.399 10.399 0 0 1-1.762-.786 15.243 15.243 0 0 0-1.234-.641 3.231 3.231 0 0 0-1.362-.274c-.833 0-1.54.29-2.12.872a2.886 2.886 0 0 0-.872 2.12c0 .177.011.438.033.78.023.342.067.743.134 1.203L8.47 23.636c.031.271.15.481.357.631.207.15.43.224.668.224a.766.766 0 0 0 .488-.167 2.19 2.19 0 0 0 .389-.402l3.572-5.036c.244-.343.547-.614.908-.813a2.34 2.34 0 0 1 2.287 0c.358.199.66.47.904.813l3.625 5.136c.098.15.215.27.351.363a.79.79 0 0 0 .453.14c.244 0 .47-.077.677-.231a.896.896 0 0 0 .367-.611l1.847-13.533c.067-.46.111-.86.134-1.203.022-.342.033-.603.033-.78 0-.833-.29-1.54-.871-2.12a2.887 2.887 0 0 0-2.12-.872Z"/>
    </symbol>
    <symbol id="health_home" fill="none" viewBox="0 0 32 32">
      <path fill="currentColor" d="M16 22.807c.125 0 .246-.022.363-.064a.977.977 0 0 0 .322-.195c.47-.426.968-.896 1.497-1.408a17.997 17.997 0 0 0 1.457-1.589 10.57 10.57 0 0 0 1.11-1.645c.297-.55.446-1.068.446-1.557 0-.805-.268-1.47-.804-1.999-.536-.528-1.199-.793-1.988-.793-.476 0-.92.11-1.334.33-.414.22-.77.485-1.069.797a3.716 3.716 0 0 0-1.058-.797c-.424-.22-.86-.33-1.312-.33-.795 0-1.46.265-1.995.793-.536.528-.804 1.194-.804 1.999 0 .489.147 1.008.443 1.557.295.55.663 1.098 1.104 1.645.44.547.923 1.077 1.449 1.589.525.512 1.022.982 1.488 1.408a.977.977 0 0 0 .322.195c.117.042.238.064.363.064Zm-7.914 4.526a2.007 2.007 0 0 1-1.472-.614c-.41-.41-.614-.9-.614-1.471V14.563l-2.017 1.563a.773.773 0 0 1-.617.167.848.848 0 0 1-.55-.342.77.77 0 0 1-.17-.612.84.84 0 0 1 .333-.554l11.753-8.982c.192-.137.395-.244.61-.32a1.964 1.964 0 0 1 1.31 0c.21.076.411.183.603.32l11.787 9.004a.783.783 0 0 1 .321.545.85.85 0 0 1-.722.941.767.767 0 0 1-.603-.173L26 14.563v10.685a2.01 2.01 0 0 1-.614 1.471c-.41.41-.9.614-1.472.614H8.086Zm0-1.675h15.828a.4.4 0 0 0 .295-.115.4.4 0 0 0 .116-.295V13.29l-8.081-6.156a.358.358 0 0 0-.244-.09.358.358 0 0 0-.244.09l-8.08 6.156v11.957a.4.4 0 0 0 .115.295.4.4 0 0 0 .295.115Zm0 0h-.41 16.649-16.24Z"/>
    </symbol>
    <symbol id="diagnosis" fill="none" viewBox="0 0 32 32">
      <path fill="currentColor" d="M11.838 24.325h8.324c.238 0 .437-.08.597-.242a.816.816 0 0 0 .241-.6.816.816 0 0 0-.838-.833h-8.324a.808.808 0 0 0-.597.241.816.816 0 0 0-.241.6.815.815 0 0 0 .838.833Zm0-3.744h8.324c.238 0 .437-.08.597-.241a.816.816 0 0 0 .241-.6.815.815 0 0 0-.838-.834h-8.324a.808.808 0 0 0-.597.242.817.817 0 0 0-.241.6.816.816 0 0 0 .838.833ZM16 9.046c-.342-.427-.684-.762-1.024-1.005-.34-.244-.799-.366-1.376-.366-.67 0-1.244.239-1.721.716a2.347 2.347 0 0 0-.717 1.722c0 1.126.502 2.14 1.506 3.042a876.06 876.06 0 0 0 2.635 2.36.958.958 0 0 0 .7.278.943.943 0 0 0 .694-.278 336.5 336.5 0 0 0 2.635-2.369c1.004-.91 1.506-1.922 1.506-3.033 0-.67-.24-1.244-.717-1.722a2.347 2.347 0 0 0-1.721-.716c-.577 0-1.036.122-1.376.366-.34.243-.682.578-1.024 1.005Zm7.914 19.62H8.086a2.008 2.008 0 0 1-1.473-.612A2.008 2.008 0 0 1 6 26.58V5.419c0-.573.204-1.064.613-1.473.409-.408.9-.613 1.473-.613h15.828c.573 0 1.064.205 1.473.613.409.409.613.9.613 1.473v21.162c0 .573-.204 1.064-.613 1.473-.409.408-.9.613-1.473.613ZM8.086 26.992h15.828a.4.4 0 0 0 .295-.115.4.4 0 0 0 .116-.295V5.419a.4.4 0 0 0-.116-.295.4.4 0 0 0-.295-.115H8.086a.4.4 0 0 0-.295.115.4.4 0 0 0-.116.295v21.162a.4.4 0 0 0 .116.295.4.4 0 0 0 .295.115Z"/>
    </symbol>
    <symbol id="conditions" fill="none" viewBox="0 0 32 32">
      <path fill="currentColor" d="M13.335 7.646c-.65 0-1.205-.23-1.663-.69a2.264 2.264 0 0 1-.687-1.657c0-.65.228-1.205.685-1.663a2.26 2.26 0 0 1 1.662-.687c.65 0 1.205.228 1.663.685.458.457.687 1.01.687 1.657 0 .648-.228 1.203-.685 1.664a2.257 2.257 0 0 1-1.662.691Zm8.662 16.722c1.034 0 1.91-.358 2.628-1.073.717-.716 1.076-1.59 1.076-2.625s-.358-1.91-1.073-2.628c-.715-.718-1.59-1.076-2.625-1.076-1.034 0-1.91.357-2.628 1.073-.717.715-1.076 1.59-1.076 2.625 0 1.034.358 1.91 1.073 2.627.715.718 1.59 1.077 2.625 1.077Zm3.165.628a5.614 5.614 0 0 1-1.498.776c-.532.18-1.087.27-1.664.27-1.493 0-2.763-.522-3.808-1.568s-1.568-2.316-1.568-3.81c0-1.495.523-2.764 1.569-3.808 1.046-1.043 2.316-1.565 3.81-1.565 1.494 0 2.763.522 3.807 1.568 1.044 1.045 1.566 2.314 1.566 3.808 0 .577-.09 1.131-.27 1.664a5.618 5.618 0 0 1-.777 1.498l3.06 3.048c.161.16.242.356.242.589 0 .233-.08.43-.24.59a.8.8 0 0 1-.59.241.803.803 0 0 1-.59-.24l-3.049-3.061Zm-10.254-.736a6.794 6.794 0 0 0 1.675 2.226v1.676c0 .238-.08.437-.242.597a.817.817 0 0 1-.6.241.817.817 0 0 1-.833-.838V24.26Zm-3.149-3.739v7.641c0 .238-.08.437-.242.597a.817.817 0 0 1-.6.241.817.817 0 0 1-.833-.838V11.405a78.11 78.11 0 0 1-3.589-.382 44.202 44.202 0 0 1-3.558-.613.998.998 0 0 1-.598-.385.75.75 0 0 1-.131-.663.78.78 0 0 1 .435-.531c.228-.112.472-.14.731-.082 1.639.36 3.29.613 4.953.76a57.045 57.045 0 0 0 10.012 0c1.664-.147 3.315-.4 4.953-.76.262-.057.51-.03.741.08.232.11.379.285.44.526a.74.74 0 0 1-.157.678 1.098 1.098 0 0 1-.636.391 44.876 44.876 0 0 1-3.531.601 76.61 76.61 0 0 1-3.566.378v3.444a8.03 8.03 0 0 0-1.822 2.49 7.56 7.56 0 0 0-.723 3.099v.043c0 .014.003.028.007.042H11.76Z"/>
    </symbol>
    <symbol id="doctor" fill="none" viewBox="0 0 32 32">
      <path fill="currentColor" d="M17.976 28.653c-2.262 0-4.163-.793-5.703-2.377-1.541-1.585-2.311-3.492-2.311-5.722v-.927c-1.791-.2-3.295-.978-4.51-2.33-1.216-1.354-1.824-2.951-1.824-4.793V6.043c0-.296.1-.543.3-.743.2-.2.448-.3.743-.3h2.957v-.496c0-.237.081-.436.242-.596a.817.817 0 0 1 .6-.241.816.816 0 0 1 .833.838V7.17a.81.81 0 0 1-.242.593.81.81 0 0 1-.6.245.816.816 0 0 1-.833-.838v-.496H5.303v5.829c0 1.524.535 2.82 1.605 3.891C7.978 17.465 9.274 18 10.798 18s2.822-.535 3.892-1.605c1.07-1.07 1.605-2.367 1.605-3.89v-5.83H13.97v.496a.81.81 0 0 1-.242.593.81.81 0 0 1-.6.245.816.816 0 0 1-.833-.838V4.504c0-.237.08-.436.242-.596a.816.816 0 0 1 .6-.241.815.815 0 0 1 .833.838V5h2.957c.296 0 .543.1.743.3.2.2.3.447.3.743v6.461c0 1.842-.608 3.44-1.823 4.792-1.216 1.353-2.72 2.13-4.51 2.331v.927c0 1.772.605 3.286 1.817 4.541 1.211 1.255 2.718 1.883 4.52 1.883 1.733 0 3.22-.625 4.462-1.875 1.242-1.25 1.863-2.769 1.863-4.554v-2.314a3.217 3.217 0 0 1-1.726-1.147 3.129 3.129 0 0 1-.684-1.994c0-.902.316-1.669.949-2.3.632-.632 1.4-.948 2.303-.948.904 0 1.67.316 2.3.948.629.631.944 1.398.944 2.3 0 .752-.228 1.416-.684 1.994a3.217 3.217 0 0 1-1.727 1.147v2.319c0 2.255-.78 4.169-2.341 5.741-1.561 1.572-3.447 2.358-5.657 2.358Zm7.157-11.986c.44 0 .812-.152 1.118-.455a1.51 1.51 0 0 0 .458-1.114c0-.44-.151-.812-.454-1.118a1.509 1.509 0 0 0-1.114-.459c-.44 0-.813.152-1.118.455a1.507 1.507 0 0 0-.459 1.114c0 .44.152.812.455 1.118.303.306.674.459 1.114.459Z"/>
    </symbol>
    <symbol id="patient" fill="none" viewBox="0 0 32 32">
      <path fill="currentColor" d="M16 12.778c-1.283 0-2.355-.43-3.215-1.29-.86-.86-1.29-1.931-1.29-3.214 0-1.284.43-2.355 1.29-3.215.86-.86 1.932-1.29 3.215-1.29s2.355.43 3.215 1.29c.86.86 1.29 1.931 1.29 3.215 0 1.283-.43 2.354-1.29 3.214-.86.86-1.932 1.29-3.215 1.29Zm0-1.675c.8 0 1.47-.272 2.014-.815.543-.544.815-1.215.815-2.014 0-.8-.272-1.471-.815-2.015-.543-.543-1.215-.815-2.014-.815-.8 0-1.47.272-2.014.815-.543.544-.815 1.215-.815 2.015 0 .799.272 1.47.815 2.014.543.543 1.215.815 2.014.815Zm.002 4.06c1.479 0 2.895.185 4.249.555 1.354.37 2.593.82 3.718 1.347a3.63 3.63 0 0 1 1.48 1.251c.367.54.551 1.158.551 1.854v5.719c0 .573-.204 1.064-.613 1.472-.409.409-.9.613-1.473.613h-10.58c-.853 0-1.573-.294-2.161-.883-.588-.589-.882-1.31-.882-2.162 0-.853.294-1.573.882-2.16.588-.587 1.308-.88 2.16-.88h4.02l2.19-4.633a13.28 13.28 0 0 0-1.822-.32 16.58 16.58 0 0 0-1.723-.098c-1.443 0-2.77.167-3.98.501a18.52 18.52 0 0 0-3.274 1.222c-.319.16-.577.386-.773.678a1.634 1.634 0 0 0-.296.93v6.968c0 .237-.08.436-.242.596a.816.816 0 0 1-.6.241.815.815 0 0 1-.833-.838V20.17c0-.695.184-1.313.55-1.853a3.64 3.64 0 0 1 1.467-1.249 22.893 22.893 0 0 1 3.727-1.349 16.13 16.13 0 0 1 4.258-.556Zm-2.669 11.136h1.93l1.313-2.735h-3.243c-.37 0-.69.135-.96.406-.272.27-.407.59-.407.96s.135.69.406.962c.271.271.592.407.961.407Zm3.772 0h6.81a.4.4 0 0 0 .294-.115.4.4 0 0 0 .116-.295v-5.72a1.59 1.59 0 0 0-.311-.939 2.09 2.09 0 0 0-.773-.67 11.935 11.935 0 0 0-.935-.427 26.34 26.34 0 0 0-1.121-.43l-4.08 8.596Z"/>
    </symbol>
    <symbol id="biology" fill="none" viewBox="0 0 32 32">
      <path fill="currentColor" d="M20 28.581a.807.807 0 0 1-.593-.244.807.807 0 0 1-.245-.593v-1.77a6.449 6.449 0 0 1-1.682-.404 5.438 5.438 0 0 1-1.468-.862l-1.5 1.512a.939.939 0 0 1-.6.247.775.775 0 0 1-.599-.248.812.812 0 0 1-.248-.593c0-.23.083-.427.248-.593l1.532-1.523c-.102-.15-.203-.303-.302-.459a6.145 6.145 0 0 1-.274-.48l-1.053-2.094a1.307 1.307 0 0 0-.087-.156 3.78 3.78 0 0 0-.105-.152l-1.951 1.951a.96.96 0 0 1-.602.254.761.761 0 0 1-.604-.24.806.806 0 0 1-.248-.59c0-.228.083-.425.248-.59l1.964-1.985a1.42 1.42 0 0 0-.15-.1l-.158-.092-2.095-1.046c-.146-.08-.287-.157-.421-.232a2.903 2.903 0 0 1-.395-.265L7.246 18.6a.938.938 0 0 1-.6.247.775.775 0 0 1-.6-.247.805.805 0 0 1-.248-.59c0-.228.083-.424.248-.59l1.333-1.332a6.13 6.13 0 0 1-.911-1.51 6.017 6.017 0 0 1-.442-1.74h-1.77a.807.807 0 0 1-.593-.245.82.82 0 0 1-.244-.604.79.79 0 0 1 .244-.589.82.82 0 0 1 .593-.238h1.828a6.135 6.135 0 0 1 1.195-2.704L5.933 7.113a.805.805 0 0 1-.247-.59c0-.228.082-.424.247-.59a.806.806 0 0 1 .59-.247c.228 0 .425.082.59.247L8.445 7.28a6.06 6.06 0 0 1 1.272-.757 6.353 6.353 0 0 1 1.445-.438V4.256a.828.828 0 0 1 .849-.837.816.816 0 0 1 .827.837v1.77c.616.062 1.2.211 1.753.446a6.025 6.025 0 0 1 1.53.94l1.346-1.345a.814.814 0 0 1 .594-.248.81.81 0 0 1 .593.248.806.806 0 0 1 .248.59.805.805 0 0 1-.248.589l-1.4 1.4c.089.124.174.247.257.37.082.124.155.261.22.412l1.034 2.034c.026.052.053.103.083.154.03.052.062.099.096.141L20.8 9.88a.813.813 0 0 1 .594-.248c.23 0 .428.083.593.249a.812.812 0 0 1 .248.593c0 .23-.083.427-.248.593l-1.905 1.889a.89.89 0 0 0 .165.124c.058.034.118.065.181.094l2.144 1.095c.174.102.346.205.516.308.17.102.332.214.487.335l1.512-1.499a.805.805 0 0 1 .59-.248c.228 0 .424.083.59.249a.813.813 0 0 1 .247.594c0 .23-.082.427-.247.592l-1.512 1.491c.343.436.616.916.82 1.439.204.522.337 1.067.4 1.632h1.769a.81.81 0 0 1 .597.24c.16.161.24.36.24.598 0 .232-.08.43-.24.593a.803.803 0 0 1-.597.245h-1.828a6.609 6.609 0 0 1-.425 1.435c-.192.45-.437.874-.735 1.27l1.277 1.29a.814.814 0 0 1 .248.595c0 .23-.083.427-.249.592a.937.937 0 0 1-.6.247.776.776 0 0 1-.599-.247l-1.278-1.299a6.06 6.06 0 0 1-1.272.757 6.353 6.353 0 0 1-1.445.438v1.828c0 .232-.08.43-.24.593a.805.805 0 0 1-.598.244Zm-.2-4.256c1.406 0 2.557-.53 3.452-1.587s1.23-2.275 1.006-3.654a4.567 4.567 0 0 0-.816-1.949 4.392 4.392 0 0 0-1.627-1.357l-2.2-1.134a5.174 5.174 0 0 1-1.298-.955 5.532 5.532 0 0 1-.961-1.304l-1.134-2.2a4.418 4.418 0 0 0-1.653-1.838 4.395 4.395 0 0 0-2.369-.672c-1.406 0-2.557.53-3.452 1.587s-1.23 2.275-1.006 3.654c.124.724.396 1.373.816 1.949.42.576.962 1.028 1.627 1.357l2.2 1.12a5.25 5.25 0 0 1 1.31.964c.384.39.705.826.963 1.31l1.12 2.2c.383.777.934 1.39 1.653 1.837a4.393 4.393 0 0 0 2.369.672Zm-7.133-10.53c.495 0 .916-.173 1.262-.52.347-.346.524-.767.533-1.262a1.73 1.73 0 0 0-.526-1.27c-.35-.35-.774-.53-1.27-.538-.495 0-.916.175-1.262.526-.346.35-.524.773-.532 1.269.008.496.186.917.532 1.263.346.346.767.523 1.263.532Zm6.666 8.23c.381 0 .703-.13.966-.393.262-.262.393-.584.393-.965s-.13-.703-.393-.966a1.313 1.313 0 0 0-.966-.393c-.38 0-.703.13-.965.393a1.313 1.313 0 0 0-.394.966c0 .38.132.703.394.965s.584.394.965.394Z"/>
    </symbol>
    <symbol id="health_heart" fill="none" viewBox="0 0 32 32">
      <path fill="currentColor" d="M16 27.346c-.306 0-.604-.057-.894-.172a2.146 2.146 0 0 1-.765-.515l-8.677-8.71A7.698 7.698 0 0 1 3.915 15.3a8.303 8.303 0 0 1-.582-3.063c0-2.1.672-3.896 2.016-5.387 1.343-1.49 3.006-2.236 4.99-2.236.99 0 1.93.2 2.824.602.893.4 1.69.962 2.388 1.683l.449.474.423-.448a7.386 7.386 0 0 1 2.387-1.71 6.834 6.834 0 0 1 2.818-.6c1.983 0 3.652.745 5.007 2.235 1.354 1.491 2.032 3.276 2.032 5.354a8.207 8.207 0 0 1-.593 3.076 7.972 7.972 0 0 1-1.738 2.647l-8.71 8.731a2.236 2.236 0 0 1-1.626.687Zm1.34-16.184c.143 0 .273.035.392.104.118.07.22.162.306.28l2.406 3.616h5.837c.24-.476.42-.962.541-1.458.12-.496.18-.995.176-1.499-.017-1.623-.538-3.014-1.561-4.172s-2.291-1.737-3.805-1.737a5.35 5.35 0 0 0-2.182.462 5.353 5.353 0 0 0-1.823 1.316l-1.054 1.134a1.027 1.027 0 0 1-.264.2.673.673 0 0 1-.309.07.799.799 0 0 1-.333-.07.748.748 0 0 1-.265-.2l-1.054-1.134a5.595 5.595 0 0 0-1.835-1.317 5.28 5.28 0 0 0-2.175-.466c-1.508 0-2.773.58-3.796 1.742C5.52 9.195 5.01 10.586 5.01 12.205c0 .514.059 1.018.177 1.512.119.494.295.975.528 1.445H12c.14 0 .273.034.396.1a.812.812 0 0 1 .295.261l1.728 2.608 2.117-6.379a.865.865 0 0 1 .305-.425.804.804 0 0 1 .499-.165Zm.241 2.707-2.13 6.379a.826.826 0 0 1-.315.425.843.843 0 0 1-.503.165.718.718 0 0 1-.387-.104.906.906 0 0 1-.282-.28l-2.419-3.616H6.932l8.609 8.621c.072.078.143.13.214.158.07.027.153.041.245.041a.674.674 0 0 0 .245-.041.596.596 0 0 0 .214-.158l8.588-8.621H20a.718.718 0 0 1-.394-.11 1.205 1.205 0 0 1-.309-.286l-1.716-2.573Z"/>
    </symbol>
    <symbol id="ambulance" fill="none" viewBox="0 0 32 32">
      <path fill="currentColor" d="M15.162 4.898v-2.83c0-.237.081-.436.243-.596a.817.817 0 0 1 .6-.241.816.816 0 0 1 .833.837v2.83a.805.805 0 0 1-.243.596.817.817 0 0 1-.6.241.816.816 0 0 1-.833-.837ZM9.087 6.82l-2.212-2.2a.815.815 0 0 1-.248-.594c0-.23.083-.425.248-.588a.808.808 0 0 1 .587-.243.82.82 0 0 1 .593.248l2.22 2.197c.165.166.25.363.254.59a.771.771 0 0 1-.25.59.836.836 0 0 1-.6.247.807.807 0 0 1-.592-.247Zm-4.42 12.4c0-.116.006-.231.02-.346.013-.116.042-.228.086-.337l2.617-7.524c.099-.307.283-.553.55-.737.268-.185.567-.277.896-.277h4.027V8.697a.99.99 0 0 1 .267-.69.862.862 0 0 1 .66-.289h1.895c.204 0 .35.082.438.247a.47.47 0 0 1-.022.499 7.86 7.86 0 0 0-.512 1.252 7.08 7.08 0 0 0-.275 1.337.668.668 0 0 1-.209.434.625.625 0 0 1-.448.175h-5.76l-2.07 5.865h10.71c.237 0 .436.08.597.242.16.161.24.361.24.6a.817.817 0 0 1-.838.833H6.343v6.393h19.316v-4.157c0-.237.08-.436.242-.596a.817.817 0 0 1 .6-.241.816.816 0 0 1 .833.838v7.476c0 .301-.106.557-.319.768-.212.211-.47.317-.774.317a1.05 1.05 0 0 1-.773-.32 1.064 1.064 0 0 1-.318-.779V27.27H6.838v1.645c0 .301-.107.557-.32.768-.212.211-.47.317-.774.317-.303 0-.559-.106-.766-.317a1.056 1.056 0 0 1-.311-.768V19.22Zm7.675 4.169c.275 0 .51-.097.702-.29a.966.966 0 0 0 .29-.71.94.94 0 0 0-.29-.7.967.967 0 0 0-.702-.283H9.538a.96.96 0 0 0-.702.286.957.957 0 0 0-.289.709c0 .276.096.51.29.701a.96.96 0 0 0 .701.287h2.804Zm7.316 0h2.804a.956.956 0 0 0 .702-.29.967.967 0 0 0 .289-.71.94.94 0 0 0-.29-.7.967.967 0 0 0-.701-.283h-2.804a.96.96 0 0 0-.702.286.957.957 0 0 0-.29.709c0 .276.097.51.29.701a.96.96 0 0 0 .702.287Zm3.04-10.34-1.269-1.268a.626.626 0 0 0-.892-.002.634.634 0 0 0-.191.447.63.63 0 0 0 .19.446l1.43 1.43c.21.208.453.312.732.312a.999.999 0 0 0 .73-.312l3.275-3.282a.608.608 0 0 0 .188-.44.624.624 0 0 0-.193-.452.592.592 0 0 0-.442-.196.64.64 0 0 0-.446.196l-3.113 3.121Zm.926-6.887c1.634 0 3.026.575 4.176 1.725 1.15 1.15 1.725 2.544 1.725 4.18 0 1.637-.575 3.03-1.725 4.18-1.15 1.15-2.544 1.725-4.18 1.725-1.637 0-3.03-.575-4.18-1.724-1.15-1.15-1.725-2.545-1.725-4.185 0-1.634.575-3.026 1.724-4.176 1.15-1.15 2.545-1.725 4.185-1.725Z"/>
    </symbol>
    <symbol id="hospital" fill="none" viewBox="0 0 32 32">
      <path fill="currentColor" d="M14.345 18.73v1.996c0 .456.161.843.483 1.163.323.319.714.478 1.174.478.46 0 .85-.16 1.171-.478a1.58 1.58 0 0 0 .482-1.163V18.73h2.012c.46 0 .85-.16 1.172-.48a1.58 1.58 0 0 0 .482-1.163c0-.456-.16-.844-.482-1.162a1.605 1.605 0 0 0-1.172-.478h-2.012v-1.995c0-.456-.161-.844-.483-1.163a1.605 1.605 0 0 0-1.174-.479c-.46 0-.85.16-1.171.479a1.58 1.58 0 0 0-.482 1.163v1.995h-2.012c-.46 0-.85.16-1.172.48a1.58 1.58 0 0 0-.482 1.164c0 .456.16.843.482 1.162.322.318.713.477 1.172.477h2.012ZM7.295 28a2.216 2.216 0 0 1-1.617-.672A2.18 2.18 0 0 1 5 25.724V12.771c0-.365.08-.707.24-1.026.159-.32.386-.584.681-.793l8.706-6.495A2.178 2.178 0 0 1 15.994 4c.515 0 .975.152 1.379.457l8.706 6.495c.295.21.522.474.682.793.16.32.239.661.239 1.026v12.953a2.18 2.18 0 0 1-.678 1.604c-.451.448-.99.672-1.616.672H7.294Zm0-1.828h17.41a.44.44 0 0 0 .325-.126.434.434 0 0 0 .127-.322V12.702a.447.447 0 0 0-.183-.364l-8.706-6.373A.396.396 0 0 0 16 5.867a.396.396 0 0 0-.268.098l-8.706 6.373a.435.435 0 0 0-.183.364v13.022c0 .131.042.238.127.322a.441.441 0 0 0 .324.126Z"/>
    </symbol>
    <symbol id="health_services" fill="none" viewBox="0 0 32 32">
      <path fill="currentColor" d="M5.976 28a1.878 1.878 0 0 1-1.395-.596A1.98 1.98 0 0 1 4 25.97v-15.4c0-.558.194-1.035.58-1.433a1.878 1.878 0 0 1 1.396-.596h5.603V6.029c0-.557.194-1.035.58-1.433A1.878 1.878 0 0 1 13.556 4h4.89c.543 0 1.008.199 1.395.596.387.398.581.876.581 1.433v2.512h5.603c.543 0 1.008.198 1.395.596.387.398.581.875.581 1.433v15.4c0 .558-.194 1.036-.58 1.434a1.878 1.878 0 0 1-1.396.596H5.976Zm0-1.63h20.048a.368.368 0 0 0 .268-.125.387.387 0 0 0 .12-.274V10.57c0-.1-.04-.192-.12-.275a.368.368 0 0 0-.268-.124H5.976a.368.368 0 0 0-.268.124.387.387 0 0 0-.12.275v15.4c0 .1.04.192.12.275.081.083.17.125.268.125Zm7.19-17.83h5.668V6.03c0-.1-.04-.192-.121-.275a.368.368 0 0 0-.268-.125h-4.89a.368.368 0 0 0-.268.125.387.387 0 0 0-.12.274v2.512Z"/>
      <path fill="currentColor" d="M14.961 22.961V19.04H11.04A1.011 1.011 0 0 1 10 18.005c0-.296.1-.544.299-.744a1 1 0 0 1 .74-.3h3.922V13.04A1.011 1.011 0 0 1 15.995 12c.296 0 .544.1.744.299a1 1 0 0 1 .3.74v3.922h3.922A1.011 1.011 0 0 1 22 17.995c0 .296-.1.544-.299.744a1 1 0 0 1-.74.3H17.04v3.922A1.011 1.011 0 0 1 16.005 24c-.296 0-.544-.1-.744-.299a1 1 0 0 1-.3-.74Z"/>
    </symbol>
    <symbol id="bone" fill="none" viewBox="0 0 32 32">
      <path fill="currentColor" d="M7.024 28c-.556 0-1.032-.2-1.429-.601A1.98 1.98 0 0 1 5 25.954V7.494c0-.563.198-1.044.595-1.445.397-.4.873-.601 1.43-.601h2.19V3.882a.87.87 0 0 1 .246-.628.825.825 0 0 1 .617-.254c.252 0 .463.085.633.254.169.17.254.38.254.628v1.566h10.12v-1.59c0-.246.081-.451.243-.614A.815.815 0 0 1 21.93 3a.84.84 0 0 1 .864.857v1.591h2.182c.556 0 1.032.2 1.429.601.397.4.595.882.595 1.444v18.461a1.98 1.98 0 0 1-.595 1.445c-.397.4-.873.601-1.43.601H7.026Zm-.398-2.046c0 .1.041.193.124.277a.38.38 0 0 0 .274.126h17.952a.38.38 0 0 0 .274-.126.387.387 0 0 0 .124-.277V7.494a.386.386 0 0 0-.124-.277.38.38 0 0 0-.274-.126H7.024a.38.38 0 0 0-.274.126.387.387 0 0 0-.124.276v18.461Zm5.89.403V23.42l-2.43-2.885a3.1 3.1 0 0 1-.561-.88c-.163-.364-.244-.785-.244-1.263 0-.266.027-.526.08-.777.054-.251.142-.495.263-.732a3.393 3.393 0 0 1-.343-1.509c0-.478.08-.899.244-1.262.162-.364.35-.658.562-.88l2.429-2.885V7.09h1.543v3.477c0 .109-.076.316-.227.621l-2.588 3.074a1.669 1.669 0 0 0-.323.54 1.724 1.724 0 0 0-.098.571c0 .436.14.812.421 1.128.28.316.636.474 1.068.474.194 0 .375-.032.544-.098.168-.065.321-.174.459-.327.366-.37.782-.654 1.245-.85a3.661 3.661 0 0 1 2.88 0c.463.196.879.48 1.245.85a1.367 1.367 0 0 0 1.003.425c.432 0 .788-.158 1.068-.474a1.601 1.601 0 0 0 .307-1.667 2.469 2.469 0 0 0-.307-.54l-2.588-3.106a.697.697 0 0 1-.178-.294 1.146 1.146 0 0 1-.049-.327V7.09h1.543v3.268l2.449 2.925c.269.307.467.641.595 1.002.128.362.191.735.191 1.121a3 3 0 0 1-.1.777 3.668 3.668 0 0 1-.263.7 3.28 3.28 0 0 1 .363 1.508c0 .478-.08.9-.244 1.263-.162.364-.35.657-.562.88l-2.429 2.885v2.937h-1.543v-3.159c0-.13.076-.337.227-.62l2.588-3.074c.168-.2.284-.416.348-.65.065-.234.077-.466.035-.696-.22.126-.447.22-.68.283-.234.063-.48.095-.738.095a3 3 0 0 1-1.139-.23 2.839 2.839 0 0 1-1.002-.691 1.812 1.812 0 0 0-.703-.487 2.387 2.387 0 0 0-1.728 0c-.28.109-.524.27-.73.487-.281.307-.61.537-.985.69a2.972 2.972 0 0 1-1.882.136 2.844 2.844 0 0 1-.691-.283c-.042.23-.03.462.035.696.064.234.18.45.348.65l2.588 3.073c.065.11.119.213.162.31a.762.762 0 0 1 .065.311v3.159h-1.543Zm-5.89-.403v.403V7.09v18.863Z"/>
    </symbol>
    <symbol id="coronavirus" fill="none" viewBox="0 0 32 32">
      <path fill="currentColor" d="M15 28.513a.608.608 0 0 1-.446-.187.609.609 0 0 1-.186-.446c0-.173.062-.322.186-.446a.609.609 0 0 1 .446-.186h.368v-2.771c-1.001-.106-1.913-.333-2.735-.683a8.303 8.303 0 0 1-2.218-1.381l-1.96 1.958.289.28c.118.118.183.26.195.428.012.167-.053.322-.195.465a.602.602 0 0 1-.453.192.647.647 0 0 1-.452-.205l-1.395-1.375a.62.62 0 0 1-.2-.45c0-.166.067-.32.2-.462a.578.578 0 0 1 .439-.179c.16.008.316.076.467.205l.227.227 1.958-1.958a9.386 9.386 0 0 1-1.376-2.263c-.327-.779-.54-1.66-.636-2.644h-2.77V17a.609.609 0 0 1-.187.446.609.609 0 0 1-.446.186.609.609 0 0 1-.446-.186.609.609 0 0 1-.187-.446v-2c0-.173.062-.322.187-.446a.609.609 0 0 1 .446-.186c.173 0 .322.062.446.186a.609.609 0 0 1 .186.446v.368h2.771c.097-.984.313-1.869.648-2.655a9.409 9.409 0 0 1 1.377-2.252L7.59 8.503l-.254.253a.625.625 0 0 1-.446.192.633.633 0 0 1-.446-.192.627.627 0 0 1-.2-.456c0-.172.067-.324.2-.456l1.4-1.4a.634.634 0 0 1 .925 0 .535.535 0 0 1 .178.438.618.618 0 0 1-.203.439l-.276.276 1.96 1.951a9.753 9.753 0 0 1 2.258-1.372c.765-.324 1.648-.542 2.648-.653v-2.77h-.341a.598.598 0 0 1-.443-.187.615.615 0 0 1-.182-.446c0-.173.062-.322.186-.446A.609.609 0 0 1 15 3.487h2c.173 0 .322.062.446.187a.609.609 0 0 1 .186.446.609.609 0 0 1-.186.446.609.609 0 0 1-.446.186h-.368v2.771c1.001.111 1.884.329 2.648.653a9.75 9.75 0 0 1 2.26 1.372l1.957-1.958-.244-.253a.594.594 0 0 1-.215-.44.6.6 0 0 1 .193-.453.62.62 0 0 1 .45-.2c.166 0 .316.067.449.2l1.44 1.447a.58.58 0 0 1 .192.439.637.637 0 0 1-.206.44.554.554 0 0 1-.443.17.755.755 0 0 1-.457-.22l-.253-.252-1.951 1.96a9.38 9.38 0 0 1 1.383 2.286c.331.794.545 1.679.642 2.654h2.77V15a.61.61 0 0 1 .187-.446.609.609 0 0 1 .446-.186c.173 0 .322.062.446.186a.608.608 0 0 1 .187.446v2a.608.608 0 0 1-.187.446.609.609 0 0 1-.446.186.609.609 0 0 1-.446-.186.609.609 0 0 1-.186-.446v-.368h-2.771c-.097.984-.311 1.869-.642 2.654a9.467 9.467 0 0 1-1.383 2.274l1.951 1.96.276-.276a.623.623 0 0 1 .89-.013.6.6 0 0 1 .2.456c0 .18-.067.337-.2.47l-1.4 1.4a.635.635 0 0 1-.925 0 .546.546 0 0 1-.179-.447.755.755 0 0 1 .178-.432l.254-.268-1.958-1.958a9.345 9.345 0 0 1-2.205 1.365c-.792.348-1.693.575-2.702.68v2.75H17a.61.61 0 0 1 .446.187.609.609 0 0 1 .186.446.609.609 0 0 1-.186.446.608.608 0 0 1-.446.187h-2Zm1-5.684c1.896 0 3.508-.667 4.836-2 1.329-1.333 1.993-2.942 1.993-4.829 0-1.896-.664-3.508-1.993-4.836C19.508 9.835 17.896 9.17 16 9.17c-1.887 0-3.496.664-4.83 1.993-1.332 1.328-1.999 2.94-1.999 4.836 0 1.887.667 3.496 2 4.83 1.333 1.332 2.942 1.999 4.829 1.999Zm-2.205-1.94c.275 0 .513-.1.715-.302a.977.977 0 0 0 .302-.715c0-.275-.1-.514-.302-.715a.976.976 0 0 0-.715-.302c-.275 0-.514.1-.715.302a.976.976 0 0 0-.302.715c0 .275.1.513.302.715.201.201.44.302.715.302Zm4.41 0a.97.97 0 0 0 .722-.302.988.988 0 0 0 .295-.715.988.988 0 0 0-.295-.715.97.97 0 0 0-.722-.302c-.275 0-.513.1-.715.302a.977.977 0 0 0-.302.715c0 .275.1.513.302.715a.98.98 0 0 0 .715.302Zm-6.743-3.872a.97.97 0 0 0 .721-.302.99.99 0 0 0 .296-.715.99.99 0 0 0-.296-.715.97.97 0 0 0-.721-.302c-.276 0-.514.1-.715.302a.977.977 0 0 0-.303.715c0 .275.101.513.303.715.201.201.44.302.715.302Zm4.538 0c.275 0 .513-.1.715-.302a.978.978 0 0 0 .302-.715c0-.275-.1-.513-.302-.715a.978.978 0 0 0-.715-.302c-.275 0-.513.1-.715.302a.978.978 0 0 0-.302.715c0 .275.1.513.302.715a.98.98 0 0 0 .715.302Zm4.538 0c.285 0 .525-.1.722-.302a.99.99 0 0 0 .296-.715.99.99 0 0 0-.296-.715.971.971 0 0 0-.722-.302c-.275 0-.513.1-.714.302a.977.977 0 0 0-.303.715c0 .275.101.513.303.715.201.201.44.302.714.302Zm-6.743-3.872c.275 0 .513-.1.715-.302a.977.977 0 0 0 .302-.715c0-.275-.1-.513-.302-.715a.977.977 0 0 0-.715-.302c-.275 0-.514.1-.715.302a.977.977 0 0 0-.302.715c0 .275.1.514.302.715.201.202.44.302.715.302Zm4.41 0a.97.97 0 0 0 .722-.302.988.988 0 0 0 .295-.715.988.988 0 0 0-.295-.715.97.97 0 0 0-.722-.302c-.275 0-.513.1-.715.302a.977.977 0 0 0-.302.715c0 .275.1.514.302.715.202.202.44.302.715.302Z"/>
    </symbol>
    <symbol id="patient_file" fill="none" viewBox="0 0 32 32">
      <path fill="currentColor" d="M5.419 26a1.998 1.998 0 0 1-1.473-.619 2.013 2.013 0 0 1-.613-1.467V8.086c0-.566.205-1.055.613-1.467.409-.413.9-.619 1.473-.619h7.121c.286 0 .558.056.815.17.257.112.482.262.675.449l1.714 1.723h10.837c.565 0 1.054.206 1.467.619.412.412.619.901.619 1.466v13.487c0 .566-.207 1.055-.62 1.467a2.004 2.004 0 0 1-1.466.619H5.419Zm0-1.675h21.162a.4.4 0 0 0 .295-.116.4.4 0 0 0 .115-.295V10.427a.4.4 0 0 0-.115-.295.4.4 0 0 0-.295-.115h-11.52l-2.226-2.226a.365.365 0 0 0-.135-.09.426.426 0 0 0-.147-.026H5.419a.4.4 0 0 0-.295.116.4.4 0 0 0-.115.295v15.828a.4.4 0 0 0 .115.295.4.4 0 0 0 .295.116Zm9.696-2.282h9.743v-.428c0-.855-.433-1.537-1.299-2.045-.865-.508-2.058-.761-3.577-.761-1.52 0-2.71.253-3.573.761s-1.294 1.19-1.294 2.045v.428Zm4.87-5.303a2.15 2.15 0 0 0 1.568-.647c.436-.431.654-.955.654-1.571 0-.617-.217-1.141-.652-1.574a2.146 2.146 0 0 0-1.571-.649 2.14 2.14 0 0 0-1.569.647 2.135 2.135 0 0 0-.649 1.572c0 .616.216 1.14.647 1.573.431.433.955.649 1.572.649Z"/>
    </symbol>
    <symbol id="health_alert" fill="none" viewBox="0 0 32 32">
      <path fill="currentColor" d="M3.794 13.897a7.698 7.698 0 0 1-.46-2.648c0-1.859.627-3.42 1.882-4.685 1.255-1.265 2.795-1.897 4.622-1.897a6.87 6.87 0 0 1 3.406.891c1.063.595 1.982 1.46 2.756 2.593.788-1.135 1.708-2 2.76-2.593a6.808 6.808 0 0 1 3.402-.891c1.815 0 3.349.624 4.6 1.873 1.253 1.25 1.888 2.798 1.905 4.645 0 .056-.003.11-.007.159a1.75 1.75 0 0 0-.007.158 7.585 7.585 0 0 0-.824-.602 6.91 6.91 0 0 0-.902-.477c-.185-1.188-.715-2.166-1.59-2.932-.875-.766-1.934-1.149-3.175-1.149-1.09 0-2.101.325-3.03.975-.93.65-1.745 1.6-2.445 2.849h-1.374c-.687-1.225-1.501-2.168-2.444-2.83-.943-.663-1.953-.994-3.031-.994-1.363 0-2.508.47-3.437 1.411-.928.941-1.392 2.107-1.392 3.497 0 .464.05.91.149 1.336.1.426.258.863.475 1.311H3.794Zm9.77 11.151a261.49 261.49 0 0 1-2.537-2.35 116.016 116.016 0 0 1-2.006-1.929h2.39c.615.58 1.3 1.218 2.054 1.914A996.83 996.83 0 0 1 16 25.031c.508-.44.98-.862 1.413-1.268.435-.407.85-.797 1.246-1.17.207.207.417.392.631.553.214.162.44.32.678.476a47.45 47.45 0 0 1-.743.7c-.258.237-.527.483-.808.738l-1.243 1.144c-.16.147-.341.258-.547.334a1.774 1.774 0 0 1-.622.115c-.209 0-.417-.038-.624-.115a1.647 1.647 0 0 1-.554-.338l-1.263-1.152Zm9.598-7.612v-4.103c0-.237.081-.436.243-.596a.816.816 0 0 1 .6-.241.816.816 0 0 1 .833.838v4.102a.808.808 0 0 1-.243.597.817.817 0 0 1-.6.24.816.816 0 0 1-.833-.837Zm-20.239.735a.808.808 0 0 1-.597-.242.817.817 0 0 1-.24-.6.815.815 0 0 1 .837-.833h4.879l2.27-3.381a.91.91 0 0 1 .387-.344 1.14 1.14 0 0 1 .485-.109c.166 0 .327.04.482.118a.99.99 0 0 1 .389.355l2.23 3.36h2.51a40.2 40.2 0 0 1-.039.41c-.014.133-.02.276-.02.43 0 .154.006.297.02.429l.039.407h-2.85a.973.973 0 0 1-.488-.123 1.298 1.298 0 0 1-.383-.336l-1.911-2.87-1.911 2.87a1.296 1.296 0 0 1-.383.336.973.973 0 0 1-.488.123H2.923Zm21.074 4.026a.948.948 0 0 1-.702-.29.966.966 0 0 1-.286-.705c0-.277.096-.51.29-.702a.965.965 0 0 1 .704-.286c.277 0 .51.097.702.29a.965.965 0 0 1 .286.705c0 .276-.096.51-.29.7a.965.965 0 0 1-.704.288Z"/>
    </symbol>
    <symbol id="vaccines" fill="none" viewBox="0 0 32 32">
      <path fill="currentColor" d="M8.496 22.171H6.17c-.47 0-.868-.162-1.19-.485a1.619 1.619 0 0 1-.485-1.19V9.504H4a.807.807 0 0 1-.597-.242.816.816 0 0 1-.24-.6A.816.816 0 0 1 4 7.83h4.495V4.675H7.333a.807.807 0 0 1-.596-.242.817.817 0 0 1-.241-.6A.816.816 0 0 1 7.334 3h4c.237 0 .436.08.596.242.16.162.241.362.241.6a.816.816 0 0 1-.838.833h-1.162V7.83h4.496c.237 0 .436.08.596.242a.817.817 0 0 1 .241.6.815.815 0 0 1-.838.833h-.495v10.992c0 .47-.162.867-.485 1.19-.323.323-.72.485-1.19.485H10.17v6.325c0 .237-.08.436-.242.596a.816.816 0 0 1-.6.241.815.815 0 0 1-.833-.838v-6.324ZM6.17 20.496h6.325v-2.864h-2.83a.606.606 0 0 1-.442-.19.608.608 0 0 1 0-.886.608.608 0 0 1 .443-.188h2.829v-2.736h-2.83a.606.606 0 0 1-.442-.19.608.608 0 0 1 0-.886.608.608 0 0 1 .443-.188h2.829V9.504H6.17v10.992ZM19.667 29c-.47 0-.868-.162-1.19-.485a1.618 1.618 0 0 1-.486-1.19v-9.1c0-.668.114-1.199.34-1.593.227-.394.472-.738.735-1.032.32-.352.554-.638.703-.86.148-.221.222-.468.222-.74v-1.162h-.495a.807.807 0 0 1-.597-.243.816.816 0 0 1-.241-.6c0-.238.082-.437.245-.595a.82.82 0 0 1 .593-.238h6.666c.238 0 .437.081.597.243.16.161.241.36.241.6a.817.817 0 0 1-.838.833h-.495v1.16c0 .264.083.52.25.766.166.247.412.546.737.898a5.1 5.1 0 0 1 .708 1.004c.203.376.305.894.305 1.555v9.104c0 .47-.162.867-.485 1.19-.323.323-.72.485-1.19.485h-6.325Zm0-9.803h6.324v-.976c0-.414-.106-.772-.317-1.076a11.899 11.899 0 0 0-.724-.929 6.058 6.058 0 0 1-.69-1c-.18-.33-.269-.736-.269-1.216v-1.162h-2.324V14c0 .464-.087.861-.26 1.192-.174.331-.4.666-.678 1.004-.272.315-.517.629-.735.94a1.85 1.85 0 0 0-.327 1.09v.97Zm0 4h6.324v-2.735h-6.324v2.735Zm0 4.128h6.324v-2.863h-6.324v2.863Z"/>
    </symbol>
    <symbol id="hospital_location" fill="none" viewBox="0 0 32 32">
      <path fill="currentColor" d="M14.87 29.435C7 20 5 18 5 12.5 5 6.701 9.925 2 16 2s11 4.701 11 10.5c0 5.5-2 7.5-9.87 16.935-.546.753-1.714.753-2.26 0Z"/>
      <path fill="#fff" fill-rule="evenodd" d="m22.326 9.27.002.004c.12.25.172.512.172.766v7.695c0 .4-.13.847-.472 1.213a1.729 1.729 0 0 1-1.274.552h-9.508c-.459 0-.925-.177-1.274-.552a1.767 1.767 0 0 1-.472-1.213V10.04c0-.254.053-.516.172-.766l.002-.004c.11-.23.274-.448.498-.624l4.723-3.743A1.71 1.71 0 0 1 16 4.5c.407 0 .795.142 1.105.403l4.723 3.743c.224.176.388.393.498.624Zm-6.18-3.212L20.9 9.824a.26.26 0 0 1 .073.093.282.282 0 0 1 .027.123v7.695a.262.262 0 0 1-.07.19.231.231 0 0 1-.177.075h-9.507a.231.231 0 0 1-.177-.074.268.268 0 0 1-.069-.19v-7.697c0-.044.009-.085.027-.122a.253.253 0 0 1 .073-.093l4.754-3.766A.207.207 0 0 1 16 6c.056 0 .105.02.146.058Z" clip-rule="evenodd"/>
      <path fill="#fff" d="M15.315 15.315v-1.63h-1.63a.668.668 0 0 1-.685-.681c0-.195.066-.36.197-.491a.661.661 0 0 1 .488-.198h1.63v-1.63a.669.669 0 0 1 .681-.685c.196 0 .36.066.491.197a.662.662 0 0 1 .198.488v1.63h1.63a.668.668 0 0 1 .685.681.668.668 0 0 1-.197.491.66.66 0 0 1-.488.198h-1.63v1.63a.669.669 0 0 1-.681.685.669.669 0 0 1-.491-.197.662.662 0 0 1-.198-.488Z"/>
    </symbol>
    <symbol id="bed" fill="none" viewBox="0 0 32 32">
      <path fill="currentColor" d="M10.41 28a2.39 2.39 0 0 1-1.702-.67C8.236 26.882 8 26.345 8 25.717V6.282c0-.628.236-1.165.708-1.612A2.387 2.387 0 0 1 10.41 4h11.18c.663 0 1.23.224 1.702.67.472.448.708.985.708 1.613v19.433c0 .628-.236 1.166-.708 1.613A2.389 2.389 0 0 1 21.59 28H10.41ZM10 14.939a3.99 3.99 0 0 1 1.235-.627 4.855 4.855 0 0 1 1.432-.207h6.666c.506 0 .984.07 1.432.207.45.138.86.346 1.235.627V6.283a.368.368 0 0 0-.115-.279.412.412 0 0 0-.295-.11H10.41a.412.412 0 0 0-.295.11.368.368 0 0 0-.115.28v8.655Zm6-2.729c-.648 0-1.199-.214-1.652-.644A2.077 2.077 0 0 1 13.667 10c0-.614.227-1.136.68-1.566.454-.43 1.005-.645 1.653-.645.648 0 1.199.215 1.653.645.453.43.68.952.68 1.566a2.08 2.08 0 0 1-.68 1.566c-.454.43-1.005.644-1.653.644Zm-5.59 13.895h11.18a.41.41 0 0 0 .295-.109.368.368 0 0 0 .115-.28v-7.19c0-.694-.261-1.29-.783-1.784A2.641 2.641 0 0 0 19.333 16h-6.666c-.734 0-1.361.247-1.884.742-.522.495-.783 1.09-.783 1.784v7.19c0 .114.038.207.115.28.077.073.176.11.295.11ZM15 24.526h2V22h2.667v-1.895H17V17.58h-2v2.526h-2.667V22H15v2.526Zm-4.59 1.58H10h12-11.59Z"/>
    </symbol>
    <symbol id="current-location" fill="none" viewBox="0 0 32 32">
      <path fill="currentColor" d="M14.95 26.9v-2c-2.083-.233-3.87-1.096-5.362-2.587C8.096 20.82 7.232 19.032 7 16.95H5v-2h2c.233-2.083 1.096-3.87 2.588-5.362C11.079 8.096 12.867 7.232 14.95 7V5h2v2c2.083.233 3.87 1.096 5.363 2.588 1.491 1.491 2.354 3.279 2.587 5.362h2v2h-2c-.233 2.083-1.096 3.87-2.587 5.363-1.492 1.491-3.28 2.354-5.363 2.587v2h-2Zm1-3.95c1.933 0 3.583-.683 4.95-2.05 1.367-1.367 2.05-3.017 2.05-4.95 0-1.933-.683-3.583-2.05-4.95-1.367-1.367-3.017-2.05-4.95-2.05-1.933 0-3.583.683-4.95 2.05-1.367 1.367-2.05 3.017-2.05 4.95 0 1.933.683 3.583 2.05 4.95 1.367 1.367 3.017 2.05 4.95 2.05Zm0-3c-1.1 0-2.042-.392-2.825-1.175-.783-.783-1.175-1.725-1.175-2.825s.392-2.042 1.175-2.825c.783-.783 1.725-1.175 2.825-1.175s2.042.392 2.825 1.175c.783.783 1.175 1.725 1.175 2.825s-.392 2.042-1.175 2.825c-.783.783-1.725 1.175-2.825 1.175Zm0-2c.55 0 1.02-.196 1.413-.587.391-.392.587-.863.587-1.413s-.196-1.02-.587-1.412a1.926 1.926 0 0 0-1.413-.588c-.55 0-1.02.196-1.412.588a1.926 1.926 0 0 0-.588 1.412c0 .55.196 1.02.588 1.413.391.391.862.587 1.412.587Z"/>
    </symbol>
  </defs>

</svg>
