<?xml version="1.0" standalone="no"?>
<!DOCTYPE svg PUBLIC "-//W3C//DTD SVG 20010904//EN"
 "http://www.w3.org/TR/2001/REC-SVG-20010904/DTD/svg10.dtd">
<svg version="1.0" xmlns="http://www.w3.org/2000/svg"
 width="700.000000pt" height="700.000000pt" viewBox="0 0 700.000000 700.000000"
 preserveAspectRatio="xMidYMid meet" class="favicon-svg">
<style>
	.favicon-svg {
		background-color: white;
	}

	path {
		fill: black;
	}

	@media (prefers-color-scheme: dark) {
		.favicon-svg {
			background-color: black;
		}

		path {
			fill: white;
		}
	}
</style>
<metadata>
Created by potrace 1.14, written by Peter Selinger 2001-2017
</metadata>
<g transform="translate(0.000000,700.000000) scale(0.100000,-0.100000)"
fill="#000000" stroke="none">
<path d="M3025 6985 c-215 -19 -392 -41 -555 -71 -1488 -272 -2273 -1167
-2440 -2783 -17 -162 -20 -264 -20 -620 0 -234 5 -478 10 -541 83 -949 361
-1641 854 -2124 458 -448 1085 -710 1941 -812 186 -22 971 -31 1195 -15 653
50 1203 205 1645 466 198 117 330 222 511 407 196 199 310 363 443 629 236
472 364 1047 380 1703 18 730 -23 1168 -155 1657 -109 406 -281 763 -509 1054
-84 107 -351 366 -450 437 -210 148 -410 258 -632 346 -321 126 -727 216
-1158 256 -233 22 -859 28 -1060 11z m-525 -1671 c324 -52 579 -141 836 -290
55 -32 115 -66 134 -77 l35 -19 55 37 c69 47 317 171 436 218 121 49 322 103
469 127 137 23 490 28 650 10 183 -21 506 -111 668 -185 66 -30 64 -22 42
-174 -84 -586 -384 -1118 -838 -1490 -109 -88 -283 -204 -387 -256 l-90 -45 0
-214 c0 -309 -35 -511 -137 -781 -88 -234 -217 -461 -371 -655 -100 -126 -284
-307 -404 -399 l-97 -73 -103 78 c-313 238 -592 597 -731 939 -135 331 -189
601 -186 934 0 90 -3 167 -8 171 -4 5 -44 28 -88 51 -106 56 -268 164 -363
241 -186 151 -391 383 -514 580 -128 207 -259 532 -307 763 -23 113 -46 293
-38 301 14 14 264 109 366 139 246 72 425 95 686 89 105 -3 233 -12 285 -20z"/>
<path d="M1935 4831 c-60 -10 -136 -24 -168 -30 -66 -14 -65 -1 -15 -141 46
-130 128 -293 209 -415 119 -180 362 -413 561 -539 l58 -36 24 47 c39 79 113
169 164 202 70 45 125 61 206 61 83 0 155 -19 241 -62 66 -33 175 -107 175
-118 0 -4 -17 -12 -38 -18 -57 -17 -151 -82 -202 -139 -91 -100 -148 -250
-170 -442 -16 -134 -8 -427 15 -551 39 -217 161 -509 293 -705 68 -100 199
-258 211 -253 4 2 36 35 70 73 199 223 357 540 420 840 21 101 41 272 41 350
l0 43 -112 4 c-141 6 -205 28 -283 99 -62 57 -109 143 -125 228 -12 66 -13
271 -1 290 7 11 17 8 52 -16 123 -85 208 -108 365 -100 129 6 210 30 384 113
353 169 671 477 839 813 53 105 131 305 131 335 0 30 -20 37 -179 62 -150 23
-505 15 -645 -15 -142 -31 -292 -84 -438 -153 l-128 -61 45 -81 c122 -225 90
-408 -100 -565 -35 -29 -219 -131 -236 -131 -2 0 -3 51 -1 112 3 100 1 121
-21 180 -36 101 -84 174 -163 253 -221 221 -620 412 -969 464 -139 20 -390 22
-510 2z"/>
</g>
</svg>
