<?xml version="1.0" encoding="utf-8"?>
<!-- Generator: Adobe Illustrator 24.2.3, SVG Export Plug-In . SVG Version: 6.00 Build 0)  -->
<svg version="1.1" id="Layer_1" xmlns="http://www.w3.org/2000/svg" x="0px" y="0px"
	 viewBox="0 0 180 45.1" style="enable-background:new 0 0 180 45.1;" xml:space="preserve">
<style type="text/css">
	.st0{fill-rule:evenodd;clip-rule:evenodd;fill:#FFFFFF;}
	.st1{fill:#FFFFFF;}
	.st2{fill-rule:evenodd;clip-rule:evenodd;}
</style>
<g>
	<path class="st0" d="M0,25.5C0,18,4.6,13.3,12.5,13.3c7.9,0,12.5,4.7,12.5,12.2c0,7.5-4.6,12.2-12.5,12.2C4.5,37.7,0,32.9,0,25.5z
		 M12.5,33.5c2.3,0,4.3-0.8,5.6-2.2s2.1-3.5,2.1-5.9c0-2.4-0.7-4.5-2.1-5.9c-1.4-1.5-3.3-2.2-5.7-2.2c-2.3,0-4.3,0.8-5.6,2.2
		c-1.3,1.4-2.1,3.5-2.1,5.9c0,2.5,0.7,4.5,2.1,5.9C8.2,32.8,10.1,33.5,12.5,33.5z"/>
	<path class="st1" d="M41.2,37.2V26.8c0-2.7-1.4-4.3-3.8-4.3c-2.4,0-3.8,1.7-3.8,4.3v10.5h-4.5v-18h4.5v2.6c1.3-1.5,3-2.9,5.9-2.9
		c3.8,0,6.1,2.6,6.1,6.7v11.7L41.2,37.2L41.2,37.2z"/>
	<path class="st1" d="M60.1,36.6c-0.8,0.5-2.1,0.9-3.8,0.9c-3.1,0-5.2-1.3-5.2-5.4v-9.4h-2.2v-3.5h2.2v-4.6h4.5v4.6h4.4v3.5h-4.4
		v8.5c0,1.6,0.8,2.4,2.3,2.4c0.8,0,1.8-0.2,2.3-0.5V36.6z"/>
	<path class="st0" d="M64.4,20.3c1.9-0.8,3.8-1.3,6.7-1.3c5.6,0,8,2.9,8,7.8v10.5h-4.2v-1.7c-1.4,1.1-3.3,2-6.1,2
		c-3.3,0-6-1.9-6-5.4v-0.1c0-4.1,3-5.9,7.1-5.9c2,0,3.7,0.3,5.1,0.7v-0.4c0-2.6-1.7-4-4.7-4c-2,0-3.8,0.5-5.1,1L64.4,20.3z
		 M70.4,34.6c2.6,0,4.5-1.5,4.5-3.7l0-1.3l-0.4-0.2c-0.9-0.4-2.2-0.6-3.4-0.6c-2.5,0-4,1.2-4,3V32C67.1,33.6,68.4,34.6,70.4,34.6z"
		/>
	<path class="st1" d="M83.6,37.2v-18H88v3.6c1.2-2.5,2.7-4.1,6-4v3.9h-0.1c-1.6,0-3,0.5-4,1.4c-1.3,1.2-2,3.1-2,5.6v7.5L83.6,37.2
		L83.6,37.2L83.6,37.2z"/>
	<path class="st0" d="M102.4,16.5v-3.9h-4.7v3.9H102.4z M97.8,19.2h4.5v18h-4.5V19.2z"/>
	<path class="st0" d="M106.3,28.3c0-5.8,3.7-9.4,9.8-9.4s9.7,3.6,9.8,9.4c0,5.8-3.7,9.4-9.8,9.4C109.9,37.7,106.3,34,106.3,28.3z
		 M116.1,33.9c1.6,0,3-0.5,3.9-1.5c0.9-1,1.4-2.4,1.4-4.2c0-1.7-0.5-3.2-1.4-4.2c-1-1-2.3-1.6-3.9-1.6s-3,0.5-3.9,1.5
		c-0.9,1-1.4,2.4-1.4,4.2c0,1.7,0.5,3.2,1.4,4.2C113.1,33.4,114.4,33.9,116.1,33.9z"/>
	<path class="st1" d="M157.5,0C142.2,0,135,7.2,135,22.6c0,15.3,7.2,22.6,22.5,22.6S180,37.9,180,22.6C180,7.2,172.8,0,157.5,0z"/>
	<path class="st2" d="M157.5,12.9c4.6-3.1,10.4-3.5,15.4-1.1l0.2,0.1l0,0.2c-0.2,2.3-0.9,4.6-2,6.6c-1.4,2.4-3.3,4.3-5.7,5.7h0
		c-0.1,0.1-0.2,0.1-0.4,0.2c-0.2,0.1-0.4,0.2-0.6,0.3c0.4,5.6-2.1,10.8-6.7,13.9l-0.2,0.1l-0.1-0.1c-1.9-1.3-3.6-3.1-4.7-5.1
		c-1.4-2.4-2.1-5.1-2.1-7.8v0c0-0.3,0-0.7,0.1-1c-5-2.5-8.2-7.2-8.6-12.8l0-0.2l0.2-0.1c2.1-1,4.4-1.6,6.7-1.6
		c2.7,0,5.4,0.7,7.7,2.1h0C156.9,12.6,157.2,12.7,157.5,12.9z M163.3,21.3c1.7-1,3.2-2.4,4.3-4.2c0.5-0.9,0.9-1.8,1.2-2.6
		c-2.8-0.7-5.7-0.2-8.2,1.2c0.2,0.3,0.4,0.6,0.5,1.1c0.2,0.4,0.2,1,0.1,1.5c-0.1,0.2-0.1,0.4-0.2,0.6c-0.5,0.9-1.6,1.5-2.9,1.9
		c0.5-1.6-0.3-2.9-1.3-3.8c-0.5-0.5-1.1-0.8-1.7-1.2c-1.7-1-3.7-1.6-5.8-1.6c-1,0-2,0.1-2.9,0.4c0.9,2.8,2.6,5,5.1,6.6
		c0.2-0.4,0.4-0.6,0.7-1c0.3-0.4,0.8-0.7,1.2-0.8c0.2-0.1,0.4-0.1,0.6-0.1c1,0,2.1,0.6,3.1,1.5c-1.6,0.4-2.4,1.7-2.6,3
		c-0.1,0.7-0.2,1.4-0.2,2c0,2,0.5,4,1.5,5.8c0.5,0.9,1.1,1.7,1.8,2.3c2-2.2,3-4.8,3.1-7.8c-0.4,0.1-0.7,0-1.2-0.1
		c-0.4-0.1-0.9-0.4-1.3-0.7c-0.1-0.2-0.3-0.3-0.4-0.5c-0.5-0.9-0.5-2.1-0.2-3.4c1.1,1.2,2.7,1.2,3.9,0.8
		C162.1,21.9,162.7,21.7,163.3,21.3z"/>
</g>
</svg>