<svg width="46" height="46" xmlns="http://www.w3.org/2000/svg" viewBox="0 0 46 46" fill="none" xmlns:v="https://vecta.io/nano" tabindex="0">
    <path d="M23 0C7.36 0 0 7.36 0 23s7.36 23 23 23 23-7.36 23-23S38.64 0 23 0" fill="#fff" />
    <path fill-rule="evenodd"
        d="M23 13.223c4.728-3.178 10.58-3.613 15.69-1.153l.18.128-.026.18a16.08 16.08 0 0 1-2.07 6.765c-1.405 2.41-3.4 4.408-5.8 5.79h-.025a15.71 15.71 0 0 0-.365.191c-.188.1-.38.203-.58.296.383 5.69-2.172 10.994-6.85 14.197L23 39.72l-.153-.102a15.76 15.76 0 0 1-4.805-5.176 16.12 16.12 0 0 1-2.095-7.944v-.026c0-.333.025-.692.05-1.05-5.086-2.51-8.382-7.38-8.817-13.043l-.026-.18.153-.077c2.147-1.05 4.523-1.59 6.874-1.59 2.786 0 5.494.743 7.897 2.127h.026a17.21 17.21 0 0 1 .895.564zm5.93 8.56c1.763-1.025 3.27-2.46 4.37-4.33.51-.897.894-1.82 1.176-2.69-2.888-.666-5.8-.23-8.433 1.204.23.307.383.64.537 1.076s.18 1.025.05 1.512c-.05.205-.153.4-.256.615h0c-.51.87-1.584 1.512-2.913 1.922.51-1.59-.307-2.998-1.33-3.895-.51-.46-1.1-.846-1.687-1.204a12.29 12.29 0 0 0-5.929-1.614 12.52 12.52 0 0 0-2.964.359c.894 2.844 2.71 5.15 5.265 6.714.153-.36.358-.64.664-1s.792-.666 1.278-.794a2.94 2.94 0 0 1 .664-.077c.997 0 2.096.615 3.118 1.563-1.6.36-2.428 1.768-2.683 3.1-.128.692-.204 1.384-.204 2.076 0 2.024.486 4.075 1.56 5.945.486.87 1.125 1.69 1.79 2.383 2.02-2.204 3.092-4.946 3.17-7.944-.41.05-.74 0-1.2-.077s-.97-.384-1.33-.718c-.153-.154-.307-.333-.41-.538-.51-.897-.51-2.153-.204-3.51 1.124 1.23 2.734 1.256 4.012.794a10.52 10.52 0 0 0 1.891-.871z"
        fill="#000" />
</svg>
