<svg width="253" height="44" viewBox="0 0 253 44" fill="none" xmlns="http://www.w3.org/2000/svg">
<path d="M47.0027 16.6788C46.8395 16.7201 46.4859 16.8301 46.2411 16.8576C46.7035 16.4038 46.9755 15.8538 46.9755 15.4001C46.7579 15.4688 46.3635 15.6201 46.0099 15.7026C46.7171 15.0976 47.1115 14.3826 46.9347 13.4476C46.7171 13.5576 46.4179 13.7363 46.1051 13.8601C46.7307 12.8976 46.7171 12.0451 46.4587 11.5501C46.1867 11.8113 45.8467 12.1138 45.4931 12.3338C45.7243 11.2201 45.7107 10.5051 45.2483 9.99635C44.7723 10.9038 44.3643 11.5776 43.6979 12.3751C43.7523 11.6326 43.6707 10.7113 43.1947 10.2438C43.1947 10.2438 43.0587 11.2751 42.7051 11.6051C42.6235 10.6013 42.3106 10.0513 41.8618 9.5151C41.8618 9.5151 41.8346 10.5601 41.549 11.2063C41.3042 10.3263 40.869 9.6526 40.2978 9.00635C40.3386 10.9451 39.8082 14.5888 38.2714 17.0501C38.0946 18.5076 37.9314 20.6938 35.5922 21.9863C35.2522 21.7526 34.6674 21.4363 33.8242 21.4913C33.6066 20.3913 35.021 19.4013 36.245 18.6038C37.4826 17.7926 38.013 17.1051 37.9994 16.0326C37.9722 14.8501 37.1834 14.3688 36.3674 14.3413C35.2114 14.2863 34.273 15.3451 34.0554 15.7851C33.7154 15.9501 32.7362 16.2526 32.3282 16.3626C31.8794 16.4863 31.3761 16.6651 31.0497 16.9401C31.2401 17.0638 31.7842 17.1051 31.9882 17.0638C32.3826 17.0088 33.6338 16.7751 34.817 16.6238C35.2522 16.8576 35.9458 17.2563 35.2114 17.7788C34.1914 18.4388 33.7562 18.6038 32.3282 19.3601C30.0705 20.5563 30.8049 23.5676 31.349 23.7876C31.349 24.8051 32.2466 26.6338 32.8586 27.2801C33.1306 28.5588 32.7634 30.4563 32.3826 31.2538C32.0698 30.4838 31.5258 28.6826 31.1721 27.6376C31.5394 25.6576 30.9409 24.7776 30.5329 24.4476C30.1249 24.1038 29.4721 24.2001 29.0369 24.8876C29.6897 24.8188 29.9073 25.6576 29.8937 26.5376C29.8801 27.5826 29.6081 28.4351 28.8873 28.4351C28.9417 29.3288 29.8937 29.5901 30.3697 29.1501C30.4513 29.3563 30.8321 30.5251 31.1857 31.5701C31.4033 32.1888 31.6074 32.7663 31.7434 33.0688C31.893 33.3988 32.9946 33.4538 33.117 33.0688C33.2938 32.5601 33.4298 32.1751 33.7018 31.5701C33.9058 31.1163 34.205 30.5388 34.6402 29.6863C34.9394 30.2088 35.3338 31.0201 35.5514 31.5701C35.6602 31.8313 35.7282 32.0376 35.7418 32.1338C35.837 32.9863 35.7826 36.0251 35.5514 37.8401C33.0898 37.1663 32.3826 38.3763 32.6002 39.2838C32.9538 38.8851 33.4162 38.9401 33.7018 39.1463C33.6338 39.8063 33.8106 40.2876 34.477 40.4939C35.1842 38.5963 37.7274 39.0226 37.9722 39.1738C37.9858 38.8026 38.3258 37.8951 37.0202 37.7026C37.0746 36.0663 37.2378 34.0588 37.2922 33.6463C37.3466 33.2338 37.401 32.9726 37.2106 32.3126C37.1562 32.1201 37.0746 31.8726 37.0066 31.5838C36.8298 30.9238 36.6666 30.0576 36.653 29.1226C36.8842 29.3563 37.4282 29.5351 37.7954 29.4526C38.081 30.6901 38.5026 30.3326 38.7202 30.8551C38.829 31.1163 38.8562 31.3776 38.8834 31.5976C38.9106 31.8176 38.9514 31.9963 39.0602 32.1613C39.9306 32.1888 40.6786 31.9826 41.209 31.5976C41.3722 31.4876 41.5218 31.3501 41.6306 31.2126C41.413 29.8926 41.0458 29.2463 40.3658 28.4488C40.189 27.3763 39.6858 26.3863 39.0058 25.5063C39.8626 25.2176 40.733 24.5163 41.1954 24.0213C41.6034 23.9938 42.0794 23.6501 42.1202 22.9626C42.3651 22.9351 42.5691 22.9213 42.7595 22.8801C42.7323 22.6876 42.6915 22.4126 42.6643 22.2476C42.9771 22.2476 43.2899 22.2338 43.5755 22.2063C43.4939 21.9588 43.3715 21.6976 43.2899 21.5051C43.6027 21.5051 43.9971 21.4776 44.3099 21.4638C44.1467 21.1476 44.0107 20.8588 43.9155 20.5838C44.2827 20.5426 44.8403 20.4601 45.3027 20.3501C45.1531 20.1988 44.9899 20.0338 44.7315 19.7863C45.9283 19.4288 46.4587 18.5763 46.5131 18.2051C46.3363 18.2051 45.9691 18.2876 45.7515 18.2601C46.4859 17.8201 46.9347 17.2701 47.0027 16.6788Z" fill="white"/>
<path d="M22.6991 38.9674C15.9942 36.4374 15.1374 30.8824 15.1102 28.3524C15.1102 28.3524 15.0966 28.3524 15.083 28.3524C15.0966 28.2837 15.0966 28.2287 15.1102 28.1737C15.1102 27.6237 15.151 27.2524 15.1646 27.1287C15.151 26.7712 15.0966 26.4824 15.0286 26.2762C15.015 26.2349 14.9878 26.1937 14.9606 26.1387V28.7512C14.9606 31.6799 16.0214 34.2099 18.1159 36.2587C19.9519 38.0599 22.0191 38.8987 22.6039 39.1049L22.6991 39.1324L22.7943 39.1049C23.3791 38.8849 25.4463 38.0599 27.2823 36.2587C29.3768 34.2099 30.4376 31.6799 30.4376 28.7512V28.2699C30.3832 28.3524 30.3288 28.4074 30.2744 28.4762C30.22 29.7962 29.9752 31.8312 29.1048 33.3712C28.0847 35.5299 26.4935 37.3037 22.6991 38.9674Z" fill="white"/>
<path d="M38.7607 40.6587C38.4343 40.7549 38.0263 40.8237 37.4279 40.8237H36.6799C34.1094 40.7687 31.471 39.9987 29.8526 38.3212C32.083 36.0387 29.4582 34.1687 28.0438 36.0937C27.595 36.6987 27.2414 37.1249 26.9422 37.7162C26.6974 38.1837 26.8742 38.6649 27.4318 39.3937C27.731 39.7924 28.4926 40.4112 29.1182 40.8237H16.2797C16.8917 40.4112 17.6533 39.7924 17.9661 39.3937C18.5237 38.6649 18.7141 38.1974 18.4557 37.7162C18.1429 37.1249 17.7893 36.6987 17.3541 36.0937C15.9397 34.1549 13.3148 36.0387 15.5453 38.3212C13.9269 39.9987 11.2884 40.7687 8.71801 40.8237H8.0108C7.41239 40.8237 7.00439 40.7687 6.67799 40.6587C6.14758 40.5349 6.02518 40.7549 6.31078 41.6899C6.50119 42.2949 6.66439 43.3124 6.73239 43.9999H38.7063C38.7743 43.3124 38.9375 42.2949 39.1279 41.6762C39.4135 40.7549 39.2911 40.5212 38.7607 40.6587ZM28.751 36.1762C29.1726 35.6124 29.7846 35.7637 30.0294 36.2312C30.3014 36.7399 29.907 37.3587 29.3766 37.8537C28.6558 37.0562 28.5742 36.4099 28.751 36.1762ZM27.6902 38.8299C27.4318 38.4587 27.3366 38.2524 27.4726 37.8949C27.6086 37.5512 27.8806 37.2487 28.1526 36.8224C28.6014 38.5824 31.2262 40.2599 33.171 40.8237H30.0702C29.295 40.3699 28.275 39.6549 27.6902 38.8299ZM15.3549 36.2312C15.6133 35.7637 16.2253 35.6124 16.6333 36.1762C16.8101 36.4237 16.7285 37.0562 16.0077 37.8537C15.4773 37.3587 15.0829 36.7399 15.3549 36.2312ZM17.2317 36.8087C17.5173 37.2349 17.7893 37.5512 17.9117 37.8812C18.0477 38.2387 17.9661 38.4587 17.7077 38.8162C17.1229 39.6412 16.1029 40.3562 15.3005 40.7962H12.2132C14.1581 40.2599 16.7829 38.5687 17.2317 36.8087ZM38.1487 43.4912H7.28999C7.15399 42.5012 6.96359 41.8549 6.80039 41.3187H38.6519C38.4751 41.8549 38.2847 42.5012 38.1487 43.4912Z" fill="white"/>
<path d="M31.7432 42.24C31.7432 41.965 31.7432 41.91 31.7432 41.855C31.7432 41.7863 31.7568 41.7588 31.8112 41.745C31.8384 41.745 31.8656 41.745 31.8792 41.745C31.9064 41.745 31.9064 41.745 31.9064 41.7313C31.9064 41.7175 31.8928 41.7175 31.8656 41.7175C31.7976 41.7175 31.6616 41.7175 31.6208 41.7175C31.5664 41.7175 31.4576 41.7175 31.376 41.7175C31.3488 41.7175 31.3352 41.7175 31.3352 41.7313C31.3352 41.745 31.3488 41.745 31.3624 41.745C31.3896 41.745 31.4032 41.745 31.4304 41.745C31.4848 41.7588 31.4984 41.7863 31.512 41.855C31.512 41.91 31.512 41.965 31.512 42.24V42.57C31.512 42.735 31.512 42.8863 31.4984 42.9688C31.4848 43.0238 31.4848 43.065 31.444 43.0788C31.4304 43.0788 31.4032 43.0788 31.376 43.0788C31.3488 43.0788 31.3488 43.0925 31.3488 43.0925C31.3488 43.1063 31.3624 43.1063 31.3896 43.1063C31.4576 43.1063 31.58 43.1063 31.6208 43.1063C31.7704 43.1063 31.8928 43.12 32.1512 43.12C32.2464 43.12 32.26 43.1063 32.26 43.065C32.2736 43.01 32.2872 42.8725 32.2872 42.845C32.2872 42.8175 32.2872 42.8175 32.2736 42.8175C32.26 42.8175 32.26 42.8313 32.26 42.845C32.26 42.8863 32.2328 42.9275 32.2056 42.955C32.1648 42.9963 32.0832 43.01 31.988 43.01C31.852 43.01 31.7976 42.9963 31.7704 42.9688C31.7296 42.9275 31.7296 42.8038 31.7296 42.57V42.24H31.7432Z" fill="white"/>
<path d="M34.1364 43.1339C34.2315 43.1339 34.3402 43.1201 34.4218 43.0651C34.5576 42.9826 34.5984 42.8451 34.5984 42.7489C34.5984 42.5701 34.5169 42.4464 34.2995 42.2814L34.2451 42.2401C34.0956 42.1301 34.0549 42.0614 34.0549 41.9789C34.0549 41.8689 34.1364 41.7864 34.2723 41.7864C34.3946 41.7864 34.4489 41.8414 34.4761 41.8826C34.5169 41.9239 34.5305 41.9926 34.5305 42.0064C34.5305 42.0339 34.5441 42.0339 34.5441 42.0339C34.5576 42.0339 34.5576 42.0201 34.5576 41.9789C34.5576 41.8414 34.5712 41.7864 34.5712 41.7589C34.5712 41.7451 34.5576 41.7451 34.5441 41.7314C34.5033 41.7176 34.4218 41.7039 34.2995 41.7039C34.0413 41.7039 33.8782 41.8551 33.8782 42.0476C33.8782 42.1989 33.9462 42.3226 34.15 42.4876L34.2315 42.5564C34.381 42.6801 34.4082 42.7626 34.4082 42.8589C34.4082 42.9551 34.3266 43.0651 34.1636 43.0651C34.0549 43.0651 33.9462 43.0101 33.9054 42.8726C33.8918 42.8451 33.8918 42.8039 33.8918 42.7764C33.8918 42.7626 33.8918 42.7351 33.8782 42.7351C33.8646 42.7351 33.8646 42.7626 33.8511 42.7901C33.8511 42.8176 33.8375 42.9276 33.8375 43.0239C33.8375 43.0651 33.8375 43.0789 33.8782 43.0926C33.9462 43.1201 34.0277 43.1339 34.1364 43.1339Z" fill="white"/>
<path d="M32.8718 42.5701C32.8718 42.7489 32.8718 42.9001 32.8582 42.9826C32.8582 43.0376 32.8447 43.0651 32.8039 43.0789C32.7903 43.0789 32.7631 43.0789 32.7359 43.0789C32.7088 43.0789 32.7088 43.0926 32.7088 43.0926C32.7088 43.1064 32.7224 43.1064 32.7495 43.1064C32.8311 43.1064 32.9398 43.1064 32.9805 43.1064C33.0349 43.1064 33.1436 43.1064 33.2659 43.1064C33.2795 43.1064 33.3067 43.1064 33.3067 43.0926C33.3067 43.0789 33.2931 43.0789 33.2795 43.0789C33.2523 43.0789 33.2115 43.0789 33.1844 43.0789C33.13 43.0651 33.1164 43.0376 33.1164 42.9826C33.1028 42.9001 33.1028 42.7626 33.1028 42.5701V42.2401C33.1028 41.9651 33.1028 41.9101 33.1028 41.8551C33.1028 41.7864 33.1164 41.7589 33.1708 41.7451C33.198 41.7451 33.198 41.7451 33.2251 41.7451C33.2523 41.7451 33.2523 41.7451 33.2523 41.7176C33.2523 41.7039 33.2387 41.7039 33.2115 41.7039C33.1436 41.7039 33.0349 41.7039 32.9941 41.7039C32.9398 41.7039 32.8311 41.7039 32.7495 41.7039C32.7224 41.7039 32.7088 41.7039 32.7088 41.7176C32.7088 41.7314 32.7224 41.7451 32.7359 41.7451C32.7631 41.7451 32.7903 41.7451 32.8039 41.7451C32.8447 41.7589 32.8582 41.7864 32.8718 41.8551C32.8718 41.9101 32.8718 41.9651 32.8718 42.2401V42.5701Z" fill="white"/>
<path d="M28.1391 42.5701C28.1391 42.7351 28.1391 42.8864 28.1255 42.9689C28.1255 43.0239 28.1119 43.0651 28.0711 43.0651C28.0575 43.0651 28.0303 43.0651 28.0031 43.0651C27.9895 43.0651 27.9759 43.0651 27.9759 43.0789C27.9759 43.0926 27.9895 43.0926 28.0167 43.0926C28.0847 43.0926 28.2071 43.0926 28.2479 43.0926C28.3431 43.0926 28.5063 43.1064 28.6423 43.1064C28.9823 43.1064 29.1727 42.9826 29.2543 42.8864C29.3631 42.7764 29.4583 42.5976 29.4583 42.3776C29.4583 42.1576 29.3767 42.0064 29.2815 41.9101C29.0775 41.7039 28.7783 41.7039 28.5471 41.7039C28.4383 41.7039 28.3159 41.7039 28.2615 41.7039C28.2071 41.7039 28.0983 41.7039 28.0031 41.7039C27.9759 41.7039 27.9623 41.7039 27.9623 41.7176C27.9623 41.7314 27.9759 41.7314 27.9895 41.7314C28.0167 41.7314 28.0439 41.7314 28.0575 41.7314C28.1119 41.7451 28.1255 41.7726 28.1391 41.8414C28.1391 41.8964 28.1391 41.9514 28.1391 42.2264V42.5701ZM28.3703 42.2126V41.8414C28.3703 41.8276 28.3839 41.8139 28.3975 41.8001C28.4111 41.8001 28.4791 41.7864 28.5199 41.7864C28.6695 41.7864 28.8735 41.8139 29.0367 41.9789C29.1183 42.0614 29.2135 42.1989 29.2135 42.4326C29.2135 42.6251 29.1727 42.7901 29.0639 42.9001C28.9551 42.9964 28.8327 43.0376 28.6423 43.0376C28.4927 43.0376 28.4247 42.9964 28.3975 42.9689C28.3839 42.9414 28.3839 42.8726 28.3703 42.8314C28.3703 42.7901 28.3703 42.6526 28.3703 42.4601V42.2126Z" fill="white"/>
<path d="M27.0374 42.5701C27.0374 42.7489 27.0374 42.9001 27.0238 42.9826C27.0238 43.0376 27.0102 43.0651 26.9694 43.0789C26.9559 43.0789 26.9287 43.0789 26.9015 43.0789C26.8743 43.0789 26.8743 43.0926 26.8743 43.0926C26.8743 43.1064 26.8879 43.1064 26.9151 43.1064C26.983 43.1064 27.1053 43.1064 27.1461 43.1064C27.2005 43.1064 27.3092 43.1064 27.4315 43.1064C27.445 43.1064 27.4586 43.1064 27.4586 43.0926C27.4586 43.0789 27.445 43.0789 27.4315 43.0789C27.4043 43.0789 27.3635 43.0789 27.3363 43.0789C27.282 43.0651 27.2684 43.0376 27.2684 42.9826C27.2684 42.9001 27.2684 42.7626 27.2684 42.5701V42.2401C27.2684 41.9651 27.2684 41.9101 27.2684 41.8551C27.2684 41.7864 27.282 41.7589 27.3363 41.7451C27.3499 41.7451 27.3771 41.7451 27.3907 41.7451C27.4043 41.7451 27.4179 41.7451 27.4179 41.7176C27.4179 41.7039 27.4043 41.7039 27.3771 41.7039C27.3092 41.7039 27.2005 41.7039 27.1597 41.7039C27.1053 41.7039 26.9966 41.7039 26.9287 41.7039C26.9015 41.7039 26.8879 41.7039 26.8879 41.7176C26.8879 41.7314 26.9015 41.7451 26.9151 41.7451C26.9287 41.7451 26.9559 41.7451 26.983 41.7451C27.0238 41.7589 27.0374 41.7864 27.051 41.8551C27.051 41.9101 27.051 41.9651 27.051 42.2401V42.5701H27.0374Z" fill="white"/>
<path d="M25.8681 42.4189C25.8681 42.4051 25.8681 42.4051 25.8817 42.4051C25.9089 42.4051 26.0993 42.4051 26.1537 42.4189C26.2081 42.4189 26.2353 42.4601 26.2489 42.4876C26.2489 42.5151 26.2625 42.5289 26.2625 42.5426C26.2625 42.5564 26.2625 42.5701 26.2761 42.5701C26.2897 42.5701 26.2897 42.5564 26.2897 42.5289C26.2897 42.5151 26.2897 42.4326 26.3033 42.3914C26.3033 42.3364 26.3169 42.2951 26.3169 42.2814C26.3169 42.2676 26.3169 42.2676 26.3033 42.2676C26.2897 42.2676 26.2897 42.2814 26.2761 42.2814C26.2625 42.3089 26.2353 42.3089 26.1945 42.3089C26.1673 42.3089 26.1401 42.3089 26.1129 42.3089H25.8817C25.8681 42.3089 25.8681 42.3089 25.8681 42.2951V41.8414C25.8681 41.8276 25.8817 41.8139 25.8817 41.8139L26.1673 41.8276C26.2353 41.8276 26.2761 41.8551 26.2897 41.8826C26.3033 41.9101 26.3033 41.9376 26.3033 41.9514C26.3033 41.9789 26.3033 41.9789 26.3169 41.9789C26.3305 41.9789 26.3305 41.9651 26.3305 41.9514C26.3305 41.9239 26.3305 41.8139 26.3441 41.8001C26.3577 41.7589 26.3577 41.7314 26.3577 41.7176C26.3577 41.7039 26.3577 41.7039 26.3441 41.7039C26.3305 41.7039 26.3305 41.7176 26.3169 41.7176C26.3033 41.7176 26.2761 41.7176 26.2353 41.7176H25.7593C25.7049 41.7176 25.5961 41.7176 25.5009 41.7176C25.4737 41.7176 25.4601 41.7176 25.4601 41.7314C25.4601 41.7451 25.4737 41.7451 25.4873 41.7451C25.5145 41.7451 25.5417 41.7451 25.5553 41.7451C25.6097 41.7589 25.6233 41.7864 25.6369 41.8551C25.6369 41.9101 25.6369 41.9651 25.6369 42.2401V42.5701C25.6369 42.7489 25.6369 42.8864 25.6233 42.9689C25.6097 43.0239 25.6097 43.0651 25.5689 43.0651C25.5553 43.0651 25.5281 43.0651 25.5009 43.0651C25.4737 43.0651 25.4737 43.0789 25.4737 43.0789C25.4737 43.0926 25.4873 43.0926 25.5145 43.0926C25.5825 43.0926 25.6913 43.0926 25.7457 43.0926C25.8001 43.0926 25.9089 43.0926 26.0177 43.0926C26.0449 43.0926 26.0585 43.0926 26.0585 43.0789C26.0585 43.0651 26.0449 43.0651 26.0313 43.0651C26.0041 43.0651 25.9633 43.0651 25.9361 43.0651C25.8817 43.0514 25.8681 43.0101 25.8681 42.9689C25.8545 42.8864 25.8545 42.7489 25.8545 42.5701V42.4189H25.8681Z" fill="white"/>
<path d="M14.2808 42.5701C14.2808 42.7351 14.2808 42.8864 14.2672 42.9689C14.2672 43.0239 14.2536 43.0651 14.2128 43.0651C14.1992 43.0651 14.172 43.0651 14.1448 43.0651C14.1176 43.0651 14.1176 43.0651 14.1176 43.0789C14.1176 43.0926 14.1312 43.0926 14.1584 43.0926C14.2264 43.0926 14.3488 43.0926 14.3896 43.0926C14.4848 43.0926 14.648 43.1064 14.784 43.1064C15.124 43.1064 15.3144 42.9826 15.396 42.8864C15.5048 42.7764 15.6 42.5976 15.6 42.3776C15.6 42.1576 15.5184 42.0064 15.4232 41.9101C15.2192 41.7039 14.92 41.7039 14.6888 41.7039C14.58 41.7039 14.4576 41.7039 14.4032 41.7039C14.3488 41.7039 14.24 41.7039 14.1312 41.7039C14.104 41.7039 14.0904 41.7039 14.0904 41.7176C14.0904 41.7314 14.104 41.7314 14.1176 41.7314C14.1448 41.7314 14.172 41.7314 14.1992 41.7314C14.2536 41.7451 14.2672 41.7726 14.2808 41.8414C14.2808 41.8964 14.2808 41.9514 14.2808 42.2264V42.5701ZM14.512 42.2126C14.512 42.0751 14.512 41.9101 14.512 41.8414C14.512 41.8276 14.5256 41.8139 14.5392 41.8001C14.5528 41.8001 14.6208 41.7864 14.6616 41.7864C14.8112 41.7864 15.0152 41.8139 15.1784 41.9789C15.26 42.0614 15.3552 42.1989 15.3552 42.4326C15.3552 42.6251 15.3144 42.7901 15.2056 42.9001C15.0968 42.9964 14.9744 43.0376 14.784 43.0376C14.6344 43.0376 14.5664 42.9964 14.5392 42.9689C14.5256 42.9414 14.5256 42.8726 14.5256 42.8314C14.5256 42.7901 14.5256 42.6526 14.5256 42.4601V42.2126H14.512Z" fill="white"/>
<path d="M12.3766 42.5151C12.3766 42.7764 12.4446 42.9139 12.5398 43.0101C12.6758 43.1339 12.8526 43.1339 12.9478 43.1339C13.0702 43.1339 13.2062 43.1201 13.3286 42.9964C13.4783 42.8726 13.5055 42.6526 13.5055 42.4326V42.2401C13.5055 41.9651 13.5055 41.9101 13.5055 41.8551C13.5055 41.7864 13.519 41.7589 13.5734 41.7451C13.6007 41.7451 13.6143 41.7451 13.6279 41.7451C13.6551 41.7451 13.6551 41.7451 13.6551 41.7314C13.6551 41.7176 13.6415 41.7176 13.6143 41.7176C13.5463 41.7176 13.4238 41.7176 13.4102 41.7176C13.4102 41.7176 13.3014 41.7176 13.2062 41.7176C13.179 41.7176 13.1654 41.7176 13.1654 41.7314C13.1654 41.7451 13.179 41.7451 13.1926 41.7451C13.2062 41.7451 13.247 41.7451 13.2606 41.7451C13.315 41.7589 13.3286 41.7864 13.3422 41.8551C13.3422 41.9101 13.3422 41.9651 13.3422 42.2401V42.4739C13.3422 42.6664 13.3422 42.8314 13.2334 42.9276C13.1518 42.9964 13.0566 43.0239 12.975 43.0239C12.907 43.0239 12.8254 43.0101 12.7438 42.9414C12.6486 42.8589 12.6078 42.7489 12.6078 42.4876V42.2264C12.6078 41.9514 12.6078 41.8964 12.6078 41.8414C12.6078 41.7726 12.635 41.7451 12.6758 41.7314C12.703 41.7314 12.703 41.7314 12.7302 41.7314C12.7438 41.7314 12.7574 41.7314 12.7574 41.7176C12.7574 41.7039 12.7438 41.7039 12.7166 41.7039C12.6486 41.7039 12.5398 41.7039 12.4854 41.7039C12.431 41.7039 12.3086 41.7039 12.2134 41.7039C12.1862 41.7039 12.1726 41.7039 12.1726 41.7176C12.1726 41.7314 12.1862 41.7314 12.1998 41.7314C12.227 41.7314 12.2542 41.7314 12.2678 41.7314C12.3358 41.7451 12.3494 41.7726 12.3494 41.8414C12.3494 41.8964 12.3494 41.9514 12.3494 42.2264V42.5151H12.3766Z" fill="white"/>
<path d="M30.0838 42.5699C30.0838 42.7349 30.0838 42.8862 30.0702 42.9687C30.0566 43.0237 30.0566 43.0649 30.0158 43.0649C30.0022 43.0649 29.975 43.0649 29.9478 43.0649C29.9206 43.0649 29.9206 43.0787 29.9206 43.0787C29.9206 43.0924 29.9342 43.0924 29.9614 43.0924C30.0294 43.0924 30.1518 43.0924 30.1926 43.0924C30.3014 43.0924 30.4238 43.1062 30.6958 43.1062C30.7638 43.1062 30.7774 43.1062 30.791 43.0512C30.8046 43.0099 30.8182 42.8862 30.8182 42.8449C30.8182 42.8312 30.8182 42.8037 30.8046 42.8037C30.791 42.8037 30.791 42.8174 30.791 42.8312C30.7774 42.8999 30.7502 42.9412 30.7094 42.9687C30.6686 42.9962 30.587 42.9962 30.5326 42.9962C30.3422 42.9962 30.315 42.9687 30.315 42.8449C30.315 42.7899 30.315 42.6249 30.315 42.5562V42.4049C30.315 42.3912 30.315 42.3912 30.3286 42.3912C30.3694 42.3912 30.5462 42.3912 30.587 42.3912C30.655 42.3912 30.6822 42.4187 30.6958 42.4599C30.6958 42.4874 30.6958 42.5149 30.7094 42.5287C30.7094 42.5424 30.7094 42.5424 30.723 42.5424C30.7366 42.5424 30.7366 42.5287 30.7366 42.5149C30.7366 42.5012 30.7366 42.4324 30.7502 42.3912C30.7502 42.2949 30.7638 42.2674 30.7638 42.2537C30.7638 42.2399 30.7502 42.2399 30.7502 42.2399C30.7366 42.2399 30.7366 42.2537 30.723 42.2674C30.7094 42.2812 30.6822 42.2949 30.6414 42.2949C30.6006 42.2949 30.383 42.2949 30.3558 42.2949C30.3422 42.2949 30.3422 42.2949 30.3422 42.2812V41.8137C30.3422 41.7999 30.3422 41.7999 30.3558 41.7999C30.3966 41.7999 30.587 41.7999 30.6142 41.8137C30.7094 41.8274 30.723 41.8412 30.7366 41.8824C30.7502 41.9099 30.7502 41.9374 30.7502 41.9512C30.7502 41.9649 30.7502 41.9787 30.7638 41.9787C30.7774 41.9787 30.7774 41.9649 30.7774 41.9512C30.7774 41.9237 30.791 41.8412 30.791 41.8274C30.791 41.7449 30.8046 41.7174 30.8046 41.7037C30.8046 41.6899 30.8046 41.6899 30.791 41.6899C30.7774 41.6899 30.7774 41.7037 30.7638 41.7037C30.7502 41.7037 30.723 41.7174 30.6822 41.7174H30.2198C30.1654 41.7174 30.0566 41.7174 29.9614 41.7174C29.9342 41.7174 29.9206 41.7174 29.9206 41.7312C29.9206 41.7449 29.9342 41.7449 29.9478 41.7449C29.975 41.7449 30.0022 41.7449 30.0158 41.7449C30.0838 41.7587 30.0974 41.7862 30.0974 41.8549C30.0974 41.9099 30.0974 41.9649 30.0974 42.2399V42.5699H30.0838Z" fill="white"/>
<path d="M22.6854 42.5699C22.6854 42.7349 22.6854 42.8862 22.6718 42.9687C22.6718 43.0237 22.6582 43.0649 22.6174 43.0649C22.6038 43.0649 22.5766 43.0649 22.5494 43.0649C22.5222 43.0649 22.5222 43.0787 22.5222 43.0787C22.5222 43.0924 22.5358 43.0924 22.563 43.0924C22.6446 43.0924 22.7534 43.0924 22.7942 43.0924C22.8486 43.0924 22.9574 43.0924 23.0798 43.0924C23.0934 43.0924 23.107 43.0924 23.107 43.0787C23.107 43.0649 23.0934 43.0649 23.0798 43.0649C23.0526 43.0649 23.0118 43.0649 22.9846 43.0649C22.9302 43.0512 22.9166 43.0099 22.9166 42.9687C22.903 42.8862 22.903 42.7349 22.903 42.5699V41.8137H23.1342C23.2974 41.8137 23.3518 41.8687 23.3518 41.9237V41.9374C23.3518 41.9649 23.3654 41.9787 23.379 41.9787C23.3926 41.9787 23.3926 41.9649 23.3926 41.9512C23.3926 41.8962 23.3926 41.7724 23.3926 41.7449C23.3926 41.7174 23.3926 41.7037 23.379 41.7037C23.3654 41.7037 23.3246 41.7174 23.2022 41.7174H22.4814C22.427 41.7174 22.3454 41.7174 22.3046 41.7174C22.2638 41.7174 22.2366 41.6899 22.223 41.6899C22.2094 41.6899 22.2094 41.7037 22.1958 41.7312C22.1958 41.7449 22.155 41.9099 22.155 41.9374C22.155 41.9649 22.155 41.9649 22.1686 41.9649C22.1822 41.9649 22.1822 41.9512 22.1822 41.9374C22.1822 41.9237 22.1958 41.8962 22.2094 41.8687C22.2366 41.8274 22.2774 41.8137 22.3862 41.8137H22.6582V42.5699H22.6854Z" fill="white"/>
<path d="M18.5784 41.8962C18.6328 41.8137 18.6736 41.7587 18.7144 41.7449C18.7416 41.7449 18.7688 41.7312 18.7824 41.7312C18.796 41.7312 18.8096 41.7174 18.8096 41.7174C18.8096 41.7037 18.796 41.7037 18.7824 41.7037C18.7144 41.7037 18.6464 41.7037 18.6056 41.7037C18.5784 41.7037 18.4968 41.7037 18.4288 41.7037C18.4016 41.7037 18.388 41.7037 18.388 41.7174C18.388 41.7312 18.4016 41.7312 18.4152 41.7312C18.4288 41.7312 18.456 41.7312 18.4696 41.7312C18.4832 41.7312 18.4968 41.7449 18.4968 41.7587C18.4968 41.7724 18.4968 41.7999 18.4832 41.8274C18.456 41.8824 18.2928 42.1299 18.2384 42.2124C18.1704 42.0887 18.0888 41.9512 18.0072 41.7999C17.9936 41.7862 17.9936 41.7587 17.9936 41.7449C17.9936 41.7312 17.9936 41.7174 18.0208 41.7174C18.0344 41.7174 18.0616 41.7174 18.0752 41.7174C18.0888 41.7174 18.1024 41.7174 18.1024 41.7037C18.1024 41.6899 18.0888 41.6899 18.0616 41.6899C17.9936 41.6899 17.8848 41.6899 17.8712 41.6899C17.7896 41.6899 17.64 41.6899 17.5992 41.6899C17.572 41.6899 17.5584 41.6899 17.5584 41.7037C17.5584 41.7174 17.5584 41.7174 17.572 41.7174C17.5856 41.7174 17.6264 41.7174 17.6536 41.7312C17.7216 41.7449 17.7624 41.7999 17.8032 41.8687L18.116 42.3912L17.7624 42.8999C17.6944 42.9962 17.6672 43.0237 17.6128 43.0374C17.5856 43.0512 17.5584 43.0512 17.5448 43.0512C17.5312 43.0512 17.5176 43.0649 17.5176 43.0649C17.5176 43.0787 17.5312 43.0787 17.5448 43.0787H17.572C17.5992 43.0787 17.6944 43.0787 17.7216 43.0787C17.7624 43.0787 17.8848 43.0787 17.8984 43.0787H17.9256C17.9528 43.0787 17.9664 43.0787 17.9664 43.0649C17.9664 43.0512 17.9528 43.0512 17.9392 43.0512C17.9256 43.0512 17.912 43.0512 17.8984 43.0512C17.8848 43.0512 17.8576 43.0374 17.8576 43.0237C17.8576 42.9962 17.8712 42.9824 17.8848 42.9412L18.1568 42.5012C18.2384 42.6387 18.3472 42.8174 18.4424 42.9962C18.456 43.0237 18.4424 43.0374 18.4424 43.0374C18.4288 43.0374 18.4152 43.0512 18.4152 43.0512C18.4152 43.0649 18.4288 43.0787 18.4832 43.0787C18.6192 43.0787 18.7688 43.0787 18.8096 43.0787H18.864C18.8912 43.0787 18.9048 43.0787 18.9048 43.0649C18.9048 43.0512 18.8912 43.0512 18.8776 43.0512C18.864 43.0512 18.8368 43.0512 18.8096 43.0374C18.7552 43.0237 18.728 42.9962 18.7008 42.9549C18.66 42.8999 18.3608 42.3912 18.3064 42.3087L18.5784 41.8962Z" fill="white"/>
<path d="M21.5704 42.79C21.584 42.79 21.584 42.79 21.584 42.8038L21.6656 43.0375C21.6792 43.065 21.6656 43.0788 21.652 43.0788C21.6384 43.0788 21.6248 43.0788 21.6248 43.0925C21.6248 43.1063 21.652 43.1063 21.6792 43.1063C21.8288 43.1063 21.9512 43.1063 22.0192 43.1063C22.0872 43.1063 22.1008 43.1063 22.1008 43.0925C22.1008 43.0788 22.0872 43.0788 22.0736 43.0788C22.0464 43.0788 22.0192 43.0788 21.992 43.0788C21.9512 43.065 21.8968 43.0513 21.8288 42.8725C21.7064 42.5975 21.4208 41.8413 21.38 41.7313C21.3664 41.69 21.3528 41.6763 21.3256 41.6763C21.312 41.6763 21.2984 41.7038 21.2712 41.7588L20.8088 42.9138C20.768 43.01 20.7408 43.065 20.6592 43.0788C20.6456 43.0788 20.6184 43.0788 20.6048 43.0788C20.5912 43.0788 20.5776 43.0788 20.5776 43.0925C20.5776 43.1063 20.5912 43.1063 20.6184 43.1063C20.7136 43.1063 20.8088 43.1063 20.836 43.1063C20.8904 43.1063 20.972 43.1063 21.0264 43.1063C21.0536 43.1063 21.0536 43.1063 21.0536 43.0925C21.0536 43.0788 21.0536 43.0788 21.0264 43.0788H20.9992C20.9448 43.0788 20.9312 43.0513 20.9312 43.0238C20.9312 43.01 20.9448 42.955 20.9584 42.9138L20.9992 42.8175C20.9992 42.8038 21.0128 42.8038 21.0128 42.8038H21.5704V42.79ZM21.0808 42.6938C21.0672 42.6938 21.0672 42.6938 21.0672 42.68L21.2984 42.0613C21.2984 42.0613 21.2984 42.0475 21.312 42.0475C21.312 42.0475 21.312 42.0613 21.3256 42.0613L21.5568 42.68C21.5568 42.68 21.5568 42.6938 21.5432 42.6938H21.0808Z" fill="white"/>
<path d="M16.7968 42.79C16.8104 42.79 16.8104 42.79 16.8104 42.8038L16.892 43.0375C16.9056 43.065 16.892 43.0788 16.8784 43.0788C16.8648 43.0788 16.8512 43.0788 16.8512 43.0925C16.8512 43.1063 16.8784 43.1063 16.9056 43.1063C17.0552 43.1063 17.1912 43.1063 17.2456 43.1063C17.3136 43.1063 17.3272 43.1063 17.3272 43.0925C17.3272 43.0788 17.3136 43.0788 17.3 43.0788C17.2728 43.0788 17.2456 43.0788 17.2184 43.0788C17.1776 43.065 17.1232 43.0513 17.0552 42.8725C16.9328 42.5975 16.6472 41.8413 16.5928 41.7313C16.5792 41.69 16.5656 41.6763 16.552 41.6763C16.5384 41.6763 16.5248 41.7038 16.4976 41.7588L16.0352 42.9138C15.9944 43.01 15.9672 43.065 15.8856 43.0788C15.872 43.0788 15.8448 43.0788 15.8312 43.0788C15.8176 43.0788 15.804 43.0788 15.804 43.0925C15.804 43.1063 15.8176 43.1063 15.8448 43.1063C15.94 43.1063 16.0352 43.1063 16.0624 43.1063C16.1168 43.1063 16.1984 43.1063 16.2528 43.1063C16.28 43.1063 16.28 43.1063 16.28 43.0925C16.28 43.0788 16.28 43.0788 16.2528 43.0788H16.2256C16.1712 43.0788 16.1576 43.0513 16.1576 43.0238C16.1576 43.01 16.1712 42.955 16.1848 42.9138L16.2256 42.8175C16.2256 42.8038 16.2392 42.8038 16.2392 42.8038H16.7968V42.79ZM16.2936 42.6938C16.2936 42.6938 16.28 42.6938 16.2936 42.68L16.5248 42.0613L16.5384 42.0475L16.552 42.0613L16.7832 42.68C16.7832 42.6938 16.7832 42.6938 16.7696 42.6938H16.2936Z" fill="white"/>
<path d="M11.4655 42.7901C11.4655 42.7901 11.4791 42.7901 11.4791 42.8038L11.5607 43.0376C11.5743 43.0651 11.5607 43.0788 11.5471 43.0788C11.5335 43.0788 11.5199 43.0788 11.5199 43.0926C11.5199 43.1063 11.5471 43.1063 11.5743 43.1063C11.7239 43.1063 11.8599 43.1063 11.9143 43.1063C11.9823 43.1063 11.9959 43.1063 11.9959 43.0926C11.9959 43.0788 11.9823 43.0788 11.9687 43.0788C11.9415 43.0788 11.9143 43.0788 11.8871 43.0788C11.8463 43.0651 11.7919 43.0513 11.7239 42.8726C11.6015 42.5976 11.3159 41.8413 11.2751 41.7313C11.2751 41.6901 11.2751 41.6626 11.2479 41.6626C11.2343 41.6626 11.2207 41.6901 11.1935 41.7451L10.7447 42.9001C10.7039 42.9964 10.6767 43.0513 10.5951 43.0651C10.5815 43.0651 10.5543 43.0651 10.5407 43.0651C10.5271 43.0651 10.5135 43.0651 10.5135 43.0788C10.5135 43.0926 10.5271 43.0926 10.5543 43.0926C10.6495 43.0926 10.7447 43.0926 10.7719 43.0926C10.8263 43.0926 10.9079 43.0926 10.9623 43.0926C10.9759 43.0926 10.9895 43.0926 10.9895 43.0788C10.9895 43.0651 10.9895 43.0651 10.9623 43.0651H10.9215C10.8671 43.0651 10.8535 43.0376 10.8535 43.0101C10.8535 42.9964 10.8671 42.9414 10.8807 42.9001L10.9215 42.8038C10.9215 42.7901 10.9351 42.7901 10.9351 42.7901H11.4655ZM10.9759 42.6938C10.9623 42.6938 10.9623 42.6939 10.9623 42.6801L11.1935 42.0613L11.2071 42.0476C11.2071 42.0476 11.2071 42.0613 11.2207 42.0613L11.4519 42.6801C11.4519 42.6939 11.4519 42.6938 11.4383 42.6938H10.9759Z" fill="white"/>
<path d="M28.6287 28.4212L28.6151 28.1462H28.8871C29.2543 28.1462 29.4447 27.7887 29.5399 27.3625C28.0983 27.3487 22.9574 27.3762 22.9574 27.3762V32.7387C23.3926 32.4225 23.8006 32.1475 24.3446 31.9825V31.0475V30.8H24.5894H24.8886C24.9158 29.5075 25.2286 28.5587 25.8271 27.94L26.0039 27.7612L26.1807 27.94C26.7791 28.5587 27.0783 29.4937 27.1191 30.8H27.4319H27.6767V31.0475V32.0512C28.2615 32.2987 28.6559 32.67 28.9687 33.0687C29.4583 32.065 29.8119 30.91 29.9343 29.5762C29.9071 29.5762 29.8799 29.59 29.8527 29.59C29.2679 29.59 28.6695 29.1912 28.6287 28.4212Z" fill="white"/>
<path d="M25.9767 32.2437C24.4126 32.2437 23.8142 32.6837 22.9574 33.3437V38.4724C22.9574 38.4724 26.6567 37.1799 28.6831 33.5637C28.2071 32.8762 27.5271 32.2437 25.9767 32.2437ZM27.2551 34.3199L26.7927 33.7837L26.0039 34.4987L26.3303 34.8699C26.3303 34.8699 26.6703 34.7049 26.9559 35.0624C26.7383 35.2549 26.3439 35.5987 26.1263 35.7912C25.8271 35.4474 26.0311 35.1312 26.0311 35.1312L25.7047 34.7599L24.7254 35.6399L24.4126 35.2687L25.4054 34.4162L25.0518 34.0037C25.0518 34.0037 24.9158 34.1274 24.7254 34.2924C24.4398 33.9624 24.2222 33.5224 24.4262 32.9724C24.9974 32.8349 25.3919 33.1237 25.6775 33.4537C25.4871 33.6324 25.3511 33.7424 25.3511 33.7424L25.7183 34.1687L26.5343 33.4812L26.0719 32.9312C26.4935 32.8762 26.8607 33.0274 27.0783 33.2749C27.2551 33.5224 27.3639 33.9074 27.2551 34.3199Z" fill="white"/>
<path d="M29.9073 27.3625C29.9073 27.3625 29.8665 27.3625 29.7985 27.3625C29.6761 27.9813 29.3905 28.4076 28.8873 28.4076C28.9281 29.0126 29.3905 29.3288 29.8257 29.3288C29.8665 29.3288 29.8937 29.3151 29.9345 29.3151C29.9617 28.6963 29.9753 28.05 29.9073 27.3625Z" fill="white"/>
<path d="M16.1302 27.3213C15.763 27.3213 15.5182 27.3213 15.5182 27.335C15.423 28.4075 15.4638 29.3838 15.6134 30.2775C15.9942 29.645 16.375 29.0125 16.3478 28.5725C16.3342 28.105 16.2254 27.6925 16.1302 27.3213Z" fill="white"/>
<path d="M16.3887 27.3213C16.4839 27.6925 16.5927 28.105 16.6063 28.5588C16.6199 29.0813 16.2391 29.7275 15.8311 30.415C15.7767 30.4975 15.7359 30.5663 15.6951 30.6488C16.8647 36.5063 22.468 38.4588 22.468 38.4588V27.335C22.4816 27.335 18.2656 27.3213 16.3887 27.3213ZM20.5912 34.2788C20.3192 34.3338 19.8704 34.375 19.5712 34.375C19.272 34.375 18.8368 34.3475 18.5512 34.2788C18.5784 34.155 18.6192 33.99 18.66 33.825C18.456 33.8113 18.2384 33.7288 18.0616 33.66C18.1432 33.3575 18.2792 33.055 18.388 32.6425C18.7688 32.725 19.136 32.7663 19.5576 32.7663C19.9792 32.7663 20.3464 32.7388 20.7272 32.6425C20.836 33.055 20.972 33.3575 21.0672 33.66C20.904 33.715 20.6864 33.7975 20.4688 33.825C20.5232 33.99 20.564 34.155 20.5912 34.2788ZM18.3064 31.845C18.5104 31.7625 19.34 31.735 19.5848 31.735C19.8296 31.735 20.6456 31.7763 20.8632 31.845C20.8904 31.955 20.8904 32.1063 20.8768 32.23C20.564 32.3263 20.0064 32.3675 19.5984 32.3675C19.1768 32.3675 18.6328 32.3125 18.32 32.23C18.2792 32.1063 18.2792 31.955 18.3064 31.845ZM21.4208 29.6588C21.108 30.4013 20.8088 31.185 20.7136 31.4188C20.5504 31.3913 20.3736 31.3775 20.1968 31.3638C20.4008 30.7038 20.6592 29.7688 20.8768 29.1775C21.0128 28.765 21.7064 28.9575 21.4208 29.6588ZM19.5848 28.545C19.6392 28.2013 20.6048 28.1325 20.428 28.8888C20.2512 29.6588 20.02 30.5663 19.8432 31.3363C19.7616 31.3363 19.68 31.3363 19.5984 31.3363C19.5168 31.3363 19.4352 31.3363 19.3536 31.3363C19.1768 30.5663 18.9456 29.6588 18.7688 28.8888C18.5648 28.1325 19.5304 28.2013 19.5848 28.545ZM18.2928 29.1775C18.5104 29.7688 18.7552 30.7038 18.9728 31.3638C18.796 31.3775 18.6192 31.3913 18.456 31.4188C18.3608 31.185 18.0616 30.415 17.7487 29.6588C17.4495 28.9575 18.1432 28.765 18.2928 29.1775Z" fill="white"/>
<path d="M30.1791 19.4151H22.7127H15.2462H14.9742V19.7039V25.0939C15.0422 25.1351 15.1102 25.1901 15.1782 25.2451V19.6489H30.3015V24.8464C30.3559 24.9014 30.4104 24.9701 30.4648 25.0664V19.6901V19.4014H30.1791V19.4151Z" fill="white"/>
<path d="M15.736 24.5713C16.1304 24.9013 16.28 25.135 16.1576 26.235C16.144 26.3725 16.212 26.6338 16.2936 26.9088H29.6081C29.6217 26.7575 29.6353 26.62 29.6353 26.4963C29.6489 25.8913 29.5401 25.41 29.3497 25.2175C29.2817 25.1488 29.2137 25.1213 29.0913 25.1213H29.0641L28.5337 25.1763L28.8193 24.7225C29.0913 24.2688 29.4993 24.0075 29.9209 23.98V19.9788H15.5456V24.4475C15.6 24.475 15.6408 24.5025 15.6952 24.5438L15.736 24.5713ZM24.1952 24.0488V23.7738L23.5424 23.76C23.692 23.0588 25.0384 22.1788 25.6505 21.9725C25.6233 21.2163 26.6025 20.9688 27.3913 20.9413C28.3705 20.9138 28.6017 21.9863 28.6017 22.3163C28.6017 22.7563 28.4929 23.7325 27.9489 24.035C27.1601 24.475 26.4801 23.87 26.4801 23.32C26.4801 22.715 26.8881 22.3713 27.6089 22.4538C28.3161 22.5363 28.2617 22.1238 27.7313 21.9863C27.4729 21.9175 26.3441 21.8625 25.9633 22.715C25.7457 22.7288 25.5145 22.6325 25.3785 22.495C25.2289 22.6875 24.9976 22.8113 24.6848 22.9075C24.9568 23.4713 25.5145 23.375 25.8545 23.1138C25.8409 23.1963 25.8409 23.265 25.8409 23.3475C25.8409 24.7363 27.2961 25.08 28.1937 24.5575C28.0441 25.0113 28.1121 25.575 28.1801 25.96H24.644C24.6984 25.575 25.1745 25.135 25.5689 24.86L25.2561 24.365C24.8752 24.53 24.508 24.695 24.1 24.805C23.1208 25.0388 23.1752 24.3238 24.1952 24.0488ZM21.7064 25.1763C21.5704 25.3688 20.7272 25.63 20.5232 25.5063C20.1696 25.2863 19.9928 24.8325 20.0744 24.6263C20.1696 24.365 21.0944 24.1038 21.3936 24.2C21.6928 24.2963 21.8152 24.9975 21.7064 25.1763ZM16.7968 22.9625C17.572 22.5088 17.98 22.1788 18.388 21.5325C18.0888 21.3813 17.7216 21.1063 17.4496 20.7213C18.932 21.1475 19.68 21.3675 21.4344 20.735C21.1488 21.1888 20.7272 21.4638 20.3736 21.6975C20.768 22.3575 21.1624 23.1138 21.2984 23.7188C20.7816 23.6775 20.1832 23.8013 19.7616 24.2C19.1088 24.2275 18.2792 24.4338 17.8304 22.935C17.5992 23.0588 17.3544 23.21 17.3544 23.21C17.6264 24.1863 18.116 24.86 19.4216 24.7088C19.4896 25.025 19.544 25.2038 19.7072 25.465C19.1768 25.7813 17.8304 26.5788 16.8104 25.6575V22.9625H16.7968Z" fill="white"/>
<path d="M15.5456 24.7637V26.9224H16.0212C15.9396 26.6337 15.8717 26.3862 15.8989 26.2212C16.0076 25.1212 15.8445 25.0112 15.5456 24.7637Z" fill="white"/>
<path d="M29.9066 26.9225V24.2412C29.594 24.2687 29.2815 24.4612 29.0369 24.86C29.0641 24.86 29.0913 24.86 29.1184 24.86C29.7027 24.86 29.9066 25.6712 29.893 26.51C29.893 26.6475 29.8794 26.785 29.8794 26.9225H29.9066Z" fill="white"/>
<path d="M19.0407 23.2513C19.2855 23.375 19.5983 23.2238 19.9111 23.265C19.8431 23.1275 19.7751 23.0313 19.8159 22.825C19.8975 22.44 19.5847 22.3438 19.4487 22.3438C19.0815 22.3713 18.8911 22.44 18.5103 22.3438C18.7551 22.605 18.7007 23.0725 19.0407 23.2513Z" fill="white"/>
<path d="M243.497 30.3049V23.6637C243.497 22.6187 243.415 22.3574 243.143 22.0274C242.926 21.7662 242.518 21.6149 242.069 21.6149C241.294 21.6149 240.083 22.2474 239.376 22.9899V30.3049H237.894V22.7424C237.894 21.3399 237.527 20.6662 237.527 20.6662L239.009 20.2537C239.009 20.2537 239.363 20.9824 239.363 21.7937C240.383 20.7624 241.389 20.2812 242.423 20.2812C243.47 20.2812 244.408 20.8449 244.803 21.7249C244.966 22.0824 245.034 22.4812 245.034 22.8662V30.3187H243.497V30.3049Z" fill="white"/>
<path d="M208.722 30.3049V23.6637C208.722 22.6187 208.64 22.3574 208.368 22.0274C208.151 21.7662 207.743 21.6149 207.294 21.6149C206.519 21.6149 205.308 22.2474 204.601 22.9899V30.3049H203.118V22.7424C203.118 21.3399 202.751 20.6662 202.751 20.6662L204.234 20.2537C204.234 20.2537 204.587 20.9824 204.587 21.7937C205.607 20.7624 206.614 20.2812 207.647 20.2812C208.708 20.2812 209.633 20.8449 210.027 21.7249C210.177 22.0824 210.259 22.4812 210.259 22.8662V30.3187H208.722V30.3049Z" fill="white"/>
<path d="M183.017 30.4149H181.521L178.026 20.5837L179.59 20.2537L181.848 27.0187C182.12 27.8299 182.31 28.6962 182.31 28.6962H182.351C182.351 28.6962 182.514 27.9262 182.813 27.0462L185.044 20.5149H186.662L183.017 30.4149Z" fill="white"/>
<path d="M223.845 30.305V23.0587C223.845 22.11 223.423 21.615 222.594 21.615C221.723 21.615 221.03 22.1925 220.023 23.1275V30.305H218.486V23.3337C218.486 22.7425 218.432 22.3437 218.214 22.0687C217.983 21.7937 217.67 21.67 217.222 21.67C216.474 21.67 215.753 22.0412 214.746 22.9762V30.305H213.278V22.7012C213.278 21.285 212.924 20.6112 212.924 20.6112L214.406 20.2537C214.406 20.2537 214.76 21.0237 214.76 21.7112C215.399 20.9825 216.596 20.24 217.589 20.24C218.541 20.24 219.493 20.8312 219.846 21.8762C220.785 20.8725 221.968 20.24 222.961 20.24C224.403 20.24 225.395 21.34 225.395 22.9075V30.3187H223.845V30.305Z" fill="white"/>
<path d="M229.598 25.6576V25.8913C229.598 26.8126 229.72 27.5276 230.047 28.0363C230.591 28.8888 231.488 29.2326 232.467 29.2326C233.406 29.2326 234.167 28.9301 234.847 28.3113L235.432 29.3013C234.575 30.0851 233.406 30.5251 232.155 30.5251C229.462 30.5251 227.843 28.5588 227.843 25.3001C227.843 23.6501 228.197 22.5776 229.013 21.5876C229.788 20.6663 230.754 20.2263 231.923 20.2263C232.971 20.2263 233.895 20.5976 234.548 21.2851C235.391 22.1513 235.663 23.0726 235.663 25.4238V25.6438H229.598V25.6576ZM233.596 22.3026C233.27 21.7663 232.59 21.4363 231.842 21.4363C230.455 21.4363 229.679 22.4538 229.598 24.4888H234.045C234.018 23.4301 233.882 22.7838 233.596 22.3026Z" fill="white"/>
<path d="M189.192 25.6576V25.8913C189.192 26.8126 189.314 27.5276 189.641 28.0363C190.185 28.8888 191.082 29.2326 192.062 29.2326C193 29.2326 193.762 28.9301 194.442 28.3113L195.026 29.3013C194.17 30.0851 193 30.5251 191.749 30.5251C189.056 30.5251 187.438 28.5588 187.438 25.3001C187.438 23.6501 187.791 22.5776 188.607 21.5876C189.382 20.6663 190.348 20.2263 191.518 20.2263C192.565 20.2263 193.49 20.5976 194.156 21.2851C194.999 22.1513 195.271 23.0726 195.271 25.4238V25.6438H189.192V25.6576ZM193.19 22.3026C192.864 21.7663 192.17 21.4363 191.436 21.4363C190.049 21.4363 189.274 22.4538 189.192 24.4888H193.639C193.612 23.4301 193.476 22.7838 193.19 22.3026Z" fill="white"/>
<path d="M201.622 21.9725C201.527 21.9312 201.35 21.89 201.201 21.89C200.616 21.89 200.031 22.1512 199.582 22.605C199.134 23.0587 199.011 23.3475 199.011 24.1587V30.305H197.488V22.7425C197.488 21.2987 197.161 20.6525 197.161 20.6525L198.685 20.24C198.685 20.24 199.052 21.01 198.997 21.835C199.705 20.8312 200.725 20.1987 201.731 20.1987C201.99 20.1987 202.262 20.295 202.262 20.295L201.622 21.9725Z" fill="white"/>
<path d="M173.266 30.5662C170.6 30.5662 169.077 28.5725 169.077 25.3412C169.077 22.1512 170.655 20.1987 173.212 20.1987C174.83 20.1987 175.891 20.9412 176.544 21.9175C177.142 22.8112 177.441 23.9662 177.441 25.5612C177.441 28.8337 175.701 30.5662 173.266 30.5662ZM175.252 22.715C174.844 21.8487 173.987 21.45 173.185 21.45C172.328 21.45 171.525 21.8625 171.199 22.5087C170.886 23.1137 170.736 23.9112 170.736 25.0662C170.736 26.4412 170.968 27.665 171.348 28.2837C171.702 28.875 172.477 29.2737 173.321 29.2737C174.341 29.2737 175.102 28.7375 175.429 27.7887C175.646 27.1837 175.728 26.6337 175.728 25.6575C175.701 24.2962 175.565 23.375 175.252 22.715Z" fill="white"/>
<path d="M128.63 30.8276C128.032 30.5663 127.474 30.1126 127.23 29.6038C127.039 29.7963 126.822 30.0026 126.631 30.1401C126.142 30.4976 125.434 30.6901 124.618 30.6901C122.402 30.6901 121.191 29.5488 121.191 27.5413C121.191 25.1763 122.81 24.0763 125.992 24.0763C126.182 24.0763 126.359 24.0763 126.577 24.0901V23.6776C126.577 22.5501 126.359 22.1788 125.407 22.1788C124.564 22.1788 123.598 22.5913 122.524 23.3201L121.409 21.4226C121.939 21.0926 122.32 20.8863 123.027 20.5976C124.006 20.1851 124.836 20.0063 125.761 20.0063C127.434 20.0063 128.59 20.6388 128.984 21.7663C129.12 22.1788 129.174 22.4951 129.161 23.5813L129.106 26.9776C129.093 28.0776 129.161 28.5588 130.045 29.2188L128.63 30.8276ZM126.4 25.8913C124.591 25.8913 123.966 26.2213 123.966 27.4313C123.966 28.2151 124.455 28.7513 125.122 28.7513C125.611 28.7513 126.101 28.4901 126.482 28.0638L126.522 25.8913H126.4Z" fill="white"/>
<path d="M88.238 26.0838V26.1663C88.238 27.7201 88.9996 28.6138 90.346 28.6138C91.2436 28.6138 92.0868 28.2838 92.8756 27.6101L93.8957 29.1913C92.7396 30.1401 91.5428 30.5938 90.1284 30.5938C87.2588 30.5938 85.4092 28.5451 85.4092 25.3688C85.4092 23.5538 85.7764 22.3576 86.6604 21.3676C87.4764 20.4463 88.4692 20.0063 89.802 20.0063C90.958 20.0063 92.046 20.4051 92.6852 21.0651C93.5965 22.0138 94.0181 23.3751 94.0181 25.4788V26.0838H88.238ZM91.298 24.0351C91.298 23.2926 91.2164 22.8938 90.9852 22.5226C90.7268 22.1238 90.3596 21.9313 89.8292 21.9313C88.8364 21.9313 88.2652 22.7151 88.2652 24.1176V24.1588H91.2844V24.0351H91.298Z" fill="white"/>
<path d="M78.1468 26.0838V26.1663C78.1468 27.7201 78.9084 28.6138 80.2548 28.6138C81.1524 28.6138 81.9956 28.2838 82.7844 27.6101L83.8044 29.1913C82.6484 30.1401 81.438 30.5938 80.0372 30.5938C77.1676 30.5938 75.318 28.5451 75.318 25.3688C75.318 23.5538 75.6852 22.3576 76.5692 21.3676C77.3852 20.4463 78.378 20.0063 79.7108 20.0063C80.8668 20.0063 81.9548 20.4051 82.594 21.0651C83.5052 22.0138 83.9268 23.3751 83.9268 25.4788V26.0838H78.1468ZM81.2068 24.0351C81.2068 23.2926 81.1252 22.8938 80.894 22.5226C80.6356 22.1238 80.2684 21.9313 79.738 21.9313C78.7452 21.9313 78.174 22.7151 78.174 24.1176V24.1588H81.1932V24.0351H81.2068Z" fill="white"/>
<path d="M137.375 30.3049V23.7462C137.375 22.6049 137.171 22.2612 136.491 22.2612C135.961 22.2612 135.281 22.6187 134.683 23.1687V30.3049H132.071V22.9899C132.071 22.1237 131.949 21.2987 131.718 20.6249L134.043 19.9512C134.275 20.3637 134.411 20.8037 134.411 21.2162C134.805 20.9412 135.131 20.7074 135.567 20.4737C136.097 20.1987 136.777 20.0337 137.362 20.0337C138.477 20.0337 139.443 20.6249 139.755 21.4912C139.891 21.8624 139.946 22.3024 139.946 22.9349V30.3049H137.375Z" fill="white"/>
<path d="M101.403 30.3049V23.7462C101.403 22.6049 101.212 22.2612 100.519 22.2612C99.9885 22.2612 99.3085 22.6187 98.7101 23.1687V30.3049H96.0988V22.9899C96.0988 22.1237 95.9764 21.2987 95.7452 20.6249L98.0709 19.9512C98.3021 20.3637 98.4381 20.8037 98.4381 21.2162C98.8325 20.9412 99.1589 20.7074 99.5941 20.4737C100.124 20.1987 100.804 20.0337 101.389 20.0337C102.504 20.0337 103.47 20.6249 103.783 21.4912C103.919 21.8624 103.973 22.3024 103.973 22.9349V30.3049H101.403Z" fill="white"/>
<path d="M71.6865 30.5799C71.3601 30.3462 71.0881 30.0162 70.9113 29.5899C70.2721 30.2224 69.3337 30.5524 68.2865 30.5524C66.8857 30.5524 65.6753 29.8787 65.3353 28.9162C65.1857 28.4624 65.1177 27.9262 65.1177 26.9087V20.4462L67.6881 19.9512V26.4412C67.6881 27.3487 67.7697 27.8162 67.9057 28.0912C68.0417 28.3662 68.4361 28.5587 68.8169 28.5587C69.4561 28.5587 70.2449 28.0912 70.4353 27.5962V20.5012L72.9377 19.9649V27.6649C72.9377 28.3387 73.1554 29.0262 73.5362 29.4937L71.6865 30.5799Z" fill="white"/>
<path d="M109.903 30.6213C108.679 30.6213 107.333 30.2225 105.864 29.4663L106.802 27.5413C107.605 28.0363 108.992 28.6825 110.121 28.6825C110.855 28.6825 111.44 28.1875 111.44 27.5413C111.44 26.8538 110.951 26.4963 109.903 26.3038L108.734 26.0838C108.067 25.96 107.251 25.4925 106.898 25.0525C106.544 24.6263 106.326 23.8838 106.326 23.2375C106.326 21.2713 107.863 19.9375 110.189 19.9375C111.794 19.9375 112.841 20.4325 113.752 20.8862L112.895 22.66C111.903 22.1513 111.182 21.9313 110.434 21.9313C109.672 21.9313 109.169 22.33 109.169 22.9213C109.169 23.43 109.495 23.705 110.42 23.9388L111.631 24.255C112.855 24.5713 113.263 24.9425 113.616 25.3963C113.983 25.8638 114.16 26.4413 114.16 27.115C114.174 29.205 112.46 30.6213 109.903 30.6213Z" fill="white"/>
<path d="M251.589 21.6564H249.563V27.9814C249.563 29.0676 249.848 29.4389 250.814 29.4389C251.236 29.4389 251.494 29.3839 251.766 29.2464L251.984 30.2364C251.494 30.4976 250.95 30.6351 250.27 30.6351C249.767 30.6351 249.372 30.5389 249.005 30.3601C248.325 30.0301 248.067 29.3976 248.067 28.4076V21.6701H246.802V20.4876H248.067C248.067 19.5389 248.216 17.9989 248.216 17.9989L249.821 17.6414C249.821 17.6414 249.631 19.1814 249.631 20.4739H252.065L251.589 21.6564Z" fill="white"/>
<path d="M163.175 30.525C161.502 30.525 160.074 29.9337 159.054 28.8337C157.925 27.5962 157.395 25.9187 157.395 23.595C157.395 21.01 158.075 19.1812 159.462 17.9162C160.414 17.05 161.57 16.6375 162.957 16.6375C164.385 16.6375 165.609 17.0912 166.616 17.9712L165.895 18.975C164.807 18.2325 164.018 17.93 162.984 17.93C161.42 17.93 160.196 18.6587 159.652 20.2125C159.299 21.2162 159.122 22.3575 159.122 23.65C159.122 25.4237 159.448 26.8537 160.06 27.7475C160.672 28.6412 162.032 29.1912 163.297 29.1912C164.14 29.1912 164.861 29.0125 165.419 28.655V24.53H162.726L162.413 23.1962H166.915V29.5074C165.977 30.1262 164.535 30.525 163.175 30.525Z" fill="white"/>
<path d="M63.5404 32.6287C63.5404 32.6287 63.146 32.8624 62.33 32.8624C61.2828 32.8624 60.3444 32.2299 59.8412 31.8999C59.202 31.4737 58.1411 30.8549 57.0939 30.5249C55.0675 30.5249 53.7347 29.9612 52.7011 28.5999C51.6675 27.2524 51.1371 25.5199 51.1371 23.5124C51.1371 20.5562 52.2523 18.1774 54.1971 17.1049C54.9995 16.6787 55.9923 16.4312 56.9987 16.4312C60.6028 16.4312 62.8332 19.0987 62.8332 23.3887C62.8332 26.3587 61.786 28.5862 60.1676 29.6724C60.5348 29.8099 61.0652 30.1674 61.378 30.3599C61.8676 30.6487 62.4524 30.9237 63.0508 30.9237C63.6356 30.9237 64.2612 30.8274 64.2612 30.8274L63.5404 32.6287ZM59.3516 20.2949C59.134 19.6074 58.4131 18.5624 56.9715 18.5624C56.0603 18.5624 55.2579 19.0299 54.8635 19.7587C54.4011 20.6387 54.1835 21.8487 54.1835 23.4987C54.1835 25.8637 54.5779 27.3487 55.3939 27.9399C55.8291 28.2562 56.3731 28.4074 57.0123 28.4074C58.9028 28.4074 59.7052 26.9499 59.7052 23.4574C59.7052 22.0687 59.5828 21.0649 59.3516 20.2949Z" fill="white"/>
<path d="M148.922 30.305C148.84 30.1537 148.799 29.9887 148.772 29.7137C148.133 30.2912 147.371 30.5662 146.474 30.5662C143.944 30.5662 142.339 28.5725 142.339 25.4375C142.339 22.2887 144.066 20.1162 146.61 20.1162C147.33 20.1162 147.902 20.295 148.378 20.6937C148.337 20.4737 148.296 19.7862 148.296 19.195V15.73L150.894 16.1425V26.6337C150.894 29.1225 151.084 29.92 151.261 30.3187H148.922V30.305ZM148.337 22.88C147.847 22.44 147.385 22.2337 146.909 22.2337C145.739 22.2337 145.236 23.2237 145.236 25.465C145.236 27.6375 145.685 28.3387 147.045 28.3387C147.534 28.3387 148.078 27.995 148.337 27.6925V22.88Z" fill="white"/>
<path d="M118.811 30.5386C117.696 30.5386 116.798 30.0024 116.485 29.1636C116.295 28.6549 116.254 28.3386 116.254 26.8949V19.3599C116.254 18.0399 116.213 17.2286 116.118 16.3211L118.784 15.7024C118.879 16.2524 118.92 16.8986 118.92 18.3286V26.1936C118.92 27.9261 118.933 28.1599 119.097 28.4349C119.192 28.6136 119.409 28.7099 119.627 28.7099C119.722 28.7099 119.79 28.7099 119.913 28.6686L120.361 30.2499C119.913 30.4424 119.369 30.5386 118.811 30.5386Z" fill="white"/>
<path d="M24.7663 16.1975C24.6711 16.1975 24.5759 16.2387 24.5215 16.3212C24.4127 16.3075 24.3039 16.28 24.1815 16.2662V15.6475C24.2903 15.6062 24.3719 15.4962 24.3719 15.3587C24.3719 15.1937 24.2359 15.0425 24.0727 15.0425C23.9095 15.0425 23.7735 15.18 23.7735 15.3587C23.7735 15.4687 23.8415 15.5787 23.9367 15.6337V16.225C23.8279 16.2112 23.7327 16.1975 23.6103 16.1975C23.5695 16.0875 23.4607 16.0187 23.3383 16.0187C23.1751 16.0187 23.0391 16.1562 23.0391 16.3212C23.0391 16.4862 23.1751 16.6237 23.3383 16.6237C23.4471 16.6237 23.5423 16.5687 23.5967 16.4862C23.7191 16.5 23.8279 16.5137 23.9367 16.5275L23.9231 17.4212C23.8279 17.4762 23.7599 17.5725 23.7599 17.6962C23.7599 17.8612 23.8959 18.0125 24.0591 18.0125C24.2223 18.0125 24.3719 17.875 24.3719 17.6962C24.3719 17.5725 24.2903 17.4625 24.1951 17.4212L24.2087 16.555C24.3039 16.5687 24.3991 16.5825 24.4943 16.5962C24.5351 16.72 24.6439 16.8025 24.7799 16.8025C24.9431 16.8025 25.0791 16.665 25.0791 16.5C25.0655 16.335 24.9295 16.1975 24.7663 16.1975Z" fill="white"/>
<path d="M22.1143 16.0187C21.9919 16.0187 21.8831 16.0875 21.8287 16.1975C21.7199 16.2112 21.6111 16.2112 21.5023 16.225V15.6337C21.5975 15.5787 21.6655 15.4825 21.6655 15.3587C21.6655 15.1937 21.5295 15.0425 21.3663 15.0425C21.1895 15.0425 21.0535 15.18 21.0535 15.3587C21.0535 15.4825 21.1351 15.5925 21.2303 15.6475L21.2439 16.2662C21.1351 16.28 21.0127 16.2937 20.9039 16.3212C20.8495 16.2525 20.7679 16.1975 20.6591 16.1975C20.4959 16.1975 20.3599 16.335 20.3599 16.5137C20.3599 16.6787 20.4959 16.8162 20.6591 16.8162C20.7951 16.8162 20.9039 16.7337 20.9447 16.61C21.0399 16.5962 21.1351 16.5825 21.2303 16.5687L21.2439 17.435C21.1351 17.4762 21.0671 17.5862 21.0671 17.71C21.0671 17.875 21.2031 18.0262 21.3663 18.0262C21.5295 18.0262 21.6791 17.8887 21.6791 17.71C21.6791 17.5862 21.6111 17.49 21.5159 17.435V16.5412C21.6247 16.5275 21.7335 16.5137 21.8559 16.5C21.9103 16.5825 22.0055 16.6375 22.1143 16.6375C22.2775 16.6375 22.4271 16.5 22.4271 16.335C22.4271 16.1562 22.2775 16.0187 22.1143 16.0187Z" fill="white"/>
<path d="M32.4369 9.65261C32.4369 7.72761 32.3689 6.14636 32.3417 5.65136C32.4097 5.66511 32.4913 5.69261 32.5729 5.72011C33.933 6.20136 34.2458 7.86511 37.0746 5.98136C35.565 6.16011 35.4834 4.86761 34.7898 4.84011C35.837 4.23511 35.905 2.86011 35.905 2.86011C35.0346 3.57511 32.9945 3.61636 32.6001 3.85011C32.0697 4.16636 31.4169 4.56511 30.9681 4.81261C29.7985 5.45886 30.6145 8.97886 30.4921 10.2576C29.8529 8.34636 28.5745 8.63511 27.9081 7.53511C27.4049 8.45636 27.9353 9.98261 28.1393 10.4226C27.4049 11.0276 27.6089 12.1276 27.7857 12.4301C28.4113 11.9764 29.3769 12.0864 29.6625 12.8564C28.8465 13.3651 27.4729 13.4476 26.5345 12.5401L26.2081 12.9114C26.8745 13.7914 28.5201 14.1351 29.7577 13.4201C29.7577 13.6264 29.7033 13.8464 29.6217 14.0939C28.9825 14.4376 28.1529 14.6164 27.2145 14.2864C27.3369 15.2489 28.4385 15.9639 29.4857 16.2664C29.1321 16.5414 28.6969 16.6514 28.3841 16.6101C28.5881 17.1739 28.6969 17.9164 28.2753 18.5076C27.7585 18.1639 27.4729 17.8064 27.2825 16.4589C27.0785 15.0976 26.1129 13.7226 25.3649 13.4476C25.3241 13.9289 25.3241 13.7226 25.4057 14.0251C27.3913 15.4964 26.2761 18.1639 28.3433 19.1264C29.1049 18.2464 29.1185 17.9439 28.9961 17.1189C29.7441 16.9126 30.3017 16.2801 30.5057 15.7851C29.7985 16.1289 28.6697 15.5239 28.3569 15.0564C29.5945 15.0151 30.7369 14.0801 31.9065 12.8426C32.9537 11.7426 34.341 11.9076 34.2322 12.7739C34.953 12.6639 35.2386 11.6739 35.0074 11.0276C36.0682 10.6839 36.8978 9.90011 37.0066 8.66261C35.5786 9.37761 33.7833 8.19511 32.4369 9.65261ZM34.137 10.6839C34.6946 11.1514 34.5178 11.8114 34.3818 11.9626C33.8921 11.1101 32.3145 11.3989 30.7641 13.1726C30.6553 13.3101 30.5057 13.4614 30.3425 13.6126C30.4649 11.4951 28.7513 11.4539 28.2481 11.6739C28.3025 11.0689 28.6833 10.6426 28.8737 10.5876C28.3705 9.99636 28.2617 9.25386 28.2073 8.70386C29.0505 9.07511 30.2881 10.0651 30.4921 11.7701L31.0361 11.3989C30.8729 8.41511 30.9137 8.42886 30.8865 6.40761C30.8865 6.11886 30.9001 5.45886 31.7841 5.52761C31.8249 6.28386 31.9337 8.27761 31.8929 11.0551H32.2057C32.4913 10.2851 33.5113 9.36386 34.6946 9.44636C35.497 9.50136 35.7826 9.48761 36.245 9.28136C35.8778 10.2164 34.5042 10.6289 34.137 10.6839ZM31.8249 5.00511C32.3961 4.59261 32.7633 4.40011 33.0625 4.22136C33.5521 4.23511 34.409 4.18011 34.9122 3.91886C34.3818 4.57886 34.3274 4.81261 33.4569 4.90886C34.5858 5.00511 35.0618 6.02261 35.6058 6.18761C33.7289 6.77886 33.5385 4.89511 31.8249 5.00511Z" fill="white"/>
<path d="M20.0063 14.3824C18.9591 14.4374 17.9391 15.8124 18.3607 17.3799C18.1975 17.4349 17.7487 17.4349 17.5991 17.1187C17.4903 17.6274 16.4567 18.2187 15.7087 18.1362C16.1167 17.6824 16.4023 16.6649 17.2047 16.1287C18.0207 15.5924 18.3743 15.2212 18.6599 14.2999C18.2791 14.4787 16.3343 14.9874 15.7766 14.3824C17.0687 14.1899 18.5783 13.4612 19.3263 12.9799L19.0271 12.6637C18.2247 13.1312 17.1503 13.5024 16.6063 13.6812C16.4159 12.0587 17.9391 12.1274 18.0615 12.5674C18.6871 11.8112 18.2519 10.7249 17.7895 10.6012C18.2655 9.30867 17.7895 8.51117 17.3815 8.02992C17.2863 9.40492 15.7631 9.62492 15.5862 10.6837C15.5318 9.84492 15.4774 7.57617 15.4094 6.47617C15.3142 4.41367 12.7438 3.68492 12.3494 3.68492C10.6766 3.76742 10.527 3.54742 10.5678 2.76367C9.711 3.73992 9.9966 4.60617 10.7174 5.03242C10.6222 5.62367 9.6974 6.07742 9.12619 6.20117C10.4862 7.47992 12.0638 6.72367 12.8254 5.99492C12.8798 5.93992 12.9206 5.89867 12.975 5.84367C13.247 6.32492 13.451 7.21867 13.451 7.72742C12.1726 7.65867 11.955 8.64867 11.955 9.01992C13.5734 8.34617 13.7502 11.4812 14.1718 11.9762C13.7638 11.9487 13.0294 10.9724 11.955 10.9037C10.6494 10.8349 10.2006 11.5362 9.67019 11.5087C9.7654 12.4299 10.8806 12.9524 11.6014 13.0624C11.2342 14.0112 11.5606 14.6574 12.3222 14.8912C12.3222 14.0249 13.4102 13.7499 14.5662 14.4374C15.9671 15.2624 16.6743 15.3312 17.8031 14.9874C17.6127 15.3999 17.1095 15.4412 16.4975 16.0599C15.627 16.9262 15.5998 18.0537 14.6342 18.4662C15.7767 19.0162 17.4903 18.2462 17.7351 17.8062C18.2111 18.1087 18.8231 17.9299 18.9863 17.6274C18.2111 15.8949 19.5167 14.8774 20.0335 14.8912C20.0335 14.8774 20.2647 14.3687 20.0063 14.3824ZM14.0902 13.6812C13.519 13.4474 12.635 13.2962 12.1454 13.9974C11.8734 13.5162 12.2678 12.8149 12.5126 12.5949C11.2614 12.6224 10.5542 12.2374 10.3638 11.8524C10.8262 11.5912 11.9958 11.1649 12.9614 11.8799C13.6278 12.3749 13.9542 12.6087 14.743 12.8699C15.0286 12.5812 14.9198 12.7187 15.015 12.6362C14.3758 12.1824 14.0902 8.73117 12.8254 8.60742C13.0022 8.16742 13.655 8.20867 14.1854 8.34617C14.2262 7.57617 13.9134 6.29742 13.4374 5.55492C14.1718 5.16992 14.675 5.58242 14.9198 6.50367C15.1918 7.47992 14.8654 9.91367 15.5046 12.1137L15.8991 11.7424C15.695 10.4637 17.0959 9.99617 17.3951 9.34992C17.5175 10.2024 17.3407 10.6012 17.0959 10.9037C17.5991 10.9587 17.8303 11.4674 17.7487 11.8112C16.5383 11.6324 15.8311 12.8562 16.1031 13.8324C15.1918 14.0387 14.5798 13.8874 14.0902 13.6812ZM10.6494 4.06992C11.6014 4.53742 11.9142 3.67117 13.6958 4.83992C12.5126 5.21117 11.6014 6.69617 10.2686 6.31117C11.2206 5.82992 11.1254 5.12867 11.683 4.77117C11.3294 4.72992 10.6358 4.56492 10.6494 4.06992Z" fill="white"/>
<path d="M26.1672 18.6724C25.9768 17.4349 25.5416 13.9424 25.4872 12.7874L24.9568 12.8149C24.9568 13.0074 24.984 13.2687 25.0112 13.5849C24.3856 13.3924 23.556 13.2687 22.7128 13.2687C21.8696 13.2687 21.0399 13.4062 20.4143 13.5849C20.4415 13.2824 20.4687 13.0212 20.4687 12.8149L19.9519 12.7737C19.8975 13.9424 19.4623 17.4212 19.2719 18.6587C18.9591 18.7824 18.7551 19.0987 18.7551 19.6624C18.7551 19.6624 21.6112 19.7037 22.7264 19.7037C23.8416 19.7037 26.6976 19.6624 26.6976 19.6624C26.684 19.0987 26.48 18.7962 26.1672 18.6724ZM22.7128 18.6312C22.264 19.5112 21.4208 19.4837 20.6727 18.9887C20.3735 18.7962 20.0743 18.6587 19.7887 18.6174C19.9111 17.7512 20.1287 16.1287 20.2783 14.7537C21.2303 14.3137 22.4136 14.2174 22.6992 15.3312C22.9848 14.2174 24.168 14.3274 25.12 14.7537C25.2696 16.1287 25.4872 17.7649 25.6096 18.6174C25.3376 18.6587 25.0248 18.7962 24.7256 18.9887C24.0184 19.4837 23.1752 19.5112 22.7128 18.6312Z" fill="white"/>
<path d="M28.6425 5.115C28.6561 4.84 28.1529 4.63375 28.0169 4.62C27.7993 4.60625 27.5409 5.06 27.2553 5.335C27.0105 4.015 27.1329 3.4375 27.2689 2.84625C27.8265 3.86375 28.5745 4.08375 28.9689 4.02875C27.6361 2.95625 27.8673 1.98 27.4593 1.925C27.2281 1.8975 27.0649 1.91125 26.9425 1.91125C26.4801 1.91125 26.4121 2.8325 26.3441 3.245C26.0449 2.68125 25.7457 2.2 25.2289 1.54C24.7393 0.26125 24.1409 0.5775 23.5289 0C24.0049 0.72875 23.6241 1.1825 24.7257 1.705C25.0113 1.98 25.3513 2.42 25.5689 2.76375C25.3785 3.01125 25.2561 3.14875 25.0793 3.3275C24.9433 3.53375 24.8753 4.33125 24.4537 4.9225C25.0793 4.6475 25.3377 4.24875 25.5553 3.8775C27.5545 5.40375 25.9361 9.28125 25.4737 10.1337C25.0385 9.83125 24.4673 9.66625 23.9641 9.57L23.9097 9.39125L23.4473 7.865H23.6649C23.9097 7.865 23.9777 7.7 23.9369 7.5625L25.3105 7.98875L25.9225 8.18125L25.5553 7.65875L24.9161 6.765L25.5553 5.87125L25.9225 5.34875L25.3105 5.54125L24.0729 5.92625C23.9913 5.6375 23.7601 5.5 23.5017 5.4725L23.9233 4.05625L24.1001 3.45125L23.5969 3.8225L22.7129 4.46875L21.8288 3.8225L21.3256 3.45125L21.5024 4.05625L21.924 5.4725C21.6792 5.51375 21.4344 5.65125 21.3528 5.92625L20.1152 5.54125L19.5032 5.34875L19.8704 5.87125L20.5096 6.765L19.8704 7.65875L19.5032 8.18125L20.1152 7.98875L21.5024 7.5625C21.4616 7.7 21.516 7.865 21.7608 7.865H21.9784L21.516 9.39125L21.448 9.58375C20.9176 9.68 20.3464 9.85875 19.9112 10.1612C18.5648 7.535 18.9456 4.8675 20.0744 3.9875C20.0608 4.55125 20.5368 5.3075 20.768 5.45875C20.6184 4.88125 20.8768 3.85 20.5776 3.58875C20.3736 3.41 20.0608 3.3275 19.7208 3.3275C19.952 2.9425 20.2648 2.46125 20.7952 1.76C21.584 1.4025 21.8152 0.4675 22.0056 0C21.1488 0.31625 20.5096 0.77 20.3736 1.49875C20.0744 1.91125 19.7344 2.3925 19.3536 2.95625C19.3808 2.26875 19 2.035 18.5104 1.99375C17.0688 2.29625 17.164 3.355 15.9264 4.08375C16.7696 4.38625 18.1024 2.5025 18.5648 2.70875C18.6328 3.86375 18.3744 4.77125 18.3744 5.40375C18.1568 5.15625 18.048 4.99125 17.8576 4.96375C17.6808 4.93625 17.1912 4.9775 16.8648 5.34875C16.7696 5.94 16.7968 7.04 16.2528 8.34625C17.0552 7.60375 17.4496 6.1325 17.572 5.70625C17.776 5.995 18.0072 6.6275 18.0616 7.1775C18.1568 8.2225 18.796 9.9825 19.34 10.8212C19.1904 11.11 19.1496 11.44 19.204 11.8112C18.7824 12.1275 18.728 12.5675 18.8776 12.87C19.0408 13.1862 19.4488 13.4062 19.9384 13.2137L20.088 13.145C20.6048 12.925 21.5568 12.5262 22.7129 12.5262C23.8689 12.5262 24.8345 12.925 25.3377 13.145L25.4873 13.2137C25.9769 13.4062 26.3849 13.1862 26.5481 12.87C26.6977 12.5675 26.6433 12.1275 26.2217 11.8112C26.2761 11.4262 26.2217 11.0687 26.0449 10.7525L26.0585 10.7662C27.0513 9.33625 27.1193 6.61375 27.9353 5.84375C28.0033 6.7925 28.5065 7.59 28.9961 7.7C28.6153 7.02625 28.6153 5.72 28.6425 5.115ZM24.1137 6.39375L24.8481 6.16L24.4945 6.655L24.3993 6.77875L24.4945 6.9025L24.8481 7.3975L23.9233 7.10875C23.9913 6.91625 24.0593 6.71 24.1137 6.39375ZM20.6048 7.41125L20.9584 6.91625L21.0536 6.7925L20.9584 6.66875L20.6048 6.17375L21.3392 6.4075C21.38 6.72375 21.448 6.94375 21.5296 7.13625L20.6048 7.41125ZM23.5017 7.16375H22.9305L22.9985 6.1325C23.8553 5.73375 23.7873 6.545 23.5017 7.16375ZM23.3385 8.92375L22.8489 8.56625L22.7265 8.47L22.6041 8.56625L22.1144 8.92375L22.4273 7.87875H23.0257L23.3385 8.92375ZM22.5905 4.9225L22.7129 5.01875L22.8353 4.9225L23.3385 4.55125L23.0529 5.5275C23.0393 5.5275 23.0257 5.5275 23.0257 5.54125C22.9713 5.4175 22.8489 5.335 22.7129 5.335C22.5769 5.335 22.4545 5.4175 22.4 5.54125C22.3864 5.54125 22.3864 5.54125 22.3728 5.5275L22.0872 4.55125L22.5905 4.9225ZM21.9376 7.16375C21.652 6.545 21.584 5.73375 22.4408 6.1325L22.5089 7.16375H21.9376ZM22.7129 9.00625L23.4065 9.515C23.1073 9.4875 22.8625 9.4875 22.7129 9.4875C22.5633 9.4875 22.3184 9.4875 22.0192 9.515L22.7129 9.00625ZM19.884 12.6362L19.7344 12.6912C19.5304 12.7737 19.3944 12.705 19.34 12.6087C19.2856 12.4987 19.3264 12.32 19.5712 12.1687C19.5984 12.155 19.6392 12.1275 19.68 12.1137L20.1696 12.5125C20.0608 12.5675 19.9656 12.6087 19.884 12.6362ZM21.5432 12.1L21.04 11.605C21.4616 11.495 21.8968 11.4262 22.3184 11.3987L22.6177 11.99C22.2368 11.99 21.8696 12.045 21.5432 12.1ZM24.3449 12.21L24.0457 11.5225C24.4945 11.605 24.9297 11.7425 25.3105 11.9075L25.4873 12.6225C25.2017 12.4987 24.8209 12.3337 24.3449 12.21ZM22.7129 10.8487C21.7608 10.8487 20.6728 11.0825 19.8432 11.44C19.8568 11.2475 19.9248 11.0962 20.0336 10.945C20.5096 10.3537 21.7744 10.1475 22.6993 10.1475C23.6241 10.1475 24.8889 10.3537 25.3649 10.945C25.4873 11.0825 25.5417 11.2475 25.5553 11.44C24.7529 11.0687 23.6921 10.8487 22.7129 10.8487Z" fill="white"/>
<path d="M15.9127 26.1801C16.0351 25.0664 15.8583 24.9701 15.5455 24.7089C15.2735 24.4751 14.8111 24.4064 14.3623 24.0901C14.0359 23.8564 13.9407 23.5401 13.5327 23.1001C13.6143 22.1651 14.2807 21.0101 14.7703 20.7489C14.8383 20.7076 14.8247 19.2501 14.8247 19.2501C14.8247 19.2501 15.1511 19.2364 15.1239 19.2226C14.6887 18.9476 14.1583 19.1539 13.7775 19.6076C13.4103 19.9101 12.5534 20.4876 11.9686 20.6939C11.1798 20.0201 9.94223 19.4151 9.03102 18.5076C9.03102 18.5076 10.2278 18.4939 10.7854 18.2739C10.935 18.1776 11.3158 17.5726 11.1526 16.9814C10.9622 16.9126 10.7038 16.7751 10.4318 16.6239C10.1054 16.4314 9.79262 16.2389 9.64302 16.1151C9.12622 15.7164 8.90862 15.3726 8.01101 15.1389C8.06541 14.7264 8.16061 14.8226 8.55501 14.5476C9.05822 14.2039 9.34382 13.7914 9.54782 13.3789C9.69742 13.0626 9.52062 12.4026 9.12622 13.2414C8.99022 13.5301 8.59581 13.9289 8.14701 14.0526C8.18781 13.7914 8.20141 13.6401 8.20141 13.5026C9.52062 12.5676 9.38462 11.7426 9.28942 10.9589C9.20782 10.5051 8.77262 10.3126 8.78622 10.7801C8.79982 11.0964 9.07182 11.9764 8.17421 12.4851C8.14701 12.1001 8.05181 11.9214 7.97021 11.7289C8.77262 10.6564 8.43261 9.62512 8.09261 9.15762C7.87501 8.85512 7.3582 8.75887 7.5894 9.22637C7.79341 9.61137 8.10621 10.6701 7.5078 11.0964C7.3038 10.8489 7.0726 10.7389 6.991 10.3951C7.0454 9.24012 6.9774 8.52512 6.8278 8.11262C6.6918 7.72762 6.32459 7.48012 6.35179 8.05762C6.37899 8.70387 6.43339 9.51512 6.37899 9.55637C6.32459 9.61137 5.48139 8.81387 5.14138 8.58012C4.78778 8.33262 4.37978 8.42887 4.77418 8.91012C5.14138 9.32262 6.21579 10.1339 6.07979 10.3951C5.99819 10.5601 5.22298 9.91387 4.81498 9.77637C4.40698 9.63887 4.28457 9.85887 4.62458 10.1339C5.18218 10.5876 5.54939 10.8901 6.46059 11.2064C7.3718 11.5089 7.82061 12.7876 7.535 14.6026C7.5214 14.6851 7.3718 14.6714 7.2766 14.6439C7.2358 13.9564 7.1134 13.1176 6.9502 12.7601C6.7326 12.2651 6.31099 12.2651 6.46059 12.9114C6.583 13.4201 6.651 13.9839 6.5694 14.6714C5.82139 14.5476 5.53579 14.3414 5.22298 14.1489C5.19578 13.7914 5.37258 13.2139 5.39978 12.7051C5.42698 12.1964 5.12778 11.8801 4.96458 12.5126C4.80138 13.1314 4.69258 13.4201 4.59738 13.8601C4.37978 13.7914 4.14857 13.6951 4.05337 13.5714C3.99897 13.5164 4.05337 12.8289 3.99897 12.3201C3.94457 11.7564 3.72697 11.7701 3.56377 12.2651C3.48217 12.4989 3.42777 12.8014 3.40057 13.1589C3.14216 13.0076 2.96536 12.7051 2.93816 12.4439C2.97896 11.8526 3.07416 11.2339 3.14216 10.8351C3.19656 10.5601 3.00616 9.98262 2.78856 10.6701C2.62536 11.1789 2.58456 11.5914 2.48936 11.9351C2.29896 11.9214 2.05415 10.8076 1.91815 10.0789C1.86375 9.76262 1.59175 9.39137 1.53735 10.1064C1.48295 10.9176 1.64615 11.7289 1.85015 12.0864C1.46935 12.0451 1.10215 11.3439 0.830143 10.9314C0.598941 10.5739 0.47654 10.9451 0.50374 11.0964C0.734942 12.5264 1.86375 13.0351 2.36696 13.1314C3.15576 14.2726 4.66538 14.7676 5.94379 15.3314C4.28457 15.3176 3.84937 15.9914 3.08776 15.5514C3.11496 16.1839 3.42777 16.4726 3.72697 16.6239C3.94457 16.7201 4.14857 16.7476 4.24377 16.7751C4.37978 17.5451 5.10058 17.5039 5.71259 17.5451C5.54939 19.0439 5.73979 21.0239 7.0318 22.4951C6.991 23.2514 6.9366 24.2551 6.9502 24.9151C5.90299 25.8914 4.95098 27.9814 4.58378 29.1364C4.29817 30.0026 3.87657 30.6764 3.22376 30.9926C3.75417 31.5564 4.54298 31.2814 5.00538 30.9651C5.03258 31.4739 5.15498 31.8314 5.23658 32.1339C4.93738 32.5876 4.71978 32.9039 4.74698 33.4676C4.40698 33.5639 4.16217 33.7839 3.98537 34.0176C3.86297 34.1689 3.99897 34.8564 4.13497 35.1451C4.55658 36.1076 4.23017 38.2801 4.14857 38.9126C4.32537 38.9264 4.65178 38.9264 4.71978 38.6651C4.82858 38.7614 5.08698 38.9539 5.20938 39.3664C5.18218 39.5451 5.07338 40.2189 5.41338 40.3014C5.68539 40.3701 6.8822 40.3289 7.0454 40.1226C6.923 39.9851 6.719 39.6551 6.5966 39.3389C6.5966 39.0089 6.5694 38.6101 6.47419 38.4451C6.33819 38.1976 5.99819 37.6476 5.76699 37.4276C5.72619 37.0289 5.68539 35.2551 5.86219 34.5814C6.17499 34.3614 8.26941 32.7939 8.70461 31.2814C9.08542 31.4189 8.97662 32.4639 8.97662 33.8251C8.97662 34.1964 9.41182 34.3751 9.68382 34.4164C10.255 34.4851 11.0574 35.0351 11.9686 36.3964C12.1454 36.2039 12.3766 36.0251 12.3766 36.0251C12.499 36.1901 12.635 36.5751 12.7167 36.8226C12.8119 37.0151 13.5463 37.1251 14.1039 36.9464C14.2943 36.8776 14.4031 36.8501 14.5255 36.6439C13.8183 35.3926 13.3831 34.5539 12.4718 33.8664C12.0502 33.5501 11.479 33.3851 11.003 33.0826C11.3158 32.4776 12.1862 29.6726 11.6694 28.6414C11.4926 28.2976 10.8262 27.9676 10.0238 28.1189C10.6902 27.3076 12.0638 25.6851 12.2406 25.1901C12.4038 25.3826 13.2063 25.2451 13.8047 25.4926C14.0223 25.5889 14.6343 26.3864 14.6615 26.6614C14.7159 27.1564 14.7431 27.7476 14.4031 29.1089C14.6479 29.0676 14.6071 29.0539 14.8383 28.9576C14.8791 29.3151 14.7703 29.6039 14.4575 30.1539C14.5391 30.6489 14.7567 31.4051 14.9879 31.5426C15.2871 30.6214 16.4159 29.3289 16.3887 28.5589C16.3343 27.5139 15.8583 26.6339 15.9127 26.1801Z" fill="white"/>
</svg>
