<svg width="98" height="98" viewBox="0 0 98 98" fill="none" xmlns="http://www.w3.org/2000/svg">
<path d="M48.8745 97.1772C75.6323 97.1772 97.312 75.4976 97.312 48.7397C97.312 21.9819 75.6323 0.302246 48.8745 0.302246C22.1167 0.302246 0.437012 21.9819 0.437012 48.7397C0.437012 75.4976 22.1167 97.1772 48.8745 97.1772ZM6.68701 48.7397C6.68701 25.6929 25.437 6.55225 48.8745 6.55225C71.9214 6.55225 91.062 25.4976 91.062 48.7397C91.062 71.9819 72.1167 90.9272 48.8745 90.9272C25.6323 90.9272 6.68701 72.1772 6.68701 48.7397ZM71.3354 45.2241L36.9604 24.3257C33.8354 22.7632 30.1245 24.9116 30.1245 28.4272V69.0522C30.1245 72.7632 33.8354 74.9116 36.9604 73.1538L71.3354 53.4272C74.6558 51.6694 74.6558 47.1772 71.3354 45.2241ZM36.3745 64.3647V33.3101C36.3745 32.5288 37.3511 31.9429 38.1323 32.3335L64.3042 48.3491C65.0854 48.7397 65.0854 49.9116 64.3042 50.3022L38.1323 65.3413C37.3511 65.9272 36.3745 65.3413 36.3745 64.3647Z" fill="#008733"/>
</svg>
