<svg xmlns="http://www.w3.org/2000/svg" xmlns:xlink="http://www.w3.org/1999/xlink" width="115px" height="115px" viewBox="0 0 115 115" version="1.1">
  <title>Group</title>
  <defs>
    <linearGradient x1="-0.000859689684%" y1="50.0009229%" x2="100.000946%" y2="50.0009229%" id="linearGradient-1">
      <stop stop-color="#E41E2F" offset="0%"/>
      <stop stop-color="#E41F2F" offset="0.5669117%"/>
      <stop stop-color="#E84629" offset="22.2%"/>
      <stop stop-color="#EA5F25" offset="39.43%"/>
      <stop stop-color="#EB6824" offset="50%"/>
      <stop stop-color="#F9B916" offset="100%"/>
    </linearGradient>
    <linearGradient x1="-0.00352738341%" y1="50.0058095%" x2="99.982003%" y2="50.0058095%" id="linearGradient-2">
      <stop stop-color="#95C13D" offset="0%"/>
      <stop stop-color="#8CBF3E" offset="12.63%"/>
      <stop stop-color="#73B941" offset="33.23%"/>
      <stop stop-color="#4CB045" offset="59.23%"/>
      <stop stop-color="#15A34A" offset="89.35%"/>
      <stop stop-color="#009E4C" offset="100%"/>
    </linearGradient>
    <linearGradient x1="0.000524176354%" y1="50.0018856%" x2="99.9972147%" y2="50.0018856%" id="linearGradient-3">
      <stop stop-color="#21A6DF" offset="0%"/>
      <stop stop-color="#168FCF" offset="21.59%"/>
      <stop stop-color="#0B7BC0" offset="48.25%"/>
      <stop stop-color="#056EB7" offset="74.58%"/>
      <stop stop-color="#036AB4" offset="100%"/>
    </linearGradient>
  </defs>
  <g id="Page-1" stroke="none" stroke-width="1" fill="none" fill-rule="evenodd">
    <g transform="translate(-115, 70) scale(1.11, 1.11)">
          <path d="M120.472033,21.3689977 L120.472033,22.5542754 C120.472033,23.0364223 120.076425,23.43203 119.595824,23.43203 L115.706196,23.43203 L115.706196,35.5135186 C115.706196,35.9972108 115.310589,36.3912732 114.829987,36.3912732 L113.086841,36.3912732 C112.604694,36.3912732 112.210631,35.9972108 112.210631,35.5135186 L112.210631,23.43203 L108.321004,23.43203 C107.838857,23.43203 107.44325,23.0364223 107.44325,22.5542754 L107.44325,21.3689977 C107.44325,20.8868508 107.837312,20.4912431 108.321004,20.4912431 L119.594278,20.4912431 C120.076425,20.4912431 120.472033,20.8868508 120.472033,21.3689977 Z M189.559665,31.203558 C189.559665,30.6843229 189.610662,30.2006307 189.715745,29.7571174 C189.820828,29.3105133 189.993907,28.9226324 190.239616,28.5888383 C190.48378,28.2565897 190.806757,27.9892454 191.208546,27.7976229 L191.211637,27.7976229 C191.610335,27.6060004 192.100209,27.5070985 192.681257,27.5070985 C192.702892,27.5070985 192.724527,27.5101892 192.746162,27.5117345 L192.937784,27.5117345 C193.419931,27.5117345 193.813994,27.1176722 193.813994,26.6355253 L193.813994,25.4487022 C193.813994,25.3436189 193.793904,25.2416262 193.759907,25.1489057 C193.64246,24.8305651 193.3473,24.5987637 192.994962,24.5740382 C192.994962,24.5740382 192.981054,24.5740382 192.954783,24.5740382 C192.718346,24.5833103 192.48809,24.6126718 192.26247,24.6652135 C192.103299,24.708483 191.965764,24.7502073 191.965764,24.7502073 C191.594882,24.870744 191.245634,25.0360957 190.919567,25.2508983 C190.5935,25.4672463 190.302975,25.7253185 190.051084,26.029751 C189.797648,26.3357288 189.596754,26.6648868 189.449946,27.0203156 L189.449946,27.0187703 L189.408222,27.0187703 L189.405131,25.7608614 C189.405131,25.2787145 189.014159,24.8831068 188.530467,24.8831068 L187.277194,24.8831068 C186.796593,24.8831068 186.400985,25.2787145 186.400985,25.7608614 L186.400985,35.5150639 C186.400985,35.9987562 186.796593,36.3928185 187.277194,36.3928185 L188.685001,36.3928185 C189.168694,36.3928185 189.561211,35.9987562 189.561211,35.5150639 L189.561211,31.203558 L189.559665,31.203558 Z M121.72067,31.203558 C121.72067,30.6843229 121.773212,30.2006307 121.875204,29.7571174 C121.980287,29.3120587 122.154911,28.9226324 122.400621,28.5888383 C122.64633,28.2550443 122.969307,27.9892454 123.36955,27.7960776 L123.371096,27.7960776 C123.77134,27.6029098 124.261213,27.5055532 124.840717,27.5055532 C124.862351,27.5055532 124.887077,27.5086439 124.905621,27.5101892 L125.097244,27.5101892 C125.57939,27.5101892 125.973453,27.1161268 125.973453,26.6339799 L125.973453,25.4471568 C125.973453,25.3420735 125.953363,25.2400809 125.919366,25.1473603 C125.803465,24.8290198 125.506759,24.5972184 125.155967,24.5740382 C125.155967,24.5740382 125.140513,24.5740382 125.117333,24.5740382 C124.880896,24.581765 124.647549,24.6126718 124.421929,24.6636681 C124.262759,24.7069377 124.125223,24.748662 124.125223,24.748662 C123.754341,24.8691987 123.406639,25.0345503 123.080571,25.249353 C122.752959,25.4657009 122.46398,25.7237731 122.210544,26.0282056 C121.958653,26.3341835 121.757758,26.6648868 121.609405,27.0187703 L121.60786,27.0172249 L121.566136,27.0172249 L121.56459,25.7608614 C121.56459,25.2787145 121.172073,24.8831068 120.688381,24.8831068 L119.435108,24.8831068 C118.952961,24.8831068 118.558899,25.2787145 118.558899,25.7608614 L118.558899,35.5135186 C118.558899,35.9972108 118.952961,36.3912732 119.435108,36.3912732 L120.842915,36.3912732 C121.325062,36.3912732 121.719125,35.9972108 121.719125,35.5135186 L121.719125,31.203558 L121.72067,31.203558 Z M148.679172,27.3633817 C148.552454,26.7761515 148.333015,26.2800965 148.022401,25.8705807 C147.710242,25.4641556 147.282182,25.1442697 146.741312,24.9140136 C146.200442,24.6837576 145.505038,24.5694022 144.659736,24.5694022 C143.990602,24.5694022 143.336922,24.7223911 142.700241,25.0252783 C142.062015,25.3297108 141.541234,25.8164937 141.139445,26.4840817 L141.074541,26.4840817 L141.074541,25.6820489 C141.074541,25.2416262 140.678933,24.8815614 140.196786,24.8815614 L138.945059,24.8815614 C138.462912,24.8815614 138.067304,25.2756238 138.067304,25.7577707 L138.067304,35.5166093 C138.067304,36.0003015 138.464457,36.3943639 138.945059,36.3943639 L140.352866,36.3943639 C140.835013,36.3943639 141.23062,36.0003015 141.23062,35.5166093 L141.23062,30.359801 C141.23062,29.2734251 141.397517,28.4729377 141.729766,27.9537025 C141.754492,27.9119783 141.782308,27.8717994 141.807033,27.8347112 C142.194914,27.3201121 142.819233,27.0651305 143.679988,27.0651305 C144.435661,27.0651305 144.964168,27.3000226 145.260874,27.7682614 C145.55758,28.2334095 145.705933,28.9442671 145.705933,29.8946529 L145.705933,35.5197 C145.705933,36.0033922 146.099995,36.3974546 146.582142,36.3974546 L147.99304,36.3974546 C148.475187,36.3974546 148.869249,36.0033922 148.869249,35.5197 L148.869249,30.192904 C148.867704,28.1020554 148.708533,27.4993718 148.679172,27.3633817 Z M159.938538,31.3998166 C159.725281,31.0351157 159.451755,30.7291379 159.107144,30.4803377 C158.762532,30.2361736 158.371561,30.035279 157.929593,29.8869261 C157.48917,29.7385733 157.036385,29.6103098 156.572782,29.5052265 C156.123087,29.4016886 155.682665,29.304332 155.249969,29.2147021 C154.815727,29.1266176 154.430937,29.0230796 154.095598,28.911815 C153.758713,28.7990049 153.485187,28.6537427 153.276566,28.474483 C153.067945,28.2967686 152.962862,28.0634219 152.962862,27.7790788 C152.962862,27.5395507 153.02313,27.3494736 153.143667,27.2073021 C153.261113,27.0666759 153.40792,26.9569565 153.580999,26.8827801 C153.752532,26.8070583 153.942609,26.7591527 154.152775,26.7359726 C154.361397,26.7158831 154.55611,26.7035204 154.733824,26.7035204 C155.30251,26.7035204 155.793929,26.8116943 156.214262,27.0280423 C156.480061,27.1671231 156.671684,27.3850165 156.786039,27.6848129 C156.790675,27.6956303 156.793766,27.7064477 156.796857,27.7172651 C156.928211,28.0402417 157.245006,28.2720431 157.612797,28.2720431 L157.614343,28.2720431 L157.614343,28.2720431 L159.054602,28.2720431 C159.53984,28.2720431 159.865907,27.8841621 159.776277,27.4051059 C159.776277,27.4051059 159.695919,26.9600472 159.389941,26.4918084 C159.082418,26.0189336 158.697628,25.64187 158.23248,25.3575269 C157.770422,25.0747292 157.241915,24.8722894 156.65314,24.7517526 C156.061273,24.6327613 155.452408,24.5740382 154.824999,24.5740382 C154.19759,24.5740382 153.585635,24.6296706 152.987587,24.7409352 C152.389539,24.8521999 151.850215,25.0469131 151.372704,25.3250747 C150.895193,25.6001457 150.508857,25.9772093 150.218333,26.4562655 C149.926263,26.9337764 149.782546,27.5488228 149.782546,28.2967686 C149.782546,28.803641 149.88763,29.2317009 150.094706,29.584039 C150.304872,29.9363771 150.581489,30.2269015 150.924555,30.4571576 C151.267621,30.6905043 151.660138,30.8759454 152.102106,31.0181169 C152.542528,31.1618338 152.993768,31.2839159 153.458917,31.3889992 C154.594743,31.6300726 155.480225,31.8680554 156.11536,32.1060381 C156.750496,32.3455662 157.068837,32.7040857 157.068837,33.1815966 C157.068837,33.467485 157.000842,33.7023771 156.866397,33.8893635 C156.731952,34.07635 156.56351,34.2262482 156.36107,34.3359675 C156.161721,34.4487775 155.936101,34.532226 155.688846,34.5832223 C155.443136,34.635764 155.208244,34.6620348 154.982624,34.6620348 C154.66892,34.6620348 154.367578,34.6234013 154.077054,34.5492248 C153.786529,34.4765937 153.51764,34.3715104 153.301292,34.2030681 C152.973679,33.9465412 152.904139,33.8321858 152.752695,33.5972938 C152.579617,33.3237681 152.573435,32.7844435 151.797673,32.7118124 L151.796128,32.7118124 L150.394502,32.7118124 C149.909265,32.7118124 149.569289,33.1043295 149.637284,33.584931 C149.637284,33.584931 149.717642,34.1335276 150.039073,34.6512174 C150.360505,35.1658165 150.771566,35.5815137 151.272257,35.8952182 C151.772948,36.2089228 152.344724,36.4329975 152.987587,36.5674423 C153.628904,36.7018871 154.28722,36.7698821 154.959444,36.7698821 C155.61776,36.7698821 156.263713,36.7049778 156.898849,36.5782597 C157.533985,36.4515416 158.09958,36.2305576 158.590999,35.916853 C159.083964,35.6016031 159.484207,35.1889966 159.790185,34.6728522 C160.097708,34.1567078 160.250697,33.5153906 160.250697,32.755082 C160.250697,32.2188481 160.147159,31.7676081 159.938538,31.3998166 Z M173.608639,30.6518707 C173.608639,31.5728949 173.749265,32.4042893 174.030517,33.1445084 C174.313315,33.8893635 174.713559,34.522954 175.234339,35.0499158 C175.753574,35.5768776 176.376347,35.9817574 177.104204,36.2630098 C177.830515,36.5458075 178.648001,36.6864336 179.553572,36.6864336 C180.459143,36.6864336 181.27972,36.5458075 182.015303,36.2630098 C182.74934,35.9802121 183.37675,35.5768776 183.895985,35.0499158 C184.41522,34.5244993 184.815463,33.8893635 185.098261,33.1445084 C185.377968,32.4042893 185.52014,31.5728949 185.52014,30.6518707 C185.52014,29.7323919 185.377968,28.8963615 185.098261,28.1468704 C184.813918,27.3973792 184.413674,26.7591527 183.895985,26.2306455 C183.37675,25.7067744 182.74934,25.2972586 182.015303,25.0051888 C181.27972,24.7162098 180.459143,24.5724929 179.553572,24.5724929 C178.648001,24.5724929 177.830515,24.7162098 177.104204,25.0051888 C176.376347,25.2957132 175.753574,25.705229 175.234339,26.2306455 C174.713559,26.7591527 174.313315,27.3958338 174.030517,28.1468704 C173.749265,28.8963615 173.608639,29.7323919 173.608639,30.6518707 Z M176.768864,30.6518707 C176.768864,30.192904 176.815225,29.7385733 176.903309,29.2950599 C176.991394,28.8484559 177.144383,28.4559389 177.359185,28.1144182 C177.573988,27.7713521 177.861422,27.4947358 178.216851,27.2783878 C178.573825,27.0635852 179.020429,26.9538659 179.553572,26.9538659 C180.08826,26.9538659 180.53641,27.0635852 180.901111,27.2783878 C181.264266,27.4931904 181.553245,27.7713521 181.768048,28.1144182 C181.98285,28.4543935 182.135839,28.8484559 182.225469,29.2950599 C182.316644,29.7385733 182.358369,30.1913586 182.358369,30.6518707 C182.358369,31.1139282 182.316644,31.5620775 182.225469,32.0009548 C182.137385,32.4382868 181.98285,32.8323492 181.768048,33.1815966 C181.554791,33.5292987 181.264266,33.8090057 180.901111,34.0176269 C180.53641,34.2231575 180.08826,34.3282408 179.553572,34.3282408 C179.018883,34.3282408 178.572279,34.2231575 178.216851,34.0176269 C177.861422,33.8090057 177.573988,33.530844 177.359185,33.1815966 C177.144383,32.8338945 176.992939,32.4382868 176.903309,32.0009548 C176.815225,31.5605322 176.768864,31.1139282 176.768864,30.6518707 Z M172.77879,30.7646807 C172.77879,31.5358067 172.675252,32.2775712 172.466631,32.9930648 C172.2611,33.7039224 171.944305,34.3328768 171.522426,34.8845642 C171.099002,35.4331608 170.570495,35.8720381 169.941541,36.1981054 C169.309496,36.5241727 168.570822,36.687979 167.72552,36.687979 C167.011571,36.687979 166.356346,36.5411714 165.755208,36.2537377 C165.609945,36.1841973 165.47241,36.1069302 165.339511,36.020391 C165.324057,36.0095736 165.31324,35.9987562 165.299332,35.9910295 C165.198884,35.9245797 165.104618,35.8504033 165.011898,35.7746815 C164.909905,35.686597 164.855818,35.627874 164.855818,35.627874 C164.647197,35.3914365 164.460211,35.185906 164.352037,35.0700053 C164.327311,35.0360077 164.299495,35.0051009 164.274769,34.9711033 L164.25468,34.9711033 L164.2315,34.9711033 L164.2315,35.8488579 L164.2315,39.5499535 C164.2315,40.0321004 163.837438,40.4261628 163.355291,40.4261628 L161.947483,40.4261628 C161.466882,40.4261628 161.071274,40.0321004 161.071274,39.5499535 L161.071274,25.759316 C161.071274,25.2771691 161.465337,24.8846521 161.947483,24.8846521 L163.199211,24.8846521 C163.682903,24.8846521 164.076966,25.2153554 164.076966,25.6202352 L164.076966,26.3542729 L164.11869,26.3542729 C164.506571,25.7314999 164.99799,25.2771691 165.591401,24.9959168 C166.184813,24.7146644 166.838493,24.5724929 167.54935,24.5724929 C168.454921,24.5724929 169.235319,24.7424806 169.888999,25.0840013 C170.539588,25.4270674 171.082004,25.8798527 171.5147,26.4423575 C171.944305,27.0079529 172.264191,27.6631781 172.469721,28.4126693 C172.675252,29.1637058 172.77879,29.9471945 172.77879,30.7646807 Z M169.617019,30.6750509 C169.617019,30.2160841 169.569113,29.7617534 169.471757,29.3182401 C169.377491,28.871636 169.21523,28.474483 168.994246,28.1252356 C168.771716,27.7775335 168.484283,27.4962811 168.136581,27.2799332 C167.788879,27.0651305 167.360819,26.9554112 166.857037,26.9554112 C166.337802,26.9554112 165.90047,27.0651305 165.552768,27.2799332 C165.20352,27.4947358 164.922268,27.7728974 164.707465,28.1159635 C164.492663,28.4559389 164.339674,28.8500012 164.251589,29.2950599 C164.160414,29.7401186 164.115599,30.2006307 164.115599,30.6750509 C164.115599,31.135563 164.16505,31.5883484 164.262407,32.033407 C164.358218,32.4784657 164.514298,32.8694374 164.730646,33.2032314 C164.946994,33.5370254 165.231337,33.8074604 165.588311,34.0129909 C165.943739,34.2216122 166.37489,34.3266955 166.880217,34.3266955 C167.397907,34.3266955 167.832148,34.2216122 168.181396,34.0129909 C168.530643,33.8074604 168.813441,33.5370254 169.026698,33.2032314 C169.241501,32.8694374 169.39449,32.4784657 169.484119,32.033407 C169.573749,31.586803 169.617019,31.135563 169.617019,30.6750509 Z M194.51867,33.6745609 C194.51867,34.2556097 194.614481,34.7223032 194.806103,35.077732 C195.000817,35.4347061 195.263525,35.7097771 195.597319,35.9029449 C195.931113,36.0945674 196.318994,36.2259215 196.756326,36.2908259 C196.975765,36.3248235 197.201385,36.349549 197.434731,36.3665477 L197.420823,36.3696384 L197.544451,36.3696384 C197.7438,36.3820011 197.941604,36.3928185 198.14868,36.3928185 C198.446931,36.3928185 199.165515,36.3665477 199.188695,36.3650024 C199.639935,36.3279142 199.998455,35.9523959 199.998455,35.4949745 L199.998455,34.7902983 C199.998455,34.3143327 199.612119,33.923361 199.139244,33.9125436 C199.133063,33.9125436 199.126881,33.9125436 199.123791,33.9125436 L198.867264,33.9125436 C198.42066,33.8970902 198.110046,33.8120964 197.950876,33.6513807 C197.774707,33.4736663 197.683531,33.1166922 197.683531,32.583549 L197.683531,26.8827801 L199.41277,26.8827801 C199.735746,26.8827801 200,26.6200719 200,26.2955499 L200,25.3528909 C200,25.0314597 199.734201,24.7672061 199.41277,24.7672061 L197.683531,24.7672061 L197.683531,22.1942106 C197.683531,21.7105184 197.289469,21.316456 196.807322,21.316456 L195.399515,21.316456 C194.917368,21.316456 194.523306,21.7105184 194.523306,22.1942106 L194.523306,33.6745609 L194.51867,33.6745609 Z M126.522049,27.4112873 C126.263977,28.1793226 126.857389,28.4265774 127.328718,28.4265774 C127.87577,28.4265774 128.634533,28.4265774 128.634533,28.4265774 C129.853808,28.4265774 129.385569,27.6369073 130.136606,27.0914014 C130.495125,26.8286931 130.983454,26.6880669 131.606227,26.6880669 C131.887479,26.6880669 132.150187,26.7081564 132.395897,26.7452446 C132.640061,26.7823328 132.856409,26.8565093 133.04185,26.9677739 C133.227291,27.0790386 133.375644,27.2351182 133.488454,27.4360128 C133.599719,27.6369073 133.655351,27.9073423 133.655351,28.248863 C133.670804,28.5749303 133.574993,28.8252758 133.366372,28.9952635 C133.157751,29.1652511 132.876498,29.2966053 132.519524,29.3846898 C132.165641,29.4743197 131.756125,29.5407694 131.297158,29.5855843 C130.835101,29.6303993 130.366862,29.6906676 129.893987,29.7632987 C129.418021,29.8374752 128.946692,29.9379224 128.478453,30.0646405 C128.01176,30.1913586 127.596063,30.3783451 127.231362,30.6317813 C126.868206,30.8836721 126.5715,31.2205568 126.341244,31.6439807 C126.109443,32.0674046 125.995088,32.6051838 125.995088,33.2604091 C125.995088,33.8538206 126.09708,34.3637837 126.297975,34.7964796 C126.495779,35.2276302 126.775486,35.5846044 127.130914,35.8643114 C127.487889,36.1471091 127.90204,36.3557303 128.378006,36.4870844 C128.852426,36.6230746 129.363934,36.687979 129.914076,36.687979 C130.626479,36.687979 131.323429,36.5828957 132.008016,36.3758198 C132.691057,36.1671985 133.284469,35.8055884 133.78825,35.2848079 C133.803704,35.4795211 133.819157,35.6711435 133.867063,35.8550393 C134.01078,36.3989999 134.683004,36.3989999 134.683004,36.3989999 L136.342702,36.3989999 C137.143189,36.3989999 136.965475,35.8071337 136.906752,35.3311682 C136.848029,34.856748 136.817122,34.3591477 136.817122,33.8399125 L136.817122,28.7232832 C136.817122,28.2411363 136.767671,27.4561022 136.710493,26.9755007 C136.710493,26.9755007 136.661042,26.589165 136.350428,26.1657411 C136.039815,25.7423173 135.638025,25.4116139 135.146607,25.1736312 C134.656733,24.9356484 134.115863,24.7764781 133.520906,24.6930296 C132.927495,24.6126718 132.34181,24.5724929 131.762306,24.5724929 C131.12408,24.5740382 130.488944,24.6358519 129.858444,24.7610247 C129.227944,24.8877428 128.659258,25.0994547 128.153931,25.3961605 C127.648604,25.6928663 127.232907,26.0869287 126.90684,26.5752569 C126.743033,26.8240571 126.624042,27.1022188 126.522049,27.4112873 Z M133.653806,30.7646807 L133.653806,31.0675679 C133.653806,31.5512601 133.646079,32.1307636 133.633716,32.3594743 C133.633716,32.3594743 133.633716,32.3594743 133.598173,32.6561801 C133.55954,32.9528859 133.460638,33.246501 133.296831,33.5354801 C133.133025,33.8244591 132.88268,34.0732593 132.539614,34.2818805 C132.198093,34.4905018 131.715946,34.5940397 131.093173,34.5940397 C130.839737,34.5940397 130.595573,34.5708596 130.359135,34.5291354 C130.121152,34.4843204 129.912531,34.4055079 129.734817,34.2942433 C129.557102,34.1829786 129.416476,34.031535 129.312938,33.8368219 C129.207855,33.6451994 129.156859,33.4072166 129.156859,33.1244189 C129.156859,32.8292585 129.207855,32.5820037 129.312938,32.3903812 C129.416476,32.195668 129.554012,32.0380431 129.725545,31.911325 C129.895532,31.7846069 130.096427,31.6857049 130.326683,31.6099832 C130.556939,31.5358067 130.78874,31.4770837 131.026723,31.4322688 C131.278614,31.3874538 131.530505,31.3503656 131.782396,31.3194587 C132.037377,31.2900972 132.276905,31.253009 132.507161,31.2097394 C132.735872,31.1649245 132.950675,31.1092921 133.153115,31.0412971 C133.352464,30.973302 133.519361,30.8821268 133.653806,30.7646807 Z" id="Shape" fill="#939598"/>
    </g>
    <g id="Group" transform="translate(-102, 0.460000) scale(2.0, 2.0)" fill-rule="nonzero">
          <path d="M54.2973717,33.8306405 C54.235558,33.8909089 54.1984698,33.9743574 54.1984698,34.0655326 L54.1984698,34.0670779 L54.1984698,34.0686233 C54.1984698,34.2494283 54.3452773,34.3977812 54.5276278,34.3977812 C54.5878961,34.3977812 54.6435284,34.3823278 54.6914341,34.3545116 L54.7192502,34.3297862 C59.2687389,30.2361736 66.7342891,24.5292233 76.5054904,25.0190969 C80.2977612,25.2076287 83.7361485,26.4052692 86.8701033,28.1978667 C90.098324,30.0445511 96.1607031,36.1687439 96.1607031,36.1687439 C97.1419957,37.1716712 98.5188959,37.802171 100.019424,37.8114431 C100.019424,37.8114431 100.887906,37.7944443 101.632761,37.5549162 C101.850655,37.4853758 101.946466,37.4451969 101.946466,37.4451969 C102.36989,37.2674825 104.860982,36.0543885 104.49319,32.9096163 C104.343292,31.631618 103.709702,30.3366208 102.512061,29.1822499 C102.249353,28.9288137 93.5568008,19.1050707 76.9969094,20.6457773 C66.1285148,22.1277609 58.560972,28.8237304 54.2973717,33.8306405" id="Path" fill="url(#linearGradient-1)"/>
          <path d="M54.849059,34.135073 C54.8181522,34.2849712 54.6852527,34.3977812 54.5276278,34.3977812 C54.3468227,34.3977812 54.1984698,34.2509737 54.1984698,34.0686233 C54.1984698,34.0686233 54.2000151,34.0408071 54.2015605,34.026899 C54.3839109,31.523444 58.7155062,7.97396788 63.3886223,37.3339322 C63.3886223,37.3339322 63.3948037,37.3911099 63.3978944,37.4312888 C63.4025304,37.5070106 63.3808956,37.5780963 63.3808956,37.5780963 C63.33299,37.7650828 63.1475488,37.8176244 62.9961053,37.7820816 C62.8709325,37.75272 62.7689399,37.6630902 62.7411237,37.5286454 C62.7411237,37.5286454 60.4586527,26.2754605 57.952107,26.4006332 C56.8765485,26.476355 56.0961505,28.4389401 54.8598764,34.0871674 C54.8552404,34.1026208 54.849059,34.135073 54.849059,34.135073 Z" id="Path" fill="url(#linearGradient-2)"/>
          <path d="M105.242682,30.5467874 C104.930522,29.2131568 98.2082821,-0.837575696 82.204714,3.11541071 C78.5577054,4.01480011 75.7390005,7.17038973 73.4426213,10.2270774 C67.2612509,18.4652989 63.6142423,33.977448 62.7503958,37.3787471 C62.6947635,37.5935498 62.8261176,37.743448 62.9945599,37.7820816 C63.1460035,37.8176244 63.3298993,37.7650828 63.3793502,37.5780963 C63.8522251,35.7561374 65.164221,31.3240948 65.7947207,29.5747669 C67.8469357,23.6700128 73.9757645,12.8417971 80.6284645,12.9067015 C89.4075559,12.99015 93.6186145,29.2517903 94.8131643,33.7842802 C95.3880318,36.0729326 97.5329673,37.797535 100.020969,37.8114794 C103.008116,37.8222605 105.445122,35.4146167 105.45903,32.4228334 C105.45903,32.1724879 105.432759,31.356547 105.242682,30.5467874 Z" id="Path" fill="url(#linearGradient-3)"/>
          <path d="M104.018819,32.3764731 C104.007953,34.6033118 102.195266,36.3974546 99.9684273,36.3882183 C97.7415886,36.3758198 95.9474458,34.5631329 95.9582146,32.3393849 C95.9690806,30.1125462 97.7817675,28.3153127 100.007061,28.327612 C102.235445,28.3384928 104.029588,30.1511797 104.018819,32.3764731 Z" id="Path" fill="#21A6DF"/>
      </g>
  </g>
</svg>